<?xml version="1.0" encoding="UTF-8"?>
<svg width="97px" height="101px" viewBox="0 0 97 101" version="1.1" xmlns="http://www.w3.org/2000/svg" xmlns:xlink="http://www.w3.org/1999/xlink">
    <!-- Generator: Sketch 60 (88103) - https://sketch.com -->
    <title>metamask</title>
    <desc>Created with Sketch.</desc>
    <defs>
        <rect id="path-1" x="0" y="0" width="260" height="180" rx="20"></rect>
        <rect id="path-3" x="0" y="0" width="260" height="180" rx="20"></rect>
        <filter x="-11.5%" y="-16.7%" width="123.1%" height="133.3%" filterUnits="objectBoundingBox" id="filter-4">
            <feOffset dx="0" dy="0" in="SourceAlpha" result="shadowOffsetOuter1"></feOffset>
            <feGaussianBlur stdDeviation="10" in="shadowOffsetOuter1" result="shadowBlurOuter1"></feGaussianBlur>
            <feComposite in="shadowBlurOuter1" in2="SourceAlpha" operator="out" result="shadowBlurOuter1"></feComposite>
            <feColorMatrix values="0 0 0 0 0.701960784   0 0 0 0 0.62745098   0 0 0 0 0.976470588  0 0 0 0.5 0" type="matrix" in="shadowBlurOuter1"></feColorMatrix>
        </filter>
        <rect id="path-5" x="0" y="0" width="260" height="180" rx="20"></rect>
        <rect id="path-7" x="0" y="0" width="360" height="372" rx="20"></rect>
        <filter x="-8.3%" y="-8.1%" width="116.7%" height="116.1%" filterUnits="objectBoundingBox" id="filter-8">
            <feOffset dx="0" dy="0" in="SourceAlpha" result="shadowOffsetOuter1"></feOffset>
            <feGaussianBlur stdDeviation="10" in="shadowOffsetOuter1" result="shadowBlurOuter1"></feGaussianBlur>
            <feComposite in="shadowBlurOuter1" in2="SourceAlpha" operator="out" result="shadowBlurOuter1"></feComposite>
            <feColorMatrix values="0 0 0 0 0.701960784   0 0 0 0 0.62745098   0 0 0 0 0.976470588  0 0 0 0.5 0" type="matrix" in="shadowBlurOuter1"></feColorMatrix>
        </filter>
    </defs>
    <g id="页面-1" stroke="none" stroke-width="1" fill="none" fill-rule="evenodd">
        <g id="Shield-链接钱包" transform="translate(-671.000000, -349.000000)">
            <g id="编组-4" transform="translate(443.000000, 425.000000)">
                <rect id="矩形" stroke="#282828" fill="#1D1C1E" x="0.5" y="0.5" width="259" height="179" rx="20"></rect>
                <g id="multi-collateral-dai-dai-logo-2">
                    <mask id="mask-2" fill="white">
                        <use xlink:href="#path-1"></use>
                    </mask>
                    <use id="蒙版" fill="#1D1C1E" xlink:href="#path-1"></use>
                </g>
            </g>
            <g id="编组-5" transform="translate(737.000000, 425.000000)">
                <g id="矩形">
                    <use fill="black" fill-opacity="1" filter="url(#filter-4)" xlink:href="#path-3"></use>
                    <rect stroke="#282828" stroke-width="1" stroke-linejoin="square" fill="#1D1C1E" fill-rule="evenodd" x="0.5" y="0.5" width="259" height="179" rx="20"></rect>
                </g>
                <g id="tether-usdt-logo">
                    <mask id="mask-6" fill="white">
                        <use xlink:href="#path-5"></use>
                    </mask>
                    <rect stroke="#B3A0F9" stroke-width="2" x="1" y="1" width="258" height="178" rx="20"></rect>
                </g>
            </g>
            <g id="编组-11" transform="translate(628.000000, 332.000000)">
                <g id="编组-2">
                    <g id="编组-15">
                        <rect id="矩形" stroke="#B9AAFF" x="0.5" y="0.5" width="149" height="35" rx="17.5"></rect>
                        <text id="Check-Tutorial" font-family="Helvetica" font-size="14" font-weight="normal" fill="#B9AAFF">
                            <tspan x="29" y="23">Check Tutorial</tspan>
                        </text>
                    </g>
                </g>
            </g>
            <rect id="矩形" fill-opacity="0.6" fill="#000000" x="0" y="0" width="1440" height="800"></rect>
            <g id="编组-3" transform="translate(540.000000, 192.000000)">
                <g id="编组-14">
                    <g id="矩形">
                        <use fill="black" fill-opacity="1" filter="url(#filter-8)" xlink:href="#path-7"></use>
                        <rect stroke="#B9AAFF" stroke-width="2" stroke-linejoin="square" fill="#1D1C1E" fill-rule="evenodd" x="1" y="1" width="358" height="370" rx="20"></rect>
                    </g>
                </g>
            </g>
            <g id="metamask" transform="translate(672.000000, 350.000000)" fill-rule="nonzero" stroke-width="0.5">
                <polygon id="路径" stroke="#E4761B" fill="#E4761B" points="90.6997624 69.0019406 84.8920792 88.6385743 73.4909307 85.5205149"></polygon>
                <polygon id="路径" stroke="#E4761B" fill="#E4761B" points="73.4909307 85.5205149 84.4874455 70.4538614 90.6997624 69.0019406"></polygon>
                <path d="M82.1548515,54.1971089 L90.6997624,69.0019406 L84.4874455,70.4538614 L82.1548515,54.1971089 Z M82.1548515,54.1971089 L87.6531089,50.3887921 L90.6997624,69.0019406 L82.1548515,54.1971089 Z" id="形状" stroke="#F6851B" fill="#F6851B"></path>
                <path d="M75.1570693,43.0101782 L90.9615842,36.5360396 L90.1761188,40.0825347 L75.1570693,43.0101782 Z M89.6762772,44.3430891 L75.1570693,43.0101782 L90.1761188,40.0825347 L89.6762772,44.3430891 Z" id="形状" stroke="#763D16" fill="#763D16"></path>
                <path d="M89.6762772,44.3430891 L87.6531089,50.3887921 L75.1570693,43.0101782 L89.6762772,44.3430891 Z M92.8419406,38.0355644 L90.1761188,40.0825347 L90.9615842,36.5360396 L92.8419406,38.0355644 Z M89.6762772,44.3430891 L90.1761188,40.0825347 L92.294495,41.8438812 L89.6762772,44.3430891 Z" id="形状" stroke="#763D16" fill="#763D16"></path>
                <polygon id="路径" stroke="#E2761B" fill="#E2761B" points="61.2329109 80.7363168 65.1840396 81.9978218 73.4909307 85.5205149"></polygon>
                <path d="M87.6531089,50.3887921 L89.6762772,44.3430891 L91.4138218,45.676 L87.6531089,50.3887921 Z M87.6531089,50.3887921 L71.2535446,44.9857426 L75.1570693,43.0101782 L87.6531089,50.3887921 Z" id="形状" stroke="#763D16" fill="#763D16"></path>
                <polygon id="路径" stroke="#763D16" fill="#763D16" points="79.0605941 24.4684356 75.1570693 43.0101782 71.2535446 44.9857426"></polygon>
                <polygon id="路径" stroke="#763D16" fill="#763D16" points="90.9615842 36.5360396 75.1570693 43.0101782 79.0605941 24.4684356"></polygon>
                <polygon id="路径" stroke="#763D16" fill="#763D16" points="79.0605941 24.4684356 95.5553663 22.5642772 90.9615842 36.5360396"></polygon>
                <polygon id="路径" stroke="#F6851B" fill="#F6851B" points="87.6531089 50.3887921 82.1548515 54.1971089 71.2535446 44.9857426"></polygon>
                <polygon id="路径" stroke="#763D16" fill="#763D16" points="94.8413069 9.21136634 95.5553663 22.5642772 79.0605941 24.4684356"></polygon>
                <polygon id="路径" stroke="#E2761B" fill="#E2761B" points="94.8413069 9.21136634 61.8755644 33.1799604 61.4471287 16.9232079"></polygon>
                <polygon id="路径" stroke="#F6851B" fill="#F6851B" points="36.9310891 14.9714455 61.4471287 16.9232079 61.8755644 33.1799604"></polygon>
                <polygon id="路径" stroke="#763D16" fill="#763D16" points="71.2535446 44.9857426 61.8755644 33.1799604 79.0605941 24.4684356"></polygon>
                <polygon id="路径" stroke="#E4761B" fill="#E4761B" points="71.2535446 44.9857426 82.1548515 54.1971089 66.8501782 55.8870495"></polygon>
                <polygon id="路径" stroke="#E4761B" fill="#E4761B" points="66.8501782 55.8870495 61.8755644 33.1799604 71.2535446 44.9857426"></polygon>
                <polygon id="路径" stroke="#763D16" fill="#763D16" points="79.0605941 24.4684356 61.8755644 33.1799604 94.8413069 9.21136634"></polygon>
                <polygon id="路径" stroke="#C0AD9E" fill="#C0AD9E" points="37.1453069 85.1396832 44.9285545 93.2561584 34.3366733 83.6163564"></polygon>
                <polygon id="路径" stroke="#CD6116" fill="#CD6116" points="73.4909307 85.5205149 77.1802376 71.5011485 84.4874455 70.4538614"></polygon>
                <polygon id="路径" stroke="#E2761B" fill="#E2761B" points="5.58388119 46.0806337 19.055802 31.9184554 7.32142574 44.3906931"></polygon>
                <path d="M84.4874455,70.4538614 L77.1802376,71.5011485 L82.1548515,54.1971089 L84.4874455,70.4538614 Z M61.8755644,33.1799604 L48.7606733,32.7515248 L36.9310891,14.9714455 L61.8755644,33.1799604 Z" id="形状" stroke="#F6851B" fill="#F6851B"></path>
                <polygon id="路径" stroke="#E4751F" fill="#E4751F" points="82.1548515 54.1971089 77.1802376 71.5011485 76.775604 63.0514455"></polygon>
                <polygon id="路径" stroke="#CD6116" fill="#CD6116" points="66.8501782 55.8870495 82.1548515 54.1971089 76.775604 63.0514455"></polygon>
                <polygon id="路径" stroke="#F6851B" fill="#F6851B" points="48.7606733 32.7515248 61.8755644 33.1799604 66.8501782 55.8870495"></polygon>
                <path d="M48.7606733,32.7515248 L13.3671287,0 L36.9310891,14.9714455 L48.7606733,32.7515248 Z M36.9072871,90.114297 L6.15512871,99.6350891 L0.0142178218,76.1901386 L36.9072871,90.114297 Z" id="形状" stroke="#E4761B" fill="#E4761B"></path>
                <polygon id="路径" stroke="#763D16" fill="#763D16" points="10.1538614 51.9359208 21.7692277 42.8197624 31.5042376 45.0809505"></polygon>
                <polygon id="路径" stroke="#763D16" fill="#763D16" points="31.5042376 45.0809505 21.7692277 42.8197624 26.9818614 21.3027723"></polygon>
                <polygon id="路径" stroke="#763D16" fill="#763D16" points="7.32142574 44.3906931 21.7692277 42.8197624 10.1538614 51.9359208"></polygon>
                <polygon id="路径" stroke="#CD6116" fill="#CD6116" points="76.775604 63.0514455 70.777505 60.0285941 66.8501782 55.8870495"></polygon>
                <polygon id="路径" stroke="#763D16" fill="#763D16" points="7.32142574 44.3906931 6.29794059 38.9876436 21.7692277 42.8197624"></polygon>
                <polygon id="路径" stroke="#233447" fill="#233447" points="69.539802 66.8359604 70.777505 60.0285941 76.775604 63.0514455"></polygon>
                <polygon id="路径" stroke="#F6851B" fill="#F6851B" points="77.1802376 71.5011485 69.539802 66.8359604 76.775604 63.0514455"></polygon>
                <path d="M21.7692277,42.8197624 L6.29794059,38.9876436 L5.03643564,34.4414653 L21.7692277,42.8197624 Z M26.9818614,21.3027723 L21.7692277,42.8197624 L5.03643564,34.4414653 L26.9818614,21.3027723 Z M26.9818614,21.3027723 L48.7606733,32.7515248 L31.5042376,45.0809505 L26.9818614,21.3027723 Z" id="形状" stroke="#763D16" fill="#763D16"></path>
                <path d="M31.5042376,45.0809505 L48.7606733,32.7515248 L56.4487129,56.2440792 L31.5042376,45.0809505 Z M56.4487129,56.2440792 L32.5991287,55.7442376 L31.5042376,45.0809505 L56.4487129,56.2440792 Z" id="形状" stroke="#E4761B" fill="#E4761B"></path>
                <path d="M10.1538614,51.9359208 L31.5042376,45.0809505 L32.5991287,55.7442376 L10.1538614,51.9359208 Z M66.8501782,55.8870495 L56.4487129,56.2440792 L48.7606733,32.7515248 L66.8501782,55.8870495 Z" id="形状" stroke="#F6851B" fill="#F6851B"></path>
                <polygon id="路径" stroke="#CD6116" fill="#CD6116" points="70.777505 60.0285941 69.539802 66.8359604 66.8501782 55.8870495"></polygon>
                <polygon id="路径" stroke="#763D16" fill="#763D16" points="13.3671287 0 48.7606733 32.7515248 26.9818614 21.3027723"></polygon>
                <polygon id="路径" stroke="#E4761B" fill="#E4761B" points="0.0142178218 76.1901386 29.861901 74.9524356 36.9072871 90.114297"></polygon>
                <polygon id="路径" stroke="#CD6116" fill="#CD6116" points="36.9072871 90.114297 29.861901 74.9524356 44.5239208 74.2383762"></polygon>
                <path d="M69.539802,66.8359604 L77.1802376,71.5011485 L81.3931881,81.4265743 L69.539802,66.8359604 Z M32.5991287,55.7442376 L0.0142178218,76.1901386 L10.1538614,51.9359208 L32.5991287,55.7442376 Z M29.861901,74.9524356 L0.0142178218,76.1901386 L32.5991287,55.7442376 L29.861901,74.9524356 Z M66.8501782,55.8870495 L68.8019406,62.9800396 L59.3763564,63.5274851 L66.8501782,55.8870495 Z M59.3763564,63.5274851 L56.4487129,56.2440792 L66.8501782,55.8870495 L59.3763564,63.5274851 Z" id="形状" stroke="#F6851B" fill="#F6851B"></path>
                <polygon id="路径" stroke="#C0AD9E" fill="#C0AD9E" points="44.9285545 93.2561584 36.9072871 90.114297 64.8032079 94.8032871"></polygon>
                <polygon id="路径" stroke="#763D16" fill="#763D16" points="10.1538614 51.9359208 5.58388119 46.0806337 7.32142574 44.3906931"></polygon>
                <polygon id="路径" stroke="#D7C1B3" fill="#D7C1B3" points="67.9688713 91.328198 64.8032079 94.8032871 36.9072871 90.114297"></polygon>
                <polygon id="路径" stroke="#E4761B" fill="#E4761B" points="69.468396 82.8070891 36.9072871 90.114297 44.5239208 74.2383762"></polygon>
                <polygon id="路径" stroke="#D7C1B3" fill="#D7C1B3" points="36.9072871 90.114297 69.468396 82.8070891 67.9688713 91.328198"></polygon>
                <path d="M5.03643564,34.4414653 L3.96534653,16.1377426 L26.9818614,21.3027723 L5.03643564,34.4414653 Z M7.32142574,44.3906931 L4.15576238,41.1774257 L6.29794059,38.9876436 L7.32142574,44.3906931 Z" id="形状" stroke="#763D16" fill="#763D16"></path>
                <polygon id="路径" stroke="#CD6116" fill="#CD6116" points="51.1170693 60.9568713 56.4487129 56.2440792 55.6870495 67.7642376"></polygon>
                <polygon id="路径" stroke="#CD6116" fill="#CD6116" points="56.4487129 56.2440792 51.1170693 60.9568713 43.3576238 64.9794059"></polygon>
                <polygon id="路径" stroke="#F6851B" fill="#F6851B" points="81.3931881 81.4265743 79.9412673 80.3554851 69.539802 66.8359604"></polygon>
                <polygon id="路径" stroke="#CD6116" fill="#CD6116" points="43.3576238 64.9794059 32.5991287 55.7442376 56.4487129 56.2440792"></polygon>
                <polygon id="路径" stroke="#E4751F" fill="#E4751F" points="55.6870495 67.7642376 56.4487129 56.2440792 59.3763564 63.5274851"></polygon>
                <polygon id="路径" stroke="#763D16" fill="#763D16" points="3.10847525 36.2504158 5.03643564 34.4414653 6.29794059 38.9876436"></polygon>
                <polygon id="路径" stroke="#233447" fill="#233447" points="55.6870495 67.7642376 43.3576238 64.9794059 51.1170693 60.9568713"></polygon>
                <polygon id="路径" stroke="#763D16" fill="#763D16" points="26.9818614 21.3027723 3.96534653 16.1377426 13.3671287 0"></polygon>
                <polygon id="路径" stroke="#C0AD9E" fill="#C0AD9E" points="64.8032079 94.8032871 66.1123168 98.3735842 44.9285545 93.2561584"></polygon>
                <polygon id="路径" stroke="#F6851B" fill="#F6851B" points="44.5239208 74.2383762 43.3576238 64.9794059 55.6870495 67.7642376"></polygon>
                <polygon id="路径" stroke="#E4751F" fill="#E4751F" points="32.5991287 55.7442376 43.3576238 64.9794059 44.5239208 74.2383762"></polygon>
                <path d="M59.3763564,63.5274851 L68.8019406,62.9800396 L79.9412673,80.3554851 L59.3763564,63.5274851 Z M32.5991287,55.7442376 L44.5239208,74.2383762 L29.861901,74.9524356 L32.5991287,55.7442376 Z" id="形状" stroke="#F6851B" fill="#F6851B"></path>
                <polygon id="路径" stroke="#E4751F" fill="#E4751F" points="59.3763564 63.5274851 71.0869307 81.3551683 55.6870495 67.7642376"></polygon>
                <polygon id="路径" stroke="#F6851B" fill="#F6851B" points="55.6870495 67.7642376 71.0869307 81.3551683 69.468396 82.8070891"></polygon>
                <path d="M69.468396,82.8070891 L44.5239208,74.2383762 L55.6870495,67.7642376 L69.468396,82.8070891 Z M79.9412673,80.3554851 L71.0869307,81.3551683 L59.3763564,63.5274851 L79.9412673,80.3554851 Z" id="形状" stroke="#F6851B" fill="#F6851B"></path>
                <path d="M82.2738614,88.7337822 L78.4655446,96.3742178 L66.1123168,98.3735842 L82.2738614,88.7337822 Z M66.1123168,98.3735842 L64.8032079,94.8032871 L67.9688713,91.328198 L66.1123168,98.3735842 Z" id="形状" stroke="#C0AD9E" fill="#C0AD9E"></path>
                <path d="M67.9688713,91.328198 L70.3014653,90.3999208 L66.1123168,98.3735842 L67.9688713,91.328198 Z M66.1123168,98.3735842 L70.3014653,90.3999208 L82.2738614,88.7337822 L66.1123168,98.3735842 Z" id="形状" stroke="#C0AD9E" fill="#C0AD9E"></path>
                <polygon id="路径" stroke="#161616" fill="#161616" points="79.9412673 80.3554851 82.8689109 82.1406337 73.9669703 83.2117228"></polygon>
                <path d="M73.9669703,83.2117228 L71.0869307,81.3551683 L79.9412673,80.3554851 L73.9669703,83.2117228 Z M72.9434851,84.6160396 L83.7733861,83.3069307 L82.2738614,88.7337822 L72.9434851,84.6160396 Z" id="形状" stroke="#161616" fill="#161616"></path>
                <path d="M82.2738614,88.7337822 L70.3014653,90.3999208 L72.9434851,84.6160396 L82.2738614,88.7337822 Z M70.3014653,90.3999208 L67.9688713,91.328198 L69.468396,82.8070891 L70.3014653,90.3999208 Z M69.468396,82.8070891 L71.0869307,81.3551683 L73.9669703,83.2117228 L69.468396,82.8070891 Z M82.8689109,82.1406337 L83.7733861,83.3069307 L72.9434851,84.6160396 L82.8689109,82.1406337 Z" id="形状" stroke="#161616" fill="#161616"></path>
                <path d="M72.9434851,84.6160396 L73.9669703,83.2117228 L82.8689109,82.1406337 L72.9434851,84.6160396 Z M69.468396,82.8070891 L72.9434851,84.6160396 L70.3014653,90.3999208 L69.468396,82.8070891 Z" id="形状" stroke="#161616" fill="#161616"></path>
                <polygon id="路径" stroke="#161616" fill="#161616" points="73.9669703 83.2117228 72.9434851 84.6160396 69.468396 82.8070891"></polygon>
            </g>
        </g>
    </g>
</svg>