<?xml version="1.0" encoding="UTF-8"?>
<svg width="45px" height="45px" viewBox="0 0 45 45" version="1.1" xmlns="http://www.w3.org/2000/svg" xmlns:xlink="http://www.w3.org/1999/xlink">
    <!-- Generator: Sketch 60 (88103) - https://sketch.com -->
    <title>S_DAI</title>
    <desc>Created with Sketch.</desc>
    <g id="S_DAI" stroke="none" stroke-width="1" fill="none" fill-rule="evenodd">
        <g id="multi-collateral-dai-dai-logo-3" fill-rule="nonzero">
            <path d="M22.5,0 C34.9275493,0 45,10.0744757 45,22.5 C45,34.9275493 34.9275493,45 22.5,45 C10.0744757,45 0,34.9265368 0,22.5 C0,10.0744757 10.0744757,0 22.5,0 Z" id="路径" fill="#B9AAFF"></path>
            <path d="M23.3292458,24.0886284 L31.8788813,24.0886284 C32.0611331,24.0886284 32.1471965,24.0886284 32.1603591,23.849676 C32.2302223,22.9799298 32.2302223,22.1051211 32.1603591,21.2343623 C32.1603591,21.0652732 32.0763208,20.99541 31.8930564,20.99541 L14.8778238,20.99541 C14.6672217,20.99541 14.6105211,21.0652732 14.6105211,21.2627126 L14.6105211,23.7656377 C14.6105211,24.0886284 14.6105211,24.0886284 14.947687,24.0886284 L23.3292458,24.0886284 L23.3292458,24.0886284 Z M31.2055621,18.0702682 C31.2298623,18.0064801 31.2298623,17.9366169 31.2055621,17.8738412 C31.0627981,17.5630006 30.8937089,17.2663352 30.697282,16.9878949 C30.401629,16.5120151 30.0533255,16.0735982 29.6564216,15.6797318 C29.4691072,15.4417919 29.25243,15.2281523 29.0094276,15.046913 C27.7923904,14.0111151 26.3455135,13.2780578 24.7902979,12.9095041 C24.0056026,12.7333273 23.2036945,12.649289 22.3997615,12.6563766 L14.848461,12.6563766 C14.6378589,12.6563766 14.6095086,12.7404149 14.6095086,12.9236792 L14.6095086,17.9153542 C14.6095086,18.1259563 14.6095086,18.1826568 14.8768113,18.1826568 L31.104311,18.1826568 C31.104311,18.1826568 31.24505,18.1543065 31.2734002,18.0702682 L31.2045495,18.0702682 L31.2055621,18.0702682 Z M31.2055621,27.0137701 C30.9666097,26.9874449 30.7256323,26.9874449 30.4866799,27.0137701 L14.8919989,27.0137701 C14.6813968,27.0137701 14.6105211,27.0137701 14.6105211,27.295248 L14.6105211,32.1755468 C14.6105211,32.400324 14.6105211,32.4570246 14.8919989,32.4570246 L22.0919584,32.4570246 C22.4362119,32.4833498 22.7804653,32.4590496 23.1176312,32.3871614 C24.1625416,32.3122356 25.1902394,32.0854334 26.1703492,31.7118171 C26.5267528,31.5882909 26.8710062,31.4273018 27.196022,31.2339123 L27.2942354,31.2339123 C28.9820898,30.3560661 30.3530285,28.9770273 31.2177122,27.2841103 C31.2177122,27.2841103 31.3159257,27.0714832 31.2055621,27.0157952 L31.2055621,27.0137701 Z M11.7846053,34.9872874 L11.7846053,34.903249 L11.7846053,31.6267663 L11.7846053,30.5160427 L11.7846053,27.2112096 C11.7846053,27.0279453 11.7846053,27.0006075 11.5598281,27.0006075 L8.50812258,27.0006075 C8.33903339,27.0006075 8.26917019,27.0006075 8.26917019,26.7758303 L8.26917019,24.103816 L11.5314778,24.103816 C11.7137296,24.103816 11.7846053,24.103816 11.7846053,23.8648636 L11.7846053,21.2211997 C11.7846053,21.0521105 11.7846053,21.0105976 11.5598281,21.0105976 L8.50812258,21.0105976 C8.33903339,21.0105976 8.26917019,21.0105976 8.26917019,20.7858204 L8.26917019,18.3112456 C8.26917019,18.1563316 8.26917019,18.1148186 8.49394744,18.1148186 L11.5173027,18.1148186 C11.7279048,18.1148186 11.7846053,18.1148186 11.7846053,17.847516 L11.7846053,10.2678652 C11.7846053,10.0430879 11.7846053,9.98638736 12.0660832,9.98638736 L22.6123886,9.98638736 C23.3778463,10.0167627 24.1382414,10.100801 24.8905364,10.2395149 C26.4406894,10.5260553 27.9300918,11.0798983 29.2919179,11.8706687 C30.195077,12.4022365 31.0263478,13.0441679 31.7664927,13.7833003 C32.3233732,14.3614436 32.8255783,14.9871749 33.2710827,15.6534065 C33.7135496,16.3287508 34.0810908,17.0506705 34.3696562,17.8049905 C34.4050941,18.0014175 34.5934209,18.1340563 34.7898479,18.1006435 L37.3069481,18.1006435 C37.6299388,18.1006435 37.6299388,18.1006435 37.6441139,18.4104716 L37.6441139,20.7169697 C37.6441139,20.9417469 37.5600756,20.9984475 37.3342858,20.9984475 L35.3933039,20.9984475 C35.196877,20.9984475 35.1401764,20.9984475 35.1543515,21.251575 C35.2313023,22.1081586 35.2313023,22.9677797 35.1543515,23.8243632 C35.1543515,24.0633156 35.1543515,24.0916659 35.4226667,24.0916659 L37.6431014,24.0916659 C37.7413149,24.2182297 37.6431014,24.3447934 37.6431014,24.4723697 C37.6572766,24.6353839 37.6572766,24.800423 37.6431014,24.9634371 L37.6431014,26.6654667 C37.6431014,26.904419 37.5732382,26.9752948 37.3616236,26.9752948 L34.7037845,26.9752948 C34.5184952,26.9398569 34.3382684,27.0583206 34.295743,27.2425974 C33.6629241,28.8879264 32.650414,30.3631536 31.3422509,31.5457655 C30.8643461,31.9760823 30.3621411,32.3810863 29.8376609,32.7547025 C29.2747052,33.0787058 28.7269373,33.4158717 28.1498065,33.6831743 C27.0876834,34.1610791 25.9739222,34.5134326 24.8307983,34.7371974 C23.7453875,34.9315993 22.6447889,35.0196877 21.5401404,35.0045 L11.7805553,35.0045 L11.7805553,34.9903249 L11.7846053,34.9872874 Z" id="形状" fill="#0B000E"></path>
        </g>
    </g>
</svg>