<?xml version="1.0" encoding="UTF-8"?>
<svg width="79px" height="153px" viewBox="0 0 79 153" version="1.1" xmlns="http://www.w3.org/2000/svg" xmlns:xlink="http://www.w3.org/1999/xlink">
    <!-- Generator: Sketch 60 (88103) - https://sketch.com -->
    <title>编组 6</title>
    <desc>Created with Sketch.</desc>
    <defs>
        <path d="M0,0 L92.6111411,0 C103.656836,-1.18396092e-14 112.611141,8.954305 112.611141,20 L112.611141,160 C112.611141,171.045695 103.656836,180 92.6111411,180 L0,180 L0,180 L0,0 Z" id="path-1"></path>
    </defs>
    <g id="页面-1" stroke="none" stroke-width="1" fill="none" fill-rule="evenodd">
        <g id="Shield-未链接钱包" transform="translate(-1211.000000, -438.000000)">
            <g id="编组-6" transform="translate(1177.000000, 425.000000)">
                <g id="形状结合">
                    <mask id="mask-2" fill="white">
                        <use xlink:href="#path-1"></use>
                    </mask>
                    <g id="蒙版"></g>
                    <path d="M123.424172,104.91072 L123.626945,105.106076 C126.830417,108.298271 126.830417,113.474683 123.626945,116.666878 L77.5279359,162.605854 C74.3244644,165.798049 69.1297671,165.798049 65.9240508,162.605854 C62.7205793,159.411422 62.7205793,154.23501 65.9240508,151.042815 L112.025305,105.106076 C115.162038,101.980385 120.207893,101.915266 123.424172,104.91072 Z M78.1834465,74.2735425 C81.386918,77.4679746 81.386918,82.6421493 78.1834465,85.8365814 L49.0042438,114.913072 C45.8675113,118.038763 40.8216566,118.103882 37.6053773,115.108428 L37.4026036,114.913072 C34.1991321,111.720877 34.1991321,106.542228 37.4026036,103.350033 L66.5795614,74.2735425 C69.7852778,71.0813474 74.979975,71.0813474 78.1834465,74.2735425 Z M126.394623,63.8931383 L126.597396,64.088494 C129.800868,67.2806891 129.800868,72.4571008 126.597396,75.6492959 L97.4181937,104.725786 C94.2147222,107.917981 89.020025,107.917981 85.8165535,104.725786 C82.613082,101.533591 82.613082,96.3571796 85.8165535,93.1649845 L114.995756,64.088494 C118.132489,60.9628029 123.178343,60.8976844 126.394623,63.8931383 Z M98.0757248,16.3941463 C101.279196,19.5885784 101.279196,24.7649901 98.0757248,27.9571852 L51.9744702,73.8939241 C48.8377378,77.0196151 43.791883,77.0847337 40.5756037,74.0892798 L40.37283,73.8939241 C37.1693586,70.701729 37.1693586,65.5253173 40.37283,62.3331222 L86.4718396,16.3941463 C89.6753111,13.2019512 94.8700084,13.2019512 98.0757248,16.3941463 Z" stroke="#B0A2F3" stroke-width="1.5" mask="url(#mask-2)"></path>
                </g>
            </g>
        </g>
    </g>
</svg>