<?xml version="1.0" encoding="UTF-8"?>
<svg width="228px" height="39px" viewBox="0 0 228 39" version="1.1" xmlns="http://www.w3.org/2000/svg" xmlns:xlink="http://www.w3.org/1999/xlink">
    <!-- Generator: Sketch 60 (88103) - https://sketch.com -->
    <title>编组 2</title>
    <desc>Created with Sketch.</desc>
    <g id="组件" stroke="none" stroke-width="1" fill="none" fill-rule="evenodd">
        <g id="logo-bridge/decktop/black" transform="translate(0.000000, -8.000000)">
            <g id="编组-2" transform="translate(0.000000, 8.000000)">
                <path d="M21.9784721,22.96708 L22.108632,23.086616 C22.907752,23.885736 22.907752,25.181576 22.108632,25.980696 L10.609032,37.480856 C9.809912,38.279976 8.514072,38.279976 7.714392,37.480856 C6.915272,36.681176 6.915272,35.385336 7.714392,34.586216 L19.214552,23.086616 C19.9716131,22.3295549 21.1744837,22.2897096 21.9784721,22.96708 Z M227.630215,6.456 L227.630215,30 L223.480723,30 C223.480723,29.5836797 223.476047,28.997168 223.476047,28.5614063 C221.970937,29.5850508 220.15343,30.1835508 218.196,30.1835508 C213.00416,30.1835508 208.795324,25.9746797 208.795324,20.7828047 C208.795324,15.5909297 213.004195,11.3821289 218.196035,11.3821289 C220.152973,11.3821289 221.970059,11.9803125 223.474922,13.0034648 C223.4748,11.3107768 223.476956,8.80540314 223.478281,7.43662806 L223.479044,6.67854104 L223.479281,6.456 L227.630215,6.456 Z M156.434969,6.45557813 C156.434969,7.80102187 156.432651,9.21992812 156.431652,10.8224389 L156.431652,10.8224389 L156.431207,12.0604688 C157.357891,11.6251641 158.392398,11.3814609 159.484,11.3814609 C163.447059,11.3814609 166.660973,14.5880625 166.673488,18.5482383 C166.673488,20.7350611 166.675311,23.1146315 166.676331,26.1440281 L166.677004,30.0000352 L162.527547,30.0000352 C162.527547,27.3411328 162.523879,22.9936636 162.522831,19.9668648 L162.522555,18.5774531 C162.522555,16.8951562 161.158773,15.531375 159.476477,15.531375 C157.800051,15.531375 156.440172,16.8856641 156.430609,18.5598398 C156.430402,20.9429462 156.431434,23.3902296 156.432313,25.652022 L156.433164,28.1051184 L156.433457,30.0000352 L152.284,30.0000352 L152.284,6.45557813 Z M174.678969,11.5938398 L174.678293,20.1050016 C174.678269,20.3283408 174.678244,20.5520677 174.678219,20.7759486 L174.677492,30 L170.528,30 L170.528,11.5938398 L174.678969,11.5938398 Z M201.5,6.45744141 L205.650934,6.46464844 C205.650934,9.52867533 205.650593,13.5799874 205.650244,17.7084831 L205.649492,30 L201.5,30 L201.5,6.45744141 Z M188.25856,11 C193.536,11 197.39272,14.72904 197.39272,20.43992 C197.39272,20.7530533 197.364957,21.9164806 197.33445,22.4239533 L197.32608,22.54496 L183.26392,22.54496 C183.90512,24.55256 186.04768,26.24096 189.00224,26.24096 C190.925928,26.24096 192.454068,25.6569343 193.702838,24.4617423 L193.9084,24.25688 L196.17696,26.88944 C194.55184,28.83992 192.01392,29.86528 188.90088,29.86528 C182.84336,29.86528 178.92,25.77448 178.92,20.33744 C178.92,14.89872 182.87864,11 188.25856,11 Z M122.579856,10.863384 L122.579856,15.068424 C119.322022,15.068424 116.529511,16.9974091 116.395229,19.3202931 L116.390176,19.495224 L116.390176,29.826664 L112.190176,29.826664 L112.190176,10.863944 L116.390176,10.863944 L116.390176,12.574744 C118.116656,11.505144 120.272096,10.863384 122.579856,10.863384 Z M147.136177,11 L147.136177,15.2 L139.755377,15.2 C138.896337,15.2 138.200257,15.89608 138.200257,16.75512 C138.200257,17.6136 138.895217,18.30968 139.753697,18.31024 L139.753697,18.31024 L143.288417,18.31472 C146.177457,18.31472 148.618497,20.90472 148.618497,24.06592 C148.618497,27.45112 146.419937,29.81824 143.271617,29.81824 L143.271617,29.81824 L135.076017,29.81824 L135.076017,25.61824 L142.866177,25.61768 C143.723537,25.61768 144.418497,24.92216 144.418497,24.06536 C144.418497,23.208 143.724097,22.5136 142.867857,22.51248 L142.867857,22.51248 L139.326977,22.50912 C137.656497,22.50912 136.058817,21.75592 135.051937,20.34584 C134.004177,18.87808 133.718017,16.96456 134.288657,15.22912 C135.070417,12.84408 137.379297,11 140.032577,11 L140.032577,11 L147.136177,11 Z M58.525376,11.464432 L58.525376,21.029792 C58.525376,23.469712 60.518976,25.456592 62.934256,25.456592 C65.2784984,25.456592 67.2255006,23.5848685 67.3380023,21.2438643 L67.343136,21.029792 L67.343136,11.464432 L71.543136,11.464432 L71.543136,21.029792 C71.543136,25.826752 67.681376,29.731632 62.934256,29.731632 C58.2734473,29.731632 54.4660963,25.9674568 54.329188,21.2905415 L54.325376,21.029792 L54.325376,11.464432 L58.525376,11.464432 Z M99.609832,10.863216 C104.887272,10.863216 108.743992,14.592256 108.743992,20.303136 C108.743992,20.6162693 108.716229,21.7796966 108.685722,22.2871693 L108.677352,22.408176 L94.615192,22.408176 C95.256392,24.415776 97.398952,26.104176 100.353512,26.104176 C102.2772,26.104176 103.80534,25.5201503 105.05411,24.3249583 L105.259672,24.120096 L107.528232,26.752656 C105.903112,28.703136 103.365192,29.728496 100.252152,29.728496 C94.194632,29.728496 90.271272,25.637696 90.271272,20.200656 C90.271272,14.761936 94.229912,10.863216 99.609832,10.863216 Z M49.397096,10.882816 L49.397096,15.082816 L42.016296,15.082816 C41.157256,15.082816 40.461176,15.778896 40.461176,16.637936 C40.461176,17.4487227 41.0810632,18.1146525 41.8731412,18.1866141 L42.014616,18.193056 L45.549336,18.197536 C48.438376,18.197536 50.879416,20.787536 50.879416,23.948736 C50.879416,27.253336 48.784303,29.5877589 45.7557839,29.6970485 L45.532536,29.701056 L37.336936,29.701056 L37.336936,25.501056 L42.416136,25.501056 L45.127096,25.500496 C45.984456,25.500496 46.679416,24.804976 46.679416,23.948176 C46.679416,23.1384471 46.0600283,22.4740745 45.2698928,22.401811 L45.128776,22.395296 L41.587896,22.391936 C39.917416,22.391936 38.319736,21.638736 37.312856,20.228656 C36.265096,18.760896 35.978936,16.847376 36.549576,15.111936 C37.306906,12.8014285 39.4974023,10.9985993 42.0457961,10.8881788 L42.293496,10.882816 L49.397096,10.882816 Z M82.069904,8.066128 L82.069904,10.863328 L87.384864,10.863328 L87.384864,15.069488 L82.069904,15.069488 L82.069904,21.519008 C82.069904,23.8871656 84.1631956,25.4091439 86.5525631,25.4966235 L86.770544,25.500608 L86.770544,29.700608 C82.1097353,29.700608 77.9930666,26.4384668 77.8449103,21.7792773 L77.840784,21.519008 L77.840784,15.069488 L74.989264,15.069488 L74.989264,10.863328 L77.840784,10.863328 L77.840784,8.066128 L82.069904,8.066128 Z M10.772552,15.368136 C11.571672,16.167816 11.571672,17.463096 10.772552,18.262776 L3.493672,25.541656 C2.73661095,26.2987171 1.53374025,26.3385624 0.729751872,25.661192 L0.599592,25.541656 C-0.199528,24.742536 -0.199528,23.446136 0.599592,22.647016 L7.877912,15.368136 C8.677592,14.569016 9.973432,14.569016 10.772552,15.368136 Z M218.196,15.4919648 C215.273988,15.4919648 212.905125,17.860793 212.905125,20.7828398 C212.905125,23.7049219 215.273988,26.07375 218.196,26.07375 C221.003121,26.07375 223.299176,23.8876289 223.475625,21.1250508 L223.475625,21.1250508 L223.475625,20.4397148 C223.298684,17.6776289 221.002805,15.4919648 218.196,15.4919648 Z M22.7194641,12.69892 L22.849624,12.818456 C23.648744,13.617576 23.648744,14.913416 22.849624,15.712536 L15.570744,22.991416 C14.771624,23.790536 13.475784,23.790536 12.676664,22.991416 C11.877544,22.192296 11.877544,20.896456 12.676664,20.097336 L19.955544,12.818456 C20.7126051,12.0613949 21.9154757,12.0215496 22.7194641,12.69892 Z M188.25856,14.486 C186.150405,14.486 183.810484,15.6768892 183.308893,18.1060161 L183.26616,18.34496 L193.21624,18.34496 C192.88864,15.788 190.47504,14.486 188.25856,14.486 Z M99.609832,14.349216 C97.501677,14.349216 95.1617558,15.5401052 94.6601648,17.9692321 L94.617432,18.208176 L104.567512,18.208176 C104.239912,15.651216 101.826312,14.349216 99.609832,14.349216 Z M15.734768,0.878864 C16.533888,1.678544 16.533888,2.974384 15.734768,3.773504 L4.234608,15.273104 C3.47754695,16.0301651 2.27467625,16.0700104 1.47068787,15.39264 L1.340528,15.273104 C0.541408,14.473984 0.541408,13.178144 1.340528,12.379024 L12.840128,0.878864 C13.639248,0.079744 14.935088,0.079744 15.734768,0.878864 Z M174.678969,4.16542969 C174.678969,4.77584336 174.678531,5.60524407 174.678132,6.42745707 L174.677492,8.34378516 L170.528,8.37598828 L170.528,4.16542969 Z" id="形状结合" fill="#B9AAFF"></path>
                <g id="编组" transform="translate(136.000000, 4.165430)"></g>
            </g>
        </g>
    </g>
</svg>