<?xml version="1.0" encoding="UTF-8"?>
<svg width="108px" height="131px" viewBox="0 0 108 131" version="1.1" xmlns="http://www.w3.org/2000/svg" xmlns:xlink="http://www.w3.org/1999/xlink">
    <!-- Generator: Sketch 60 (88103) - https://sketch.com -->
    <title>编组 5</title>
    <desc>Created with Sketch.</desc>
    <defs>
        <path d="M0.388858877,0 L93,0 C104.045695,7.78148667e-15 113,8.954305 113,20 L113,160 C113,171.045695 104.045695,180 93,180 L0.388858877,180 L0.388858877,180 L0.388858877,0 Z" id="path-1"></path>
    </defs>
    <g id="页面-1" stroke="none" stroke-width="1" fill="none" fill-rule="evenodd">
        <g id="Shield-未链接钱包" transform="translate(-889.000000, -454.000000)">
            <g id="编组-5" transform="translate(884.000000, 425.000000)">
                <g id="tether-usdt-logo">
                    <mask id="mask-2" fill="white">
                        <use xlink:href="#path-1"></use>
                    </mask>
                    <g id="蒙版"></g>
                    <g mask="url(#mask-2)" id="形状" stroke="#B0A2F3" stroke-linejoin="round" stroke-width="1.5">
                        <g transform="translate(6.000000, 30.000000)">
                            <path d="M84.2426251,69.3442143 L84.2426251,69.3442143 C83.4471329,69.4038966 79.3370898,69.6492572 70.1690421,69.6492572 C62.8770302,69.6492572 57.6997017,69.430422 55.8833278,69.3442143 L55.8833278,69.3442143 C27.7030162,68.1041485 6.66887637,63.1969362 6.66887637,57.3215442 C6.66887637,51.4461523 27.7030162,46.5455714 55.8833278,45.2856115 L55.8833278,64.4568961 C57.7262181,64.5895235 63.0029831,64.9011978 70.294995,64.9011978 C79.0454093,64.9011978 83.4272456,64.5364725 84.2161087,64.4635275 L84.2161087,45.2988742 C112.336758,46.5522027 133.324495,51.459415 133.324495,57.3215442 C133.324495,63.1836735 112.343387,68.0908857 84.2161087,69.3375829 L84.2161087,69.3375829 L84.2426251,69.3442143 Z M84.2426251,43.3160952 L84.2426251,26.1607464 L123.486908,26.1607464 L123.486908,0 L16.6390454,0 L16.6390454,26.1607464 L55.8766987,26.1607464 L55.8766987,43.3094638 C23.9840902,44.7749961 0,51.0946898 0,58.6677119 C0,66.2407341 23.9840902,72.5537963 55.8766987,74.02596 L55.8766987,129 L84.235996,129 L84.235996,74.0060659 C116.055684,72.5405336 140,66.2274713 140,58.6610806 C140,51.0946898 116.075572,44.7816275 84.235996,43.3094638 L84.235996,43.3094638 L84.2426251,43.3160952 Z"></path>
                        </g>
                    </g>
                </g>
            </g>
        </g>
    </g>
</svg>