<?xml version="1.0" encoding="UTF-8"?>
<svg width="100px" height="136px" viewBox="0 0 100 136" version="1.1" xmlns="http://www.w3.org/2000/svg" xmlns:xlink="http://www.w3.org/1999/xlink">
    <!-- Generator: Sketch 60 (88103) - https://sketch.com -->
    <title>形状结合</title>
    <desc>Created with Sketch.</desc>
    <defs>
        <polygon id="path-1" points="-1.03028697e-13 0 107 0 107 141 -1.03028697e-13 141"></polygon>
    </defs>
    <g id="页面-6" stroke="none" stroke-width="1" fill="none" fill-rule="evenodd" opacity="0.5">
        <g id="形状结合" transform="translate(-7.000000, -3.000000)">
            <mask id="mask-2" fill="white">
                <use xlink:href="#path-1"></use>
            </mask>
            <g id="蒙版"></g>
            <path d="M53.0971922,61.9501902 C53.9376333,61.9501902 54.5543104,61.9413225 55.1707008,61.9517634 C57.5564182,61.9925258 59.962921,61.8567942 62.3232661,62.1245388 C66.4867681,62.5968106 69.4625001,66.2172274 69.4559062,70.475111 C69.4494556,74.6877984 66.4580988,78.1872152 62.3327269,78.785779 C61.721067,78.8744551 61.097796,78.9190792 60.4796854,78.9205094 C56.0603098,78.9318085 51.6406474,78.9478274 47.2217018,78.9076371 C46.4277049,78.9003428 46.0499866,79.1401974 45.7523991,79.8817871 C41.1083993,91.4523033 36.43401,103.010805 31.765928,114.571739 C29.4543207,120.296926 27.1695193,126.033269 24.8180616,131.742008 C23.587001,134.730393 21.5759916,136.999501 18.2833202,137.735798 C15.5428199,138.348665 12.9392156,137.93961 10.7523198,136.041227 C9.21320739,134.705364 8.44286276,132.931413 8.11703594,130.937773 C7.77773454,128.862895 8.20720095,126.931615 9.00521148,125.019501 C12.5865829,116.439944 16.1359881,107.847086 19.696431,99.2589477 C22.3804527,92.7845904 25.0640444,86.3102331 27.7457726,79.8351606 C27.8422448,79.6018852 27.9183619,79.3603144 28.0413533,79.0181962 C27.6659285,78.9858723 27.3931399,78.9428215 27.120208,78.9421064 C24.6836025,78.9365284 22.2468537,78.9482565 19.8102482,78.9358132 C15.4424772,78.9135012 11.6790556,75.4804484 11.4151545,71.2922185 C11.1228708,66.6556021 14.1315726,62.8652704 18.6316524,62.2183639 C19.1729292,62.1405577 19.7242402,62.0985081 20.2709641,62.0973639 C24.977033,62.0882102 29.6831019,62.0809159 34.3891708,62.1059455 C35.0340871,62.1093781 35.3581938,61.9160069 35.6110572,61.3032836 C42.0213738,45.767944 48.4554859,30.2421872 54.8797072,14.7124256 C55.7835075,12.5271316 56.7248646,10.3691555 58.230864,8.50552693 C60.5917825,5.58393511 63.5957538,3.98104289 67.4000293,4.00893296 C69.4048748,4.02366463 71.4239117,3.93026866 73.4109822,4.13336556 C76.8316622,4.48292107 79.3710472,6.3791596 81.3579744,9.10051503 C82.7963142,11.0701259 83.6668581,13.3173502 84.58829,15.5408322 C91.2229441,31.550732 97.8520076,47.5627771 104.486805,63.5725339 C111.130777,79.6044597 117.779192,95.6345262 124.425887,111.665165 C126.416255,116.465546 128.422104,121.259777 130.392689,126.068168 C131.782435,129.459171 130.696011,134.070615 128.0613,136.161797 C125.041131,138.558913 120.410175,138.51858 117.341841,136.086423 C115.878559,134.926482 114.868252,133.434721 114.181909,131.735858 C108.744342,118.274539 103.327704,104.804923 97.9031823,91.3384546 C90.3231575,72.5208117 82.7427026,53.7034548 75.1613876,34.886384 C73.4243135,30.5745796 71.6837991,26.2640624 69.943428,21.9535453 C69.8562733,21.737433 69.7550706,21.5270418 69.4610667,21.2781766 C64.029664,34.7781133 58.598118,48.2779071 53.0971922,61.9501902" id="Fill-1" stroke="#B5B5B5" stroke-width="1.716" mask="url(#mask-2)"></path>
        </g>
    </g>
</svg>