<?xml version="1.0" encoding="UTF-8"?>
<svg width="30px" height="30px" viewBox="0 0 30 30" version="1.1" xmlns="http://www.w3.org/2000/svg" xmlns:xlink="http://www.w3.org/1999/xlink">
    <title>编组 8</title>
    <g id="页面-1" stroke="none" stroke-width="1" fill="none" fill-rule="evenodd">
        <g id="Shield-输入地址" transform="translate(-535.000000, -233.000000)">
            <g id="编组-6" transform="translate(496.000000, 170.000000)">
                <g id="编组-5" transform="translate(0.000000, 63.000000)">
                    <g id="编组-8" transform="translate(39.000000, 0.000000)">
                        <circle id="椭圆形" stroke="#B9AAFF" fill="#B9AAFF" cx="15" cy="15" r="14.5"></circle>
                        <g id="数据库定位_database-position" transform="translate(7.000000, 6.000000)">
                            <rect id="矩形" fill-opacity="0.01" fill="#FFFFFF" fill-rule="nonzero" x="0" y="0" width="18" height="18"></rect>
                            <path d="M12.75,4.5 L12.75,7.5 L12.75,7.875 C11.6418375,7.875 10.64595,8.355675 9.9594375,9.119925 C9.362925,9.783975 9,10.6621125 9,11.625 C9,11.8420875 9.01845,12.0548625 9.05385,12.2618625 C9.2467125,13.389225 9.9428625,14.3448375 10.9027875,14.889225 C9.90435,15.1911 8.5791,15.375 7.125,15.375 C4.0183875,15.375 1.5,14.535525 1.5,13.5 L1.5,10.5 L1.5,7.5 L1.5,4.5" id="路径" stroke="#0B0E12" stroke-width="1.125" stroke-linecap="round" stroke-linejoin="round"></path>
                            <path d="M12.75,4.5 C12.75,5.535525 10.2316125,6.375 7.125,6.375 C4.0183875,6.375 1.5,5.535525 1.5,4.5 C1.5,3.4644675 4.0183875,2.625 7.125,2.625 C10.2316125,2.625 12.75,3.4644675 12.75,4.5 Z" id="路径" stroke="#0B0E12" stroke-width="1.125" stroke-linecap="round" stroke-linejoin="round"></path>
                            <path d="M1.5,10.5 C1.5,11.535525 4.0183875,12.375 7.125,12.375 C7.802625,12.375 8.4522375,12.3350625 9.05385,12.2618625" id="路径" stroke="#0B0E12" stroke-width="1.125" stroke-linecap="round" stroke-linejoin="round"></path>
                            <path d="M1.5,7.5 C1.5,8.535525 4.0183875,9.375 7.125,9.375 C8.1586125,9.375 9.127125,9.282075 9.9594375,9.119925" id="路径" stroke="#0B0E12" stroke-width="1.125" stroke-linecap="round" stroke-linejoin="round"></path>
                            <path d="M16.5,11.625 C16.5,13.69605 14.82105,15.375 12.75,15.375 C12.0784125,15.375 11.4480375,15.19845 10.9027875,14.889225 C9.9428625,14.3448375 9.2467125,13.389225 9.05385,12.2618625 C9.01845,12.0548625 9,11.8420875 9,11.625 C9,10.6621125 9.362925,9.783975 9.9594375,9.119925 C10.64595,8.355675 11.6418375,7.875 12.75,7.875 C14.82105,7.875 16.5,9.55395 16.5,11.625 Z" id="路径" stroke="#0B0E12" stroke-width="1.125" stroke-linecap="round" stroke-linejoin="round"></path>
                        </g>
                    </g>
                </g>
            </g>
        </g>
    </g>
</svg>