<?xml version="1.0" encoding="UTF-8"?>
<svg width="24px" height="10px" viewBox="0 0 24 10" version="1.1" xmlns="http://www.w3.org/2000/svg" xmlns:xlink="http://www.w3.org/1999/xlink">
    <!-- Generator: Sketch 60 (88103) - https://sketch.com -->
    <title>yanjing-2</title>
    <desc>Created with Sketch.</desc>
    <g id="页面-1" stroke="none" stroke-width="1" fill="none" fill-rule="evenodd">
        <g id="Shield-register" transform="translate(-806.000000, -427.000000)" fill="#b9aaff" fill-rule="nonzero">
            <g id="编组-3" transform="translate(540.000000, 192.000000)">
                <g id="编组-14">
                    <g id="编组-5" transform="translate(20.000000, 214.000000)">
                        <g id="yanjing-2" transform="translate(246.000000, 21.000000)">
                            <path d="M12.00052,5.49416667 C7.68385334,5.49416667 3.37385334,4.1835 0.30252,1.5675 C0.125872742,1.41348056 0.0179027597,1.19540304 0.00251245058,0.961545438 C-0.0128778586,0.727687835 0.0655810684,0.497341313 0.220519992,0.321499992 C0.544360388,-0.0455310999 1.10391515,-0.0818813004 1.47252,0.240166664 C6.88852001,4.90016667 17.1358533,4.90016667 22.52852,0.240166664 C22.8971248,-0.0818813004 23.4566796,-0.0455310999 23.78052,0.321499992 C24.1031867,0.688166648 24.0671867,1.24616665 23.69852,1.56816666 C20.6271867,4.1835 16.3171867,5.49416667 12.00052,5.49416667 Z M8.79518667,9.35016666 C8.74267829,9.35594134 8.68969504,9.35594134 8.63718666,9.35016666 C8.39518666,9.31683333 8.17718665,9.18349999 8.03851999,8.9835 C7.89918666,8.78283333 7.85185334,8.53283334 7.90651999,8.29549999 L8.49118666,4.85883333 C8.57653385,4.37552105 9.03702624,4.05252023 9.52051999,4.13683334 C9.75285129,4.17626158 9.95993006,4.3065542 10.0960237,4.4989365 C10.2321173,4.6913188 10.2860292,4.92996348 10.2458533,5.16216666 L9.66118666,8.59816666 C9.599548,9.02923217 9.23063638,9.34958036 8.79518667,9.35016666 L8.79518667,9.35016666 Z M21.9438533,7.60216666 C21.71052,7.60216666 21.48652,7.5075 21.3238533,7.34016666 L18.44052,4.42816666 C18.1908344,4.21352832 18.0834626,3.8764764 18.1629882,3.55696398 C18.2425138,3.23745157 18.495353,2.99005499 18.81652,2.9175 C19.1372319,2.84312052 19.4726381,2.95397946 19.6858533,3.20483334 L22.5698533,6.11683334 C22.9118533,6.45816668 22.9118533,7.01083334 22.5698533,7.35216666 C22.40052,7.51216666 22.17652,7.60149998 21.9431867,7.60216666 L21.9438533,7.60216666 Z M2.05718667,7.60218012 C1.83865739,7.59149687 1.63120529,7.50279158 1.47252,7.35216666 C1.30816857,7.1886363 1.21576756,6.96634816 1.21576756,6.7345 C1.21576756,6.50265183 1.30816857,6.28036369 1.47252,6.11683334 L4.35585333,3.20483334 C4.55789646,2.91733714 4.91170091,2.77772793 5.25562338,2.84978925 C5.59954584,2.92185058 5.86754779,3.19174552 5.93718666,3.53616666 C6.00464397,3.88102516 5.85851637,4.23267756 5.56651999,4.42816666 L2.68318666,7.34016666 C2.51876375,7.50889554 2.29277659,7.60347803 2.05718667,7.60218012 L2.05718667,7.60218012 Z M15.24652,9.35016666 C14.8228043,9.34896872 14.460685,9.04467626 14.38652,8.62750001 L13.8018533,5.19083334 C13.6943024,4.86885449 13.78354,4.51372492 14.03052,4.28083334 C14.2778435,4.04729047 14.6376176,3.97720459 14.95452,4.10083334 C15.2718533,4.2255 15.4878533,4.52083334 15.5098533,4.85883333 L16.09452,8.29549999 C16.1371867,8.52349999 16.08652,8.75883333 15.9531867,8.94949999 C15.8198533,9.14016666 15.61652,9.26949998 15.38652,9.30949999 C15.3413204,9.3275168 15.2944153,9.34091827 15.24652,9.3495 L15.24652,9.35016666 Z" id="形状"></path>
                        </g>
                    </g>
                </g>
            </g>
        </g>
    </g>
</svg>