<?xml version="1.0" encoding="UTF-8"?>
<svg width="30px" height="30px" viewBox="0 0 30 30" version="1.1" xmlns="http://www.w3.org/2000/svg" xmlns:xlink="http://www.w3.org/1999/xlink">
    <title>编组 4</title>
    <g id="页面-1" stroke="none" stroke-width="1" fill="none" fill-rule="evenodd">
        <g id="Shield-确认信息" transform="translate(-875.000000, -233.000000)">
            <g id="编组-6" transform="translate(496.000000, 170.000000)">
                <g id="编组-5" transform="translate(0.000000, 63.000000)">
                    <g id="编组-4" transform="translate(379.000000, 0.000000)">
                        <circle id="椭圆形" fill="#b9aaff" cx="15" cy="15" r="15"></circle>
                        <g id="点击_click-tap" transform="translate(6.000000, 6.000000)">
                            <rect id="矩形" fill-opacity="0.01" fill="#FFFFFF" x="0" y="0" width="18" height="18"></rect>
                            <g id="编组" transform="translate(3.000000, 1.875000)" stroke="#0B0E12" stroke-linecap="round" stroke-width="1.125">
                                <g transform="translate(2.625000, 2.625000)" id="路径" stroke-linejoin="round">
                                    <path d="M0,5.25 L0,1.125 C0,0.503679656 0.503679656,0 1.125,0 C1.74632034,0 2.25,0.503679656 2.25,1.125 L2.25,5.25"></path>
                                    <path d="M9,4.875 L9,7.3125 C9,9.69422797 7.06922798,11.625 4.6875,11.625 L4.3125,11.625 C1.93077202,11.625 0,9.69422797 0,7.3125 L0,4.875"></path>
                                    <path d="M2.25,6.375 L2.25,5.66465734 L2.25,4.5 C2.25,3.87867967 2.75367966,3.375 3.375,3.375 C3.99632033,3.375 4.5,3.87867967 4.5,4.5 L4.5,5.69317639 L4.5,6.375"></path>
                                    <path d="M4.5,6.375 L4.5,5.66465734 L4.5,4.5 C4.5,3.87867967 5.00367967,3.375 5.625,3.375 C6.24632033,3.375 6.75,3.87867967 6.75,4.5 L6.75,5.69317639 L6.75,6.375"></path>
                                    <path d="M6.75,6.375 L6.75,5.66465734 L6.75,4.5 C6.75,3.87867967 7.25367967,3.375 7.875,3.375 C8.49632033,3.375 9,3.87867967 9,4.5 L9,5.69317639 L9,6.375"></path>
                                </g>
                                <path d="M7.5,3.75 C7.5,3.35583257 7.43918565,2.97586908 7.32642791,2.61898047 C7.20031534,2.21982267 7.00922659,1.84952933 6.76557255,1.52051138 C6.08242204,0.598019782 4.98604853,0 3.75,0 C2.51395149,0 1.41757798,0.598019782 0.734427435,1.52051138 C0.490773416,1.84952933 0.299684652,2.21982267 0.173572091,2.61898047 C0.0608143403,2.97586908 0,3.35583257 0,3.75" id="路径"></path>
                            </g>
                        </g>
                    </g>
                </g>
            </g>
        </g>
    </g>
</svg>