<?xml version="1.0" encoding="UTF-8"?>
<svg width="101px" height="125px" viewBox="0 0 101 125" version="1.1" xmlns="http://www.w3.org/2000/svg" xmlns:xlink="http://www.w3.org/1999/xlink">
    <!-- Generator: Sketch 60 (88103) - https://sketch.com -->
    <title>编组 4</title>
    <desc>Created with Sketch.</desc>
    <defs>
        <path d="M0,0 L92.6111411,0 C103.656836,-1.18396092e-14 112.611141,8.954305 112.611141,20 L112.611141,160 C112.611141,171.045695 103.656836,180 92.6111411,180 L0,180 L0,180 L0,0 Z" id="path-1"></path>
    </defs>
    <g id="页面-1" stroke="none" stroke-width="1" fill="none" fill-rule="evenodd">
        <g id="Shield-未链接钱包" transform="translate(-602.000000, -452.000000)">
            <g id="编组-4" transform="translate(590.000000, 425.000000)">
                <g id="multi-collateral-dai-dai-logo-2">
                    <mask id="mask-2" fill="white">
                        <use xlink:href="#path-1"></use>
                    </mask>
                    <g id="蒙版"></g>
                    <g mask="url(#mask-2)" fill-rule="nonzero" id="形状" stroke="#B0A2F3" stroke-width="1.5">
                        <g transform="translate(12.000000, 28.000000)">
                            <path d="M74.4540905,69.3666277 L116.252309,69.3666277 C117.143317,69.3666277 117.564072,69.3666277 117.628422,68.198416 C117.969976,63.9463235 117.969976,59.6694807 117.628422,55.4124381 C117.628422,54.5857799 117.217568,54.2442264 116.321609,54.2442264 L33.1360274,54.2442264 C32.1064171,54.2442264 31.8292143,54.5857799 31.8292143,55.5510395 L31.8292143,67.7875619 C31.8292143,69.3666277 31.8292143,69.3666277 33.4775808,69.3666277 L74.4540905,69.3666277 L74.4540905,69.3666277 Z M112.960526,39.9435334 C113.079327,39.6316803 113.079327,39.2901269 112.960526,38.9832238 C112.262569,37.4635586 111.43591,36.0131941 110.475601,34.6519305 C109.030186,32.3254073 107.327369,30.1820358 105.38695,28.2564666 C104.471191,27.0932049 103.41188,26.0487445 102.223868,25.1626856 C96.2739087,20.098785 89.200288,16.5149491 81.597012,14.7131311 C77.7607236,13.8518225 73.8402844,13.4409684 69.9099451,13.4756188 L32.9924759,13.4756188 C31.9628656,13.4756188 31.8242642,13.8864729 31.8242642,14.7824318 L31.8242642,39.1861759 C31.8242642,40.2157862 31.8242642,40.4929889 33.1310773,40.4929889 L112.465521,40.4929889 C112.465521,40.4929889 113.153578,40.3543875 113.292179,39.9435334 L112.955576,39.9435334 L112.960526,39.9435334 Z M112.960526,83.6673207 C111.792314,83.5386194 110.614202,83.5386194 109.44599,83.6673207 L33.2053281,83.6673207 C32.1757178,83.6673207 31.8292143,83.6673207 31.8292143,85.0434344 L31.8292143,108.902673 C31.8292143,110.001584 31.8292143,110.278787 33.2053281,110.278787 L68.4051301,110.278787 C70.0881469,110.407488 71.7711637,110.288687 73.4195302,109.937233 C78.5279813,109.57093 83.5522815,108.462119 88.3439294,106.63555 C90.0863469,106.031644 91.7693637,105.244586 93.3583296,104.299127 L93.8384844,104.299127 C102.090217,100.007434 108.792584,93.2654667 113.019926,84.9889839 C113.019926,84.9889839 113.500081,83.9494735 112.960526,83.6772208 L112.960526,83.6673207 Z M18.0136261,122.64896 L18.0136261,122.238106 L18.0136261,106.219746 L18.0136261,100.789542 L18.0136261,84.6325803 C18.0136261,83.7366214 18.0136261,83.60297 16.9147151,83.60297 L1.99526595,83.60297 C1.16860769,83.60297 0.827054271,83.60297 0.827054271,82.504059 L0.827054271,69.4408784 L16.7761138,69.4408784 C17.6671227,69.4408784 18.0136261,69.4408784 18.0136261,68.2726667 L18.0136261,55.3480875 C18.0136261,54.5214292 18.0136261,54.3184772 16.9147151,54.3184772 L1.99526595,54.3184772 C1.16860769,54.3184772 0.827054271,54.3184772 0.827054271,53.2195662 L0.827054271,41.1216452 C0.827054271,40.3642876 0.827054271,40.1613356 1.92596526,40.1613356 L16.7068131,40.1613356 C17.7364234,40.1613356 18.0136261,40.1613356 18.0136261,38.8545225 L18.0136261,1.79845198 C18.0136261,0.699540995 18.0136261,0.422338223 19.3897399,0.422338223 L70.9494555,0.422338223 C74.6916929,0.570839708 78.4091801,0.981693817 82.0870669,1.6598506 C89.6655927,3.06071461 96.9471155,5.76839168 103.604932,9.63438034 C108.020376,12.2331563 112.084367,15.3714877 115.702853,18.9850239 C118.42538,21.8115021 120.880605,24.8706327 123.058627,28.1277653 C125.221798,31.4294483 127.018666,34.9588336 128.42943,38.6466205 C128.602682,39.6069301 129.523391,40.2553866 130.483701,40.0920349 L142.789524,40.0920349 C144.36859,40.0920349 144.36859,40.0920349 144.43789,41.6067501 L144.43789,52.8829628 C144.43789,53.9818738 144.027036,54.2590766 142.923175,54.2590766 L133.43393,54.2590766 C132.473621,54.2590766 132.196418,54.2590766 132.265719,55.496589 C132.641922,59.6843308 132.641922,63.8869229 132.265719,68.0746647 C132.265719,69.2428764 132.265719,69.3814778 133.577482,69.3814778 L144.43294,69.3814778 C144.913095,70.000234 144.43294,70.6189902 144.43294,71.2426964 C144.502241,72.0396544 144.502241,72.8465125 144.43294,73.6434704 L144.43294,81.9645036 C144.43294,83.1327153 144.091387,83.4792188 143.056827,83.4792188 L130.062947,83.4792188 C129.157088,83.3059671 128.275979,83.8851229 128.068077,84.7860319 C124.974296,92.8298623 120.024246,100.042084 113.628782,105.823742 C111.292359,107.927513 108.837134,109.907533 106.273009,111.734101 C103.520781,113.318117 100.842804,114.966484 98.0212762,116.273297 C92.8286743,118.60972 87.3836198,120.332337 81.795014,121.426298 C76.4885609,122.376708 71.1078571,122.807362 65.7073531,122.733111 L17.9938259,122.733111 L17.9938259,122.663811 L18.0136261,122.64896 Z"></path>
                        </g>
                    </g>
                </g>
            </g>
        </g>
    </g>
</svg>