<?xml version="1.0" encoding="UTF-8"?>
<svg width="102px" height="162px" viewBox="0 0 102 162" version="1.1" xmlns="http://www.w3.org/2000/svg" xmlns:xlink="http://www.w3.org/1999/xlink">
    <title>默认大icon</title>
    <defs>
        <path d="M0,0 L83.350027,0 C93.2911525,0 101.350027,8.0588745 101.350027,18 L101.350027,144 C101.350027,153.941125 93.2911525,162 83.350027,162 L0,162 L0,162 L0,0 Z" id="path-1"></path>
        <polygon id="path-3" points="0 117 113.75 117 113.75 0 0 0"></polygon>
    </defs>
    <g id="页面-1" stroke="none" stroke-width="1" fill="none" fill-rule="evenodd">
        <g id="Shield-mining-pc" transform="translate(-1188.000000, -118.000000)">
            <g id="编组-3" transform="translate(150.000000, 118.000000)">
                <g id="默认大icon" transform="translate(1038.349973, 0.000000)">
                    <mask id="mask-2" fill="white">
                        <use xlink:href="#path-1"></use>
                    </mask>
                    <g id="path-1"></g>
                    <g id="编组" mask="url(#mask-2)">
                        <g transform="translate(-0.349973, 22.000000)">
                            <path d="M92.6084,69.8105 C90.4264,69.8105 88.6514,68.0355 88.6514,65.8535 L88.6514,59.5515 L66.0824,59.5515 L66.0824,57.4485 L90.7544,57.4485 L90.7544,65.8535 C90.7544,66.8605 91.6074,67.6795 92.6554,67.6795 C93.1354,67.6795 93.5844,67.4955 93.9174,67.1605 L110.0774,50.9995 C110.8134,50.2685 111.2194,49.2875 111.2194,48.2415 C111.2194,47.2025 110.8144,46.2235 110.0794,45.4835 L93.9164,29.3215 C93.5694,28.9745 93.0924,28.7755 92.6084,28.7755 C91.5854,28.7805 90.7544,29.6125 90.7544,30.6315 L90.7544,39.0345 L51.7194,39.0345 L51.7194,36.9315 L88.6514,36.9315 L88.6514,30.6315 C88.6514,28.4535 90.4204,26.6775 92.5954,26.6725 C93.6434,26.6725 94.6624,27.0955 95.4024,27.8335 L111.5644,43.9955 C112.6984,45.1295 113.3234,46.6375 113.3234,48.2415 C113.3234,49.8465 112.6984,51.3545 111.5624,52.4885 L95.4034,68.6485 C94.6544,69.3975 93.6624,69.8105 92.6084,69.8105" id="Fill-1" stroke="none" fill="#1969FF" fill-rule="evenodd"></path>
                            <path d="M21.1426,90.3271 C20.0886,90.3271 19.0966,89.9151 18.3466,89.1661 L2.1856,73.0051 C1.0516,71.8701 0.4266,70.3621 0.4266,68.7591 C0.4266,67.1551 1.0516,65.6471 2.1856,64.5131 L18.3466,48.3511 C19.0876,47.6141 20.1076,47.1891 21.1426,47.1891 C23.3286,47.1941 25.0996,48.9701 25.0996,51.1461 L25.0996,57.4481 L47.6676,57.4481 L47.6676,59.5521 L22.9966,59.5521 L22.9966,51.1461 C22.9966,50.1291 22.1666,49.2971 21.1486,49.2931 C20.6586,49.2931 20.1796,49.4931 19.8316,49.8401 L3.6726,66.0001 C2.9356,66.7401 2.5306,67.7191 2.5306,68.7591 C2.5306,69.7981 2.9356,70.7771 3.6706,71.5161 L19.8336,87.6791 C20.1676,88.0121 20.6146,88.1941 21.0926,88.1941 C22.1426,88.1941 22.9966,87.3761 22.9966,86.3701 L22.9966,77.9651 L62.0306,77.9651 L62.0306,80.0691 L25.0996,80.0691 L25.0996,86.3701 C25.0996,88.5531 23.3246,90.3271 21.1426,90.3271" id="Fill-3" stroke="none" fill="#1969FF" fill-rule="evenodd"></path>
                            <path d="M56.875,102.6377 C56.585,102.6377 56.297,102.6357 56.009,102.6297 L56.1,100.5257 C56.324,100.5287 56.55,100.5307 56.774,100.5307 C63.497,100.5307 70.124,98.9457 76.005,95.9397 L77.007,97.7877 C70.821,100.9637 63.883,102.6377 56.875,102.6377" id="Fill-5" stroke="none" fill="#1969FF" fill-rule="evenodd"></path>
                            <path d="M49.2158,101.9756 C47.1778,101.6196 45.1608,101.1176 43.1978,100.4786 L43.8948,98.4936 C45.7338,99.0876 47.6218,99.5586 49.5318,99.8956 L49.2158,101.9756 Z" id="Fill-7" stroke="none" fill="#1969FF" fill-rule="evenodd"></path>
                            <path d="M56.875,117 C44.535,117 32.779,113.222 22.812,106.063 L24.066,104.375 C33.668,111.262 44.989,114.896 56.875,114.896 C82.75,114.896 105.644,96.829 111.695,71.792 L113.75,72.25 C107.484,98.241 83.727,117 56.875,117" id="Fill-9" stroke="none" fill="#1969FF" fill-rule="evenodd"></path>
                            <path d="M36.7432,19.2119 C42.9302,16.0369 49.8682,14.3619 56.8752,14.3619 C57.1652,14.3619 57.4542,14.3649 57.7422,14.3699 L57.6522,16.4709 C57.3912,16.4659 57.1322,16.4629 56.8712,16.4629 C50.2202,16.4629 43.6292,18.0499 37.7462,21.0609 L36.7432,19.2119 Z" id="Fill-11" stroke="none" fill="#1969FF" fill-rule="evenodd"></path>
                            <path d="M69.8555,18.5063 C68.0225,17.9133 66.1385,17.4443 64.2325,17.1063 L64.5485,15.0273 C66.5775,15.3823 68.5885,15.8833 70.5515,16.5223 L69.8555,18.5063 Z" id="Fill-13" stroke="none" fill="#1969FF" fill-rule="evenodd"></path>
                            <path d="M0,44.75 C6.267,18.759 30.024,0 56.875,0 C69.212,0 80.967,3.777 90.938,10.934 L89.683,12.623 C80.077,5.737 68.757,2.104 56.875,2.104 C31.001,2.104 8.107,20.171 2.055,45.208 L0,44.75 Z" id="Fill-15" stroke="none" fill="#1969FF" fill-rule="evenodd"></path>
                            <mask id="mask-4" fill="white">
                                <use xlink:href="#path-3"></use>
                            </mask>
                            <g id="Clip-18" stroke="none" fill="none"></g>
                            <polygon id="Fill-17" stroke="none" fill="#1969FF" fill-rule="evenodd" mask="url(#mask-4)" points="43.513 39.035 45.617 39.035 45.617 36.931 43.513 36.931"></polygon>
                            <polygon id="Fill-19" stroke="none" fill="#1969FF" fill-rule="evenodd" mask="url(#mask-4)" points="35.307 39.035 37.411 39.035 37.411 36.931 35.307 36.931"></polygon>
                            <polygon id="Fill-20" stroke="none" fill="#1969FF" fill-rule="evenodd" mask="url(#mask-4)" points="68.134 80.069 70.238 80.069 70.238 77.965 68.134 77.965"></polygon>
                            <polygon id="Fill-21" stroke="none" fill="#1969FF" fill-rule="evenodd" mask="url(#mask-4)" points="76.341 80.069 78.445 80.069 78.445 77.965 76.341 77.965"></polygon>
                        </g>
                    </g>
                </g>
            </g>
        </g>
    </g>
</svg>