<?xml version="1.0" encoding="UTF-8"?>
<svg width="79px" height="151px" viewBox="0 0 79 151" version="1.1" xmlns="http://www.w3.org/2000/svg" xmlns:xlink="http://www.w3.org/1999/xlink">
    <!-- Generator: Sketch 60 (88103) - https://sketch.com -->
    <title>编组 3</title>
    <desc>Created with Sketch.</desc>
    <defs>
        <path d="M0,0 L92.6111411,0 C103.656836,-1.18396092e-14 112.611141,8.954305 112.611141,20 L112.611141,160 C112.611141,171.045695 103.656836,180 92.6111411,180 L0,180 L0,180 L0,0 Z" id="path-1"></path>
    </defs>
    <g id="页面-1" stroke="none" stroke-width="1" fill="none" fill-rule="evenodd">
        <g id="Shield-未链接钱包" transform="translate(-331.000000, -437.000000)">
            <g id="编组-3" transform="translate(297.000000, 425.000000)">
                <g id="ethereum">
                    <mask id="mask-2" fill="white">
                        <use xlink:href="#path-1"></use>
                    </mask>
                    <g id="蒙版"></g>
                    <g mask="url(#mask-2)" fill-rule="nonzero" id="路径" stroke="#B0A2F3" stroke-linejoin="round" stroke-width="1.5">
                        <g transform="translate(35.000000, 13.000000)">
                            <polygon points="45.6638802 54.9976922 -7.10542736e-15 75.7654239 45.6638802 102.74373 91.3098108 75.7654239"></polygon>
                            <polygon points="-7.10542736e-15 75.7654239 45.6638802 102.74373 45.6638802 1.42108547e-14"></polygon>
                            <polygon points="45.6638802 1.42108547e-14 45.6638802 102.74373 91.3098108 75.7654239"></polygon>
                            <polygon points="-7.10542736e-15 84.4171496 45.6638802 148.748654 45.6638802 111.395456"></polygon>
                            <polygon points="45.6638802 111.395456 45.6638802 148.748654 91.34571 84.4171496"></polygon>
                        </g>
                    </g>
                </g>
            </g>
        </g>
    </g>
</svg>