<?xml version="1.0" encoding="UTF-8"?>
<svg width="24px" height="24px" viewBox="0 0 24 24" version="1.1" xmlns="http://www.w3.org/2000/svg" xmlns:xlink="http://www.w3.org/1999/xlink">
    <title>椭圆形</title>
    <g id="页面-3" stroke="none" stroke-width="1" fill="none" fill-rule="evenodd">
        <g id="Shield-链接钱包弹窗" transform="translate(-1168.000000, -508.000000)">
            <g id="编组-19" transform="translate(967.000000, 450.000000)">
                <g id="编组-10" transform="translate(170.000000, 50.000000)">
                    <g id="fantom-2" transform="translate(31.000000, 8.000000)">
                        <circle id="椭圆形" fill="#1969FF" fill-rule="nonzero" cx="12" cy="12" r="12"></circle>
                        <path d="M13.1,9.01304659 L16.4,7.12858686 L16.4,10.8975063 L13.1,9.01304659 Z M16.4,17.0893026 L13.1961167,18.918875 C12.4548776,19.3421584 11.5451224,19.3421584 10.8038833,18.918875 L7.6,17.0893026 L7.6,17.0893026 L7.6,12.6922299 L12,15.2048428 L16.4,12.6922299 L16.4,17.0893026 Z M7.6,7.12858686 L10.9,9.01304659 L7.6,10.8975063 L7.6,7.12858686 Z M12.55,9.91040836 L15.85,11.7948681 L12.55,13.6793278 L12.55,9.91040836 Z M11.45,13.6793278 L8.15,11.7948681 L11.45,9.91040836 L11.45,13.6793278 Z M15.85,6.23122509 L12,8.38489335 L8.15,6.23122509 L10.7856138,4.69544645 C11.5361432,4.25811113 12.4638568,4.25811113 13.2143862,4.69544645 L15.85,6.23122509 L15.85,6.23122509 Z M6.5,6.58242325 L6.5,16.9175767 C6.5,17.3558389 6.73774953,17.7596071 7.12099336,17.972205 L10.8299264,20.0296715 C11.5577336,20.43341 12.4422664,20.43341 13.1700736,20.0296715 L16.8790066,17.972205 C17.2622505,17.7596071 17.5,17.3558389 17.5,16.9175767 L17.5,6.58242325 C17.5,6.14416112 17.2622505,5.74039293 16.8790066,5.52779504 L13.1700736,3.47032847 C12.4422664,3.06658998 11.5577336,3.06658998 10.8299264,3.47032847 L7.12099336,5.52779504 C6.73774953,5.74039293 6.5,6.14416112 6.5,6.58242325 Z" id="形状" fill="#FFFFFF"></path>
                    </g>
                </g>
            </g>
        </g>
    </g>
</svg>