<?xml version="1.0" encoding="UTF-8"?>
<svg width="24px" height="19px" viewBox="0 0 24 19" version="1.1" xmlns="http://www.w3.org/2000/svg" xmlns:xlink="http://www.w3.org/1999/xlink">
    <!-- Generator: Sketch 60 (88103) - https://sketch.com -->
    <title>medium</title>
    <desc>Created with Sketch.</desc>
    <g id="页面-3" stroke="none" stroke-width="1" fill="none" fill-rule="evenodd">
        <g id="编组-18" transform="translate(-111.000000, -2.000000)" fill="#b9aaff" fill-rule="nonzero">
            <g id="medium" transform="translate(111.000000, 2.000000)">
                <path d="M3.02854688,4.08651563 C3.05754112,3.79853542 2.94756489,3.51397606 2.7324375,3.32034375 L0.542507813,0.681046875 L0.542507813,0.287390625 L7.34303906,0.287390625 L12.6003516,11.8173281 L17.2220391,0.287390625 L23.7066563,0.287390625 L23.7066563,0.681046875 L21.8327578,2.4765 C21.6715349,2.59977904 21.5914685,2.80194149 21.6245625,3.00217969 L21.6245625,16.1986172 C21.5917803,16.3985924 21.6718141,16.6003663 21.8327578,16.7235 L23.6604375,18.5189531 L23.6604375,18.9126094 L14.4618281,18.9126094 L14.4618281,18.5189531 L16.3555078,16.6795313 C16.5409922,16.4940469 16.5409922,16.4389922 16.5409922,16.1538516 L16.5409922,5.48821875 L11.2719141,18.8686875 L10.5615703,18.8686875 L4.42741406,5.48821875 L4.42741406,14.4559688 C4.37654533,14.8329832 4.50168409,15.2124694 4.76683594,15.4852734 L7.23016406,18.4764844 L7.23016406,18.8694609 L0.245601563,18.8694609 L0.245601563,18.4756875 L2.70892969,15.4845938 C2.97278906,15.2125313 3.09016406,14.8298438 3.02784375,14.4559688 L3.02784375,4.08651563 L3.02854688,4.08651563 Z" id="路径"></path>
            </g>
        </g>
    </g>
</svg>