<?xml version="1.0" encoding="UTF-8"?>
<svg width="23px" height="38px" viewBox="0 0 23 38" version="1.1" xmlns="http://www.w3.org/2000/svg" xmlns:xlink="http://www.w3.org/1999/xlink">
    <title>形状结合</title>
    <g id="页面-5" stroke="none" stroke-width="1" fill="none" fill-rule="evenodd">
        <g id="手机" transform="translate(-20.000000, -27.000000)" fill="#b9aaff">
            <path d="M41.5576473,49.8071906 L41.6853164,49.9273568 C42.4691446,50.7306907 42.4691446,52.0333639 41.6853164,52.8366977 L30.4057715,64.3974996 C29.6219434,65.2008335 28.3509005,65.2008335 27.5665231,64.3974996 C26.7826949,63.5936028 26.7826949,62.2909296 27.5665231,61.4875958 L38.8466172,49.9273568 C39.5891913,49.1663037 40.769044,49.1262483 41.5576473,49.8071906 Z M30.5661624,42.1681763 C31.3499906,42.9720731 31.3499906,44.2741833 30.5661624,45.0780801 L23.4265703,52.3953426 C22.6839963,53.1563957 21.5041436,53.1964512 20.7155402,52.5155089 L20.5878711,52.3953426 C19.804043,51.5920087 19.804043,50.2887726 20.5878711,49.4854388 L27.726914,42.1681763 C28.5112914,41.3648424 29.7823343,41.3648424 30.5661624,42.1681763 Z M42.2844598,39.4848852 L42.4121289,39.6050515 C43.195957,40.4083853 43.195957,41.7110585 42.4121289,42.5143923 L35.2725368,49.8316548 C34.4887086,50.6349887 33.2176657,50.6349887 32.4338376,49.8316548 C31.6500094,49.028321 31.6500094,47.7256478 32.4338376,46.922314 L39.5734297,39.6050515 C40.3160037,38.8439983 41.4958564,38.8039429 42.2844598,39.4848852 Z M35.433422,27.6025004 C36.2172501,28.4063972 36.2172501,29.7090704 35.433422,30.5124042 L24.1533278,42.0726432 C23.4107538,42.8336963 22.2309011,42.8737517 21.4422978,42.1928094 L21.3146286,42.0726432 C20.5308005,41.2693093 20.5308005,39.9666361 21.3146286,39.1633023 L32.5941735,27.6025004 C33.3780017,26.7991665 34.6490446,26.7991665 35.433422,27.6025004 Z" id="形状结合"></path>
        </g>
    </g>
</svg>