<?xml version="1.0" encoding="UTF-8"?>
<svg width="26px" height="18px" viewBox="0 0 26 18" version="1.1" xmlns="http://www.w3.org/2000/svg" xmlns:xlink="http://www.w3.org/1999/xlink">
    <!-- Generator: Sketch 60 (88103) - https://sketch.com -->
    <title>yanjing</title>
    <desc>Created with Sketch.</desc>
    <g id="页面-1" stroke="none" stroke-width="1" fill="none" fill-rule="evenodd">
        <g id="Shield-register" transform="translate(-840.000000, -422.000000)" fill="#1969FF" fill-rule="nonzero">
            <g id="编组-3" transform="translate(540.000000, 192.000000)">
                <g id="编组-14">
                    <g id="编组-5" transform="translate(20.000000, 214.000000)">
                        <g id="yanjing" transform="translate(280.000000, 16.000000)">
                            <path d="M13.0000722,2.01748264 C17.80285,2.01748264 22.1766278,6.6830382 23.8471278,8.68359375 C22.1766278,10.6841493 17.80285,15.3497049 13.0000722,15.3497049 C8.19729442,15.3497049 3.82351666,10.6841493 2.15301666,8.68359375 C3.82351666,6.6830382 8.19729445,2.01748264 13.0000722,2.01748264 Z M13.0000722,0.0169270918 C7.04029445,0.0169270918 1.99051666,5.70370486 0.287516658,7.86387154 C-0.0958433637,8.34312068 -0.0958433637,9.02406682 0.287516658,9.50331596 C1.99051666,11.6634826 7.04029445,17.3502604 13.0000722,17.3502604 C18.95985,17.3502604 24.0096278,11.6634826 25.7126278,9.50331596 C26.0959878,9.02406682 26.0959878,8.34312068 25.7126278,7.86387154 C24.0096278,5.70370486 18.95985,0.0169270918 13.0000722,0.0169270918 Z M13.0000722,6.6830382 C14.0769056,6.6830382 14.9500722,7.57859375 14.9500722,8.68359375 C14.9500722,9.78859375 14.0769056,10.6841493 13.0000722,10.6841493 C11.9232389,10.6841493 11.0500722,9.78859375 11.0500722,8.68359375 C11.0500722,7.57859375 11.9232389,6.6830382 13.0000722,6.6830382 Z M13.0000722,4.68392709 C11.4227389,4.68392709 10.0006833,5.65820488 9.39762779,7.15320486 C8.79385,8.64820486 9.12751668,10.367816 10.2426278,11.511816 C11.3430564,12.6527349 13.0328572,12.9973578 14.4921833,12.3784826 C15.9496278,11.7602604 16.9000722,10.3013715 16.9000722,8.68359375 C16.9000722,6.47431596 15.1544611,4.68392709 13.0007944,4.68392709 L13.0000722,4.68392709 Z" id="形状"></path>
                        </g>
                    </g>
                </g>
            </g>
        </g>
    </g>
</svg>