<?xml version="1.0" encoding="UTF-8"?>
<svg width="24px" height="24px" viewBox="0 0 24 24" version="1.1" xmlns="http://www.w3.org/2000/svg" xmlns:xlink="http://www.w3.org/1999/xlink">
    <title>椭圆形</title>
    <g id="页面-3" stroke="none" stroke-width="1" fill="none" fill-rule="evenodd">
        <g id="Shield-链接钱包弹窗" transform="translate(-997.000000, -619.000000)" fill-rule="nonzero">
            <g id="编组-19" transform="translate(967.000000, 561.000000)">
                <g id="编组-12" transform="translate(0.000000, 50.000000)">
                    <g id="椭圆形" transform="translate(30.000000, 8.000000)">
                        <circle id="Oval" fill="#6E6E6E" cx="12" cy="12" r="12"></circle>
                        <g id="polygon-matic-logo" transform="translate(4.000000, 5.000000)" fill="#FFFFFF">
                            <path d="M12.1148825,4.27893175 C11.8224543,4.11275964 11.4464752,4.11275964 11.1122715,4.27893175 L8.77284595,5.64985163 L7.18537859,6.52225519 L4.88772846,7.89317507 C4.59530026,8.05934718 4.21932115,8.05934718 3.88511749,7.89317507 L2.08877285,6.81305638 C1.79634465,6.64688427 1.58746736,6.31454006 1.58746736,5.94065282 L1.58746736,3.86350148 C1.58746736,3.53115727 1.75456919,3.19881306 2.08877285,2.99109792 L3.88511749,1.95252226 C4.17754569,1.78635015 4.5535248,1.78635015 4.88772846,1.95252226 L6.68407311,3.03264095 C6.97650131,3.19881306 7.18537859,3.53115727 7.18537859,3.90504451 L7.18537859,5.27596439 L8.77284595,4.3620178 L8.77284595,2.9495549 C8.77284595,2.61721068 8.60574413,2.28486647 8.27154047,2.07715134 L4.92950392,0.12462908 C4.63707572,-0.0415430267 4.26109661,-0.0415430267 3.92689295,0.12462908 L0.501305483,2.11869436 C0.167101828,2.28486647 0,2.61721068 0,2.9495549 L0,6.85459941 C0,7.18694362 0.167101828,7.51928783 0.501305483,7.72700297 L3.88511749,9.67952522 C4.17754569,9.84569733 4.5535248,9.84569733 4.88772846,9.67952522 L7.18537859,8.35014837 L8.77284595,7.43620178 L11.0704961,6.10682493 C11.3629243,5.94065282 11.7389034,5.94065282 12.073107,6.10682493 L13.8694517,7.14540059 C14.1618799,7.3115727 14.3707572,7.64391691 14.3707572,8.01780415 L14.3707572,10.0949555 C14.3707572,10.4272997 14.2036554,10.7596439 13.8694517,10.9673591 L12.1148825,12.0059347 C11.8224543,12.1721068 11.4464752,12.1721068 11.1122715,12.0059347 L9.31592689,10.9673591 C9.02349869,10.8011869 8.81462141,10.4688427 8.81462141,10.0949555 L8.81462141,8.76557864 L7.22715405,9.67952522 L7.22715405,11.0504451 C7.22715405,11.3827893 7.39425587,11.7151335 7.72845953,11.9228487 L11.1122715,13.8753709 C11.4046997,14.041543 11.7806789,14.041543 12.1148825,13.8753709 L15.4986945,11.9228487 C15.7911227,11.7566766 16,11.4243323 16,11.0504451 L16,7.10385757 C16,6.77151335 15.8328982,6.43916914 15.4986945,6.23145401 L12.1148825,4.27893175 Z" id="路径"></path>
                        </g>
                    </g>
                </g>
            </g>
        </g>
    </g>
</svg>