<?xml version="1.0" encoding="UTF-8"?>
<svg width="92px" height="137px" viewBox="0 0 92 137" version="1.1" xmlns="http://www.w3.org/2000/svg" xmlns:xlink="http://www.w3.org/1999/xlink">
    <!-- Generator: Sketch 60 (88103) - https://sketch.com -->
    <title>形状结合</title>
    <desc>Created with Sketch.</desc>
    <defs>
        <polygon id="path-1" points="-1.03028697e-13 0 107 0 107 141 -1.03028697e-13 141"></polygon>
    </defs>
    <g id="页面-6" stroke="none" stroke-width="1" fill="none" fill-rule="evenodd" opacity="0.5">
        <g id="Shield-选中" transform="translate(-318.000000, -671.000000)">
            <g id="编组-3" transform="translate(150.000000, 655.000000)">
                <g id="形状结合" transform="translate(153.000000, 14.000000)">
                    <mask id="mask-2" fill="white">
                        <use xlink:href="#path-1"></use>
                    </mask>
                    <g id="蒙版"></g>
                    <path d="M66.3638532,3 L78.0538395,6.02081002 L73.359674,24.8102484 C76.4790227,25.5050347 79.6892262,26.2300291 82.7177201,26.9852316 L82.7177201,26.9852316 L87.3785722,8.34683374 L99.071587,11.3676438 L94.2865667,30.3987469 C109.065617,35.534124 119.87734,43.086149 117.727109,57.4047885 L117.727109,57.4047885 L117.636254,57.4954128 C116.122008,67.8265831 110.367869,72.8411278 102.70578,74.6234057 C113.214653,80.0608637 118.541774,88.4285075 113.456933,102.898188 C107.157666,120.902215 92.1363361,122.41262 72.2088463,118.636608 L72.2088463,118.636608 L67.3632561,138 L55.6732698,134.97919 L60.4280052,115.887671 C57.3389414,115.10226 54.1590228,114.316849 51.130529,113.471023 L51.130529,113.471023 L46.3152237,132.653166 L34.6555223,129.632356 L39.4708275,110.238756 C36.7451831,109.54397 33.9892536,108.788767 31.1424694,108.093981 L31.1424694,108.093981 L16,104.317968 L21.8147082,90.9357798 C21.8147082,90.9357798 30.324776,93.2315954 30.324776,93.0805549 C30.324776,93.0805549 30.3278045,93.0805549 30.3278045,93.0835757 C32.5779755,93.7904453 34.9765426,92.5458716 35.6852102,90.3014097 L35.6852102,90.3014097 L43.3170148,59.7610204 L43.3472997,59.7006042 L49.0105833,37.7997315 C49.364917,34.4285075 46.9330365,31.398635 43.5592943,31.0029089 C43.7410039,30.8820765 35.0795114,28.8883419 35.0795114,28.8883419 L35.0795114,28.8883419 L38.1080053,16.4426046 L54.098453,20.3998657 C56.5212481,21.0040277 59.004613,21.5779817 61.5485479,22.1519356 L61.5485479,22.1519356 L66.3638532,3 Z M61.4274081,73.6265384 L55.0070011,99.3034236 C62.9416551,101.26695 87.4118856,109.121056 91.0157933,94.621168 L91.0157933,94.621168 L91.0157933,94.7722085 C94.7408408,79.6681584 69.3620621,75.5900649 61.4274081,73.6265384 L61.4274081,73.6265384 Z M70.2100404,38.554934 L64.3347623,61.8755874 C70.9671639,63.5068248 91.3489276,70.213023 94.619701,57.0422913 L94.619701,57.0422913 L94.619701,57.0120832 C98.0721841,43.2673976 76.812157,40.1861714 70.2100404,38.554934 L70.2100404,38.554934 Z" stroke="#B0A2F3" stroke-width="1.56" stroke-linecap="round" stroke-linejoin="round" mask="url(#mask-2)"></path>
                </g>
            </g>
        </g>
    </g>
</svg>