<?xml version="1.0" encoding="UTF-8"?>
<svg width="45px" height="45px" viewBox="0 0 45 45" version="1.1" xmlns="http://www.w3.org/2000/svg" xmlns:xlink="http://www.w3.org/1999/xlink">
    <!-- Generator: Sketch 60 (88103) - https://sketch.com -->
    <title>S_renBTC-icon</title>
    <desc>Created with Sketch.</desc>
    <defs>
        <polygon id="path-1" points="1.99077691e-05 0 44.814609 0 44.814609 44.79552 1.99077691e-05 44.79552"></polygon>
    </defs>
    <g id="S_renBTC-icon" stroke="none" stroke-width="1" fill="none" fill-rule="evenodd">
        <g id="编组-2">
            <g id="编组">
                <mask id="mask-2" fill="white">
                    <use xlink:href="#path-1"></use>
                </mask>
                <g id="Clip-2"></g>
                <path d="M44.7955836,22.442301 C44.7707679,34.811973 34.7229546,44.8196994 22.3532826,44.7955637 C9.98361063,44.7707043 -0.02411577,34.722891 1.99077689e-05,22.353219 C0.02487933,9.9930915 10.0567851,-0.0108171 22.4169126,-8.76402677e-06 C34.7872209,-8.76402677e-06 44.8146726,10.028088 44.8146726,22.39776" id="Fill-1" fill="#B9AAFF" mask="url(#mask-2)"></path>
            </g>
            <path d="M21.2270316,7.781949 L23.6831496,8.418249 L22.6968846,12.376035 C23.3522736,12.522384 24.0267516,12.675096 24.6630516,12.834171 L24.6630516,12.834171 L25.6423173,8.9082 L28.0990716,9.5445 L27.0937176,13.55319 C30.1988616,14.6349 32.4704526,16.22565 32.0186796,19.241712 L32.0186796,19.241712 L31.9995906,19.260801 C31.6814406,21.436947 30.4724706,22.493205 28.8626316,22.868622 C31.0705926,24.013962 32.1898443,25.776513 31.1214966,28.82439 C29.7979926,32.616738 26.6419446,32.934888 22.4550906,32.139513 L22.4550906,32.139513 L21.4370106,36.218196 L18.9808926,35.581896 L19.9798836,31.56048 C19.3308576,31.395042 18.6627426,31.229604 18.0264426,31.05144 L18.0264426,31.05144 L17.0147256,35.091945 L14.5649706,34.455645 L15.5766876,30.370599 C15.0040176,30.22425 14.4249846,30.065175 13.8268626,29.918826 L13.8268626,29.918826 L10.6453626,29.123451 L11.8670586,26.304642 C11.8670586,26.304642 13.6550616,26.78823 13.6550616,26.756415 L13.6553798,26.7564945 C14.1284688,26.9059455 14.6324184,26.6437899 14.7813126,26.171019 L14.7813126,26.171019 L16.3847886,19.738026 L16.6456716,19.801656 C16.5635889,19.7679321 16.4783247,19.7424801 16.3911516,19.7253 L16.3911516,19.7253 L17.5810326,15.112125 C17.6554797,14.4020142 17.1445308,13.7638053 16.4356926,13.68045 C16.4738706,13.654998 14.6540526,13.23504 14.6540526,13.23504 L14.6540526,13.23504 L15.2903526,10.613484 L18.6500166,11.447037 C19.1590566,11.574297 19.6808226,11.695194 20.2153146,11.816091 L20.2153146,11.816091 L21.2270316,7.781949 Z M20.1898626,22.658643 L18.8409066,28.067193 C20.5080126,28.480788 25.6493166,30.135168 26.4065136,27.080928 L26.4065136,27.080928 L26.4065136,27.112743 C27.1891626,23.931243 21.8569686,23.072238 20.1898626,22.658643 L20.1898626,22.658643 Z M22.0351326,15.2712 L20.8007106,20.183436 C22.1942076,20.527038 26.4765066,21.939624 27.1637106,19.165356 L27.1637106,19.165356 C27.8890926,16.263828 23.4222666,15.614802 22.0351326,15.2712 L22.0351326,15.2712 Z" id="形状结合" fill="#000000"></path>
        </g>
    </g>
</svg>