<?xml version="1.0" encoding="UTF-8"?>
<svg width="45px" height="45px" viewBox="0 0 45 45" version="1.1" xmlns="http://www.w3.org/2000/svg" xmlns:xlink="http://www.w3.org/1999/xlink">
    <!-- Generator: Sketch 60 (88103) - https://sketch.com -->
    <title>S_USDT</title>
    <desc>Created with Sketch.</desc>
    <g id="S_USDT" stroke="none" stroke-width="1" fill="none" fill-rule="evenodd">
        <g id="tether-seeklogo.com" fill-rule="nonzero">
            <path d="M22.5,0 C34.92585,0 45,10.07415 45,22.5 C45,34.92585 34.9254,45 22.5,45 C10.0746,45 0,34.92855 0,22.5 C0,10.07145 10.0728,0 22.5,0" id="路径" fill="#B9AAFF"></path>
            <path d="M25.27695,19.5021 L25.27695,16.155 L32.931,16.155 L32.931,11.05515 L12.0888,11.05515 L12.0888,16.155 L19.74375,16.155 L19.74375,19.4994 C13.5225,19.78515 8.84475,21.01725 8.84475,22.49325 C8.84475,23.96925 13.52475,25.20135 19.74375,25.4889 L19.74375,36.21015 L25.27875,36.21015 L25.27875,25.488 C31.48875,25.20135 36.15705,23.97015 36.15705,22.4955 C36.15705,21.02085 31.48875,19.78965 25.27875,19.503 M25.27875,24.5799 L25.27875,24.5772 C25.1226,24.5871 24.32025,24.63525 22.53375,24.63525 C21.10545,24.63525 20.1006,24.59475 19.74645,24.5763 L19.74645,24.5808 C14.25015,24.33735 10.1475,23.3802 10.1475,22.23495 C10.1475,21.0897 14.2506,20.1339 19.74645,19.89 L19.74645,23.62725 C20.10645,23.652 21.13605,23.71275 22.55715,23.71275 C24.264,23.71275 25.12215,23.64165 25.27965,23.62725 L25.27965,19.89 C30.76515,20.13435 34.85835,21.0924 34.85835,22.2336 C34.85835,23.3748 30.76335,24.3333 25.27965,24.57765" id="形状" fill="#0B000E"></path>
        </g>
    </g>
</svg>