<?xml version="1.0" encoding="UTF-8"?>
<svg width="87px" height="143px" viewBox="0 0 87 143" version="1.1" xmlns="http://www.w3.org/2000/svg" xmlns:xlink="http://www.w3.org/1999/xlink">
    <!-- Generator: Sketch 60.1 (88133) - https://sketch.com -->
    <title>编组</title>
    <desc>Created with Sketch.</desc>
    <defs>
        <polygon id="path-1" points="0.71232 0.397255861 75.83952 0.397255861 75.83952 100.8 0.71232 100.8"></polygon>
        <polygon id="path-3" points="0 142.4964 87.1608 142.4964 87.1608 0 0 0"></polygon>
    </defs>
    <g id="页面-1" stroke="none" stroke-width="1" fill="none" fill-rule="evenodd">
        <g id="landing-page" transform="translate(-443.000000, -744.000000)">
            <g id="2" transform="translate(64.000000, 610.000000)">
                <g id="编组-4" transform="translate(293.000000, 143.000000)"></g>
                <g id="编组" transform="translate(379.000000, 134.000000)">
                    <path d="M86.02824,65.10012 C85.98744,63.72732 84.36024,60.79812 79.95384,58.25292 L56.31864,44.60652 C52.31064,42.29412 46.25064,42.04212 42.77904,44.04612 L33.46104,49.42572 C33.46104,49.42572 28.68504,52.27812 19.84464,57.28692 L19.83864,57.29172 C14.66904,60.22212 12.12384,63.06252 12.12384,65.48532 L12.14664,116.27892 C12.59184,123.29052 18.24504,126.37932 18.24504,126.37932 L41.80704,139.98372 C45.81384,142.29732 51.87624,142.54932 55.34544,140.54532 L79.80024,126.42612 L79.80144,126.42612 L80.01864,126.30012 C81.09264,125.65692 85.94184,122.37612 85.99584,115.65612 L86.02824,65.48532 C86.03004,65.26212 86.03004,65.26212 86.02824,65.10012" id="Fill-1" fill="#0B000E"></path>
                    <g transform="translate(10.800000, 41.696400)">
                        <mask id="mask-2" fill="white">
                            <use xlink:href="#path-1"></use>
                        </mask>
                        <g id="Clip-4"></g>
                        <path d="M37.85832,1.60152 C35.76432,1.60152 33.77112,2.02152 32.28432,2.87832 L22.96512,8.25912 C22.92552,8.28312 18.09192,11.16792 9.34632,16.12272 C4.56432,18.83352 1.93512,21.55392 1.93512,23.78952 L1.95792,74.58312 C2.37432,81.11832 7.68432,84.11832 7.73832,84.14712 L31.31232,97.75752 C35.14512,99.97032 40.94472,100.22232 44.23992,98.31912 L68.91312,84.07512 C69.84432,83.51712 74.53272,80.38512 74.58432,73.95432 L74.61792,23.41392 C74.57592,22.22952 72.97632,19.47072 68.84832,17.08632 L45.21192,3.43992 C43.10712,2.22552 40.40952,1.60152 37.85832,1.60152 M38.66712,100.80072 C35.89272,100.80072 32.97312,100.12872 30.70152,98.81712 L7.13832,85.21272 C6.90792,85.08792 1.19832,81.88512 0.73632,74.62152 L0.71232,23.78952 C0.71232,21.05592 3.48672,18.03792 8.73672,15.06312 C17.47632,10.11072 22.29912,7.23312 22.34712,7.20552 L31.67352,1.81992 C35.30832,-0.27768 41.65392,-0.02688 45.82392,2.38152 L69.45912,16.02672 C73.76712,18.51432 75.78552,21.58512 75.83952,23.38512 L75.80712,73.96032 C75.74952,81.04872 70.57032,84.50712 69.53352,85.12752 L44.85192,99.37752 C43.19832,100.33272 40.98312,100.80072 38.66712,100.80072" id="Fill-3" fill="#B9AAFF" mask="url(#mask-2)"></path>
                    </g>
                    <mask id="mask-4" fill="white">
                        <use xlink:href="#path-3"></use>
                    </mask>
                    <g id="Clip-6"></g>
                    <polygon id="Fill-5" fill="#B9AAFF" mask="url(#mask-4)" points="48.4524 133.2816 49.674 133.2816 49.674 93.5856 48.4524 93.5856"></polygon>
                    <path d="M42.72972,43.99932 L33.41052,49.37892 C33.41052,49.37892 28.63572,52.23132 19.79532,57.24012 L19.78812,57.24492 C18.35172,58.05852 16.92372,59.26932 15.89052,60.06372 C15.61452,60.33252 10.45692,65.37372 21.73452,71.74332 L42.05172,83.49012 C42.05172,83.49012 48.39492,88.15212 56.84532,83.17812 C63.78852,79.09092 75.42492,72.33372 79.35492,70.05252 C80.49012,69.39372 81.47772,68.49972 82.18212,67.39332 C83.64972,65.09052 85.01172,61.13532 79.90452,58.20612 L56.26812,44.55972 C52.26132,42.24732 46.20012,41.99532 42.72972,43.99932" id="Fill-7" fill="#0B000E" mask="url(#mask-4)"></path>
                    <path d="M42.40752,49.21296 L33.08832,54.59376 C33.08832,54.59376 28.31352,57.44496 19.47312,62.45496 L19.46592,62.45856 C18.02952,63.27336 16.60152,64.48416 15.56832,65.27736 C15.29232,65.54616 10.13472,70.58856 21.41232,76.95816 L41.72952,88.70496 C41.72952,88.70496 48.07272,93.36576 56.52312,88.39176 C63.46632,84.30456 75.10272,77.54736 79.03272,75.26616 C80.16792,74.60856 81.15552,73.71336 81.85992,72.60696 C83.32752,70.30416 84.68952,66.34896 79.58232,63.41976 L55.94592,49.77456 C51.93912,47.46096 45.87792,47.21016 42.40752,49.21296" id="Fill-8" fill="#322E45" mask="url(#mask-4)"></path>
                    <path d="M43.04208,44.53836 L33.72168,49.91916 C33.68208,49.94316 28.84848,52.82796 20.10288,57.78276 C19.00008,58.40796 17.87688,59.29356 16.97328,60.00756 C16.72368,60.20436 16.48848,60.38916 16.27008,60.55716 C16.08288,60.74676 14.88288,62.03076 15.13488,63.95556 C15.44328,66.31716 17.83248,68.82396 22.04088,71.19996 L42.36408,82.95156 C42.66648,83.16636 48.55728,87.33636 56.52888,82.63956 C62.94528,78.86436 73.39008,72.79356 79.04208,69.51276 C80.13288,68.88036 81.03648,68.03196 81.65688,67.05756 C82.40568,65.88276 83.20728,64.11396 82.77528,62.36196 C82.43448,60.97836 81.36408,59.76276 79.59408,58.74756 L55.95648,45.09996 C52.12848,42.88836 46.33488,42.63756 43.04208,44.53836 M49.00608,86.07756 C44.59608,86.07756 41.72688,84.02436 41.68368,83.99196 L21.42288,72.28356 C16.79928,69.67236 14.26608,66.92316 13.89768,64.11636 C13.56888,61.60476 15.13728,59.92836 15.45528,59.61756 C15.72528,59.40516 15.95568,59.22156 16.20048,59.02956 C17.13768,58.28916 18.30288,57.36996 19.48128,56.70156 C28.21968,51.75036 33.04368,48.87276 33.09168,48.84516 L42.41808,43.45956 C46.05528,41.35956 52.40808,41.61036 56.57928,44.02116 L80.21688,57.66756 C82.29168,58.85676 83.56008,60.33636 83.98608,62.06316 C84.52248,64.24356 83.58768,66.34716 82.70808,67.72836 C81.98088,68.86956 80.92968,69.85956 79.66848,70.59156 C74.01648,73.87236 63.57648,79.93956 57.16248,83.71476 C54.13728,85.49556 51.35328,86.07756 49.00608,86.07756" id="Fill-9" fill="#B9AAFF" mask="url(#mask-4)"></path>
                    <path d="M71.33232,61.36884 C71.33232,61.31844 71.33232,61.26804 71.33232,61.21644 L71.33112,49.06044 L62.48712,49.01844 C54.67872,45.60684 43.88592,45.56484 36.00312,48.89244 L26.85552,48.84924 L26.86272,61.20444 C26.86152,61.26444 26.86152,61.32324 26.86272,61.38204 L26.87592,61.54644 C26.98512,64.74804 29.13792,67.93044 33.36912,70.37244 C42.05592,75.38844 56.13792,75.38844 64.82352,70.37244 C69.05472,67.93044 71.22912,64.89204 71.33832,61.69164 L71.33232,61.54644 L71.33232,61.36884 Z" id="Fill-10" fill="#0B000E" mask="url(#mask-4)"></path>
                    <path d="M27.46668,49.46316 L27.48468,61.49916 C27.59268,64.64796 29.79108,67.60116 33.67428,69.84276 C42.17868,74.75316 56.01588,74.75316 64.51908,69.84276 C68.47668,67.55916 70.62348,64.73316 70.72788,61.66956 L70.72068,61.22796 L70.72068,49.66836 L62.24148,49.57836 C54.63588,46.25436 43.94268,46.20396 36.24108,49.45596 L36.12588,49.50516 L27.46668,49.46316 Z M49.09668,74.73036 C43.28988,74.73036 37.48548,73.45476 33.06468,70.90236 C28.80108,68.44236 26.38668,65.12676 26.26548,61.56756 L26.25108,61.20396 L26.24268,48.23556 L35.88228,48.28116 C43.82148,44.97396 54.77268,45.02556 62.61588,48.40716 L71.94228,48.45156 L71.94948,61.66116 C71.83068,65.21796 69.47148,68.39676 65.12988,70.90236 C60.71028,73.45476 54.90228,74.73036 49.09668,74.73036 L49.09668,74.73036 Z" id="Fill-11" fill="#B9AAFF" mask="url(#mask-4)"></path>
                    <path d="M64.82424,39.76944 C73.50984,44.78424 73.50984,52.91544 64.82424,57.92904 C56.13744,62.94384 42.05544,62.94384 33.36984,57.92904 C24.68304,52.91544 24.68304,44.78424 33.36984,39.76944 C42.05544,34.75464 56.13864,34.75464 64.82424,39.76944" id="Fill-12" fill="#0B000E" mask="url(#mask-4)"></path>
                    <path d="M64.89168,41.3808 C73.57728,46.3956 73.57728,54.5268 64.89168,59.5416 C56.20488,64.5552 42.12288,64.5552 33.43728,59.5416 C24.75048,54.5268 24.75048,46.3956 33.43728,41.3808 C42.12288,36.366 56.20608,36.366 64.89168,41.3808" id="Fill-13" fill="#322E45" mask="url(#mask-4)"></path>
                    <path d="M49.09716,36.61704 C43.51236,36.61704 37.92636,37.84344 33.67476,40.29864 C29.67276,42.60984 27.46716,45.64704 27.46716,48.84984 C27.46716,52.05144 29.67276,55.08864 33.67476,57.39984 C42.17676,62.31024 56.01396,62.31024 64.51956,57.39984 C68.52156,55.08864 70.72716,52.05144 70.72716,48.84984 C70.72716,45.64704 68.52156,42.60984 64.51956,40.29864 C60.26676,37.84344 54.68196,36.61704 49.09716,36.61704 M49.09716,62.28744 C43.29036,62.28744 37.48476,61.01184 33.06396,58.45944 C28.66596,55.91904 26.24436,52.50624 26.24436,48.84984 C26.24436,45.19224 28.66596,41.77944 33.06396,39.24024 C41.90316,34.13664 56.28996,34.13424 65.13036,39.24024 C69.52716,41.77944 71.94996,45.19224 71.94996,48.84984 C71.94996,52.50624 69.52716,55.91904 65.13036,58.45944 C60.70956,61.01184 54.90156,62.28744 49.09716,62.28744" id="Fill-14" fill="#B9AAFF" mask="url(#mask-4)"></path>
                    <path d="M62.27844,41.59284 C69.55884,45.59964 69.55884,52.09764 62.27844,56.10564 C54.99804,60.11364 43.19484,60.11364 35.91564,56.10564 C28.63524,52.09764 28.63524,45.59964 35.91564,41.59284 C43.19484,37.58484 54.99924,37.58484 62.27844,41.59284" id="Fill-15" fill="#0B000E" mask="url(#mask-4)"></path>
                    <path d="M49.09716,39.1782 C44.43636,39.1782 39.77556,40.155 36.22716,42.1074 C32.90676,43.935 31.07916,46.3302 31.07916,48.8502 C31.07916,51.369 32.90796,53.763 36.22716,55.5894 C43.32396,59.4978 54.86916,59.4978 61.96716,55.5894 C65.28636,53.7618 67.11516,51.369 67.11516,48.849 C67.11516,46.329 65.28636,43.935 61.96716,42.1074 C58.41876,40.155 53.75796,39.1782 49.09716,39.1782 M49.09716,59.6934 C44.20956,59.6934 39.32316,58.6698 35.60316,56.6202 C31.88076,54.5718 29.83116,51.8118 29.83116,48.8502 C29.83116,45.8862 31.88076,43.1274 35.60316,41.0778 C43.04436,36.981 55.14996,36.981 62.59116,41.0778 C66.31236,43.1262 68.36316,45.885 68.36316,48.849 C68.36316,51.8118 66.31236,54.5718 62.59116,56.6202 C58.87116,58.6686 53.98356,59.6934 49.09716,59.6934" id="Fill-16" fill="#B9AAFF" mask="url(#mask-4)"></path>
                    <path d="M35.5842,52.73148 C34.725,53.20428 33.9654,53.71908 33.2898,54.26148 C33.5898,54.52788 33.9174,54.78468 34.2654,55.03788 C34.845,54.59028 35.4846,54.16068 36.2082,53.76228 C39.7566,51.80868 44.4162,50.83188 49.0782,50.83188 C53.739,50.83188 58.3986,51.80868 61.947,53.76228 C62.685,54.16788 63.3366,54.60588 63.9234,55.06308 C64.2738,54.81108 64.6026,54.55428 64.9038,54.28908 C64.2186,53.73588 63.4458,53.21268 62.571,52.73148 C55.131,48.63588 43.0254,48.63588 35.5842,52.73148" id="Fill-17" fill="#B9AAFF" mask="url(#mask-4)"></path>
                    <polygon id="Fill-18" fill="#B9AAFF" mask="url(#mask-4)" points="33.70872 54.61416 41.88792 50.69376 45.46632 50.69376 45.51192 39.53616 38.81952 40.37976 33.60432 43.13856 30.45552 48.25536 31.07952 51.85416"></polygon>
                    <polygon id="Fill-19" fill="#B9AAFF" mask="url(#mask-4)" points="51.34944 61.62432 51.34944 74.13432 59.64384 72.60192 66.59664 69.34512 70.16304 65.48232 71.69064 62.28672 71.33904 51.45312 67.43664 56.39712 63.28464 59.11152 54.11544 61.40592"></polygon>
                    <polygon id="Fill-20" fill="#B9AAFF" mask="url(#mask-4)" points="46.6854 61.61844 46.6854 74.05884 42.8214 73.76004 42.8214 61.08204"></polygon>
                    <path d="M54.9348,139.07124 C53.622,139.07124 52.5048,138.78324 51.612,138.21444 C49.8828,137.11044 49.0056,134.96604 49.0067988,131.83884 L49.074,93.58644 C49.0548,93.43284 48.2076,87.96084 55.4412,83.83404 L79.4868,69.94884 C80.5476,69.32124 81.5028,69.00444 82.332,69.00444 C82.8228,69.00444 83.2776,69.11844 83.6856,69.34164 C85.8324,70.51044 86.0892,74.48844 86.1192,75.27444 L86.118,115.66164 C86.0628,122.46684 81.0936,125.78244 80.0976,126.37764 L59.862,138.06084 C59.844,138.05844 59.826,138.05844 59.8092,138.05844 C59.7588,138.05844 59.7084,138.06684 59.6616,138.08484 C58.7292,138.45324 56.8752,139.07124 54.9348,139.07124" id="Fill-21" fill="#0B000E" mask="url(#mask-4)"></path>
                    <path d="M82.33212,68.48388 C81.40572,68.48388 80.36532,68.82348 79.22652,69.49788 L55.18332,83.38188 C47.69772,87.65268 48.52092,93.43788 48.55332,93.58548 L48.4861189,131.83788 C48.48492,135.15468 49.44252,137.44788 51.33252,138.65268 C52.42572,139.34988 53.69652,139.59228 54.93492,139.59228 C56.98692,139.59228 58.94892,138.92628 59.85372,138.56868 L59.89572,138.64308 L80.36412,126.82428 C81.40332,126.20388 86.58252,122.74548 86.63892,115.66068 L86.63892,75.25428 C86.59452,74.08068 86.26812,70.15548 83.93532,68.88348 C83.44812,68.61708 82.91172,68.48388 82.33212,68.48388 M82.33212,69.52548 C82.74012,69.52548 83.10132,69.61428 83.43732,69.79788 C84.90732,70.59948 85.51692,73.16268 85.59852,75.25428 L85.59852,115.65348 C85.54452,122.18268 80.78412,125.36028 79.84452,125.92308 L59.73252,137.53428 C59.64492,137.54508 59.55732,137.56668 59.47092,137.60028 C58.74732,137.88588 56.85732,138.55068 54.93492,138.55068 C53.72292,138.55068 52.69932,138.28908 51.89172,137.77428 C50.32212,136.77348 49.52652,134.77668 49.5277186,131.84028 L49.59372,93.58668 C49.59372,93.51228 49.59372,93.47748 49.57812,93.40548 C49.56972,93.35388 48.86292,88.18668 55.70412,84.28428 L79.75692,70.39428 C80.73132,69.81708 81.59772,69.52548 82.33212,69.52548" id="Fill-22" fill="#B9AAFF" mask="url(#mask-4)"></path>
                    <path d="M38.31996,137.2548 C38.32596,137.2548 43.23036,139.4808 46.16796,137.6028 C47.67996,136.6356 48.44676,134.6916 48.44676,131.826 L48.44676,93.5748 C48.48516,93.27 49.14876,88.2636 42.42396,84.432 L42.42156,84.4308 L18.32076,70.5708 C16.84716,69.6984 15.66636,69.4968 14.79996,69.9732 C12.97956,70.968 12.75996,74.6148 12.73476,75.3372 L12.75276,116.2668 C13.17156,122.8272 18.47916,125.8008 18.53196,125.8308 L38.31996,137.2548 Z M43.20396,139.5792 C40.47636,139.5792 37.91196,138.4104 37.75716,138.3384 L17.93316,126.8964 C17.70276,126.7716 11.99316,123.57 11.53116,116.3052 L11.51196,75.3144 C11.55396,74.1168 11.87196,70.1796 14.21316,68.9004 C15.48396,68.2044 17.07156,68.4108 18.93756,69.5136 L43.02996,83.3712 C50.52276,87.6408 49.70076,93.426 49.66236,93.6708 L49.66956,131.826 C49.66956,135.1368 48.71196,137.4288 46.82196,138.6348 C45.72396,139.3356 44.44836,139.5792 43.20396,139.5792 L43.20396,139.5792 Z" id="Fill-23" fill="#B9AAFF" mask="url(#mask-4)"></path>
                    <path d="M25.69896,105.39156 L25.69896,91.84476 L6.52416,80.73516 L6.52416,94.28196 C6.52416,94.28196 6.79896,101.09076 3.91416,102.70356 L1.02936,104.31636 L20.20416,115.42596 L23.08896,113.81316 C25.97376,112.20036 25.69896,105.39156 25.69896,105.39156" id="Fill-24" fill="#0B000E" mask="url(#mask-4)"></path>
                    <path d="M28.12056,109.5564 L28.12056,96.0096 L8.94576,84.9 L8.94576,98.4468 C8.94576,98.4468 9.22056,105.2556 6.33576,106.8684 L3.45096,108.4812 L22.62576,119.5908 L25.51056,117.978 C28.39536,116.3652 28.12056,109.5564 28.12056,109.5564" id="Fill-25" fill="#322E45" mask="url(#mask-4)"></path>
                    <path d="M2.0598,104.32392 L20.2098,114.83952 L22.8402,113.36952 C24.9822,112.17072 25.263,107.21952 25.1886,105.41232 L25.1886,92.13912 L7.035,81.61872 L7.035,94.28112 C7.0458,94.55112 7.2846,101.40312 4.1634,103.14792 L2.0598,104.32392 Z M20.199,116.01192 L0.0006,104.30832 L3.6654,102.25872 C5.8086,101.06112 6.0882,96.10872 6.0162,94.30152 L6.015,79.85112 L26.2086,91.55112 L26.2086,105.38112 C26.2242,105.79632 26.4282,112.52952 23.337,114.25872 L20.199,116.01192 Z" id="Fill-26" fill="#B9AAFF" mask="url(#mask-4)"></path>
                    <path d="M50.62884,18.94692 C50.80644,14.83812 47.55684,9.73332 42.11004,6.24972 C36.66444,2.76612 30.66684,1.95612 27.01164,3.84132 L26.26524,3.36372 L24.59244,5.97852 C21.85164,10.26492 25.25004,17.33412 32.18364,21.76932 C39.11844,26.20452 46.96164,26.32572 49.70364,22.04052 L51.37644,19.42452 L50.62884,18.94692 Z" id="Fill-27" fill="#0B000E" mask="url(#mask-4)"></path>
                    <path d="M26.337,3.69264 L24.7926,6.10704 C22.1262,10.27584 25.4994,17.21184 32.3118,21.56904 C39.1242,25.92624 46.8366,26.07984 49.503,21.91224 L51.0474,19.49664 L50.385,19.07424 L50.391,18.93744 C50.5698,14.79984 47.1906,9.78144 41.9826,6.45024 C36.7734,3.11904 30.801,2.15544 27.1206,4.05264 L26.9994,4.11624 L26.337,3.69264 Z M32.0562,21.96984 C25.0218,17.47104 21.5838,10.23984 24.3906,5.85024 L26.1918,3.03504 L27.0258,3.56784 C30.8598,1.67784 36.9486,2.66544 42.2382,6.04944 C47.529,9.43224 50.979,14.54544 50.871,18.81864 L51.705,19.35264 L49.9038,22.16784 C47.0958,26.55744 39.0894,26.46864 32.0562,21.96984 L32.0562,21.96984 Z" id="Fill-28" fill="#B9AAFF" mask="url(#mask-4)"></path>
                    <path d="M51.37584,19.42452 C48.63504,23.70972 40.79064,23.58972 33.85704,19.15332 C26.92344,14.71932 23.52384,7.64892 26.26464,3.36372 C29.00544,-0.92268 36.84984,-0.80028 43.78344,3.63372 C50.71824,8.06892 54.11664,15.13932 51.37584,19.42452" id="Fill-29" fill="#0B000E" mask="url(#mask-4)"></path>
                    <path d="M50.98212,20.04036 C48.24012,24.32676 40.39692,24.20556 33.46332,19.76916 C26.52972,15.33516 23.13012,8.26476 25.87092,3.97956 C28.61172,-0.30684 36.45612,-0.18444 43.38972,4.24956 C50.32452,8.68476 53.72292,15.75516 50.98212,20.04036" id="Fill-30" fill="#322E45" mask="url(#mask-4)"></path>
                    <path d="M43.65552,3.83448 C36.84312,-0.52272 29.13072,-0.67632 26.46552,3.49128 C23.79912,7.66008 27.17352,14.59608 33.98472,18.95328 C40.79832,23.31048 48.50952,23.46408 51.17592,19.29648 C53.84112,15.12888 50.46792,8.19168 43.65552,3.83448 M33.72912,19.35528 C26.69472,14.85648 23.25672,7.62408 26.06352,3.23448 C28.87152,-1.15392 36.87792,-1.06512 43.91232,3.43368 C50.94552,7.93248 54.38352,15.16368 51.57672,19.55328 C48.76872,23.94168 40.76232,23.85408 33.72912,19.35528" id="Fill-31" fill="#B9AAFF" mask="url(#mask-4)"></path>
                    <path d="M49.07016,17.45868 C47.00856,20.68308 40.84656,20.42508 35.30976,16.88388 C29.77176,13.34148 26.95416,7.85628 29.01696,4.63188 C31.07856,1.40748 37.23936,1.66548 42.77736,5.20788 C48.31536,8.74908 51.13296,14.23428 49.07016,17.45868" id="Fill-32" fill="#0B000E" mask="url(#mask-4)"></path>
                    <path d="M42.64896,5.40828 C37.23096,1.94268 31.20576,1.65228 29.21736,4.76028 C27.22896,7.86828 30.02016,13.21668 35.43816,16.68228 C40.85616,20.14788 46.88256,20.43828 48.87096,17.33028 C50.85816,14.22228 48.06696,8.87388 42.64896,5.40828 M35.18136,17.08308 C29.54136,13.47708 26.68656,7.83348 28.81656,4.50348 C30.94536,1.17468 37.26576,1.40028 42.90576,5.00748 C48.54576,8.61348 51.40056,14.25708 49.27176,17.58708 C47.14176,20.91588 40.82136,20.69028 35.18136,17.08308" id="Fill-33" fill="#B9AAFF" mask="url(#mask-4)"></path>
                    <path d="M42.77724,5.20728 C37.23924,1.66488 31.07844,1.40688 29.01684,4.63248 C28.83084,4.92168 28.69884,5.23488 28.59084,5.55768 C31.10364,3.19128 36.65004,3.68328 41.69004,6.90768 C46.73004,10.13208 49.50324,14.95968 48.40764,18.23328 C48.65604,17.99928 48.88524,17.74848 49.07004,17.45808 C51.13284,14.23368 48.31524,8.74968 42.77724,5.20728" id="Fill-34" fill="#0B000E" mask="url(#mask-4)"></path>
                    <path d="M42.64896,5.40828 C37.23096,1.94268 31.20456,1.65228 29.21736,4.76028 C29.21016,4.77228 29.20176,4.78308 29.19576,4.79508 C32.06856,3.00468 37.16256,3.72828 41.81856,6.70668 C46.47456,9.68508 49.26936,14.00508 48.84816,17.36508 C48.85416,17.35308 48.86256,17.34228 48.86976,17.33028 C50.85816,14.22228 48.06696,8.87388 42.64896,5.40828 L42.64896,5.40828 Z M48.02256,18.57348 L48.18216,18.15828 C49.25376,14.95788 46.40616,10.20708 41.56176,7.10868 C36.71616,4.00908 31.21056,3.41748 28.75416,5.73108 L28.35696,6.10548 L28.36536,5.48268 C28.49616,5.09028 28.63896,4.78068 28.81536,4.50348 C30.94536,1.17468 37.26576,1.40028 42.90576,5.00748 C48.54576,8.61348 51.40056,14.25708 49.27056,17.58708 C49.09656,17.86068 48.87336,18.12108 48.57216,18.40668 L48.02256,18.57348 Z" id="Fill-35" fill="#B9AAFF" mask="url(#mask-4)"></path>
                    <polygon id="Fill-36" fill="#786FA6" mask="url(#mask-4)" points="41.02704 4.27572 39.97344 5.92332 36.83544 4.66332 33.33024 4.08372 30.23064 4.55412 28.59144 5.55732 29.40384 4.02612 31.36224 2.82612 33.77544 2.37972 37.05144 2.73132 40.55184 3.97212"></polygon>
                    <polygon id="Fill-37" fill="#B9AAFF" mask="url(#mask-4)" points="35.29896 20.00748 33.59496 22.67148 36.88536 24.08868 40.29096 25.07748 44.47056 25.09188 47.75856 23.97828 49.24296 22.76028 50.52936 20.65188 47.43456 22.40628 43.41216 22.52508 38.23656 21.35628"></polygon>
                    <polygon id="Fill-38" fill="#B9AAFF" mask="url(#mask-4)" points="33.39408 18.89124 31.72128 21.50724 30.56448 20.63484 32.32008 17.88804"></polygon>
                    <g mask="url(#mask-4)">
                        <g transform="translate(33.600000, 3.296400)">
                            <polygon id="Fill-39" fill="#322E45" points="4.03092 6.62124 5.01492 5.74284 9.55212 7.67364 8.61012 8.51484"></polygon>
                            <path d="M4.95264,5.67324 L3.85704,6.65004 L8.62824,8.62284 L9.72504,7.64604 L4.95264,5.67324 Z M4.98984,5.89164 L9.37704,7.70484 L8.59224,8.40564 L4.20504,6.59124 L4.98984,5.89164 Z" id="Fill-40" fill="#B9AAFF"></path>
                            <polygon id="Fill-41" fill="#322E45" points="4.9884 5.58588 2.9304 0.61548 9.354 7.39068"></polygon>
                            <path d="M2.64984,0.183 L4.95264,5.673 L9.72504,7.6458 L2.64984,0.183 Z M3.21984,1.0578 L8.98224,7.1358 L5.09544,5.529 L3.21984,1.0578 Z" id="Fill-42" fill="#B9AAFF"></path>
                            <polygon id="Fill-43" fill="#322E45" points="1.64088 1.12404 2.61168 0.33444 4.86648 5.70924 3.89448 6.49884"></polygon>
                            <path d="M2.64984,0.183 L1.55424,1.1598 L3.85704,6.651 L4.95264,5.673 L2.64984,0.183 Z M2.57784,0.4974 L4.72704,5.6226 L3.92784,6.3354 L1.77864,1.2114 L2.57784,0.4974 Z" id="Fill-44" fill="#B9AAFF"></path>
                            <polygon id="Fill-45" fill="#322E45" points="3.94368 6.61428 4.91448 5.82468 6.86688 10.48068 5.89608 11.27028"></polygon>
                            <path d="M4.95264,5.67324 L3.85704,6.65004 L5.85744,11.42244 L6.95304,10.44444 L4.95264,5.67324 Z M4.88064,5.98764 L6.72864,10.39404 L5.92944,11.10684 L4.08144,6.70164 L4.88064,5.98764 Z" id="Fill-46" fill="#B9AAFF"></path>
                            <polygon id="Fill-47" fill="#322E45" points="5.12724 5.84664 9.55884 7.67904 6.98604 10.27824"></polygon>
                            <path d="M4.95264,5.67324 L6.95304,10.44444 L9.72504,7.64604 L4.95264,5.67324 Z M5.30184,6.02004 L9.39504,7.71324 L7.01784,10.11204 L5.30184,6.02004 Z" id="Fill-48" fill="#B9AAFF"></path>
                            <polygon id="Fill-49" fill="#322E45" points="7.31568 11.3082 6.22008 12.285 8.99568 9.4866 10.09128 8.5098"></polygon>
                            <polygon id="Fill-50" fill="#B9AAFF" points="10.09188 8.50968 8.99628 9.48648 6.22068 12.28488 7.31628 11.30808"></polygon>
                            <polygon id="Fill-51" fill="#322E45" points="6.30732 12.24924 7.27812 11.45964 8.79492 15.07764 7.82412 15.86724"></polygon>
                            <path d="M7.31568,11.3082 L6.22008,12.285 L7.78608,16.0194 L8.88168,15.0414 L7.31568,11.3082 Z M7.24488,11.6226 L8.65728,14.991 L7.85808,15.7038 L6.44448,12.3366 L7.24488,11.6226 Z" id="Fill-52" fill="#B9AAFF"></path>
                            <polygon id="Fill-53" fill="#322E45" points="7.40244 11.27184 9.94524 8.78424 8.84724 14.71584"></polygon>
                            <path d="M10.09188,8.50968 L7.31628,11.30808 L8.88228,15.04128 L10.09188,8.50968 Z M9.79668,9.07368 L8.81148,14.38968 L7.53708,11.35128 L9.79668,9.07368 Z" id="Fill-54" fill="#B9AAFF"></path>
                            <polygon id="Fill-55" fill="#322E45" points="4.95264 5.67264 3.85704 6.65064 0.82104 8.82864 1.91664 7.85064"></polygon>
                            <polygon id="Fill-56" fill="#B9AAFF" points="4.95264 5.67264 1.91664 7.85064 0.82104 8.82864 3.85704 6.65064"></polygon>
                            <polygon id="Fill-57" fill="#322E45" points="1.64736 1.16916 2.53416 0.40596 1.82256 7.84236 0.93576 8.60556"></polygon>
                            <path d="M2.64984,0.183 L1.55424,1.1598 L0.82104,8.829 L1.91664,7.851 L2.64984,0.183 Z M2.41704,0.6414 L1.73664,7.7598 L1.05264,8.3694 L1.73424,1.251 L2.41704,0.6414 Z" id="Fill-58" fill="#B9AAFF"></path>
                            <polygon id="Fill-59" fill="#322E45" points="2.70792 0.56328 4.86552 5.70888 2.02872 7.66008"></polygon>
                            <path d="M2.64984,0.183 L1.91664,7.851 L4.95264,5.673 L2.64984,0.183 Z M2.76504,0.9438 L4.72224,5.6082 L2.14224,7.4574 L2.76504,0.9438 Z" id="Fill-60" fill="#B9AAFF"></path>
                            <polygon id="Fill-61" fill="#322E45" points="2.09556 7.83708 4.91196 5.81748 6.76716 10.24188"></polygon>
                            <path d="M4.95264,5.67324 L1.91664,7.85004 L6.95304,10.44444 L4.95264,5.67324 Z M4.87104,5.96244 L6.58104,10.04124 L2.27544,7.82364 L4.87104,5.96244 Z" id="Fill-62" fill="#B9AAFF"></path>
                            <polygon id="Fill-63" fill="#322E45" points="0.9846 8.8074 1.9794 7.9206 6.7902 10.4634 5.8434 11.3082"></polygon>
                            <path d="M1.91628,7.85052 L0.82068,8.82852 L5.85828,11.42172 L6.95388,10.44372 L1.91628,7.85052 Z M1.94508,8.07612 L6.62508,10.48572 L5.82948,11.19612 L1.14948,8.78652 L1.94508,8.07612 Z" id="Fill-64" fill="#B9AAFF"></path>
                            <polygon id="Fill-65" fill="#322E45" points="2.8098 9.09396 7.2726 11.39196 8.625 14.66556"></polygon>
                            <path d="M2.27844,8.71476 L8.88204,15.04116 L7.31604,11.30796 L2.27844,8.71476 Z M3.34044,9.47196 L7.16964,11.44356 L8.35884,14.28156 L3.34044,9.47196 Z" id="Fill-66" fill="#B9AAFF"></path>
                            <polygon id="Fill-67" fill="#322E45" points="1.32156 9.69456 2.27556 8.84256 8.74356 15.03936 7.78836 15.89136"></polygon>
                            <path d="M2.27844,8.71476 L1.18284,9.69156 L7.78644,16.01916 L8.88204,15.04116 L2.27844,8.71476 Z M2.27484,8.97036 L8.60484,15.03636 L7.79124,15.76356 L1.45884,9.69756 L2.27484,8.97036 Z" id="Fill-68" fill="#B9AAFF"></path>
                        </g>
                    </g>
                    <path d="M65.05284,26.96088 C61.00884,26.21328 55.50204,28.72128 51.29484,33.63048 C47.08764,38.53968 45.45204,44.36568 46.80924,48.24768 L46.23204,48.92088 L48.59004,50.94168 C52.45284,54.25248 59.92644,51.86928 65.28324,45.61968 C70.64004,39.36888 71.85084,31.61928 67.98684,28.30848 L65.63004,26.28768 L65.05284,26.96088 Z" id="Fill-69" fill="#0B000E" mask="url(#mask-4)"></path>
                    <path d="M46.56828,48.89544 L48.74508,50.76024 C52.50228,53.97984 59.84028,51.60384 65.10228,45.46464 C70.36428,39.32424 71.58948,31.70904 67.83228,28.48944 L65.65668,26.62344 L65.14428,27.21984 L65.00988,27.19584 C60.93828,26.44224 55.49868,29.09184 51.47508,33.78624 C47.45148,38.48064 45.66708,44.26104 47.03508,48.16944 L47.07948,48.29904 L46.56828,48.89544 Z M65.46468,45.77424 C60.03108,52.11384 52.39188,54.51264 48.43548,51.12144 L45.89628,48.94704 L46.54068,48.19584 C45.20268,44.13624 47.02668,38.24424 51.11388,33.47544 C55.19988,28.70784 60.74388,26.00304 64.96068,26.70264 L65.60388,25.95264 L68.14188,28.12704 C72.09828,31.51824 70.89708,39.43464 65.46468,45.77424 L65.46468,45.77424 Z" id="Fill-70" fill="#B9AAFF" mask="url(#mask-4)"></path>
                    <path d="M65.62992,26.28756 C69.49272,29.59836 68.28192,37.34916 62.92512,43.59876 C57.56952,49.84836 50.09592,52.23156 46.23192,48.92076 C42.37032,45.60996 43.57992,37.86036 48.93672,31.61076 C54.29352,25.35996 61.76712,22.97676 65.62992,26.28756" id="Fill-71" fill="#0B000E" mask="url(#mask-4)"></path>
                    <path d="M66.1848,26.76336 C70.0476,30.07416 68.8368,37.82376 63.4812,44.07456 C58.1244,50.32416 50.6508,52.70736 46.7868,49.39656 C42.9252,46.08576 44.1348,38.33616 49.4916,32.08656 C54.8484,25.83576 62.322,23.45256 66.1848,26.76336" id="Fill-72" fill="#322E45" mask="url(#mask-4)"></path>
                    <path d="M49.11768,31.76496 C43.85568,37.90536 42.63048,45.52056 46.38768,48.74016 C50.14368,51.95976 57.48288,49.58376 62.74488,43.44336 C68.00688,37.30296 69.23208,29.68896 65.47488,26.46816 C61.71768,23.24856 54.37968,25.62456 49.11768,31.76496 M63.10608,43.75416 C57.67248,50.09376 50.03328,52.49256 46.07808,49.10256 C42.12048,45.71136 43.32288,37.79496 48.75648,31.45536 C54.18888,25.11576 61.82808,22.71576 65.78448,26.10696 C69.74088,29.49816 68.53968,37.41456 63.10608,43.75416" id="Fill-73" fill="#B9AAFF" mask="url(#mask-4)"></path>
                    <path d="M63.3624,28.29732 C66.2688,30.78852 65.1564,36.85332 60.8784,41.84532 C56.6016,46.83612 50.778,48.86292 47.8716,46.37292 C44.9652,43.88172 46.0776,37.81692 50.3556,32.82492 C54.6324,27.83412 60.456,25.80612 63.3624,28.29732" id="Fill-74" fill="#0B000E" mask="url(#mask-4)"></path>
                    <path d="M50.5362,32.9802 C46.3506,37.8642 45.225,43.7898 48.027,46.191 C50.8278,48.5922 56.5122,46.5726 60.6978,41.6898 C64.8834,36.8058 66.009,30.879 63.2082,28.4778 C60.4062,26.0766 54.7218,28.0974 50.5362,32.9802 M61.0602,41.9994 C56.703,47.0826 50.7174,49.125 47.7162,46.5534 C44.715,43.9806 45.8178,37.7538 50.1738,32.6706 C54.531,27.5874 60.5166,25.545 63.5166,28.1166 C66.5178,30.6882 65.4162,36.9162 61.0602,41.9994" id="Fill-75" fill="#B9AAFF" mask="url(#mask-4)"></path>
                    <path d="M50.35512,32.82552 C46.07712,37.81632 44.96472,43.88232 47.87112,46.37232 C48.13272,46.59672 48.42432,46.77072 48.72912,46.92312 C46.73472,44.10552 47.99352,38.68152 51.88752,34.13832 C55.78032,29.59632 60.94872,27.52152 64.03752,29.06112 C63.84072,28.78272 63.62352,28.52112 63.36192,28.29792 C60.45552,25.80672 54.63192,27.83352 50.35512,32.82552" id="Fill-76" fill="#0B000E" mask="url(#mask-4)"></path>
                    <path d="M50.5362,32.9802 C46.3506,37.8642 45.225,43.791 48.027,46.1922 C48.0366,46.2006 48.0474,46.209 48.0582,46.2186 C46.6842,43.1238 48.1098,38.1798 51.7062,33.9834 C55.3038,29.787 59.9706,27.621 63.2382,28.5054 C63.2286,28.4958 63.2178,28.4862 63.2082,28.4778 C60.4062,26.0778 54.7218,28.0974 50.5362,32.9802 L50.5362,32.9802 Z M64.3206,29.4906 L63.9318,29.2734 C60.9114,27.7686 55.8114,29.9274 52.0686,34.2942 C48.3258,38.661 46.9734,44.031 48.9234,46.785 L49.2378,47.2302 L48.6222,47.1354 C48.2538,46.9518 47.9658,46.767 47.7162,46.5534 C44.715,43.9806 45.8178,37.7538 50.1738,32.6706 C54.531,27.5874 60.5166,25.545 63.5178,28.1166 C63.7638,28.329 63.9906,28.5834 64.2318,28.923 L64.3206,29.4906 Z" id="Fill-77" fill="#B9AAFF" mask="url(#mask-4)"></path>
                    <polygon id="Fill-78" fill="#786FA6" mask="url(#mask-4)" points="49.1892 34.4292 50.6736 35.7024 48.99 38.634 47.928 42.0252 47.964 45.1584 48.7296 46.9224 47.3244 45.9048 46.4088 43.7976 46.3032 41.3472 47.1072 38.1504 48.822 34.8576"></polygon>
                    <polygon id="Fill-79" fill="#B9AAFF" mask="url(#mask-4)" points="63.97116 42.28956 66.37236 44.34756 68.23356 41.28636 69.68676 38.05116 70.28196 33.91476 69.63636 30.50196 68.63676 28.86396 66.72756 27.29676 68.03316 30.60516 67.59396 34.60476 65.71476 39.56796"></polygon>
                    <polygon id="Fill-80" fill="#B9AAFF" mask="url(#mask-4)" points="62.60064 44.02044 64.95864 46.04124 63.93384 47.06604 61.45824 44.94444"></polygon>
                    <g mask="url(#mask-4)">
                        <g transform="translate(46.800000, 32.096400)">
                            <polygon id="Fill-81" fill="#322E45" points="6.77076 5.3838 9.31476 1.1598 10.04796 2.2578 7.50396 6.4818"></polygon>
                            <path d="M9.3102,0.98448 L6.693,5.43528 L7.509,6.65688 L10.1262,2.20608 L9.3102,0.98448 Z M9.321,1.33728 L9.9054,2.21208 L7.4982,6.30408 L6.9138,5.42928 L9.321,1.33728 Z" id="Fill-82" fill="#B9AAFF"></path>
                            <polygon id="Fill-83" fill="#322E45" points="9.00612 1.31616 6.61212 5.38896 1.40292 6.73536"></polygon>
                            <path d="M9.3102,0.98448 L0.9354,6.95328 L6.693,5.43528 L9.3102,0.98448 Z M8.703,1.64808 L6.5706,5.27448 L1.881,6.50928 L8.703,1.64808 Z" id="Fill-84" fill="#B9AAFF"></path>
                            <polygon id="Fill-85" fill="#322E45" points="1.0872 7.01028 6.7164 5.52708 7.3632 6.59868 1.7928 8.06508"></polygon>
                            <path d="M6.69288,5.43588 L0.93648,6.95268 L1.75128,8.17308 L7.50888,6.65748 L6.69288,5.43588 Z M6.61128,5.65188 L7.20648,6.54228 L1.83288,7.95828 L1.23768,7.06668 L6.61128,5.65188 Z" id="Fill-86" fill="#B9AAFF"></path>
                            <polygon id="Fill-87" fill="#322E45" points="6.84408 5.49336 11.71968 4.20816 12.36768 5.27976 7.54968 6.54936"></polygon>
                            <path d="M11.69616,4.11756 L6.69336,5.43636 L7.50816,6.65676 L12.51216,5.33916 L11.69616,4.11756 Z M11.61456,4.33356 L12.20976,5.22396 L7.58976,6.44196 L6.99576,5.55036 L11.61456,4.33356 Z" id="Fill-88" fill="#B9AAFF"></path>
                            <polygon id="Fill-89" fill="#322E45" points="9.32016 1.15272 11.53656 4.06272 6.88896 5.28672"></polygon>
                            <path d="M9.3102,0.98448 L6.693,5.43528 L11.6958,4.11768 L9.3102,0.98448 Z M9.3306,1.32048 L11.3766,4.00848 L7.0854,5.13768 L9.3306,1.32048 Z" id="Fill-90" fill="#B9AAFF"></path>
                            <polygon id="Fill-91" fill="#322E45" points="12.60204 3.87912 13.41804 5.10072 11.03244 1.96152 10.21644 0.74112"></polygon>
                            <polygon id="Fill-92" fill="#B9AAFF" points="10.21668 0.74076 11.03268 1.96236 13.41708 5.10036 12.60228 3.87876"></polygon>
                            <polygon id="Fill-93" fill="#322E45" points="12.75324 3.93648 16.54044 2.93808 17.18724 4.01088 13.45884 4.99248"></polygon>
                            <path d="M16.51668,2.84784 L12.60228,3.87864 L13.41708,5.10024 L17.33268,4.06944 L16.51668,2.84784 Z M16.43508,3.06384 L17.03028,3.95424 L13.49868,4.88424 L12.90348,3.99384 L16.43508,3.06384 Z" id="Fill-94" fill="#B9AAFF"></path>
                            <polygon id="Fill-95" fill="#322E45" points="10.47564 0.92652 16.18884 2.83692 12.63924 3.77292"></polygon>
                            <path d="M10.21668,0.74076 L12.60228,3.87876 L16.51668,2.84796 L10.21668,0.74076 Z M10.73508,1.11156 L15.86148,2.82636 L12.67548,3.66636 L10.73508,1.11156 Z" id="Fill-96" fill="#B9AAFF"></path>
                            <polygon id="Fill-97" fill="#322E45" points="6.69288 5.43588 7.50888 6.65748 9.24288 9.96588 8.42688 8.74548"></polygon>
                            <polygon id="Fill-98" fill="#B9AAFF" points="6.69288 5.43588 8.42688 8.74548 9.24288 9.96588 7.50888 6.65748"></polygon>
                            <polygon id="Fill-99" fill="#322E45" points="1.77336 8.0826 1.14096 7.0986 8.40576 8.8362 9.03816 9.8214"></polygon>
                            <path d="M0.936,6.95292 L1.752,8.17452 L9.2424,9.96612 L8.4276,8.74572 L0.936,6.95292 Z M1.3584,7.24692 L8.3112,8.91132 L8.8212,9.67332 L1.866,8.00772 L1.3584,7.24692 Z" id="Fill-100" fill="#B9AAFF"></path>
                            <polygon id="Fill-101" fill="#322E45" points="1.32096 6.94884 6.71736 5.52684 8.25336 8.60724"></polygon>
                            <path d="M6.69288,5.43588 L0.93648,6.95268 L8.42688,8.74548 L6.69288,5.43588 Z M6.59568,5.65548 L8.06928,8.46708 L1.70568,6.94428 L6.59568,5.65548 Z" id="Fill-102" fill="#B9AAFF"></path>
                            <polygon id="Fill-103" fill="#322E45" points="6.83052 5.49684 11.47092 4.27404 8.43852 8.56644"></polygon>
                            <path d="M11.69616,4.11756 L6.69336,5.43636 L8.42736,8.74476 L11.69616,4.11756 Z M11.24616,4.43076 L8.45136,8.38716 L6.96816,5.55756 L11.24616,4.43076 Z" id="Fill-104" fill="#B9AAFF"></path>
                            <polygon id="Fill-105" fill="#322E45" points="8.50512 8.69316 11.69352 4.28196 12.43392 5.39076 9.24552 9.80196"></polygon>
                            <path d="M11.69616,4.11756 L8.42736,8.74476 L9.24336,9.96636 L12.51216,5.33916 L11.69616,4.11756 Z M11.69136,4.44876 L12.28416,5.33556 L9.24696,9.63516 L8.65536,8.74836 L11.69136,4.44876 Z" id="Fill-106" fill="#B9AAFF"></path>
                            <polygon id="Fill-107" fill="#322E45" points="12.67884 3.933 16.10844 3.0498 9.78204 8.0334"></polygon>
                            <path d="M16.51668,2.84784 L12.60228,3.87864 L9.33348,8.50704 L16.51668,2.84784 Z M15.69108,3.25944 L10.23108,7.56024 L12.71628,4.04304 L15.69108,3.25944 Z" id="Fill-108" fill="#B9AAFF"></path>
                            <polygon id="Fill-109" fill="#322E45" points="9.45912 8.52672 16.49472 2.98392 17.20632 4.04952 10.17072 9.59112"></polygon>
                            <path d="M16.51668,2.84784 L9.33348,8.50704 L10.14828,9.72744 L17.33268,4.06944 L16.51668,2.84784 Z M16.47348,3.12144 L17.08068,4.02864 L10.19148,9.45504 L9.58548,8.54664 L16.47348,3.12144 Z" id="Fill-110" fill="#B9AAFF"></path>
                        </g>
                    </g>
                    <path d="M75.4866,28.65012 C75.4158,28.65012 75.3582,28.59252 75.3582,28.52172 C75.3582,28.45092 75.4158,28.39452 75.4866,28.39452 C75.5574,28.39452 75.615,28.45092 75.615,28.52172 C75.615,28.59252 75.5574,28.65012 75.4866,28.65012" id="Fill-111" fill="#0B000E" mask="url(#mask-4)"></path>
                    <path d="M75.4866,27.87312 C75.1278,27.87312 74.8374,28.16352 74.8374,28.52232 C74.8374,28.87992 75.1278,29.17152 75.4866,29.17152 C75.8454,29.17152 76.1358,28.87992 76.1358,28.52232 C76.1358,28.16352 75.8454,27.87312 75.4866,27.87312" id="Fill-112" fill="#B9AAFF" mask="url(#mask-4)"></path>
                    <path d="M67.90284,1.04244 C67.83204,1.04244 67.77564,0.98484 67.77564,0.91404 C67.77564,0.84324 67.83204,0.78684 67.90284,0.78684 C67.97364,0.78684 68.03124,0.84324 68.03124,0.91404 C68.03124,0.98484 67.97364,1.04244 67.90284,1.04244" id="Fill-113" fill="#0B000E" mask="url(#mask-4)"></path>
                    <path d="M67.90284,0.26556 C67.54404,0.26556 67.25364,0.55596 67.25364,0.91476 C67.25364,1.27236 67.54404,1.56396 67.90284,1.56396 C68.26164,1.56396 68.55204,1.27236 68.55204,0.91476 C68.55204,0.55596 68.26164,0.26556 67.90284,0.26556" id="Fill-114" fill="#B9AAFF" mask="url(#mask-4)"></path>
                    <path d="M54.92844,20.64096 C54.85764,20.64096 54.80004,20.58336 54.80004,20.51256 C54.80004,20.44176 54.85764,20.38536 54.92844,20.38536 C54.99924,20.38536 55.05564,20.44176 55.05564,20.51256 C55.05564,20.58336 54.99924,20.64096 54.92844,20.64096" id="Fill-115" fill="#0B000E" mask="url(#mask-4)"></path>
                    <path d="M54.92844,19.86396 C54.56964,19.86396 54.27924,20.15436 54.27924,20.51316 C54.27924,20.87076 54.56964,21.16236 54.92844,21.16236 C55.28604,21.16236 55.57764,20.87076 55.57764,20.51316 C55.57764,20.15436 55.28604,19.86396 54.92844,19.86396" id="Fill-116" fill="#B9AAFF" mask="url(#mask-4)"></path>
                    <path d="M73.4874,9.64104 C73.4166,9.64104 73.359,9.58344 73.359,9.51264 C73.359,9.44184 73.4166,9.38424 73.4874,9.38424 C73.5582,9.38424 73.6146,9.44184 73.6146,9.51264 C73.6146,9.58344 73.5582,9.64104 73.4874,9.64104" id="Fill-117" fill="#0B000E" mask="url(#mask-4)"></path>
                    <path d="M73.4874,8.86356 C73.1286,8.86356 72.8382,9.15396 72.8382,9.51276 C72.8382,9.87156 73.1286,10.16196 73.4874,10.16196 C73.845,10.16196 74.1366,9.87156 74.1366,9.51276 C74.1366,9.15396 73.845,8.86356 73.4874,8.86356" id="Fill-118" fill="#B9AAFF" mask="url(#mask-4)"></path>
                    <path d="M10.863,44.47572 C10.839,44.47572 10.803,44.46972 10.7718,44.43852 C10.7226,44.38812 10.7226,44.30652 10.773,44.25612 L10.9542,44.25612 C10.9962,44.30052 10.9962,44.39532 10.9542,44.43852 L10.863,44.47572 Z" id="Fill-119" fill="#0B000E" mask="url(#mask-4)"></path>
                    <path d="M10.863,43.69872 C10.6974,43.69872 10.5306,43.76232 10.4046,43.88832 C10.1514,44.14272 10.1514,44.55312 10.4046,44.80632 C10.5306,44.93352 10.6974,44.99712 10.863,44.99712 C11.0298,44.99712 11.1954,44.93352 11.3214,44.80632 C11.5758,44.55312 11.5758,44.14272 11.3214,43.88832 C11.1954,43.76232 11.0298,43.69872 10.863,43.69872" id="Fill-120" fill="#B9AAFF" mask="url(#mask-4)"></path>
                    <path d="M25.8366,38.9802 C25.5834,38.727 25.5834,38.3154 25.8366,38.0622 C26.0898,37.809 26.5002,37.809 26.7546,38.0622 C27.0078,38.3154 27.0078,38.727 26.7546,38.9802 C26.5002,39.2334 26.0898,39.2334 25.8366,38.9802" id="Fill-121" fill="#0B000E" mask="url(#mask-4)"></path>
                    <path d="M26.29536,37.87212 C26.12856,37.87212 25.96296,37.93572 25.83696,38.06172 C25.58256,38.31612 25.58256,38.72652 25.83696,38.97972 C25.96296,39.10692 26.12856,39.17052 26.29536,39.17052 C26.46096,39.17052 26.62776,39.10692 26.75376,38.97972 C27.00696,38.72652 27.00696,38.31612 26.75376,38.06172 C26.62776,37.93572 26.46096,37.87212 26.29536,37.87212" id="Fill-122" fill="#B9AAFF" mask="url(#mask-4)"></path>
                    <path d="M21.6114,15.61644 C21.5874,15.61644 21.5514,15.61044 21.5202,15.57924 C21.4782,15.53604 21.4782,15.44124 21.5202,15.39684 L21.7026,15.39684 C21.7446,15.44124 21.7446,15.53604 21.7026,15.57924 L21.6114,15.61644 Z" id="Fill-123" fill="#0B000E" mask="url(#mask-4)"></path>
                    <path d="M21.6114,14.83956 C21.4458,14.83956 21.279,14.90316 21.153,15.02916 C20.8986,15.28356 20.8986,15.69396 21.153,15.94716 C21.279,16.07436 21.4458,16.13796 21.6114,16.13796 C21.7782,16.13796 21.9438,16.07436 22.0698,15.94716 C22.3242,15.69396 22.3242,15.28356 22.0698,15.02916 C21.9438,14.90316 21.7782,14.83956 21.6114,14.83956" id="Fill-124" fill="#B9AAFF" mask="url(#mask-4)"></path>
                    <path d="M16.26648,36.51804 C16.24248,36.51804 16.20768,36.51204 16.17648,36.48084 L16.17528,36.29844 L16.35768,36.29844 C16.35648,36.29964 16.35648,36.48084 16.35648,36.48084 L16.26648,36.51804 Z" id="Fill-125" fill="#0B000E" mask="url(#mask-4)"></path>
                    <path d="M16.26648,35.74104 C16.09968,35.74104 15.93408,35.80464 15.80808,35.93064 C15.55368,36.18504 15.55368,36.59544 15.80808,36.84864 C15.93408,36.97584 16.09968,37.03944 16.26648,37.03944 C16.43208,37.03944 16.59888,36.97584 16.72488,36.84864 C16.97928,36.59544 16.97928,36.18504 16.72488,35.93064 C16.59888,35.80464 16.43208,35.74104 16.26648,35.74104" id="Fill-126" fill="#B9AAFF" mask="url(#mask-4)"></path>
                </g>
            </g>
        </g>
    </g>
</svg>