<?xml version="1.0" encoding="UTF-8"?>
<svg width="100px" height="129px" viewBox="0 0 100 129" version="1.1" xmlns="http://www.w3.org/2000/svg" xmlns:xlink="http://www.w3.org/1999/xlink">
    <!-- Generator: Sketch 60.1 (88133) - https://sketch.com -->
    <title>编组</title>
    <desc>Created with Sketch.</desc>
    <defs>
        <polygon id="path-1" points="0.56436 0.996 45.15516 0.996 45.15516 61.98672 0.56436 61.98672"></polygon>
    </defs>
    <g id="页面-1" stroke="none" stroke-width="1" fill="none" fill-rule="evenodd">
        <g id="landing-page" transform="translate(-143.000000, -754.000000)">
            <g id="2" transform="translate(64.000000, 610.000000)">
                <g id="编组-4" transform="translate(0.000000, 143.000000)" fill="#b9aaff" font-family=".SFNSDisplay, .SF NS Display" font-size="20" font-weight="normal">
                    <text id="Register">
                        <tspan x="0" y="19">Register </tspan>
                    </text>
                </g>
                <g id="编组" transform="translate(79.000000, 143.000000)">
                    <path d="M90.47988,116.14296 C88.60068,116.14296 86.89068,115.75296 85.66428,115.04496 L44.04948,91.01856 C42.91188,90.36216 42.30468,89.51376 42.29268,88.56696 C42.29268,88.55016 42.29028,39.24816 42.29028,39.24816 L99.42828,61.35456 L99.42828,111.09456 C99.47388,112.32456 98.52588,113.58096 96.83028,114.56016 C95.08788,115.56576 92.77428,116.14296 90.47988,116.14296" id="Fill-1" fill="#0B000E"></path>
                    <path d="M41.76912,38.48808 L41.76912,88.57248 L41.77152,88.57368 C41.78592,89.65968 42.44592,90.69408 43.78872,91.46928 L85.40352,115.49568 C86.76072,116.27928 88.57752,116.66328 90.47952,116.66328 C92.77632,116.66328 95.19792,116.10408 97.09032,115.01208 C99.02952,113.89128 99.99912,112.45008 99.94872,111.09408 L99.94872,111.09408 L99.94872,60.99768 L41.76912,38.48808 Z M42.81072,40.00728 L98.90832,61.71168 L98.90832,111.13248 C98.94432,112.12968 98.07072,113.24208 96.56952,114.10968 C94.90512,115.07088 92.68512,115.62168 90.47952,115.62168 C88.69032,115.62168 87.07272,115.25688 85.92432,114.59328 L44.30952,90.56688 C43.63392,90.17688 42.82632,89.51208 42.81432,88.56048 C42.81312,88.53768 42.81192,88.51368 42.81072,88.49088 L42.81072,40.00728 L42.81072,40.00728 Z" id="Fill-3" fill="#b9aaff"></path>
                    <g transform="translate(87.600000, 56.604000)">
                        <path d="M2.9232,59.52132 C2.4204,59.52132 1.9248,59.49372 1.446,59.43972 L1.446,0.73332 L11.8284,4.74972 L11.8284,54.49092 C11.8728,55.72092 10.926,56.97732 9.2304,57.95652 C7.5072,58.95132 5.2092,59.52132 2.9232,59.52132 Z" id="Fill-5" fill="#0B000E"></path>
                        <path d="M1.13088,0.0534 L0.92568,0.0534 L0.92568,59.895 C1.56888,59.9934 2.24088,60.0414 2.92248,60.0414 C5.20608,60.0414 7.60728,59.4942 9.49008,58.407 C11.43048,57.2874 12.39888,55.8462 12.34848,54.4902 L12.34968,54.4902 L12.34968,4.3938 L1.13088,0.0534 Z M1.96728,1.4934 L11.30808,5.1066 L11.30808,54.5286 C11.34528,55.5258 10.47048,56.6382 8.96928,57.5058 C7.32408,58.455 5.11968,59.001 2.92248,59.001 C2.59968,59.001 2.28048,58.989 1.96728,58.965 L1.96728,1.4934 L1.96728,1.4934 Z" id="Fill-7" fill="#b9aaff"></path>
                    </g>
                    <g transform="translate(93.600000, 66.204000)">
                        <path d="M1.28208,50.1 C1.10208,50.1 0.95688,49.9536 0.95688,49.7748 L0.95688,0.612 C0.95688,0.4308 1.10208,0.2856 1.28208,0.2856 C1.46208,0.2856 1.60848,0.4308 1.60848,0.612 L1.60848,49.7748 C1.60848,49.9536 1.46208,50.1 1.28208,50.1" id="Fill-9" fill="#0B000E"></path>
                        <path d="M1.28208,0.28536 C1.10208,0.28536 0.95688,0.43176 0.95688,0.61176 L0.95688,49.77456 C0.95688,49.95456 1.10208,50.09976 1.28208,50.09976 C1.46208,50.09976 1.60848,49.95456 1.60848,49.77456 L1.60848,0.61176 C1.60848,0.43176 1.46208,0.28536 1.28208,0.28536" id="Fill-11" fill="#b9aaff"></path>
                    </g>
                    <path d="M41.77788,39.33816 L41.77428,39.34416 L41.77428,38.48976 L42.19428,38.65176 L41.88828,39.15576 C42.11388,39.99096 42.72588,40.77096 43.78908,41.38536 L85.40388,65.41176 C88.40028,67.14096 93.63108,66.92376 97.09068,64.92696 C98.62068,64.04376 99.53268,62.96016 99.83028,61.87656 L99.37788,61.26696 L99.94788,61.14216 L99.94788,62.03256 L99.93588,62.01816 C99.94548,63.34896 98.99028,64.75296 97.09068,65.84976 C93.63108,67.84656 88.40028,68.06376 85.40388,66.33456 L43.78908,42.30816 C42.41508,41.51496 41.75988,40.45056 41.77788,39.33816" id="Fill-13" fill="#0B000E"></path>
                    <path d="M41.7738,38.48976 L41.7738,39.34416 L41.7774,39.33816 C41.7606,40.45056 42.4158,41.51496 43.7886,42.30816 L85.4034,66.33456 C86.7618,67.11816 88.5774,67.50216 90.4794,67.50216 C92.7762,67.50216 95.199,66.94176 97.0902,65.84976 C98.9898,64.75296 99.945,63.34896 99.9366,62.01816 L99.9474,62.03256 L99.9474,61.14216 L99.3774,61.26696 L99.831,61.87656 C99.5334,62.96016 98.6202,64.04376 97.0902,64.92696 C95.199,66.01896 92.7762,66.57936 90.4794,66.57936 C88.5774,66.57936 86.7606,66.19536 85.4034,65.41176 L43.7886,41.38536 C42.7254,40.77096 42.1146,39.99096 41.8878,39.15576 L42.1938,38.65176 L41.7738,38.48976 Z" id="Fill-15" fill="#b9aaff"></path>
                    <path d="M90.47988,66.05808 C88.60068,66.05808 86.89068,65.66808 85.66428,64.96008 L44.04948,40.93368 C42.91308,40.27848 42.28788,39.39768 42.28788,38.45448 C42.28788,37.27008 43.23468,36.04248 44.88828,35.08848 C46.62948,34.08288 48.94428,33.50688 51.23868,33.50688 C53.11788,33.50688 54.82788,33.89688 56.05428,34.60488 L97.66908,58.63128 C98.80548,59.28648 99.43068,60.16728 99.43068,61.11048 C99.43068,62.29488 98.48268,63.52248 96.83028,64.47648 C95.08788,65.48208 92.77428,66.05808 90.47988,66.05808" id="Fill-17" fill="#0B000E"></path>
                    <path d="M51.23844,32.98608 C48.94164,32.98608 46.52004,33.54528 44.62764,34.63728 C41.16924,36.63528 40.79364,39.65568 43.78884,41.38488 L85.40364,65.41128 C86.76204,66.19488 88.57764,66.57888 90.47964,66.57888 C92.77644,66.57888 95.19804,66.01968 97.09044,64.92768 C100.54884,62.93088 100.92444,59.90928 97.92924,58.18008 L56.31444,34.15368 C54.95724,33.37008 53.14044,32.98608 51.23844,32.98608 M51.23844,34.02768 L51.23844,34.02768 C53.02764,34.02768 54.64524,34.39248 55.79364,35.05608 L97.40844,59.08248 C98.09364,59.47728 98.91084,60.15048 98.91084,61.11048 C98.91084,62.08968 98.03484,63.17928 96.56964,64.02528 C94.90524,64.98648 92.68524,65.53728 90.47964,65.53728 C88.69044,65.53728 87.07284,65.17248 85.92444,64.51008 L44.30964,40.48368 C43.62444,40.08768 42.80844,39.41448 42.80844,38.45448 C42.80844,37.47528 43.68324,36.38568 45.14844,35.53968 C46.81284,34.57848 49.03284,34.02768 51.23844,34.02768" id="Fill-19" fill="#b9aaff"></path>
                    <path d="M89.55816,61.66944 C87.86256,61.66944 86.48256,60.29064 86.48256,58.59384 L86.48256,36.34104 C86.48256,28.58904 80.81016,18.76464 74.09616,14.88864 L64.54656,9.37464 C62.85936,8.40024 61.24296,7.88544 59.87136,7.88544 C59.07216,7.88544 58.36776,8.05824 57.77616,8.39904 C56.16096,9.33144 55.23576,11.64624 55.23576,14.74944 L55.23576,37.00224 C55.23576,38.69784 53.85576,40.07784 52.16016,40.07784 C50.46456,40.07784 49.08456,38.69784 49.08456,37.00224 L49.08456,14.74944 C49.08456,9.30984 51.07896,5.16264 54.70056,3.07224 C56.25456,2.17464 57.98976,1.71984 59.85936,1.71984 C62.33496,1.71984 64.94736,2.50344 67.62216,4.04784 L77.17176,9.56184 C85.84176,14.56704 92.63376,26.32944 92.63376,36.34104 L92.63376,58.59384 C92.63376,60.29064 91.25376,61.66944 89.55816,61.66944" id="Fill-21" fill="#0B000E"></path>
                    <g transform="translate(48.000000, 0.204000)">
                        <mask id="mask-2" fill="white">
                            <use xlink:href="#path-1"></use>
                        </mask>
                        <g id="Clip-24"></g>
                        <path d="M11.85876,0.99552 C9.91476,0.99552 8.08476,1.46832 6.43956,2.41752 C2.65116,4.60512 0.56436,8.91192 0.56436,14.54592 L0.56436,36.79872 C0.56436,38.78472 2.17476,40.39512 4.15956,40.39512 C6.14676,40.39512 7.75716,38.78472 7.75716,36.79872 L7.75716,14.54592 C7.75716,11.63352 8.58756,9.48312 10.03596,8.64552 C10.55196,8.34912 11.17236,8.20152 11.87196,8.20272 C13.13676,8.20272 14.66076,8.68392 16.28556,9.62112 L25.83516,15.13512 C32.40876,18.92952 37.96116,28.54752 37.96116,36.13752 L37.96116,58.39032 C37.96116,60.37632 39.57156,61.98672 41.55876,61.98672 C43.54476,61.98672 45.15516,60.37632 45.15516,58.39032 L45.15516,36.13752 C45.15516,25.95792 38.24796,13.99512 29.43276,8.90592 L19.88316,3.39312 C17.12076,1.79832 14.39316,0.99552 11.85876,0.99552 M11.85876,2.03712 L11.85876,2.03712 C14.24316,2.03712 16.76676,2.79672 19.36116,4.29552 L28.91076,9.80832 C37.43556,14.72952 44.11236,26.29512 44.11236,36.13752 L44.11236,58.39032 C44.11236,59.79912 42.96636,60.94512 41.55876,60.94512 C40.14996,60.94512 39.00396,59.79912 39.00396,58.39032 L39.00396,36.13752 C39.00396,28.22232 33.21156,18.19152 26.35716,14.23392 L16.80756,8.71992 C15.04116,7.69992 13.33356,7.16112 11.87196,7.16112 C10.98036,7.16112 10.18716,7.35672 9.51516,7.74432 C7.70916,8.78712 6.71556,11.20272 6.71556,14.54592 L6.71556,36.79872 C6.71556,38.20752 5.56956,39.35352 4.15956,39.35352 C2.75196,39.35352 1.60596,38.20752 1.60596,36.79872 L1.60596,14.54592 C1.60596,9.29952 3.50796,5.31312 6.96036,3.31992 C8.43396,2.46912 10.08276,2.03712 11.85876,2.03712" id="Fill-23" fill="#b9aaff" mask="url(#mask-2)"></path>
                    </g>
                    <path d="M69.59412,82.91316 C69.51492,82.91316 69.38052,82.88916 69.18852,82.77876 C68.52012,82.39356 67.95612,81.41676 67.95612,80.64516 C67.95612,80.44236 67.99572,80.10036 68.26212,80.10036 C68.34132,80.10036 68.47572,80.12436 68.66772,80.23476 C69.33492,80.61996 69.89892,81.59796 69.89892,82.36836 C69.89892,82.64316 69.82692,82.77516 69.78372,82.82916 C69.75132,82.87116 69.70212,82.91316 69.59412,82.91316" id="Fill-25" fill="#0B000E"></path>
                    <path d="M68.26116,79.5804 C67.77156,79.5804 67.43556,79.9704 67.43556,80.646 C67.43556,81.5976 68.10396,82.7544 68.92836,83.2308 C69.16716,83.3688 69.39396,83.4336 69.59436,83.4336 C70.08396,83.4336 70.41996,83.0436 70.41996,82.3692 C70.41996,81.4176 69.75156,80.2596 68.92836,79.7832 C68.68836,79.6452 68.46156,79.5804 68.26116,79.5804 M68.48076,80.7312 C68.92716,81.0372 69.33516,81.7428 69.37596,82.2816 C68.92836,81.9768 68.52156,81.2724 68.48076,80.7312" id="Fill-27" fill="#b9aaff"></path>
                    <path d="M65.0736,80.3034 C64.962,80.3034 64.818,80.2554 64.668,80.169 C63.9996,79.7838 63.4356,78.807 63.4356,78.0354 C63.4356,77.8314 63.4752,77.4906 63.7404,77.4906 C63.8208,77.4906 63.9552,77.5146 64.1472,77.625 C64.8144,78.0102 65.3784,78.987 65.3784,79.7586 C65.3784,80.0334 65.3064,80.1654 65.2632,80.2206 C65.2296,80.2614 65.1816,80.3034 65.0736,80.3034" id="Fill-29" fill="#0B000E"></path>
                    <path d="M63.74064,76.97004 C63.25104,76.97004 62.91504,77.36004 62.91504,78.03564 C62.91504,78.98724 63.58344,80.14524 64.40784,80.62044 C64.64664,80.75844 64.87344,80.82444 65.07384,80.82444 C65.56344,80.82444 65.89944,80.43444 65.89944,79.75884 C65.89944,78.80724 65.23104,77.64924 64.40784,77.17404 C64.16784,77.03604 63.94104,76.97004 63.74064,76.97004 M63.96024,78.12204 C64.40664,78.42684 64.81464,79.13244 64.85424,79.67244 C64.40784,79.36764 63.99984,78.66204 63.96024,78.12204" id="Fill-31" fill="#b9aaff"></path>
                    <path d="M60.55308,77.69304 C60.47388,77.69304 60.33828,77.66904 60.14628,77.55864 C59.47908,77.17344 58.91508,76.19664 58.91508,75.42504 C58.91508,75.22224 58.95348,74.88144 59.21988,74.88144 C59.29908,74.88144 59.43348,74.90424 59.62668,75.01584 C60.29388,75.39984 60.85788,76.37784 60.85788,77.14824 C60.85788,77.42424 60.78588,77.55504 60.74268,77.60904 C60.70908,77.65104 60.66108,77.69304 60.55308,77.69304" id="Fill-33" fill="#0B000E"></path>
                    <path d="M59.22012,74.36028 C58.73052,74.36028 58.39452,74.75028 58.39452,75.42588 C58.39452,76.37748 59.06292,77.53428 59.88612,78.01068 C60.12612,78.14868 60.35292,78.21348 60.55332,78.21348 C61.04292,78.21348 61.37892,77.82348 61.37892,77.14908 C61.37892,76.19748 60.71052,75.03948 59.88612,74.56428 C59.64732,74.42628 59.42052,74.36028 59.22012,74.36028 M59.43972,75.51228 C59.88612,75.81708 60.29292,76.52268 60.33372,77.06148 C59.88732,76.75668 59.47932,76.05228 59.43972,75.51228" id="Fill-35" fill="#b9aaff"></path>
                    <path d="M68.79084,128.36556 C68.77764,128.18556 68.67084,128.02476 68.51004,127.94076 L68.40084,127.88796 L14.63484,96.84396 C13.33404,96.09396 12.23484,93.97236 12.23484,92.21196 L12.23484,62.07636 C12.23484,61.83756 12.25644,61.60596 12.30204,61.38756 C12.32964,61.25076 12.30204,61.10916 12.22404,60.99276 C12.20484,60.96516 12.18324,60.93756 12.15924,60.91356 C12.25764,60.87516 12.36204,60.85596 12.47364,60.85596 C12.71604,60.85596 12.98364,60.93996 13.26924,61.10556 L67.52844,91.80756 C68.82564,92.55756 69.92364,94.67916 69.92364,96.43836 L69.92364,126.57516 C69.92364,127.37556 69.69924,127.98396 69.30804,128.24436 C69.28284,128.26116 68.80884,128.60796 68.80884,128.60796 L68.79084,128.36556 Z" id="Fill-37" fill="#0B000E"></path>
                    <path d="M12.474,60.33528 C12.162,60.33528 11.88,60.43128 11.6436,60.61128 L11.6436,60.61008 L10.95,61.12008 L11.7912,61.28328 C11.742,61.52328 11.7132,61.78608 11.7132,62.07648 L11.7132,92.21208 C11.7132,94.17168 12.9048,96.44808 14.3736,97.29528 L68.1408,128.33808 C68.1852,128.36328 68.2284,128.38248 68.2716,128.40528 L68.3592,129.57288 L69.6012,128.68008 L69.5964,128.67768 C70.1172,128.33208 70.4448,127.60008 70.4448,126.57528 L70.4448,96.43848 C70.4448,94.47888 69.2532,92.20368 67.7844,91.35528 L13.53,60.65448 C13.1544,60.43728 12.798,60.33528 12.474,60.33528 M12.8172,61.45968 C12.8808,61.48728 12.948,61.52088 13.0176,61.56048 L67.2636,92.25648 C68.4036,92.91528 69.4032,94.86888 69.4032,96.43848 L69.4032,126.57528 C69.4032,127.21008 69.2448,127.59168 69.0852,127.75488 C68.9952,127.64088 68.88,127.54608 68.7456,127.47768 C68.7396,127.47408 68.6688,127.43928 68.6616,127.43568 L14.8956,96.39408 C13.7544,95.73528 12.7548,93.78168 12.7548,92.21208 L12.7548,62.07648 C12.7548,61.87008 12.774,61.67928 12.8124,61.48968 L12.8172,61.45968" id="Fill-39" fill="#b9aaff"></path>
                    <path d="M53.94024,101.11716 L68.54904,92.72196 C69.05664,93.34716 69.46944,94.15116 69.70584,94.97796 L56.47104,102.57876 L53.94024,101.11716 Z" id="Fill-41" fill="#0B000E"></path>
                    <path d="M68.65776,92.05848 L52.89696,101.11608 L56.47056,103.18008 L70.30656,95.23368 C70.04496,94.04328 69.43296,92.86608 68.65776,92.05848 M68.40816,93.40368 C68.67936,93.80448 68.90976,94.26048 69.08136,94.73688 L56.47296,101.97768 L54.98376,101.11848 L68.40816,93.40368" id="Fill-43" fill="#b9aaff"></path>
                    <path d="M67.59252,129.28308 C67.35492,129.28308 67.07892,129.19668 66.79572,129.03348 L13.02972,97.99068 C11.72892,97.23948 10.62972,95.11908 10.62972,93.35868 L10.62972,63.22188 C10.62972,62.12268 11.05452,61.41228 11.71332,61.41228 C11.95092,61.41228 12.22572,61.49868 12.50892,61.66188 L66.27612,92.70468 C67.57692,93.45588 68.67612,95.57628 68.67612,97.33668 L68.67612,127.47348 C68.67612,128.07108 68.55372,128.55828 68.32332,128.88468 C68.13732,129.14988 67.89132,129.28308 67.59252,129.28308" id="Fill-45" fill="#0B000E"></path>
                    <path d="M11.71284,60.89136 C10.76844,60.89136 10.10844,61.76376 10.10844,63.22176 L10.10844,93.35856 C10.10844,95.31816 11.30004,97.59336 12.76884,98.44176 L66.53604,129.48456 C66.91164,129.70176 67.26924,129.80376 67.59204,129.80376 C68.53644,129.80376 69.19644,128.93256 69.19644,127.47336 L69.19644,97.33656 C69.19644,95.37696 68.00604,93.10176 66.53604,92.25336 L12.76884,61.21056 C12.39444,60.99336 12.03684,60.89136 11.71284,60.89136 M11.71284,61.93296 C11.85804,61.93296 12.04764,61.99656 12.24804,62.11296 L66.01524,93.15456 C67.15524,93.81336 68.15604,95.76696 68.15604,97.33656 L68.15604,127.47336 C68.15604,128.09376 67.97964,128.76216 67.59204,128.76216 C67.44804,128.76216 67.25844,128.69856 67.05684,128.58336 L13.28964,97.54056 C12.14964,96.88176 11.15004,94.92816 11.15004,93.35856 L11.15004,63.22176 C11.15004,62.60136 11.32644,61.93296 11.71284,61.93296" id="Fill-47" fill="#b9aaff"></path>
                    <path d="M68.90568,127.62732 L68.90568,97.49052 C68.90568,95.53212 67.71408,93.25572 66.24528,92.40732 L12.47808,61.36452 C11.89968,61.03092 11.36448,60.97212 10.92888,61.13772 C11.40648,60.80172 12.05448,60.79812 12.76968,61.21092 L66.53568,92.25252 C68.00568,93.10212 69.19728,95.37732 69.19728,97.33692 L69.19728,127.47372 C69.19728,128.66052 68.75808,129.45492 68.08608,129.71172 C68.59008,129.35652 68.90568,128.63292 68.90568,127.62732" id="Fill-49" fill="#0B000E"></path>
                    <path d="M11.71752,60.89304 C11.42232,60.89304 11.15592,60.97824 10.92792,61.13784 C11.08392,61.07904 11.25072,61.04784 11.42832,61.04784 C11.74992,61.04784 12.10512,61.14864 12.47832,61.36464 L66.24432,92.40744 C67.71432,93.25584 68.90592,95.53224 68.90592,97.49064 L68.90592,127.62744 C68.90592,128.63304 68.59032,129.35664 68.08632,129.71184 C68.75832,129.45504 69.19632,128.66064 69.19632,127.47264 L69.19632,97.33704 C69.19632,95.37744 68.00592,93.10104 66.53592,92.25264 L12.76872,61.21104 C12.39552,60.99504 12.04032,60.89304 11.71752,60.89304" id="Fill-51" fill="#b9aaff"></path>
                    <path d="M18.00468,79.01496 C17.76108,78.87456 17.50908,78.54096 17.50908,78.22776 C17.50908,78.22776 17.61588,71.75616 17.61588,71.69976 L61.50468,97.04496 C61.70748,97.16256 61.94508,97.57656 61.94508,97.93536 L61.94508,104.35896 C61.92708,104.34936 18.00468,79.01496 18.00468,79.01496" id="Fill-53" fill="#0B000E"></path>
                    <path d="M17.44752,71.01168 C17.44512,71.01168 17.44272,71.01168 17.44032,71.01168 C17.10792,71.06688 17.09472,71.37288 17.09472,71.84328 L16.98792,78.22848 C16.98792,78.74448 17.35752,79.24248 17.74512,79.46568 L61.62552,104.77728 C61.81272,104.88528 61.98312,104.96448 62.13192,104.96448 C62.25432,104.96448 62.36232,104.91048 62.45112,104.77248 C62.48232,104.72568 62.46672,104.65608 62.46672,104.59128 L62.46672,97.93488 C62.46672,97.41768 62.15232,96.81768 61.76472,96.59328 L17.54232,71.06208 C17.50992,71.04288 17.47992,71.01168 17.44752,71.01168 M18.12312,72.60048 L61.22952,97.48608 C61.30512,97.54608 61.42512,97.77528 61.42512,97.93488 L61.42512,103.45848 L18.26592,78.56448 C18.14712,78.49488 18.02952,78.31368 18.02952,78.24528 L18.12312,72.60048" id="Fill-55" fill="#b9aaff"></path>
                    <path d="M17.91324,93.48768 C17.72244,93.37728 17.50884,92.98848 17.50884,92.60928 L17.53164,86.30568 C17.53164,86.24328 17.53404,86.18928 17.53644,86.14368 L61.50444,111.55728 C61.70844,111.67488 61.94484,112.08888 61.94484,112.44648 L61.94484,118.86408 C61.92204,118.85208 17.91324,93.48768 17.91324,93.48768" id="Fill-57" fill="#0B000E"></path>
                    <path d="M17.3268,85.50132 C17.0796,85.50132 17.0112,85.89012 17.0112,86.30412 L16.9884,92.60892 C16.9884,93.12612 17.2656,93.71412 17.6532,93.93852 L61.6092,119.27292 C61.8072,119.38692 62.04,119.50452 62.2116,119.50452 C62.3328,119.50452 62.424,119.44692 62.4516,119.28612 C62.4612,119.22972 62.466,119.16852 62.466,119.10252 L62.466,112.44732 C62.466,111.93012 62.1516,111.32892 61.764,111.10572 L17.5416,85.57332 C17.5068,85.55292 17.4732,85.53732 17.4396,85.52532 C17.3988,85.50852 17.3616,85.50132 17.3268,85.50132 M18.0504,87.06972 L61.23,111.99852 C61.3044,112.05732 61.4256,112.28652 61.4256,112.44732 L61.4256,117.96372 L18.1932,93.04932 C18.1356,93.00012 18.03,92.79492 18.03,92.61252 L18.0504,87.06972" id="Fill-59" fill="#b9aaff"></path>
                    <path d="M17.43864,71.01576 C17.42904,71.07096 17.42424,71.13216 17.42424,71.19696 L17.42424,77.85336 C17.42424,78.36936 17.73864,78.97056 18.12624,79.19376 L62.34864,104.72616 C62.38464,104.74656 62.41824,104.75976 62.45184,104.77176 C62.38584,105.16056 62.10384,105.31776 61.76424,105.12216 L17.54184,79.58976 C17.15424,79.36536 16.83984,78.76536 16.83984,78.24816 L16.83984,71.59176 C16.83984,71.12256 17.10024,70.88736 17.43864,71.01576" id="Fill-61" fill="#0B000E"></path>
                    <path d="M17.26236,70.9812 C17.01396,70.9812 16.83996,71.208 16.83996,71.592 L16.83996,78.2484 C16.83996,78.7656 17.15436,79.3656 17.54196,79.59 L61.76436,105.1224 C61.86276,105.1788 61.95756,105.2064 62.04276,105.2064 C62.25036,105.2064 62.40516,105.0468 62.45196,104.772 C62.41836,104.7588 62.38476,104.7468 62.34876,104.7264 L18.12636,79.194 C17.73876,78.9708 17.42436,78.3696 17.42436,77.8536 L17.42436,71.1972 C17.42436,71.1312 17.42916,71.0712 17.43876,71.016 C17.37636,70.992 17.31756,70.9812 17.26236,70.9812" id="Fill-63" fill="#b9aaff"></path>
                    <path d="M17.43864,85.52772 C17.42904,85.58292 17.42424,85.64412 17.42424,85.70892 L17.42424,92.36532 C17.42424,92.88252 17.73864,93.48252 18.12624,93.70692 L62.34864,119.23812 C62.38464,119.25852 62.41824,119.27172 62.45184,119.28372 C62.38584,119.67252 62.10384,119.82972 61.76424,119.63412 L17.54184,94.10292 C17.15424,93.87732 16.83984,93.27732 16.83984,92.76012 L16.83984,86.10372 C16.83984,85.63452 17.10024,85.39932 17.43864,85.52772" id="Fill-65" fill="#0B000E"></path>
                    <path d="M17.26236,85.49304 C17.01396,85.49304 16.83996,85.71984 16.83996,86.10384 L16.83996,92.76024 C16.83996,93.27744 17.15436,93.87864 17.54196,94.10184 L61.76436,119.63424 C61.86276,119.69064 61.95756,119.71824 62.04276,119.71824 C62.25036,119.71824 62.40516,119.55864 62.45196,119.28384 C62.41836,119.27064 62.38476,119.25864 62.34876,119.23824 L18.12636,93.70704 C17.73876,93.48264 17.42436,92.88264 17.42436,92.36544 L17.42436,85.70904 C17.42436,85.64424 17.42916,85.58424 17.43876,85.52784 C17.37636,85.50384 17.31756,85.49304 17.26236,85.49304" id="Fill-67" fill="#b9aaff"></path>
                    <path d="M48.9492,94.62312 L49.4124,94.14672 C49.6092,93.94392 49.608,93.62112 49.41,93.41832 L49.4028,93.41112 C49.4364,93.40512 49.47,93.39552 49.5024,93.38232 C49.7148,93.29592 49.8456,93.07992 49.824,92.85192 L49.7748,92.30952 L49.9056,92.38512 L49.8036,93.42912 C49.788,93.58032 49.8408,93.73152 49.9464,93.84192 C50.0448,93.94392 50.1804,94.00032 50.322,94.00032 C50.3316,94.00032 50.988,93.96192 50.988,93.96192 L51.0588,94.22112 C51.0588,94.22112 50.6376,94.16712 50.616,94.16712 C50.4516,94.16712 50.2968,94.24512 50.1972,94.37832 C50.1804,94.40112 50.1648,94.42512 50.1516,94.45032 C50.0724,94.38672 49.974,94.34712 49.8684,94.33752 C49.854,94.33632 49.8396,94.33632 49.8252,94.33632 C49.6332,94.33632 49.4556,94.44192 49.3656,94.61352 L49.1964,94.93272 L48.9492,94.62312 Z" id="Fill-69" fill="#0B000E"></path>
                    <polygon id="Fill-71" fill="#b9aaff" points="49.16364 91.3554 49.30644 92.8998 48.25044 91.605 47.86764 92.5914 49.03884 93.783 48.25644 94.5894 49.28604 95.8806 49.82604 94.857 50.37804 96.5118 51.38964 96.4038 50.61564 94.6878 51.76884 94.8378 51.37764 93.4158 50.32164 93.4806 50.45724 92.1018"></polygon>
                    <path d="M43.86684,91.68816 L44.32884,91.21176 C44.52564,91.00896 44.52444,90.68616 44.32644,90.48456 L44.31924,90.47736 C44.35404,90.47016 44.38764,90.46176 44.42004,90.44736 C44.63244,90.36096 44.76324,90.14616 44.74164,89.91696 L44.69124,89.37456 L44.82324,89.45016 L44.72004,90.49416 C44.70564,90.64656 44.75724,90.79656 44.86404,90.90696 C44.96244,91.00896 45.09684,91.06656 45.23844,91.06656 C45.24924,91.06656 45.90444,91.02696 45.90444,91.02696 L45.97644,91.28616 C45.97644,91.28616 45.55524,91.23216 45.53244,91.23216 C45.36924,91.23216 45.21324,91.31016 45.11484,91.44216 C45.09684,91.46616 45.08244,91.49016 45.06804,91.51656 C44.99004,91.45296 44.89164,91.41216 44.78484,91.40376 C44.77044,91.40256 44.75724,91.40136 44.74284,91.40136 C44.55084,91.40136 44.37324,91.50816 44.28204,91.67976 L44.11404,91.99776 L43.86684,91.68816 Z" id="Fill-73" fill="#0B000E"></path>
                    <polygon id="Fill-75" fill="#b9aaff" points="44.08068 88.42044 44.22348 89.96604 43.16748 88.67004 42.78468 89.65764 43.95588 90.84924 43.17468 91.65444 44.20308 92.94564 44.74308 91.92204 45.29628 93.57684 46.30668 93.46884 45.53268 91.75284 46.68588 91.90404 46.29468 90.48204 45.23868 90.54564 45.37428 89.16804"></polygon>
                    <path d="M38.78376,88.7538 L39.24576,88.2774 C39.44256,88.0734 39.44136,87.7518 39.24336,87.549 L39.23736,87.543 C39.27096,87.5358 39.30456,87.5274 39.33696,87.513 C39.54936,87.4266 39.68016,87.2118 39.65856,86.9826 L39.60816,86.4402 L39.74016,86.5158 L39.63696,87.5598 C39.62256,87.711 39.67416,87.8622 39.78096,87.9714 C39.87936,88.0746 40.01376,88.131 40.15536,88.131 C40.16616,88.131 40.82256,88.0926 40.82256,88.0926 L40.89336,88.3518 C40.89336,88.3518 40.47216,88.2978 40.44936,88.2978 C40.28616,88.2978 40.13016,88.3758 40.03176,88.5078 C40.01376,88.5318 39.99936,88.5558 39.98616,88.581 C39.90696,88.5186 39.80856,88.4778 39.70296,88.4694 C39.68856,88.4682 39.67416,88.467 39.65976,88.467 C39.46896,88.467 39.29016,88.5738 39.20016,88.7454 L39.03096,89.0646 L38.78376,88.7538 Z" id="Fill-77" fill="#0B000E"></path>
                    <polygon id="Fill-79" fill="#b9aaff" points="38.9982 85.48608 39.141 87.03168 38.085 85.73568 37.7022 86.72208 38.8722 87.91368 38.091 88.72008 39.1194 90.01128 39.6606 88.98768 40.2126 90.64248 41.223 90.53448 40.449 88.81848 41.6034 88.96968 41.2122 87.54648 40.155 87.61128 40.2918 86.23248"></polygon>
                    <path d="M33.7008,85.81884 L34.1628,85.34244 C34.3596,85.13964 34.3584,84.81684 34.1604,84.61524 L34.1532,84.60804 C34.188,84.60204 34.2216,84.59244 34.254,84.57804 C34.4664,84.49164 34.5972,84.27684 34.5756,84.04764 L34.5264,83.50524 L34.6572,83.58084 L34.554,84.62484 C34.5396,84.77724 34.5912,84.92724 34.698,85.03764 C34.7964,85.13964 34.9308,85.19724 35.0724,85.19724 C35.0832,85.19724 35.7396,85.15764 35.7396,85.15764 L35.8104,85.41684 C35.8104,85.41684 35.3892,85.36284 35.3676,85.36284 C35.2032,85.36284 35.0484,85.44084 34.9488,85.57284 C34.932,85.59684 34.9164,85.62084 34.9032,85.64724 C34.824,85.58364 34.7256,85.54284 34.62,85.53444 C34.6056,85.53324 34.5912,85.53204 34.5768,85.53204 C34.3848,85.53204 34.2072,85.63884 34.1172,85.81044 L33.948,86.12964 L33.7008,85.81884 Z" id="Fill-81" fill="#0B000E"></path>
                    <polygon id="Fill-83" fill="#b9aaff" points="33.91524 82.55172 34.05804 84.09612 33.00204 82.80132 32.61924 83.78772 33.78924 84.97932 33.00804 85.78452 34.03644 87.07692 34.57764 86.05332 35.12964 87.70812 36.14124 87.60012 35.36724 85.88412 36.52044 86.03412 36.12924 84.61212 35.07204 84.67692 35.20884 83.29812"></polygon>
                    <path d="M28.61772,82.88448 L29.08092,82.40808 C29.27772,82.20528 29.27652,81.88248 29.07852,81.68088 L29.07132,81.67368 C29.10492,81.66648 29.13852,81.65808 29.17092,81.64368 C29.38332,81.55728 29.51412,81.34248 29.49252,81.11328 L29.44332,80.57088 L29.57412,80.64648 L29.47212,81.69048 C29.45652,81.84168 29.50932,81.99288 29.61492,82.10208 C29.71332,82.20528 29.84892,82.26168 29.99052,82.26168 C30.00012,82.26168 30.65652,82.22328 30.65652,82.22328 L30.72732,82.48248 C30.72732,82.48248 30.30612,82.42848 30.28452,82.42848 C30.12012,82.42848 29.96532,82.50648 29.86572,82.63848 C29.84892,82.66248 29.83332,82.68648 29.82012,82.71288 C29.74092,82.64928 29.64252,82.60848 29.53692,82.60008 C29.52252,82.59888 29.50812,82.59768 29.49372,82.59768 C29.30172,82.59768 29.12412,82.70448 29.03412,82.87608 L28.86612,83.19528 L28.61772,82.88448 Z" id="Fill-85" fill="#0B000E"></path>
                    <polygon id="Fill-87" fill="#b9aaff" points="28.83228 79.61676 28.97508 81.16236 27.91908 79.86636 27.53628 80.85396 28.70748 82.04556 27.92508 82.85076 28.95468 84.14196 29.49468 83.11836 30.04668 84.77316 31.05828 84.66516 30.28428 82.94916 31.43748 83.10036 31.04628 81.67836 29.99028 81.74196 30.12588 80.36436"></polygon>
                    <path d="M48.9492,109.13508 L49.4124,108.65868 C49.6092,108.45588 49.608,108.13308 49.41,107.93028 L49.4028,107.92428 C49.4364,107.91708 49.47,107.90748 49.5024,107.89428 C49.7148,107.80788 49.8456,107.59308 49.824,107.36388 L49.7736,106.82148 L49.9056,106.89708 L49.8036,107.94108 C49.788,108.09228 49.8408,108.24348 49.9464,108.35388 C50.0448,108.45588 50.1804,108.51228 50.322,108.51228 C50.3316,108.51228 50.988,108.47388 50.988,108.47388 L51.0588,108.73308 C51.0588,108.73308 50.6376,108.67908 50.616,108.67908 C50.4516,108.67908 50.2968,108.75708 50.1972,108.89028 C50.1804,108.91308 50.1648,108.93828 50.1516,108.96348 C50.0724,108.89988 49.974,108.85908 49.8684,108.85068 C49.854,108.84948 49.8396,108.84828 49.8252,108.84828 C49.6332,108.84828 49.4556,108.95508 49.3656,109.12668 L49.1976,109.44588 L48.9492,109.13508 Z" id="Fill-89" fill="#0B000E"></path>
                    <polygon id="Fill-91" fill="#b9aaff" points="49.16364 105.86736 49.30644 107.41296 48.25044 106.11696 47.86764 107.10336 49.03884 108.29496 48.25644 109.10136 49.28604 110.39256 49.82604 109.36896 50.37804 111.02376 51.38964 110.91576 50.61564 109.19976 51.76884 109.34976 51.37764 107.92776 50.32164 107.99256 50.45724 106.61376"></polygon>
                    <path d="M43.86684,106.20012 L44.32884,105.72372 C44.52564,105.52092 44.52444,105.19812 44.32644,104.99652 L44.31924,104.98932 C44.35404,104.98212 44.38764,104.97372 44.42004,104.95932 C44.63244,104.87292 44.76324,104.65812 44.74164,104.42892 L44.69124,103.88652 L44.82324,103.96212 L44.72004,105.00612 C44.70564,105.15852 44.75724,105.30852 44.86404,105.41892 C44.96244,105.52092 45.09684,105.57852 45.23844,105.57852 C45.24924,105.57852 45.90444,105.53892 45.90444,105.53892 L45.97644,105.79812 C45.97644,105.79812 45.55524,105.74412 45.53244,105.74412 C45.36924,105.74412 45.21324,105.82212 45.11484,105.95412 C45.09684,105.97812 45.08244,106.00212 45.06804,106.02852 C44.99004,105.96492 44.89164,105.92412 44.78484,105.91572 C44.77044,105.91452 44.75724,105.91332 44.74284,105.91332 C44.55084,105.91332 44.37324,106.02012 44.28204,106.19172 L44.11404,106.51092 L43.86684,106.20012 Z" id="Fill-93" fill="#0B000E"></path>
                    <polygon id="Fill-95" fill="#b9aaff" points="44.08068 102.933 44.22348 104.4774 43.16748 103.1826 42.78468 104.169 43.95588 105.3606 43.17468 106.1658 44.20308 107.4582 44.74308 106.4346 45.29628 108.0894 46.30668 107.9814 45.53268 106.2654 46.68588 106.4154 46.29468 104.9934 45.23868 105.0582 45.37428 103.6794"></polygon>
                    <path d="M38.78376,103.26576 L39.24576,102.78936 C39.44256,102.58656 39.44136,102.26376 39.24336,102.06216 L39.23616,102.05496 C39.27096,102.04896 39.30456,102.03936 39.33696,102.02496 C39.54936,101.93856 39.68016,101.72376 39.65856,101.49456 L39.60936,100.95216 L39.74016,101.02776 L39.63696,102.07176 C39.62256,102.22296 39.67416,102.37416 39.78096,102.48336 C39.87936,102.58656 40.01376,102.64296 40.15536,102.64296 C40.16616,102.64296 40.82256,102.60456 40.82256,102.60456 L40.89336,102.86376 C40.89336,102.86376 40.47216,102.80976 40.44936,102.80976 C40.28616,102.80976 40.13016,102.88776 40.03176,103.01976 C40.01376,103.04376 39.99936,103.06776 39.98616,103.09296 C39.90696,103.03056 39.80856,102.98976 39.70296,102.98136 C39.68856,102.98016 39.67416,102.97896 39.65976,102.97896 C39.46896,102.97896 39.29016,103.08576 39.20016,103.25736 L39.03096,103.57656 L38.78376,103.26576 Z" id="Fill-97" fill="#0B000E"></path>
                    <polygon id="Fill-99" fill="#b9aaff" points="38.9982 99.99804 39.141 101.54364 38.085 100.24764 37.7022 101.23524 38.8722 102.42684 38.091 103.23204 39.1194 104.52324 39.6606 103.49964 40.2126 105.15444 41.223 105.04644 40.449 103.33044 41.6034 103.48164 41.2122 102.05964 40.155 102.12324 40.2918 100.74564"></polygon>
                    <path d="M33.7008,100.3314 L34.1628,99.855 C34.3596,99.651 34.3584,99.3294 34.1604,99.1278 L34.1532,99.1194 C34.188,99.1134 34.2216,99.1038 34.254,99.0906 C34.4664,99.0042 34.5972,98.7882 34.5756,98.5602 L34.5264,98.0178 L34.6572,98.0934 L34.554,99.1374 C34.5396,99.2886 34.5912,99.4398 34.698,99.549 C34.7964,99.6522 34.9308,99.7086 35.0724,99.7086 C35.0832,99.7086 35.7396,99.6702 35.7396,99.6702 L35.8104,99.9294 C35.8104,99.9294 35.3892,99.8754 35.3676,99.8754 C35.2032,99.8754 35.0484,99.9534 34.9488,100.0866 C34.932,100.1094 34.9164,100.1334 34.9032,100.1586 C34.824,100.095 34.7256,100.0554 34.62,100.0458 C34.6056,100.0446 34.5912,100.0446 34.5768,100.0446 C34.3848,100.0446 34.2072,100.1502 34.1172,100.3218 L33.948,100.6422 L33.7008,100.3314 Z" id="Fill-101" fill="#0B000E"></path>
                    <polygon id="Fill-103" fill="#b9aaff" points="33.91524 97.06356 34.05804 98.60796 33.00204 97.31316 32.61924 98.29956 33.78924 99.49116 33.00804 100.29756 34.03644 101.58876 34.57764 100.56516 35.12964 102.21996 36.14124 102.11196 35.36724 100.39596 36.52044 100.54596 36.12924 99.12396 35.07204 99.18876 35.20884 97.80996"></polygon>
                    <path d="M28.61772,97.39644 L29.08092,96.92004 C29.27772,96.71724 29.27652,96.39444 29.07852,96.19284 L29.07132,96.18564 C29.10492,96.17844 29.13852,96.17004 29.17092,96.15564 C29.38332,96.06924 29.51412,95.85444 29.49252,95.62524 L29.44332,95.08284 L29.57412,95.15844 L29.47212,96.20244 C29.45652,96.35484 29.50932,96.50484 29.61492,96.61524 C29.71332,96.71724 29.84892,96.77484 29.99052,96.77484 C30.00012,96.77484 30.65652,96.73524 30.65652,96.73524 L30.72732,96.99444 C30.72732,96.99444 30.30612,96.94044 30.28452,96.94044 C30.12012,96.94044 29.96532,97.01844 29.86572,97.15044 C29.84892,97.17444 29.83332,97.19844 29.82012,97.22484 C29.74092,97.16124 29.64252,97.12044 29.53692,97.11204 C29.52252,97.11084 29.50812,97.10964 29.49372,97.10964 C29.30172,97.10964 29.12412,97.21644 29.03412,97.38804 L28.86492,97.70724 L28.61772,97.39644 Z" id="Fill-105" fill="#0B000E"></path>
                    <polygon id="Fill-107" fill="#b9aaff" points="28.83228 94.1286 28.97508 95.6742 27.91908 94.3782 27.53628 95.3658 28.70748 96.5574 27.92508 97.3626 28.95468 98.6538 29.49468 97.6302 30.04668 99.285 31.05828 99.177 30.28428 97.461 31.43748 97.6122 31.04628 96.1902 29.99028 96.2538 30.12588 94.8762"></polygon>
                    <path d="M4.8018,76.47372 C4.731,76.47372 4.6734,76.41612 4.6734,76.34652 C4.6734,76.27452 4.731,76.21812 4.8018,76.21812 C4.8726,76.21812 4.9302,76.27452 4.9302,76.34652 C4.9302,76.41612 4.8726,76.47372 4.8018,76.47372" id="Fill-109" fill="#0B000E"></path>
                    <path d="M4.8018,75.69684 C4.443,75.69684 4.1526,75.98724 4.1526,76.34604 C4.1526,76.70364 4.443,76.99524 4.8018,76.99524 C5.1606,76.99524 5.451,76.70364 5.451,76.34604 C5.451,75.98724 5.1606,75.69684 4.8018,75.69684" id="Fill-111" fill="#b9aaff"></path>
                    <path d="M21.20748,53.07312 C21.13668,53.07312 21.07908,53.01552 21.07908,52.94472 C21.07908,52.87392 21.13668,52.81752 21.20748,52.81752 C21.27828,52.81752 21.33468,52.87392 21.33468,52.94472 C21.33468,53.01552 21.27828,53.07312 21.20748,53.07312" id="Fill-113" fill="#0B000E"></path>
                    <path d="M21.20748,52.29624 C20.84868,52.29624 20.55828,52.58664 20.55828,52.94544 C20.55828,53.30304 20.84868,53.59464 21.20748,53.59464 C21.56628,53.59464 21.85668,53.30304 21.85668,52.94544 C21.85668,52.58664 21.56628,52.29624 21.20748,52.29624" id="Fill-115" fill="#b9aaff"></path>
                    <path d="M13.6236,25.46556 C13.5528,25.46556 13.4952,25.40796 13.4952,25.33836 C13.4952,25.26636 13.5528,25.20996 13.6236,25.20996 C13.6944,25.20996 13.752,25.26636 13.752,25.33836 C13.752,25.40796 13.6944,25.46556 13.6236,25.46556" id="Fill-117" fill="#0B000E"></path>
                    <path d="M13.6236,24.68856 C13.2648,24.68856 12.9744,24.97896 12.9744,25.33776 C12.9744,25.69656 13.2648,25.98696 13.6236,25.98696 C13.9824,25.98696 14.2728,25.69656 14.2728,25.33776 C14.2728,24.97896 13.9824,24.68856 13.6236,24.68856" id="Fill-119" fill="#b9aaff"></path>
                    <path d="M0.6492,45.06396 C0.5784,45.06396 0.5208,45.00636 0.5208,44.93676 C0.5208,44.86476 0.5784,44.80836 0.6492,44.80836 C0.72,44.80836 0.7764,44.86476 0.7764,44.93676 C0.7764,45.00636 0.72,45.06396 0.6492,45.06396" id="Fill-121" fill="#0B000E"></path>
                    <path d="M0.6492,44.28708 C0.2904,44.28708 0,44.57748 0,44.93628 C0,45.29388 0.2904,45.58548 0.6492,45.58548 C1.0068,45.58548 1.2984,45.29388 1.2984,44.93628 C1.2984,44.57748 1.0068,44.28708 0.6492,44.28708" id="Fill-123" fill="#b9aaff"></path>
                    <path d="M35.61384,10.66356 C35.54304,10.66356 35.48544,10.60596 35.48544,10.53516 C35.48544,10.46436 35.54304,10.40676 35.61384,10.40676 C35.68464,10.40676 35.74104,10.46436 35.74104,10.53516 C35.74104,10.60596 35.68464,10.66356 35.61384,10.66356" id="Fill-125" fill="#0B000E"></path>
                    <path d="M35.61384,9.88608 C35.25504,9.88608 34.96464,10.17648 34.96464,10.53528 C34.96464,10.89408 35.25504,11.18448 35.61384,11.18448 C35.97144,11.18448 36.26304,10.89408 36.26304,10.53528 C36.26304,10.17648 35.97144,9.88608 35.61384,9.88608" id="Fill-127" fill="#b9aaff"></path>
                    <path d="M19.20816,34.06416 C19.13736,34.06416 19.07976,34.00656 19.07976,33.93576 C19.07976,33.86496 19.13736,33.80856 19.20816,33.80856 C19.27896,33.80856 19.33536,33.86496 19.33536,33.93576 C19.33536,34.00656 19.27896,34.06416 19.20816,34.06416" id="Fill-129" fill="#0B000E"></path>
                    <path d="M19.20816,33.28728 C18.84936,33.28728 18.55896,33.57768 18.55896,33.93648 C18.55896,34.29408 18.84936,34.58568 19.20816,34.58568 C19.56576,34.58568 19.85736,34.29408 19.85736,33.93648 C19.85736,33.57768 19.56576,33.28728 19.20816,33.28728" id="Fill-131" fill="#b9aaff"></path>
                    <path d="M26.79204,61.67184 C26.72124,61.67184 26.66364,61.61424 26.66364,61.54344 C26.66364,61.47264 26.72124,61.41504 26.79204,61.41504 C26.86284,61.41504 26.91924,61.47264 26.91924,61.54344 C26.91924,61.61424 26.86284,61.67184 26.79204,61.67184" id="Fill-133" fill="#0B000E"></path>
                    <path d="M26.79204,60.89424 C26.43324,60.89424 26.14284,61.18464 26.14284,61.54344 C26.14284,61.90224 26.43324,62.19264 26.79204,62.19264 C27.14964,62.19264 27.44124,61.90224 27.44124,61.54344 C27.44124,61.18464 27.14964,60.89424 26.79204,60.89424" id="Fill-135" fill="#b9aaff"></path>
                    <path d="M39.76644,42.07332 C39.69564,42.07332 39.63804,42.01572 39.63804,41.94492 C39.63804,41.87412 39.69564,41.81652 39.76644,41.81652 C39.83724,41.81652 39.89484,41.87412 39.89484,41.94492 C39.89484,42.01572 39.83724,42.07332 39.76644,42.07332" id="Fill-137" fill="#0B000E"></path>
                    <path d="M39.76644,41.29584 C39.40764,41.29584 39.11724,41.58624 39.11724,41.94504 C39.11724,42.30384 39.40764,42.59424 39.76644,42.59424 C40.12524,42.59424 40.41564,42.30384 40.41564,41.94504 C40.41564,41.58624 40.12524,41.29584 39.76644,41.29584" id="Fill-139" fill="#b9aaff"></path>
                </g>
            </g>
        </g>
    </g>
</svg>