<?xml version="1.0" encoding="UTF-8"?>
<svg width="116px" height="145px" viewBox="0 0 116 145" version="1.1" xmlns="http://www.w3.org/2000/svg" xmlns:xlink="http://www.w3.org/1999/xlink">
    <!-- Generator: Sketch 60.1 (88133) - https://sketch.com -->
    <title>编组</title>
    <desc>Created with Sketch.</desc>
    <defs>
        <polygon id="path-1" points="0.0369390564 0.63732 115.5996 0.63732 115.5996 67.2 0.0369390564 67.2"></polygon>
        <polygon id="path-3" points="0 0.23364 115.563439 0.23364 115.563439 66.79644 0 66.79644"></polygon>
        <polygon id="path-5" points="0.0369390564 0.09468 115.5996 0.09468 115.5996 66.65748 0.0369390564 66.65748"></polygon>
        <polygon id="path-7" points="0.08204 1.05 1.28204 1.05 1.28204 2.0658 0.08204 2.0658"></polygon>
        <polygon id="path-9" points="0.08192 1.05 1.28192 1.05 1.28192 2.06616 0.08192 2.06616"></polygon>
    </defs>
    <g id="页面-1" stroke="none" stroke-width="1" fill="none" fill-rule="evenodd">
        <g id="landing-page" transform="translate(-1016.000000, -741.000000)">
            <g id="2" transform="translate(64.000000, 610.000000)">
                <g id="编组-4" transform="translate(880.000000, 143.000000)" fill="#B9AAFF" font-family=".SFNSDisplay, .SF NS Display" font-size="20" font-weight="normal">
                    <text id="Burn">
                        <tspan x="0" y="19">Burn</tspan>
                    </text>
                </g>
                <g id="编组" transform="translate(952.000000, 130.000000)">
                    <path d="M99.49296,51.6894 C99.42216,51.6894 99.36456,51.6318 99.36456,51.5622 C99.36456,51.4902 99.42216,51.4338 99.49296,51.4338 C99.56376,51.4338 99.62016,51.4902 99.62016,51.5622 C99.62016,51.6318 99.56376,51.6894 99.49296,51.6894" id="Fill-1" fill="#0B000E"></path>
                    <path d="M99.49296,50.91252 C99.13416,50.91252 98.84376,51.20292 98.84376,51.56172 C98.84376,51.92052 99.13416,52.21092 99.49296,52.21092 C99.85056,52.21092 100.14096,51.92052 100.14096,51.56172 C100.14096,51.20292 99.85056,50.91252 99.49296,50.91252" id="Fill-3" fill="#B9AAFF"></path>
                    <path d="M96.50004,84.85116 C96.42924,84.85116 96.37164,84.79356 96.37164,84.72276 C96.37164,84.65196 96.42924,84.59556 96.50004,84.59556 C96.57084,84.59556 96.62844,84.65196 96.62844,84.72276 C96.62844,84.79356 96.57084,84.85116 96.50004,84.85116" id="Fill-5" fill="#0B000E"></path>
                    <path d="M96.50004,84.07416 C96.14124,84.07416 95.85084,84.36456 95.85084,84.72336 C95.85084,85.08096 96.14124,85.37256 96.50004,85.37256 C96.85884,85.37256 97.14924,85.08096 97.14924,84.72336 C97.14924,84.36456 96.85884,84.07416 96.50004,84.07416" id="Fill-7" fill="#B9AAFF"></path>
                    <path d="M114.94764,72.0144 C114.87684,72.0144 114.81924,71.9568 114.81924,71.886 C114.81924,71.8152 114.87684,71.7576 114.94764,71.7576 C115.01844,71.7576 115.07604,71.8152 115.07604,71.886 C115.07604,71.9568 115.01844,72.0144 114.94764,72.0144" id="Fill-9" fill="#0B000E"></path>
                    <path d="M114.94764,71.23692 C114.58884,71.23692 114.29844,71.52732 114.29844,71.88612 C114.29844,72.24492 114.58884,72.53532 114.94764,72.53532 C115.30644,72.53532 115.59684,72.24492 115.59684,71.88612 C115.59684,71.52732 115.30644,71.23692 114.94764,71.23692" id="Fill-11" fill="#B9AAFF"></path>
                    <path d="M95.20164,21.70464 C95.13084,21.70464 95.07324,21.64704 95.07324,21.57744 C95.07324,21.50544 95.13084,21.44904 95.20164,21.44904 C95.27244,21.44904 95.33004,21.50544 95.33004,21.57744 C95.33004,21.64704 95.27244,21.70464 95.20164,21.70464" id="Fill-13" fill="#0B000E"></path>
                    <path d="M95.20164,20.92776 C94.84284,20.92776 94.55244,21.21816 94.55244,21.57696 C94.55244,21.93576 94.84284,22.22616 95.20164,22.22616 C95.56044,22.22616 95.85084,21.93576 95.85084,21.57696 C95.85084,21.21816 95.56044,20.92776 95.20164,20.92776" id="Fill-15" fill="#B9AAFF"></path>
                    <path d="M7.34616,81.43752 C7.27536,81.43752 7.21776,81.37992 7.21776,81.30912 C7.21776,81.23832 7.27536,81.18072 7.34616,81.18072 C7.41696,81.18072 7.47336,81.23832 7.47336,81.30912 C7.47336,81.37992 7.41696,81.43752 7.34616,81.43752" id="Fill-17" fill="#0B000E"></path>
                    <path d="M7.34616,80.65992 C6.98736,80.65992 6.69696,80.95032 6.69696,81.30912 C6.69696,81.66792 6.98736,81.95832 7.34616,81.95832 C7.70376,81.95832 7.99416,81.66792 7.99416,81.30912 C7.99416,80.95032 7.70376,80.65992 7.34616,80.65992" id="Fill-19" fill="#B9AAFF"></path>
                    <path d="M23.75124,58.03632 C23.68044,58.03632 23.62284,57.97872 23.62284,57.90912 C23.62284,57.83712 23.68044,57.78072 23.75124,57.78072 C23.82204,57.78072 23.87964,57.83712 23.87964,57.90912 C23.87964,57.97872 23.82204,58.03632 23.75124,58.03632" id="Fill-21" fill="#0B000E"></path>
                    <path d="M23.75124,57.25932 C23.39244,57.25932 23.10204,57.54972 23.10204,57.90852 C23.10204,58.26612 23.39244,58.55772 23.75124,58.55772 C24.11004,58.55772 24.40044,58.26612 24.40044,57.90852 C24.40044,57.54972 24.11004,57.25932 23.75124,57.25932" id="Fill-23" fill="#B9AAFF"></path>
                    <path d="M16.16796,30.42924 C16.09716,30.42924 16.03956,30.37164 16.03956,30.30084 C16.03956,30.23004 16.09716,30.17364 16.16796,30.17364 C16.23876,30.17364 16.29516,30.23004 16.29516,30.30084 C16.29516,30.37164 16.23876,30.42924 16.16796,30.42924" id="Fill-25" fill="#0B000E"></path>
                    <path d="M16.16796,29.65236 C15.80916,29.65236 15.51876,29.94276 15.51876,30.30156 C15.51876,30.65916 15.80916,30.95076 16.16796,30.95076 C16.52556,30.95076 16.81596,30.65916 16.81596,30.30156 C16.81596,29.94276 16.52556,29.65236 16.16796,29.65236" id="Fill-27" fill="#B9AAFF"></path>
                    <path d="M3.19296,50.02776 C3.12216,50.02776 3.06456,49.97016 3.06456,49.89936 C3.06456,49.82856 3.12216,49.77096 3.19296,49.77096 C3.26376,49.77096 3.32136,49.82856 3.32136,49.89936 C3.32136,49.97016 3.26376,50.02776 3.19296,50.02776" id="Fill-29" fill="#0B000E"></path>
                    <path d="M3.19296,49.25016 C2.83416,49.25016 2.54376,49.54056 2.54376,49.89936 C2.54376,50.25816 2.83416,50.54856 3.19296,50.54856 C3.55176,50.54856 3.84216,50.25816 3.84216,49.89936 C3.84216,49.54056 3.55176,49.25016 3.19296,49.25016" id="Fill-31" fill="#B9AAFF"></path>
                    <path d="M84.89844,34.30524 C84.89844,34.45524 84.77724,34.57644 84.62724,34.57644 C84.47844,34.57644 84.35724,34.45524 84.35724,34.30524 C84.35724,34.15524 84.47844,34.03524 84.62724,34.03524 C84.77724,34.03524 84.89844,34.15524 84.89844,34.30524" id="Fill-33" fill="#0B000E"></path>
                    <path d="M84.62772,34.03512 C84.47892,34.03512 84.35652,34.15632 84.35652,34.30512 C84.35652,34.45512 84.47892,34.57632 84.62772,34.57632 C84.77772,34.57632 84.89892,34.45512 84.89892,34.30512 C84.89892,34.15632 84.77772,34.03512 84.62772,34.03512" id="Fill-35" fill="#B9AAFF"></path>
                    <g transform="translate(0.000000, 78.150000)">
                        <path d="M57.39456,66.67944 C55.12056,66.67944 53.05296,66.20784 51.56976,65.35224 L2.66136,37.11384 C1.33536,36.34944 0.58896,35.32704 0.557959531,34.23384 C0.51936,32.79624 1.65696,31.30224 3.68136,30.13224 L50.54616,3.07584 C52.65576,1.85664 55.46136,1.15824 58.24296,1.15824 C60.51576,1.15824 62.58336,1.62984 64.06656,2.48544 L112.97496,30.72384 C113.89656,31.25544 115.00896,32.17704 115.07496,33.54624 C115.14936,35.00184 114.01056,36.51744 111.95376,37.70424 L65.08896,64.76184 C62.97936,65.97984 60.17496,66.67944 57.39456,66.67944" id="Fill-37" fill="#0B000E"></path>
                        <g>
                            <mask id="mask-2" fill="white">
                                <use xlink:href="#path-1"></use>
                            </mask>
                            <g id="Clip-40"></g>
                            <path d="M58.24296,0.63732 C55.47816,0.63732 52.56096,1.31052 50.28576,2.62452 L3.42096,29.68092 C1.22616,30.94932 -0.00744,32.61372 0.03816,34.24812 C0.07296,35.52852 0.91296,36.70692 2.39976,37.56492 L51.31056,65.80332 C52.93296,66.74052 55.11216,67.20012 57.39456,67.20012 C60.15936,67.20012 63.07416,66.52692 65.34936,65.21292 L112.21416,38.15532 C114.44616,36.86652 115.67856,35.17812 115.59576,33.52092 C115.53336,32.25012 114.71736,31.12812 113.23536,30.27252 L64.32576,2.03412 C62.70216,1.09692 60.52536,0.63732 58.24296,0.63732 M58.24296,1.67892 C60.42456,1.67892 62.40096,2.12532 63.80496,2.93652 L112.71576,31.17492 C113.52336,31.64052 114.50016,32.43612 114.55656,33.57252 C114.61776,34.80732 113.54736,36.18372 111.69336,37.25412 L64.82856,64.31172 C62.79576,65.48532 60.08616,66.15852 57.39456,66.15852 C55.21176,66.15852 53.23536,65.71212 51.83016,64.90092 L2.92056,36.66252 C1.75896,35.99172 1.10496,35.12412 1.07784497,34.21932 C1.04616,32.99772 2.11656,31.63812 3.94296,30.58332 L50.80776,3.52572 C52.83936,2.35212 55.55016,1.67892 58.24296,1.67892" id="Fill-39" fill="#B9AAFF" mask="url(#mask-2)"></path>
                        </g>
                    </g>
                    <path d="M57.3582,136.02516 C55.0842,136.02516 53.0154,135.55356 51.5334,134.69796 L2.6238,106.45956 C1.299,105.69636 0.5526,104.67276 0.520459276,103.57956 C0.483,102.14316 1.6218,100.64796 3.645,99.47796 L50.5098,72.42156 C52.6194,71.20236 55.4238,70.50396 58.2054,70.50396 C60.4794,70.50396 62.5458,70.97556 64.029,71.83116 L112.9386,100.06956 C113.859,100.59996 114.9714,101.52156 115.0386,102.89196 C115.1118,104.34756 113.9742,105.86316 111.9174,107.04996 L65.0526,134.10876 C62.943,135.32676 60.1386,136.02516 57.3582,136.02516" id="Fill-41" fill="#0B000E"></path>
                    <g transform="translate(0.000000, 69.750000)">
                        <mask id="mask-4" fill="white">
                            <use xlink:href="#path-3"></use>
                        </mask>
                        <g id="Clip-44"></g>
                        <path d="M58.20552,0.23364 C55.44192,0.23364 52.52352,0.90684 50.24952,2.21964 L3.38472,29.27724 C1.18992,30.54564 -0.04368,32.21004 0.00072,33.84444 C0.03672,35.12484 0.87552,36.30324 2.36352,37.16124 L51.27312,65.39964 C52.89672,66.33684 55.07592,66.79644 57.35832,66.79644 C60.12192,66.79644 63.03792,66.12324 65.31312,64.80924 L112.17792,37.75164 C114.40992,36.46284 115.64232,34.77444 115.55952,33.11724 C115.49592,31.84644 114.68112,30.72324 113.19912,29.86884 L64.28832,1.63044 C62.66592,0.69324 60.48792,0.23364 58.20552,0.23364 M58.20552,1.27524 C60.38832,1.27524 62.36472,1.72164 63.76872,2.53284 L112.67952,30.77004 C113.48712,31.23684 114.46272,32.03244 114.51912,33.16884 C114.58032,34.40364 113.51112,35.78004 111.65592,36.85044 L64.79112,63.90804 C62.75952,65.08164 60.04992,65.75484 57.35832,65.75484 C55.17432,65.75484 53.19792,65.30844 51.79392,64.49724 L2.88312,36.25884 C1.72152,35.58804 1.06752,34.72044 1.04155181,33.81564 C1.00872,32.59404 2.07912,31.23444 3.90552,30.17964 L50.77032,3.12204 C52.80312,1.94844 55.51272,1.27524 58.20552,1.27524" id="Fill-43" fill="#B9AAFF" mask="url(#mask-4)"></path>
                    </g>
                    <path d="M57.39456,134.68692 C55.12056,134.68692 53.05296,134.21532 51.56976,133.35972 L2.66136,105.12132 C1.33536,104.35692 0.58896,103.33452 0.557959531,102.24132 C0.51936,100.80372 1.65696,99.30972 3.68136,98.13972 L50.54616,71.08212 C52.65696,69.86412 55.46256,69.16572 58.24296,69.16572 C60.51576,69.16572 62.58216,69.63732 64.06656,70.49172 L112.97496,98.73132 C113.89656,99.26172 115.00896,100.18332 115.07496,101.55372 C115.14936,103.00932 114.01056,104.52492 111.95376,105.71172 L65.08896,132.76932 C62.97936,133.98732 60.17496,134.68692 57.39456,134.68692" id="Fill-45" fill="#0B000E"></path>
                    <g transform="translate(0.000000, 68.550000)">
                        <mask id="mask-6" fill="white">
                            <use xlink:href="#path-5"></use>
                        </mask>
                        <g id="Clip-48"></g>
                        <path d="M58.24296,0.09468 C55.47816,0.09468 52.56096,0.76788 50.28576,2.08068 L3.42096,29.13828 C1.22616,30.40668 -0.00744,32.07108 0.03816,33.70548 C0.07296,34.98588 0.91296,36.16428 2.39976,37.02228 L51.31056,65.26068 C52.93296,66.19788 55.11216,66.65748 57.39456,66.65748 C60.15936,66.65748 63.07416,65.98428 65.34936,64.67028 L112.21416,37.61268 C114.44616,36.32388 115.67856,34.63548 115.59576,32.97828 C115.53336,31.70748 114.71736,30.58428 113.23536,29.72988 L64.32576,1.49148 C62.70216,0.55428 60.52536,0.09468 58.24296,0.09468 M58.24296,1.13628 C60.42456,1.13628 62.40096,1.58268 63.80496,2.39388 L112.71576,30.63228 C113.52336,31.09788 114.50016,31.89348 114.55656,33.02988 C114.61776,34.26468 113.54736,35.64108 111.69336,36.71148 L64.82856,63.76908 C62.79576,64.94268 60.08616,65.61588 57.39456,65.61588 C55.21176,65.61588 53.23536,65.16948 51.83016,64.35828 L2.92056,36.11988 C1.75896,35.44908 1.10496,34.58148 1.07784497,33.67668 C1.04616,32.45508 2.11656,31.09548 3.94296,30.04068 L50.80776,2.98308 C52.83936,1.80948 55.55016,1.13628 58.24296,1.13628" id="Fill-47" fill="#B9AAFF" mask="url(#mask-6)"></path>
                    </g>
                    <g transform="translate(8.400000, 80.550000)">
                        <path d="M45.93252,37.98672 C36.61332,37.98672 26.61372,36.41712 18.49812,33.68232 C2.12892,28.16472 0.76932,24.03192 0.763317504,19.93512 C0.75732,13.03512 11.57172,8.89512 21.70932,5.55672 C31.01652,2.49072 40.79412,0.80352 49.23972,0.80352 C57.62532,0.80352 64.65012,2.40432 70.11732,5.56152 C76.48332,9.23592 79.98732,14.08632 79.9849212,19.21752 C79.98252,24.33552 76.48812,29.16672 70.14612,32.81952 C64.27812,36.19992 55.90692,37.98672 45.93252,37.98672" id="Fill-49" fill="#0B000E"></path>
                        <path d="M49.23948,0.28284 C39.68988,0.28284 29.72748,2.36724 21.54708,5.06124 C11.01468,8.53044 0.23628,12.72444 0.243476395,19.93524 C0.24948,24.79764 2.56788,28.86204 18.33108,34.17564 C25.99428,36.75804 36.09828,38.50764 45.93228,38.50764 C55.04388,38.50764 63.92508,37.00524 70.40628,33.27084 C83.88228,25.50804 83.87028,12.89964 70.37748,5.11044 C64.35948,1.63404 56.93268,0.28284 49.23948,0.28284 M49.24068,0.28284 L49.24068,1.32444 L49.24188,1.32444 C57.53388,1.32444 64.46868,2.90124 69.85788,6.01164 C76.05468,9.59004 79.46628,14.27964 79.4638813,19.21764 C79.46268,24.14124 76.06068,28.81164 69.88668,32.36844 C64.09788,35.70324 55.81428,37.46604 45.93228,37.46604 C36.66708,37.46604 26.72868,35.90724 18.66468,33.18924 C2.62068,27.78204 1.28868,23.83404 1.28507634,19.93404 C1.27788,13.38324 11.90868,9.33324 21.87228,6.05124 C31.12668,3.00324 40.84668,1.32444 49.23948,1.32444 L49.24068,0.28284" id="Fill-51" fill="#B9AAFF"></path>
                    </g>
                    <path d="M57.81876,116.01312 C49.28436,116.01312 41.26836,114.09912 35.24676,110.62272 C29.31636,107.19792 26.04876,102.67752 26.04876,97.89072 C26.04876,93.10632 29.31636,88.58472 35.24556,85.16112 C41.26716,81.68472 49.28316,79.77072 57.81756,79.77072 C66.35196,79.77072 74.36916,81.68472 80.39076,85.16112 C86.32116,88.58472 89.58756,93.10632 89.58756,97.89192 C89.58756,102.67752 86.32116,107.19912 80.39076,110.62272 C74.36916,114.09912 66.35316,116.01312 57.81876,116.01312" id="Fill-53" fill="#0B000E"></path>
                    <path d="M57.81768,79.24956 C49.55448,79.24956 41.29128,81.06996 34.98648,84.70956 C22.37688,91.98996 22.37688,103.79316 34.98768,111.07356 C41.29248,114.71436 49.55448,116.53356 57.82008,116.53356 C66.08208,116.53356 74.34648,114.71316 80.65008,111.07476 C93.25968,103.79436 93.25968,91.98996 80.65008,84.70956 C74.34408,81.06996 66.08208,79.24956 57.81768,79.24956 M57.82008,79.24956 L57.82008,80.29116 C66.26328,80.29116 74.18688,82.18116 80.12928,85.61196 C85.89288,88.93956 89.06568,93.30036 89.06568,97.89276 C89.06568,102.48396 85.89288,106.84476 80.13048,110.17236 C74.18808,113.60316 66.26448,115.49316 57.82008,115.49316 C49.37448,115.49316 41.45088,113.60316 35.50728,110.17236 C29.74368,106.84476 26.57088,102.48276 26.57088,97.89156 C26.57088,93.29916 29.74368,88.93836 35.50728,85.61196 C41.44848,82.18116 49.37208,80.29116 57.81768,80.29116 L57.82008,79.24956" id="Fill-55" fill="#B9AAFF"></path>
                    <path d="M57.81876,114.63732 C49.28436,114.63732 41.26836,112.72332 35.24676,109.24692 C29.31636,105.82212 26.04996,101.30172 26.04876,96.51492 C26.04876,91.73052 29.31516,87.20892 35.24556,83.78532 C41.26596,80.30892 49.28196,78.39372 57.81636,78.39372 C66.35196,78.39372 74.36916,80.30892 80.39076,83.78532 C86.32116,87.21012 89.58756,91.73052 89.58756,96.51612 C89.58756,101.30172 86.31996,105.82332 80.39076,109.24692 C74.36916,112.72332 66.35316,114.63732 57.81876,114.63732" id="Fill-57" fill="#0B000E"></path>
                    <path d="M57.81768,77.87388 C49.55448,77.87388 41.29128,79.69428 34.98648,83.33388 C22.37688,90.61428 22.37688,102.41748 34.98768,109.69788 C41.29248,113.33868 49.55448,115.15788 57.82008,115.15788 C66.08208,115.15788 74.34648,113.33748 80.65008,109.69788 C93.25968,102.41868 93.25968,90.61428 80.65008,83.33388 C74.34408,79.69428 66.08208,77.87388 57.81768,77.87388 M57.82008,77.87388 L57.82008,78.91548 C66.26328,78.91548 74.18688,80.80428 80.12928,84.23628 C85.89288,87.56388 89.06568,91.92468 89.06568,96.51708 C89.06568,101.10828 85.89288,105.46908 80.13048,108.79668 C74.18808,112.22628 66.26448,114.11628 57.82008,114.11628 C49.37448,114.11628 41.45088,112.22628 35.50728,108.79548 C29.74368,105.46908 26.57088,101.10708 26.57088,96.51588 C26.57088,91.92348 29.74368,87.56268 35.50728,84.23508 C41.44848,80.80548 49.37208,78.91548 57.81768,78.91548 L57.82008,77.87388" id="Fill-59" fill="#B9AAFF"></path>
                    <path d="M57.81876,111.85584 C49.59996,111.85584 41.88156,110.01264 36.08436,106.66584 C30.38076,103.37304 27.24396,99.01704 27.2511476,94.40184 L27.2511476,75.51384 L88.38516,75.51384 C88.38516,75.51384 88.38156,94.48704 88.38156,94.50624 C88.34316,99.08304 85.20636,103.40184 79.55316,106.66584 C73.75596,110.01264 66.03756,111.85584 57.81876,111.85584" id="Fill-61" fill="#0B000E"></path>
                    <path d="M88.90512,74.9934 L26.7307071,74.9934 L26.7307071,94.401 C26.72352,99.003 29.74152,103.605 35.82432,107.1174 C41.89752,110.6226 49.85832,112.377 57.82032,112.377 C65.77992,112.377 73.73952,110.6238 79.81392,107.1174 C85.84632,103.6338 88.86312,99.0762 88.90152,94.5102 L88.90512,94.5102 L88.90512,74.9934 Z M87.86472,76.035 L87.86472,94.4166 C87.86232,94.4442 87.85992,94.473 87.85992,94.5018 C87.82272,98.8878 84.77952,103.047 79.29312,106.215 C73.57512,109.5174 65.94792,111.3354 57.82032,111.3354 C49.69032,111.3354 42.06432,109.5174 36.34392,106.215 C30.80952,103.0182 27.76512,98.8242 27.7735027,94.401 L27.7735027,76.035 L87.86472,76.035 L87.86472,76.035 Z" id="Fill-63" fill="#B9AAFF"></path>
                    <path d="M57.81876,91.72716 C49.60476,91.72716 41.89116,89.88396 36.09636,86.53956 C30.39396,83.24676 27.25116,78.90036 27.25116,74.29956 C27.25116,69.69876 30.39396,65.35236 36.09636,62.05956 C41.89116,58.71396 49.60356,56.87196 57.81756,56.87196 C66.03156,56.87196 73.74516,58.71396 79.53996,62.05956 C85.24356,65.35236 88.38516,69.69996 88.38516,74.30076 C88.38516,78.90036 85.24356,83.24676 79.54116,86.53956 C73.74636,89.88516 66.03276,91.72716 57.81876,91.72716" id="Fill-65" fill="#0B000E"></path>
                    <path d="M57.81768,56.35176 C49.86288,56.35176 41.90568,58.10376 35.83728,61.60776 C23.69568,68.61696 23.69568,79.98096 35.83728,86.99016 C41.90808,90.49536 49.86288,92.24736 57.82008,92.24736 C65.77488,92.24736 73.73208,90.49536 79.80048,86.99136 C91.94088,79.98216 91.94088,68.61816 79.79928,61.60896 C73.72968,58.10376 65.77488,56.35176 57.81768,56.35176 M57.82008,56.35176 L57.82008,57.39336 C65.94288,57.39336 73.56288,59.21016 79.27968,62.51016 C84.81528,65.70696 87.86448,69.89376 87.86448,74.30016 C87.86448,78.70656 84.81528,82.89336 79.27968,86.08896 C73.56408,89.38896 65.94288,91.20576 57.82008,91.20576 C49.69488,91.20576 42.07368,89.38896 36.35808,86.08896 C30.82128,82.89216 27.77328,78.70536 27.77328,74.29896 C27.77328,69.89256 30.82128,65.70576 36.35688,62.51016 C42.07248,59.21016 49.69248,57.39336 57.81768,57.39336 L57.82008,56.35176" id="Fill-67" fill="#B9AAFF"></path>
                    <path d="M57.78012,56.00016 C50.43972,56.00016 43.09812,57.61296 37.50852,60.84096 C32.11212,63.95496 29.14092,68.09256 29.14092,72.48696 C29.14092,76.88376 32.11212,81.02016 37.50852,84.13656 C48.68892,90.59016 66.87612,90.59016 78.05532,84.13656 C83.45172,81.02136 86.42172,76.88496 86.42172,72.48816 C86.42172,68.09256 83.45052,63.95616 78.05412,60.84096 C72.46452,57.61296 65.12172,56.00016 57.78012,56.00016 M57.78132,89.16936 C50.40492,89.16936 43.02732,87.54816 37.41132,84.30456 C31.95252,81.15336 28.94532,76.95576 28.94532,72.48696 C28.94652,68.01936 31.95252,63.82296 37.41132,60.67176 C48.64332,54.18696 66.91932,54.18696 78.15132,60.67176 C83.61012,63.82416 86.61732,68.02056 86.61732,72.48816 C86.61732,76.95696 83.61132,81.15336 78.15252,84.30456 L78.10332,84.22056 L78.15252,84.30456 C72.53652,87.54816 65.15892,89.16936 57.78132,89.16936" id="Fill-69" fill="#0B000E"></path>
                    <path d="M57.78252,88.97676 C50.44212,88.97676 43.09812,87.36276 37.50852,84.13596 C32.11212,81.02076 29.14092,76.88316 29.14092,72.48756 C29.14092,68.09196 32.11212,63.95556 37.50852,60.84036 C43.09812,57.61356 50.43972,56.00076 57.78012,56.00076 C65.12172,56.00076 72.46452,57.61356 78.05412,60.84036 C83.45052,63.95676 86.42172,68.09316 86.42172,72.48876 C86.42172,76.88436 83.45172,81.02076 78.05532,84.13596 C72.46452,87.36396 65.12412,88.97676 57.78252,88.97676 M57.78132,55.80756 C50.40492,55.80756 43.02732,57.42876 37.41132,60.67116 C31.95252,63.82356 28.94532,68.01996 28.94532,72.48756 C28.94532,76.95636 31.95252,81.15276 37.41132,84.30516 C43.02732,87.54756 50.40492,89.16876 57.78132,89.16876 C65.15892,89.16876 72.53652,87.54756 78.15252,84.30516 L78.10332,84.22116 L78.15252,84.30516 C83.61132,81.15396 86.61732,76.95636 86.61732,72.48876 C86.61732,68.02116 83.61012,63.82356 78.15132,60.67116 C72.53532,57.42876 65.15772,55.80756 57.78132,55.80756" id="Fill-71" fill="#B9AAFF"></path>
                    <path d="M57.81876,86.36232 C50.78676,86.36232 44.18196,84.78552 39.22356,81.92232 C34.35756,79.11312 31.68156,75.40272 31.6887455,71.47392 L31.6887455,70.32912 L83.94756,70.32912 C83.94756,70.32912 83.94396,71.54232 83.94396,71.56272 C83.91156,75.45912 81.23796,79.13832 76.41396,81.92232 C71.45556,84.78552 64.85196,86.36232 57.81876,86.36232" id="Fill-73" fill="#0B000E"></path>
                    <path d="M84.46836,69.80844 L31.167945,69.80844 L31.167945,71.47284 C31.16076,75.41724 33.74916,79.36284 38.96316,82.37364 C44.16996,85.37964 50.99436,86.88324 57.81876,86.88324 C64.64316,86.88324 71.46756,85.37964 76.67436,82.37364 C81.84636,79.38804 84.43236,75.48084 84.46476,71.56644 L84.46836,71.56644 L84.46836,69.80844 Z M83.42796,70.85004 L83.42796,71.48004 C83.42556,71.50524 83.42436,71.53164 83.42436,71.55804 C83.39316,75.26244 80.81076,78.78324 76.15356,81.47244 C71.27316,84.29004 64.76196,85.84164 57.81876,85.84164 C50.87676,85.84164 44.36436,84.28884 39.48396,81.47124 C34.78596,78.75924 32.20236,75.20844 32.209545,71.47284 L32.209545,70.85004 L83.42796,70.85004 L83.42796,70.85004 Z" id="Fill-75" fill="#B9AAFF"></path>
                    <path d="M57.81876,84.68364 C50.78676,84.68364 44.18196,83.10684 39.22356,80.24364 C34.35396,77.43324 31.67316,73.72644 31.67316,69.80844 C31.67316,65.88924 34.35396,62.18364 39.22236,59.37324 C44.18076,56.51004 50.78436,54.93324 57.81756,54.93324 C64.84956,54.93324 71.45436,56.51004 76.41396,59.37324 C81.28356,62.18364 83.96436,65.89044 83.96436,69.80844 C83.96436,73.72764 81.28356,77.43324 76.41396,80.24364 C71.45556,83.10684 64.85196,84.68364 57.81876,84.68364" id="Fill-77" fill="#0B000E"></path>
                    <path d="M57.81768,54.41292 C50.99328,54.41292 44.16888,55.91532 38.96208,58.92132 C28.54848,64.93452 28.54848,74.68212 38.96328,80.69412 C44.17008,83.70132 50.99328,85.20492 57.81888,85.20492 C64.64208,85.20492 71.46888,83.70132 76.67448,80.69532 C87.08928,74.68332 87.08928,64.93452 76.67448,58.92252 C71.46648,55.91532 64.64208,54.41292 57.81768,54.41292 M57.82008,54.41292 L57.82008,55.45452 C64.76208,55.45452 71.27328,57.00612 76.15368,59.82372 C80.85408,62.53812 83.44248,66.08412 83.44248,69.80892 C83.44248,73.53372 80.85408,77.07972 76.15368,79.79292 C71.27328,82.61172 64.76208,84.16332 57.81888,84.16332 C50.87688,84.16332 44.36448,82.61172 39.48408,79.79292 C34.78248,77.07852 32.19288,73.53252 32.19288,69.80772 C32.19288,66.08412 34.78248,62.53812 39.48288,59.82372 C44.36328,57.00612 50.87448,55.45452 57.81768,55.45452 L57.82008,54.41292" id="Fill-79" fill="#B9AAFF"></path>
                    <g transform="translate(46.600000, 62.550000)">
                        <path d="M11.18132,13.12368 C8.31692,13.12368 5.63132,12.48408 3.62012,11.32368 C1.70012,10.21368 0.64172,8.77008 0.64172,7.25808 C0.64172,5.74608 1.70012,4.30248 3.62012,3.19368 C5.63132,2.03208 8.31692,1.39368 11.18132,1.39368 C14.04692,1.39368 16.73132,2.03208 18.74372,3.19368 C20.66372,4.30248 21.72212,5.74728 21.72212,7.25928 C21.72212,8.77128 20.66372,10.21368 18.74372,11.32368 C16.73252,12.48408 14.04692,13.12368 11.18132,13.12368" id="Fill-81" fill="#0B000E"></path>
                        <path d="M11.18132,0.87228 C8.35172,0.87228 5.51972,1.49628 3.35972,2.74308 C-0.95908,5.23668 -0.95908,9.27948 3.35972,11.77428 C5.51972,13.02108 8.35172,13.64508 11.18252,13.64508 C14.01212,13.64508 16.84412,13.02108 19.00412,11.77428 C23.32292,9.28068 23.32292,5.23668 19.00412,2.74308 C16.84292,1.49628 14.01212,0.87228 11.18132,0.87228 M11.18252,1.91388 L11.18252,1.91388 C13.95692,1.91388 16.54892,2.52828 18.48212,3.64548 C20.23532,4.65708 21.20252,5.94108 21.20252,7.25868 C21.20252,8.57628 20.23652,9.86028 18.48212,10.87188 C16.55012,11.98908 13.95692,12.60348 11.18252,12.60348 C8.40692,12.60348 5.81372,11.98908 3.88052,10.87188 C2.12732,9.86028 1.16132,8.57628 1.16132,7.25868 C1.16132,5.93988 2.12732,4.65708 3.88052,3.64428 C5.81372,2.52828 8.40572,1.91388 11.18252,1.91388" id="Fill-83" fill="#B9AAFF"></path>
                    </g>
                    <g transform="translate(49.200000, 64.750000)">
                        <path d="M8.7828,9.10784 C6.6648,9.10784 4.6824,8.63624 3.2004,7.78064 C1.8072,6.97664 1.0404,5.93744 1.0404,4.85744 C1.0404,3.77744 1.8084,2.73944 3.2004,1.93544 C4.6824,1.07984 6.6648,0.60824 8.7816,0.60824 C10.8996,0.60824 12.8808,1.07984 14.364,1.93544 C15.7572,2.73944 16.524,3.77744 16.524,4.85744 C16.524,5.93744 15.7572,6.97664 14.364,7.78064 C12.882,8.63624 10.8996,9.10784 8.7828,9.10784" id="Fill-85" fill="#0B000E"></path>
                        <path d="M8.78172,0.08732 C6.66732,0.08732 4.55292,0.55292 2.93892,1.48532 C-0.28788,3.34772 -0.28788,6.36812 2.94012,8.23172 C4.55412,9.16292 6.66732,9.62852 8.78292,9.62852 C10.89732,9.62852 13.01172,9.16292 14.62452,8.23172 C17.85252,6.36812 17.85252,3.34772 14.62452,1.48532 C13.01052,0.55292 10.89732,0.08732 8.78172,0.08732 M8.78292,1.12892 L8.78292,1.12892 C10.80852,1.12892 12.69972,1.57532 14.10492,2.38652 C15.32892,3.09332 16.00452,3.97172 16.00452,4.85852 C16.00452,5.74412 15.32892,6.62252 14.10492,7.32932 C12.69972,8.14052 10.80852,8.58692 8.78292,8.58692 C6.75612,8.58692 4.86492,8.14052 3.45972,7.32932 C2.23572,6.62252 1.56012,5.74412 1.56012,4.85852 C1.56012,3.97172 2.23572,3.09332 3.45972,2.38652 C4.86372,1.57532 6.75492,1.12892 8.78292,1.12892" id="Fill-87" fill="#B9AAFF"></path>
                    </g>
                    <path d="M73.8852,107.90544 C73.8792,107.87424 73.8744,107.83344 73.8744,107.78184 L73.8744,92.61024 C73.8744,92.19144 74.1456,91.72344 74.388,91.58304 L74.4876,91.52664 C74.49,91.55184 74.496,91.59504 74.496,91.65024 L74.496,106.82304 C74.496,107.24064 74.2248,107.70984 73.9824,107.84904 L73.8852,107.90544 Z" id="Fill-89" fill="#0B000E"></path>
                    <path d="M74.54964,90.97308 C74.45604,90.97308 74.35164,91.00308 74.24244,91.06668 L74.12724,91.13268 C73.70004,91.37868 73.35444,92.04108 73.35444,92.60988 L73.35444,107.78148 C73.35444,108.20628 73.54644,108.45948 73.82124,108.45948 C73.91484,108.45948 74.01924,108.42948 74.12724,108.36708 L74.24244,108.29988 C74.67084,108.05388 75.01644,107.39268 75.01644,106.82268 L75.01644,91.64988 C75.01644,91.22628 74.82444,90.97308 74.54964,90.97308" id="Fill-91" fill="#B9AAFF"></path>
                    <path d="M73.8852,107.90544 C73.8792,107.87424 73.8744,107.83344 73.8744,107.78184 L73.8744,103.18944 C73.8744,102.77064 74.1456,102.30264 74.388,102.16344 L74.4876,102.10584 C74.49,102.13104 74.496,102.17424 74.496,102.23064 L74.496,106.82304 C74.496,107.24064 74.2248,107.70984 73.9824,107.84904 L73.8852,107.90544 Z" id="Fill-93" fill="#0B000E"></path>
                    <path d="M74.54964,101.55276 C74.45604,101.55276 74.35164,101.58156 74.24244,101.64516 L74.12724,101.71236 C73.70004,101.95836 73.35444,102.61956 73.35444,103.18956 L73.35444,107.78196 C73.35444,108.20556 73.54644,108.45996 73.82124,108.45996 C73.91484,108.45996 74.01924,108.42996 74.12724,108.36636 L74.24244,108.30036 C74.67084,108.05316 75.01644,107.39196 75.01644,106.82316 L75.01644,102.22956 C75.01644,101.80596 74.82444,101.55276 74.54964,101.55276" id="Fill-95" fill="#B9AAFF"></path>
                    <path d="M80.76288,89.40216 C80.76288,89.57496 80.88408,89.64456 81.03288,89.55816 C81.18288,89.47176 81.30288,89.26176 81.30288,89.09016 C81.30288,88.91736 81.18288,88.84776 81.03288,88.93416 C80.88408,89.02056 80.76288,89.22936 80.76288,89.40216" id="Fill-97" fill="#0B000E"></path>
                    <path d="M81.15312,88.89708 C81.11712,88.89708 81.07632,88.90908 81.03192,88.93428 C80.88312,89.02068 80.76312,89.22948 80.76312,89.40228 C80.76312,89.52348 80.82432,89.59548 80.91192,89.59548 C80.94792,89.59548 80.98872,89.58348 81.03192,89.55828 C81.18192,89.47188 81.30312,89.26188 81.30312,89.09028 C81.30312,88.96788 81.24192,88.89708 81.15312,88.89708" id="Fill-99" fill="#B9AAFF"></path>
                    <path d="M78.69108,90.59808 C78.69108,90.77088 78.81348,90.84048 78.96228,90.75408 C79.11108,90.66768 79.23108,90.45768 79.23108,90.28608 C79.23108,90.11328 79.11108,90.04368 78.96228,90.13008 C78.81348,90.21648 78.69108,90.42528 78.69108,90.59808" id="Fill-101" fill="#0B000E"></path>
                    <path d="M79.08252,90.093 C79.04652,90.093 79.00572,90.105 78.96132,90.1302 C78.81252,90.2166 78.69132,90.4254 78.69132,90.5982 C78.69132,90.7194 78.75252,90.7914 78.84132,90.7914 C78.87732,90.7914 78.91812,90.7794 78.96132,90.7542 C79.11012,90.6678 79.23132,90.4578 79.23132,90.2862 C79.23132,90.1638 79.17132,90.093 79.08252,90.093" id="Fill-103" fill="#B9AAFF"></path>
                    <path d="M80.76288,91.66032 C80.76288,91.83312 80.88408,91.90272 81.03288,91.81632 C81.18288,91.73112 81.30288,91.52112 81.30288,91.34832 C81.30288,91.17672 81.18288,91.10712 81.03288,91.19232 C80.88408,91.27872 80.76288,91.48752 80.76288,91.66032" id="Fill-105" fill="#0B000E"></path>
                    <path d="M81.15312,91.15584 C81.11712,91.15584 81.07632,91.16784 81.03192,91.19304 C80.88312,91.27944 80.76312,91.48824 80.76312,91.65984 C80.76312,91.78224 80.82432,91.85424 80.91192,91.85424 C80.94792,91.85424 80.98872,91.84104 81.03192,91.81704 C81.18192,91.73064 81.30312,91.52064 81.30312,91.34904 C81.30312,91.22664 81.24192,91.15584 81.15312,91.15584" id="Fill-107" fill="#B9AAFF"></path>
                    <path d="M78.69108,92.85624 C78.69108,93.02904 78.81348,93.09864 78.96228,93.01224 C79.11108,92.92704 79.23108,92.71704 79.23108,92.54424 C79.23108,92.37264 79.11108,92.30304 78.96228,92.38824 C78.81348,92.47464 78.69108,92.68344 78.69108,92.85624" id="Fill-109" fill="#0B000E"></path>
                    <path d="M79.08252,92.35176 C79.04652,92.35176 79.00572,92.36376 78.96132,92.38896 C78.81252,92.47536 78.69132,92.68416 78.69132,92.85576 C78.69132,92.97816 78.75252,93.05016 78.84132,93.05016 C78.87732,93.05016 78.91812,93.03696 78.96132,93.01296 C79.11012,92.92656 79.23132,92.71656 79.23132,92.54496 C79.23132,92.42256 79.17132,92.35176 79.08252,92.35176" id="Fill-111" fill="#B9AAFF"></path>
                    <path d="M65.07264,125.5926 L73.64184,120.645 L74.05704,120.8862 L65.48904,125.8338 L65.07264,125.5926 Z M67.34784,126.9054 L75.91464,121.9578 L76.33224,122.199 L67.76304,127.1454 L67.34784,126.9054 Z M62.73624,126.9414 L63.13584,126.7098 L63.53664,126.9414 L63.13584,127.1718 L62.73624,126.9414 Z M65.01024,128.2542 L65.40984,128.0226 L65.80944,128.2542 L65.40984,128.4858 L65.01024,128.2542 Z M60.33384,128.3286 L60.73344,128.097 L61.13304,128.3286 L60.73344,128.5602 L60.33384,128.3286 Z M58.14744,129.591 L58.54704,129.3606 L58.94664,129.591 L58.54704,129.8226 L58.14744,129.591 Z M62.60784,129.6414 L63.00744,129.411 L63.40704,129.6414 L63.00744,129.8718 L62.60784,129.6414 Z M60.42024,130.9038 L60.81984,130.6734 L61.22064,130.9038 L60.81984,131.1354 L60.42024,130.9038 Z" id="Fill-113" fill="#0B000E"></path>
                    <path d="M60.81996,130.07208 L59.37876,130.90368 L60.81996,131.73648 L62.26236,130.90368 L60.81996,130.07208 Z M63.00756,128.80968 L61.56636,129.64128 L63.00756,130.47288 L64.44876,129.64128 L63.00756,128.80968 Z M58.54596,128.75928 L57.10476,129.59088 L58.54596,130.42368 L59.98836,129.59088 L58.54596,128.75928 Z M60.73356,127.49688 L59.29236,128.32848 L60.73356,129.16128 L62.17476,128.32848 L60.73356,127.49688 Z M65.40996,127.42248 L63.96876,128.25408 L65.40996,129.08688 L66.85116,128.25408 L65.40996,127.42248 Z M63.13596,126.10968 L61.69476,126.94128 L63.13596,127.77288 L64.57836,126.94128 L63.13596,126.10968 Z M75.91476,121.35648 L66.30396,126.90528 L67.76316,127.74768 L77.37396,122.19888 L75.91476,121.35648 Z M73.64196,120.04368 L64.03116,125.59248 L65.48916,126.43488 L75.09876,120.88608 L73.64196,120.04368 Z" id="Fill-115" fill="#B9AAFF"></path>
                    <path d="M41.67156,25.51272 C41.67156,25.74312 41.48436,25.92912 41.25396,25.92912 C41.02476,25.92912 40.83876,25.74312 40.83876,25.51272 C40.83876,25.28232 41.02476,25.09632 41.25396,25.09632 C41.48436,25.09632 41.67156,25.28232 41.67156,25.51272" id="Fill-117" fill="#0B000E"></path>
                    <path d="M41.25432,25.09608 C41.02512,25.09608 40.83672,25.28208 40.83672,25.51248 C40.83672,25.74288 41.02512,25.92888 41.25432,25.92888 C41.48352,25.92888 41.67192,25.74288 41.67192,25.51248 C41.67192,25.28208 41.48352,25.09608 41.25432,25.09608" id="Fill-119" fill="#B9AAFF"></path>
                    <path d="M66.6618,15.65016 C66.6618,15.88056 66.4758,16.06656 66.2442,16.06656 C66.015,16.06656 65.829,15.88056 65.829,15.65016 C65.829,15.41976 66.015,15.23376 66.2442,15.23376 C66.4758,15.23376 66.6618,15.41976 66.6618,15.65016" id="Fill-121" fill="#0B000E"></path>
                    <path d="M66.24456,15.23364 C66.01536,15.23364 65.82816,15.41964 65.82816,15.65004 C65.82816,15.88044 66.01536,16.06644 66.24456,16.06644 C66.47496,16.06644 66.66216,15.88044 66.66216,15.65004 C66.66216,15.41964 66.47496,15.23364 66.24456,15.23364" id="Fill-123" fill="#B9AAFF"></path>
                    <path d="M72.79416,6.12876 C72.79416,6.35916 72.60696,6.54516 72.37656,6.54516 C72.14736,6.54516 71.96016,6.35916 71.96016,6.12876 C71.96016,5.89836 72.14736,5.71236 72.37656,5.71236 C72.60696,5.71236 72.79416,5.89836 72.79416,6.12876" id="Fill-125" fill="#0B000E"></path>
                    <path d="M72.37704,5.71212 C72.14784,5.71212 71.95944,5.89812 71.95944,6.12852 C71.95944,6.35892 72.14784,6.54492 72.37704,6.54492 C72.60624,6.54492 72.79464,6.35892 72.79464,6.12852 C72.79464,5.89812 72.60624,5.71212 72.37704,5.71212" id="Fill-127" fill="#B9AAFF"></path>
                    <g transform="translate(55.000000, 0.150000)">
                        <mask id="mask-8" fill="white">
                            <use xlink:href="#path-7"></use>
                        </mask>
                        <g id="Clip-130"></g>
                        <path d="M1.09844,1.4664 C1.09844,1.6956 0.91244,1.8828 0.68084,1.8828 C0.45164,1.8828 0.26564,1.6956 0.26564,1.4664 C0.26564,1.236 0.45164,1.0488 0.68084,1.0488 C0.91244,1.0488 1.09844,1.236 1.09844,1.4664" id="Fill-129" fill="#0B000E" mask="url(#mask-8)"></path>
                    </g>
                    <g transform="translate(55.000000, 0.150000)">
                        <mask id="mask-10" fill="white">
                            <use xlink:href="#path-9"></use>
                        </mask>
                        <g id="Clip-132"></g>
                        <path d="M0.68132,1.04916 C0.45212,1.04916 0.26492,1.23636 0.26492,1.46676 C0.26492,1.69596 0.45212,1.88316 0.68132,1.88316 C0.91172,1.88316 1.09892,1.69596 1.09892,1.46676 C1.09892,1.23636 0.91172,1.04916 0.68132,1.04916" id="Fill-131" fill="#B9AAFF" mask="url(#mask-10)"></path>
                    </g>
                    <path d="M34.80204,10.44 C34.80204,10.6704 34.61604,10.8576 34.38564,10.8576 C34.15524,10.8576 33.96924,10.6704 33.96924,10.44 C33.96924,10.2108 34.15524,10.0236 34.38564,10.0236 C34.61604,10.0236 34.80204,10.2108 34.80204,10.44" id="Fill-133" fill="#0B000E"></path>
                    <path d="M34.386,10.02348 C34.1556,10.02348 33.9684,10.21068 33.9684,10.43988 C33.9684,10.67028 34.1556,10.85748 34.386,10.85748 C34.6152,10.85748 34.8024,10.67028 34.8024,10.43988 C34.8024,10.21068 34.6152,10.02348 34.386,10.02348" id="Fill-135" fill="#B9AAFF"></path>
                    <path d="M80.13132,56.68164 C80.13132,56.91204 79.94412,57.09804 79.71372,57.09804 C79.48452,57.09804 79.29732,56.91204 79.29732,56.68164 C79.29732,56.45244 79.48452,56.26524 79.71372,56.26524 C79.94412,56.26524 80.13132,56.45244 80.13132,56.68164" id="Fill-137" fill="#0B000E"></path>
                    <path d="M79.71408,56.265 C79.48488,56.265 79.29648,56.4522 79.29648,56.6814 C79.29648,56.9118 79.48488,57.0978 79.71408,57.0978 C79.94328,57.0978 80.13168,56.9118 80.13168,56.6814 C80.13168,56.4522 79.94328,56.265 79.71408,56.265" id="Fill-139" fill="#B9AAFF"></path>
                    <path d="M41.84148,60.39936 C41.84148,60.62856 41.65548,60.81576 41.42508,60.81576 C41.19468,60.81576 41.00868,60.62856 41.00868,60.39936 C41.00868,60.16896 41.19468,59.98176 41.42508,59.98176 C41.65548,59.98176 41.84148,60.16896 41.84148,60.39936" id="Fill-141" fill="#0B000E"></path>
                    <path d="M41.42544,59.98224 C41.19504,59.98224 41.00784,60.16944 41.00784,60.39984 C41.00784,60.62904 41.19504,60.81624 41.42544,60.81624 C41.65464,60.81624 41.84184,60.62904 41.84184,60.39984 C41.84184,60.16944 41.65464,59.98224 41.42544,59.98224" id="Fill-143" fill="#B9AAFF"></path>
                    <path d="M65.59536,79.24956 C65.59536,79.47996 65.40936,79.66596 65.17776,79.66596 C64.94856,79.66596 64.76256,79.47996 64.76256,79.24956 C64.76256,79.01916 64.94856,78.83316 65.17776,78.83316 C65.40936,78.83316 65.59536,79.01916 65.59536,79.24956" id="Fill-145" fill="#0B000E"></path>
                    <path d="M65.17812,78.83304 C64.94892,78.83304 64.76172,79.01904 64.76172,79.24944 C64.76172,79.47984 64.94892,79.66584 65.17812,79.66584 C65.40852,79.66584 65.59572,79.47984 65.59572,79.24944 C65.59572,79.01904 65.40852,78.83304 65.17812,78.83304" id="Fill-147" fill="#B9AAFF"></path>
                    <path d="M40.1364,104.7906 L40.1124,104.7774 C40.0248,104.7258 39.9552,104.5902 39.9552,104.4738 L39.9552,91.6434 C39.9552,91.527 40.0248,91.473 40.1124,91.5234 L40.1364,91.5378 C40.224,91.5882 40.296,91.7238 40.296,91.8402 L40.296,104.6706 C40.296,104.7882 40.224,104.841 40.1364,104.7906" id="Fill-149" fill="#0B000E"></path>
                    <path d="M40.04964,91.50444 C39.99324,91.50444 39.95484,91.55604 39.95484,91.64364 L39.95484,104.47404 C39.95484,104.59044 40.02444,104.72604 40.11324,104.77764 L40.13604,104.79084 C40.15884,104.80404 40.18044,104.80884 40.19964,104.80884 C40.25604,104.80884 40.29564,104.75724 40.29564,104.67084 L40.29564,91.84044 C40.29564,91.72404 40.22484,91.58724 40.13604,91.53684 L40.11324,91.52364 C40.09044,91.51044 40.07004,91.50444 40.04964,91.50444" id="Fill-151" fill="#B9AAFF"></path>
                    <path d="M41.26608,105.4428 L41.24208,105.4296 C41.15448,105.378 41.08488,105.2424 41.08488,105.126 L41.08488,92.2956 C41.08488,92.1792 41.15448,92.1252 41.24208,92.1756 L41.26608,92.19 C41.35368,92.2404 41.42568,92.376 41.42568,92.4924 L41.42568,105.3228 C41.42568,105.4404 41.35368,105.4932 41.26608,105.4428" id="Fill-153" fill="#0B000E"></path>
                    <path d="M41.17932,92.15664 C41.12292,92.15664 41.08452,92.20824 41.08452,92.29584 L41.08452,105.12624 C41.08452,105.24264 41.15412,105.37824 41.24292,105.42984 L41.26572,105.44304 C41.28852,105.45624 41.31012,105.46224 41.32932,105.46224 C41.38572,105.46224 41.42532,105.40944 41.42532,105.32304 L41.42532,92.49264 C41.42532,92.37624 41.35452,92.23944 41.26572,92.18904 L41.24292,92.17584 C41.22012,92.16264 41.19972,92.15664 41.17932,92.15664" id="Fill-155" fill="#B9AAFF"></path>
                    <path d="M42.39576,106.09488 L42.37176,106.08168 C42.28416,106.03008 42.21456,105.89448 42.21456,105.77808 L42.21456,92.94768 C42.21456,92.83128 42.28416,92.77728 42.37176,92.82768 L42.39576,92.84208 C42.48336,92.89248 42.55416,93.02808 42.55416,93.14448 L42.55416,105.97488 C42.55416,106.09248 42.48336,106.14528 42.39576,106.09488" id="Fill-157" fill="#0B000E"></path>
                    <path d="M42.309,92.80884 C42.2526,92.80884 42.213,92.86044 42.213,92.94804 L42.213,105.77844 C42.213,105.89484 42.2838,106.03044 42.3726,106.08204 L42.3954,106.09524 C42.4182,106.10844 42.4386,106.11324 42.459,106.11324 C42.5154,106.11324 42.555,106.06164 42.555,105.97524 L42.555,93.14484 C42.555,93.02844 42.4842,92.89164 42.3954,92.84124 L42.3726,92.82804 C42.3498,92.81484 42.3294,92.80884 42.309,92.80884" id="Fill-159" fill="#B9AAFF"></path>
                    <path d="M43.52544,106.74708 L43.50144,106.73388 C43.41384,106.68228 43.34304,106.54668 43.34304,106.43028 L43.34304,93.59988 C43.34304,93.48348 43.41384,93.42948 43.50144,93.47988 L43.52544,93.49428 C43.61304,93.54468 43.68384,93.68028 43.68384,93.79668 L43.68384,106.62708 C43.68384,106.74468 43.61304,106.79748 43.52544,106.74708" id="Fill-161" fill="#0B000E"></path>
                    <path d="M43.43868,93.46092 C43.38228,93.46092 43.34268,93.51252 43.34268,93.60012 L43.34268,106.43052 C43.34268,106.54692 43.41348,106.68252 43.50228,106.73412 L43.52508,106.74732 C43.54788,106.76052 43.56828,106.76652 43.58868,106.76652 C43.64508,106.76652 43.68348,106.71372 43.68348,106.62732 L43.68348,93.79692 C43.68348,93.68052 43.61388,93.54372 43.52508,93.49332 L43.50228,93.48012 C43.47948,93.46692 43.45788,93.46092 43.43868,93.46092" id="Fill-163" fill="#B9AAFF"></path>
                    <polygon id="Fill-165" fill="#0B000E" points="54.17304 43.43304 67.27464 35.84904 80.25024 43.43064 67.20984 50.96064"></polygon>
                    <path d="M67.27584,35.24628 L53.13264,43.43388 L67.20984,51.56148 L81.28824,43.43388 L67.27584,35.24628 Z M67.27344,36.45108 L79.21464,43.42788 L67.20984,50.35908 L55.21224,43.43268 L67.27344,36.45108 Z" id="Fill-167" fill="#B9AAFF"></path>
                    <g transform="translate(52.800000, 37.150000)">
                        <polygon id="Fill-169" fill="#0B000E" points="1.34964 8.267 14.43444 0.767 27.47244 8.2946 14.41044 15.8354"></polygon>
                        <path d="M14.436,0.1664 L0.3072,8.2652 L14.4108,16.4372 L28.5132,8.294 L14.436,0.1664 Z M14.4336,1.3676 L26.43,8.294 L14.4108,15.2348 L2.3928,8.27 L14.4336,1.3676 Z" id="Fill-171" fill="#B9AAFF"></path>
                    </g>
                    <g transform="translate(52.800000, 44.550000)">
                        <path d="M1.86996,2.37228 L14.14836,9.48828 C14.22996,9.53508 14.31996,9.55788 14.40996,9.55788 C14.49996,9.55788 14.58996,9.53508 14.67036,9.48828 L26.95116,2.39748 L14.40996,22.31148 L1.86996,2.37228 Z" id="Fill-173" fill="#0B000E"></path>
                        <path d="M0.30648,0.86568 L14.41008,23.29008 L28.51368,0.89448 L14.41008,9.03768 L0.30648,0.86568 Z M3.43368,3.88008 L13.88808,9.93888 C14.04888,10.03248 14.23008,10.07808 14.41008,10.07808 C14.58888,10.07808 14.77008,10.03248 14.93088,9.93888 L25.38888,3.90048 L14.41008,21.33408 L3.43368,3.88008 L3.43368,3.88008 Z" id="Fill-175" fill="#B9AAFF"></path>
                    </g>
                    <g transform="translate(52.800000, 44.550000)">
                        <polygon id="Fill-177" fill="#0B000E" points="1.86996 2.37228 13.89036 9.33708 13.89036 21.48348"></polygon>
                        <path d="M0.30672,0.8652 L14.41032,23.2896 L14.41032,9.0372 L0.30672,0.8652 Z M3.43272,3.8808 L13.36872,9.6372 L13.36872,19.6776 L3.43272,3.8808 Z" id="Fill-179" fill="#B9AAFF"></path>
                    </g>
                    <polygon id="Fill-181" fill="#0B000E" points="53.83908 43.2402 67.21068 19.449 80.58108 43.2402 67.21068 50.961"></polygon>
                    <path d="M67.2102,18.38592 L53.133,43.43352 L67.2102,51.56112 L81.2874,43.43352 L67.2102,18.38592 Z M67.2102,20.51112 L79.8762,43.04592 L67.2102,50.35872 L54.5442,43.04592 L67.2102,20.51112 Z" id="Fill-183" fill="#B9AAFF"></path>
                    <polygon id="Fill-185" fill="#0B000E" points="53.83908 43.2402 66.68988 20.3754 66.68988 50.6598"></polygon>
                    <path d="M67.2102,18.38592 L53.133,43.43352 L67.2102,51.56112 L67.2102,18.38592 Z M66.1686,22.36392 L66.1686,49.75752 L54.5442,43.04592 L66.1686,22.36392 Z" id="Fill-187" fill="#B9AAFF"></path>
                    <g transform="translate(52.800000, 34.950000)">
                        <polygon id="Fill-189" fill="#0B000E" points="1.3578 8.47476 14.4102 0.63156 27.4626 8.47476 14.4102 16.01076"></polygon>
                        <path d="M14.4102,0.02388 L0.333,8.48388 L14.4102,16.61148 L28.4874,8.48388 L14.4102,0.02388 Z M14.4102,1.23828 L26.4354,8.46588 L14.4102,15.40908 L2.3838,8.46588 L14.4102,1.23828 Z" id="Fill-191" fill="#B9AAFF"></path>
                    </g>
                    <polygon id="Fill-193" fill="#0B000E" points="44.55084 18.2406 50.58084 14.7498 56.55084 18.2382 50.54964 21.7038"></polygon>
                    <path d="M50.58252,14.14728 L43.50972,18.24168 L50.55012,22.30488 L57.58812,18.24168 L50.58252,14.14728 Z M50.58012,15.35208 L55.51452,18.23568 L50.55012,21.10248 L45.59172,18.24048 L50.58012,15.35208 Z" id="Fill-195" fill="#B9AAFF"></path>
                    <g transform="translate(43.200000, 14.550000)">
                        <polygon id="Fill-197" fill="#0B000E" points="1.34028 4.68384 7.36188 1.23384 13.35948 4.69704 7.34988 8.16624"></polygon>
                        <path d="M7.3626,0.63264 L0.297,4.68144 L7.3494,8.76744 L14.4006,4.69704 L7.3626,0.63264 Z M7.3602,1.83384 L12.3186,4.69704 L7.3494,7.56504 L2.3838,4.68624 L7.3602,1.83384 Z" id="Fill-199" fill="#B9AAFF"></path>
                    </g>
                    <g transform="translate(43.200000, 19.150000)">
                        <path d="M1.8606,1.589 L7.0878,4.6178 C7.1694,4.6646 7.2594,4.6886 7.3494,4.6886 C7.4394,4.6886 7.5294,4.6646 7.6098,4.619 L12.8382,1.5998 L7.3494,10.3154 L1.8606,1.589 Z" id="Fill-201" fill="#0B000E"></path>
                        <path d="M0.29724,0.08108 L7.34964,11.29388 L14.40084,0.09668 L7.34964,4.16828 L0.29724,0.08108 Z M3.42444,3.09668 L6.82644,5.06948 C6.98844,5.16308 7.16964,5.20988 7.34964,5.20988 C7.52844,5.20988 7.70964,5.16308 7.87044,5.06948 L11.27604,3.10268 L7.34964,9.33908 L3.42444,3.09668 L3.42444,3.09668 Z" id="Fill-203" fill="#B9AAFF"></path>
                    </g>
                    <g transform="translate(43.200000, 19.150000)">
                        <polygon id="Fill-205" fill="#0B000E" points="1.8606 1.589 6.8298 4.4678 6.8298 9.4886"></polygon>
                        <path d="M0.29736,0.08144 L7.34976,11.29424 L7.34976,4.16744 L0.29736,0.08144 Z M3.42336,3.09704 L6.30816,4.76864 L6.30816,7.68224 L3.42336,3.09704 Z" id="Fill-207" fill="#B9AAFF"></path>
                    </g>
                    <polygon id="Fill-209" fill="#0B000E" points="44.21688 18.04788 50.54928 6.77988 56.88168 18.04788 50.54928 21.70428"></polygon>
                    <path d="M50.54964,5.7168 L43.51044,18.2412 L50.54964,22.3056 L57.58764,18.2412 L50.54964,5.7168 Z M50.54964,7.842 L56.17524,17.8536 L50.54964,21.102 L44.92284,17.8536 L50.54964,7.842 Z" id="Fill-211" fill="#B9AAFF"></path>
                    <polygon id="Fill-213" fill="#0B000E" points="44.21688 18.04788 50.02968 7.70628 50.02968 21.40308"></polygon>
                    <path d="M50.54964,5.7168 L43.51044,18.2412 L50.54964,22.3056 L50.54964,5.7168 Z M49.50804,9.696 L49.50804,20.5008 L44.92284,17.8536 L49.50804,9.696 Z" id="Fill-215" fill="#B9AAFF"></path>
                    <g transform="translate(43.200000, 13.350000)">
                        <polygon id="Fill-217" fill="#0B000E" points="1.3356 4.88244 7.35 1.26924 13.362 4.88244 7.35 8.35404"></polygon>
                        <path d="M7.34964,0.66132 L0.31044,4.89132 L7.34964,8.95572 L14.38764,4.89132 L7.34964,0.66132 Z M7.34964,1.87572 L12.33564,4.87332 L7.34964,7.75212 L2.36244,4.87332 L7.34964,1.87572 Z" id="Fill-219" fill="#B9AAFF"></path>
                    </g>
                    <polygon id="Fill-221" fill="#0B000E" points="37.47504 43.72308 41.09304 41.62908 44.67144 43.72068 41.07144 45.79908"></polygon>
                    <path d="M41.09376,41.02656 L36.43416,43.72416 L41.07096,46.40136 L45.70896,43.72416 L41.09376,41.02656 Z M41.09136,42.23136 L43.63536,43.71816 L41.07096,45.19896 L38.51616,43.72296 L41.09136,42.23136 Z" id="Fill-223" fill="#B9AAFF"></path>
                    <g transform="translate(36.000000, 40.950000)">
                        <polygon id="Fill-225" fill="#0B000E" points="1.46916 3.42876 5.07996 1.35876 8.67636 3.43596 5.07156 5.51676"></polygon>
                        <path d="M5.08092,0.75864 L0.42612,3.42624 L5.07132,6.11784 L9.71652,3.43584 L5.08092,0.75864 Z M5.07852,1.95984 L7.63452,3.43584 L5.07252,4.91424 L2.51172,3.43104 L5.07852,1.95984 Z" id="Fill-227" fill="#B9AAFF"></path>
                    </g>
                    <g transform="translate(36.000000, 44.350000)">
                        <path d="M1.98948,1.53392 L4.81068,3.16832 C4.89108,3.21512 4.98108,3.23912 5.07108,3.23912 C5.16228,3.23912 5.25108,3.21512 5.33148,3.16952 L8.15628,1.53872 L5.07108,6.43472 L1.98948,1.53392 Z" id="Fill-229" fill="#0B000E"></path>
                        <path d="M0.42648,0.02612 L5.07168,7.41212 L9.71688,0.03572 L5.07168,2.71772 L0.42648,0.02612 Z M3.55248,3.04172 L4.54968,3.61892 C4.71168,3.71252 4.89168,3.75932 5.07168,3.75932 C5.25168,3.75932 5.43168,3.71252 5.59248,3.62012 L6.59328,3.04172 L5.07288,5.45732 L3.55248,3.04172 L3.55248,3.04172 Z" id="Fill-231" fill="#B9AAFF"></path>
                    </g>
                    <g transform="translate(36.000000, 44.350000)">
                        <polygon id="Fill-233" fill="#0B000E" points="1.98948 1.53392 4.55148 3.01832 4.55148 5.60672"></polygon>
                        <path d="M0.42624,0.02636 L5.07144,7.41236 L5.07144,2.71796 L0.42624,0.02636 Z M3.55224,3.04196 L4.03104,3.31796 L4.03104,3.80036 L3.55224,3.04196 Z" id="Fill-235" fill="#B9AAFF"></path>
                    </g>
                    <polygon id="Fill-237" fill="#0B000E" points="37.14108 43.53024 41.07108 36.53544 45.00228 43.53024 41.07108 45.79944"></polygon>
                    <path d="M41.07156,35.47308 L36.43476,43.72308 L41.07156,46.40028 L45.70836,43.72308 L41.07156,35.47308 Z M41.07156,37.59828 L44.29716,43.33668 L41.07156,45.19788 L37.84716,43.33668 L41.07156,37.59828 Z" id="Fill-239" fill="#B9AAFF"></path>
                    <polygon id="Fill-241" fill="#0B000E" points="37.14108 43.53024 40.55148 37.46184 40.55148 45.49944"></polygon>
                    <path d="M41.07156,35.47308 L36.43476,43.72308 L41.07156,46.40028 L41.07156,35.47308 Z M40.03116,39.45108 L40.03116,44.59668 L37.84716,43.33668 L40.03116,39.45108 Z" id="Fill-243" fill="#B9AAFF"></path>
                    <g transform="translate(36.000000, 40.750000)">
                        <polygon id="Fill-245" fill="#0B000E" points="1.4598 2.9648 5.0718 0.794 8.6838 2.9648 5.0718 5.0492"></polygon>
                        <path d="M5.07156,0.18692 L0.43476,2.97332 L5.07156,5.65052 L9.70836,2.97332 L5.07156,0.18692 Z M5.07156,1.40252 L7.65636,2.95532 L5.07156,4.44812 L2.48676,2.95532 L5.07156,1.40252 Z" id="Fill-247" fill="#B9AAFF"></path>
                    </g>
                </g>
            </g>
        </g>
    </g>
</svg>