<?xml version="1.0" encoding="UTF-8"?>
<svg width="129px" height="126px" viewBox="0 0 129 126" version="1.1" xmlns="http://www.w3.org/2000/svg" xmlns:xlink="http://www.w3.org/1999/xlink">
    <!-- Generator: Sketch 60.1 (88133) - https://sketch.com -->
    <title>编组</title>
    <desc>Created with Sketch.</desc>
    <defs>
        <polygon id="path-1" points="0.64152 0.222 1.84152 0.222 1.84152 1.2 0.64152 1.2"></polygon>
        <polygon id="path-3" points="0.64128 0.22152 1.84128 0.22152 1.84128 1.2 0.64128 1.2"></polygon>
        <polygon id="path-5" points="0.2664 63.162 28.8912 63.7296 43.5168 89.8296 58.8984 72.9708 79.0128 79.6404 115.6776 0.2544"></polygon>
        <polygon id="path-7" points="0.2664 63.162 28.8912 63.7296 43.5168 89.8296 58.8984 72.9708 79.0128 79.6404 115.6776 0.2544"></polygon>
        <polygon id="path-9" points="0.2664 63.162 28.8912 63.7296 43.5168 89.8296 58.8984 72.9708 79.0128 79.6404 115.6776 0.2544"></polygon>
        <polygon id="path-11" points="0.2664 63.162 28.8912 63.7296 43.5168 89.8296 58.8984 72.9708 79.0128 79.6404 115.6776 0.2544"></polygon>
        <polygon id="path-13" points="0.2664 63.162 28.8912 63.7296 43.5168 89.8296 58.8984 72.9708 79.0128 79.6404 115.6776 0.2544"></polygon>
        <polygon id="path-15" points="0.2664 63.162 28.8912 63.7296 43.5168 89.8296 58.8984 72.9708 79.0128 79.6404 115.6776 0.2544"></polygon>
        <polyline id="path-17" points="0.2664 63.162 28.8912 63.7296 43.5168 89.8296 58.8984 72.9708 79.0128 79.6404 115.6776 0.2544"></polyline>
        <polyline id="path-19" points="0.2664 63.162 28.8912 63.7296 43.5168 89.8296 58.8984 72.9708 79.0128 79.6404 115.6776 0.2544"></polyline>
        <polygon id="path-21" points="0.2664 63.162 28.8912 63.7296 43.5168 89.8296 58.8984 72.9708 79.0128 79.6404 115.6776 0.2544"></polygon>
        <polygon id="path-23" points="0.2664 63.162 28.8912 63.7296 43.5168 89.8296 58.8984 72.9708 79.0128 79.6404 115.6776 0.2544"></polygon>
        <polyline id="path-25" points="0.2664 63.162 28.8912 63.7296 43.5168 89.8296 58.8984 72.9708 79.0128 79.6404 115.6776 0.2544"></polyline>
        <polyline id="path-27" points="0.2664 63.162 28.8912 63.7296 43.5168 89.8296 58.8984 72.9708 79.0128 79.6404 115.6776 0.2544"></polyline>
        <polyline id="path-29" points="0.2664 63.162 28.8912 63.7296 43.5168 89.8296 58.8984 72.9708 79.0128 79.6404 115.6776 0.2544"></polyline>
        <polyline id="path-31" points="0.2664 63.162 28.8912 63.7296 43.5168 89.8296 58.8984 72.9708 79.0128 79.6404 115.6776 0.2544"></polyline>
        <polygon id="path-33" points="0.2664 63.162 28.8912 63.7296 43.5168 89.8296 58.8984 72.9708 79.0128 79.6404 115.6776 0.2544"></polygon>
        <polygon id="path-35" points="0.2664 63.162 28.8912 63.7296 43.5168 89.8296 58.8984 72.9708 79.0128 79.6404 115.6776 0.2544"></polygon>
        <polygon id="path-37" points="0.2664 63.162 28.8912 63.7296 43.5168 89.8296 58.8984 72.9708 79.0128 79.6404 115.6776 0.2544"></polygon>
        <polygon id="path-39" points="0.2664 63.162 28.8912 63.7296 43.5168 89.8296 58.8984 72.9708 79.0128 79.6404 115.6776 0.2544"></polygon>
        <polygon id="path-41" points="0.2664 63.162 28.8912 63.7296 43.5168 89.8296 58.8984 72.9708 79.0128 79.6404 115.6776 0.2544"></polygon>
        <polygon id="path-43" points="0.2664 63.162 28.8912 63.7296 43.5168 89.8296 58.8984 72.9708 79.0128 79.6404 115.6776 0.2544"></polygon>
        <polygon id="path-45" points="0.2664 63.162 28.8912 63.7296 43.5168 89.8296 58.8984 72.9708 79.0128 79.6404 115.6776 0.2544"></polygon>
        <polygon id="path-47" points="0.2664 63.162 28.8912 63.7296 43.5168 89.8296 58.8984 72.9708 79.0128 79.6404 115.6776 0.2544"></polygon>
    </defs>
    <g id="页面-1" stroke="none" stroke-width="1" fill="none" fill-rule="evenodd">
        <g id="landing-page" transform="translate(-716.000000, -775.000000)">
            <g id="2" transform="translate(64.000000, 610.000000)">
                <g id="编组-4" transform="translate(587.000000, 143.000000)" fill="#b9aaff" font-family=".SFNSDisplay, .SF NS Display" font-size="20" font-weight="normal">
                    <text id="Transfer">
                        <tspan x="0" y="19">Transfer</tspan>
                    </text>
                </g>
                <g id="编组" transform="translate(652.000000, 165.000000)">
                    <g transform="translate(6.000000, 0.411600)">
                        <path d="M67.96536,41.7762 L67.76376,41.3754 C67.96056,41.2758 68.15856,41.1774 68.35776,41.079 L68.55456,41.4822 C68.35776,41.5794 68.16096,41.6766 67.96536,41.7762" id="Fill-1" fill="#0B000E"></path>
                        <path d="M68.358,41.07948 C68.1588,41.17788 67.9608,41.27628 67.764,41.37468 L67.9644,41.77668 C68.1612,41.67708 68.358,41.57988 68.5548,41.48268 L68.358,41.07948 Z" id="Fill-3" fill="#b9aaff"></path>
                        <path d="M65.69904,42.96624 L65.48304,42.57264 C65.87064,42.36024 66.26544,42.14904 66.65424,41.94384 L66.86304,42.34104 C66.47544,42.54504 66.08304,42.75504 65.69904,42.96624 L65.69904,42.96624 Z M63.47544,44.23704 L63.24624,43.85184 C63.62544,43.62624 64.01184,43.40064 64.39464,43.18224 L64.61784,43.57104 C64.23624,43.78944 63.85344,44.01264 63.47544,44.23704 L63.47544,44.23704 Z M61.29984,45.58584 L61.05744,45.20904 C61.42584,44.97024 61.80504,44.73144 62.18064,44.49864 L62.41824,44.88024 C62.04264,45.11184 61.66704,45.34944 61.29984,45.58584 L61.29984,45.58584 Z M59.17344,47.01024 L58.91784,46.64184 C59.27904,46.38984 59.64864,46.13784 60.01584,45.89304 L60.26544,46.26624 C59.90064,46.50984 59.53344,46.76064 59.17344,47.01024 L59.17344,47.01024 Z M57.09864,48.51024 L56.82864,48.15144 C57.18144,47.88744 57.54144,47.62224 57.90024,47.36304 L58.16304,47.72664 C57.80664,47.98464 57.44904,48.24744 57.09864,48.51024 L57.09864,48.51024 Z M55.07784,50.08224 L54.79704,49.73304 C55.13784,49.45704 55.48824,49.17984 55.83864,48.90744 L56.11464,49.26144 C55.76664,49.53264 55.41864,49.80864 55.07784,50.08224 L55.07784,50.08224 Z M53.11584,51.72504 L52.82184,51.38664 C53.15424,51.09744 53.49384,50.80824 53.83344,50.52384 L54.12144,50.86824 C53.78424,51.15024 53.44584,51.43824 53.11584,51.72504 L53.11584,51.72504 Z M51.23544,53.45304 L50.91984,53.13384 C51.21984,52.83744 51.53544,52.53624 51.88824,52.21584 L52.19064,52.54704 C51.84264,52.86384 51.53064,53.16024 51.23544,53.45304 L51.23544,53.45304 Z M49.53984,55.34184 L49.18584,55.06584 C49.44864,54.72744 49.74024,54.38304 50.05104,54.03984 L50.38344,54.34104 C50.07984,54.67584 49.79544,55.01304 49.53984,55.34184 L49.53984,55.34184 Z M48.17424,57.46104 L47.77464,57.25704 C47.97384,56.86704 48.20064,56.47464 48.45144,56.09064 L48.82704,56.33544 C48.58464,56.70744 48.36624,57.08544 48.17424,57.46104 L48.17424,57.46104 Z M99.99984,58.07664 L99.99144,57.62784 C100.43424,57.61944 100.88064,57.61704 101.32344,57.62184 L101.31984,58.07064 C100.88064,58.06584 100.43784,58.06824 99.99984,58.07664 L99.99984,58.07664 Z M103.87104,58.17744 C103.44144,58.14504 102.99864,58.11984 102.55464,58.10184 L102.57384,57.65304 C103.02264,57.67104 103.47024,57.69624 103.90464,57.72984 L103.87104,58.17744 Z M97.44504,58.18464 L97.41624,57.73704 C97.86504,57.70824 98.31144,57.68424 98.74464,57.66624 L98.76384,58.11384 C98.33304,58.13184 97.89024,58.15584 97.44504,58.18464 L97.44504,58.18464 Z M94.89384,58.39704 L94.84944,57.95064 C95.28744,57.90744 95.73264,57.86664 96.17304,57.82944 L96.21024,58.27584 C95.77344,58.31304 95.32944,58.35384 94.89384,58.39704 L94.89384,58.39704 Z M106.40544,58.46304 C105.98064,58.39824 105.54144,58.34064 105.09984,58.29144 L105.15024,57.84504 C105.59784,57.89424 106.04304,57.95304 106.47384,58.01904 L106.40544,58.46304 Z M92.35104,58.69464 L92.29104,58.24944 C92.72784,58.19184 93.17184,58.13664 93.61104,58.08504 L93.66264,58.53144 C93.22584,58.58184 92.78424,58.63704 92.35104,58.69464 L92.35104,58.69464 Z M108.90264,58.96344 C108.48504,58.85904 108.05424,58.76184 107.61984,58.67664 L107.70744,58.23624 C108.14784,58.32384 108.58704,58.42104 109.01184,58.52784 L108.90264,58.96344 Z M89.81784,59.07264 L89.74464,58.63104 C90.17904,58.55904 90.62184,58.48944 91.05744,58.42344 L91.12344,58.86744 C90.68904,58.93224 90.24984,59.00184 89.81784,59.07264 L89.81784,59.07264 Z M87.29904,59.53344 L87.21144,59.09304 C87.64344,59.00784 88.08264,58.92384 88.51704,58.84464 L88.59744,59.28624 C88.16664,59.36424 87.72864,59.44704 87.29904,59.53344 L87.29904,59.53344 Z M111.33144,59.71104 C110.92824,59.56224 110.51064,59.42064 110.08824,59.29224 L110.22024,58.86384 C110.64984,58.99464 111.07584,59.13864 111.48744,59.29104 L111.33144,59.71104 Z M47.33904,59.81664 L46.89984,59.72664 C46.99104,59.28504 47.11464,58.84584 47.26824,58.42104 L47.68944,58.57224 C47.54424,58.97784 47.42544,59.39664 47.33904,59.81664 L47.33904,59.81664 Z M84.79584,60.07464 L84.69384,59.63784 C85.12464,59.53704 85.56144,59.43984 85.99104,59.34624 L86.08584,59.78544 C85.65864,59.87784 85.22424,59.97504 84.79584,60.07464 L84.79584,60.07464 Z M82.31184,60.69504 L82.19544,60.26304 C82.62264,60.14904 83.05464,60.03744 83.48184,59.92944 L83.59104,60.36504 C83.16624,60.47184 82.73424,60.58224 82.31184,60.69504 L82.31184,60.69504 Z M113.65464,60.73344 C113.27184,60.53544 112.87344,60.34584 112.47264,60.17064 L112.65144,59.76024 C113.06184,59.93904 113.46864,60.13224 113.86104,60.33504 L113.65464,60.73344 Z M79.84824,61.39584 L79.71984,60.96624 C80.13864,60.84024 80.56824,60.71424 80.99424,60.59304 L81.11784,61.02504 C80.69304,61.14504 80.26704,61.26984 79.84824,61.39584 L79.84824,61.39584 Z M115.81344,62.05584 C115.45944,61.79904 115.09344,61.55544 114.72504,61.33224 L114.95904,60.94824 C115.33704,61.17864 115.71384,61.42944 116.07624,61.69224 L115.81344,62.05584 Z M77.40984,62.17584 L77.26704,61.75104 C77.67984,61.61064 78.10464,61.47144 78.52824,61.33584 L78.66624,61.76424 C78.24384,61.89744 77.82144,62.03664 77.40984,62.17584 L77.40984,62.17584 Z M46.75104,62.34744 C46.72344,62.08464 46.71144,61.81344 46.71144,61.54224 C46.71144,61.35984 46.71744,61.17264 46.72824,60.98784 L47.17584,61.01664 C47.16624,61.19184 47.16024,61.36944 47.16024,61.54224 C47.16024,61.79904 47.17344,62.05464 47.19744,62.30424 L46.75104,62.34744 Z M74.99664,63.03384 L74.83944,62.61384 C75.24984,62.46024 75.67104,62.30664 76.08864,62.15904 L76.23864,62.58144 C75.82344,62.72904 75.40464,62.88144 74.99664,63.03384 L74.99664,63.03384 Z M117.73944,63.69624 C117.43104,63.39144 117.10824,63.09384 116.77584,62.81304 L117.06744,62.46984 C117.40704,62.75904 117.73944,63.06504 118.05624,63.37824 L117.73944,63.69624 Z M72.60984,63.96624 L72.44184,63.54984 C72.89184,63.36744 73.29504,63.20784 73.67544,63.05904 L73.83864,63.47664 C73.46064,63.62424 73.05864,63.78504 72.60984,63.96624 L72.60984,63.96624 Z M47.48304,64.88184 C47.27544,64.48464 47.10864,64.05504 46.98264,63.60624 L47.41584,63.48624 C47.53104,63.90504 47.68824,64.30464 47.88024,64.67424 L47.48304,64.88184 Z M70.23264,64.93704 L70.06344,64.52184 L71.28984,64.01784 L71.46024,64.43424 L70.23264,64.93704 Z M119.39664,65.61264 C119.13984,65.26464 118.86504,64.92024 118.57824,64.59144 L118.91664,64.29744 C119.21064,64.63584 119.49384,64.98864 119.75784,65.34504 L119.39664,65.61264 Z M67.84824,65.89824 L67.68384,65.48064 C68.05944,65.33424 68.46144,65.17344 68.91384,64.99104 L69.08064,65.40624 C68.62704,65.58984 68.22384,65.75064 67.84824,65.89824 L67.84824,65.89824 Z M65.43624,66.80304 L65.28744,66.38064 C65.68584,66.24024 66.09144,66.09144 66.52704,65.92704 L66.68544,66.34704 C66.24744,66.51264 65.83824,66.66144 65.43624,66.80304 L65.43624,66.80304 Z M49.18224,66.90504 C48.81624,66.62064 48.48384,66.30024 48.19584,65.95464 L48.54024,65.66784 C48.80904,65.98944 49.11744,66.28584 49.45824,66.55104 L49.18224,66.90504 Z M62.98224,67.59984 L62.85744,67.16904 C63.26304,67.05024 63.68544,66.91944 64.11624,66.77904 L64.25544,67.20624 C63.82104,67.34784 63.39264,67.47984 62.98224,67.59984 L62.98224,67.59984 Z M120.73344,67.76064 C120.53664,67.37784 120.31944,66.99504 120.08664,66.62424 L120.46824,66.38664 C120.70704,66.76824 120.93024,67.16184 121.13184,67.55544 L120.73344,67.76064 Z M51.51144,68.12784 C51.06864,67.97784 50.64744,67.79784 50.26104,67.59504 L50.46984,67.19784 C50.83584,67.39104 51.23424,67.56024 51.65544,67.70304 L51.51144,68.12784 Z M60.47544,68.22984 L60.38424,67.79064 C60.80184,67.70424 61.23264,67.60464 61.66704,67.49424 L61.77624,67.92984 C61.33584,68.04144 60.89904,68.14224 60.47544,68.22984 L60.47544,68.22984 Z M57.91824,68.63304 L57.87264,68.18664 C58.29744,68.14224 58.73544,68.08464 59.17344,68.01504 L59.24424,68.45784 C58.79784,68.52864 58.35264,68.58744 57.91824,68.63304 L57.91824,68.63304 Z M54.06744,68.67024 C53.60904,68.62224 53.16144,68.55264 52.73424,68.46264 L52.82784,68.02344 C53.23824,68.10984 53.67144,68.17824 54.11424,68.22384 L54.06744,68.67024 Z M55.68864,68.75064 C55.61544,68.75064 55.54104,68.75064 55.46784,68.74944 L55.32624,68.74704 L55.33464,68.29824 C55.38024,68.29944 55.42584,68.30064 55.47264,68.30064 C55.85904,68.30544 56.25264,68.29704 56.64624,68.27904 L56.66784,68.72784 C56.33904,68.74224 56.01024,68.75064 55.68864,68.75064 L55.68864,68.75064 Z M121.68504,70.09944 C121.56144,69.69024 121.41384,69.27624 121.24704,68.87064 L121.66224,68.70024 C121.83384,69.11904 121.98624,69.54504 122.11464,69.96864 L121.68504,70.09944 Z M122.17224,72.57024 C122.13264,72.14424 122.07024,71.71224 121.98384,71.28384 L122.42424,71.19384 C122.51424,71.63904 122.57784,72.08784 122.61864,72.52944 L122.17224,72.57024 Z M33.96624,72.84024 C33.52704,72.83064 33.08544,72.82824 32.64744,72.83424 L32.64264,72.38544 C33.08544,72.38064 33.53184,72.38184 33.97464,72.39144 L33.96624,72.84024 Z M30.09504,72.93984 L30.06384,72.49104 C30.50544,72.45984 30.95304,72.43464 31.39344,72.41664 L31.41264,72.86544 C30.97464,72.88344 30.53184,72.90744 30.09504,72.93984 L30.09504,72.93984 Z M36.51624,72.97104 C36.08064,72.93504 35.63784,72.90624 35.20104,72.88464 L35.22384,72.43584 C35.66544,72.45864 36.11304,72.48864 36.55344,72.52464 L36.51624,72.97104 Z M27.55464,73.20024 L27.49464,72.75504 C27.93264,72.69624 28.37784,72.64464 28.81944,72.59904 L28.86384,73.04544 C28.42824,73.09104 27.98784,73.14144 27.55464,73.20024 L27.55464,73.20024 Z M39.05304,73.26264 C38.61984,73.19904 38.17944,73.14144 37.74504,73.09224 L37.79544,72.64584 C38.23584,72.69624 38.67984,72.75384 39.11784,72.81864 L39.05304,73.26264 Z M25.03464,73.61544 L24.94824,73.17504 C25.38144,73.08984 25.82304,73.01064 26.25984,72.93864 L26.33184,73.38144 C25.90104,73.45224 25.46424,73.53024 25.03464,73.61544 L25.03464,73.61544 Z M41.56464,73.71624 C41.13744,73.62384 40.70304,73.53864 40.27224,73.46184 L40.35144,73.01904 C40.78704,73.09704 41.22624,73.18464 41.65944,73.27704 L41.56464,73.71624 Z M22.54464,74.18544 L22.43064,73.75104 C22.85664,73.63944 23.29224,73.53264 23.72544,73.43424 L23.82504,73.87104 C23.39664,73.96944 22.96704,74.07504 22.54464,74.18544 L22.54464,74.18544 Z M44.04384,74.32944 C43.61184,74.20944 43.18224,74.09664 42.76944,73.99344 L42.87624,73.55904 C43.29504,73.66224 43.72824,73.77624 44.16504,73.89744 L44.04384,74.32944 Z M20.09784,74.91264 L19.95624,74.48664 C20.37384,74.34744 20.80104,74.21304 21.22704,74.08704 L21.35544,74.51664 C20.93304,74.64144 20.51064,74.77464 20.09784,74.91264 L20.09784,74.91264 Z M46.49064,75.07464 C46.06344,74.93424 45.63864,74.79984 45.23064,74.67624 L45.36264,74.24664 C45.77304,74.37144 46.19904,74.50704 46.62984,74.64864 L46.49064,75.07464 Z M122.55864,75.14184 L122.11464,75.08064 C122.17344,74.65584 122.20824,74.22024 122.21664,73.78704 L122.66424,73.79424 C122.65584,74.24664 122.62104,74.70024 122.55864,75.14184 L122.55864,75.14184 Z M17.70264,75.79704 L17.53224,75.38184 C17.94024,75.21624 18.35784,75.05304 18.77544,74.89944 L18.93024,75.32064 C18.51864,75.47184 18.10464,75.63264 17.70264,75.79704 L17.70264,75.79704 Z M48.90984,75.91584 C48.48024,75.75984 48.06144,75.60984 47.66424,75.47184 L47.81184,75.04824 C48.21024,75.18744 48.63144,75.33744 49.06344,75.49344 L48.90984,75.91584 Z M51.31104,76.81464 C50.89944,76.65624 50.48664,76.50024 50.07384,76.34424 L50.22984,75.92424 C50.64504,76.08024 51.05904,76.23744 51.47184,76.39464 L51.31104,76.81464 Z M15.37704,76.84224 L15.17424,76.44264 C15.31824,76.37064 15.45984,76.30104 15.60144,76.23384 C15.85944,76.11024 16.12344,75.99024 16.38264,75.87264 L16.56744,76.28184 C16.30944,76.39704 16.04904,76.51704 15.79464,76.63824 C15.65544,76.70424 15.51744,76.77264 15.37704,76.84224 L15.37704,76.84224 Z M121.88904,77.67024 L121.47144,77.50584 C121.61304,77.14584 121.73664,76.77864 121.83744,76.41144 C121.85064,76.36584 121.86384,76.31784 121.87464,76.27224 L122.30904,76.38624 C122.29704,76.43424 122.28264,76.48224 122.27064,76.53144 C122.16504,76.91304 122.03544,77.29584 121.88904,77.67024 L121.88904,77.67024 Z M53.70624,77.73864 L52.47024,77.26104 L52.63104,76.84224 L53.86824,77.31984 L53.70624,77.73864 Z M13.18344,78.12504 L12.93504,77.75184 C13.30824,77.50344 13.68984,77.26584 14.07144,77.04264 L14.29704,77.43024 C13.92384,77.64864 13.54944,77.88264 13.18344,78.12504 L13.18344,78.12504 Z M56.10744,78.65664 C55.69344,78.49944 55.27944,78.34224 54.86784,78.18504 L55.02744,77.76504 C55.43904,77.92344 55.85304,78.08064 56.26704,78.23784 L56.10744,78.65664 Z M58.51704,79.55904 C58.10064,79.40544 57.68544,79.25064 57.27264,79.09584 L57.42864,78.67584 C57.84264,78.83064 58.25784,78.98544 58.67184,79.13904 L58.51704,79.55904 Z M11.14704,79.64904 L10.85904,79.30464 C11.19864,79.02024 11.55144,78.74064 11.90904,78.47544 L12.17664,78.83424 C11.82624,79.09584 11.47944,79.36944 11.14704,79.64904 L11.14704,79.64904 Z M120.67224,79.98024 L120.29904,79.73064 C120.54144,79.36584 120.76584,78.99144 120.96384,78.61224 L121.36104,78.82104 C121.15584,79.21344 120.92424,79.60224 120.67224,79.98024 L120.67224,79.98024 Z M60.93144,80.44104 C60.51624,80.29104 60.09984,80.13984 59.68344,79.98864 L59.83824,79.56624 C60.25224,79.71744 60.66864,79.86864 61.08384,80.01744 L60.93144,80.44104 Z M63.35664,81.29664 C62.93784,81.15144 62.52144,81.00504 62.10384,80.85864 L62.25384,80.43504 C62.67024,80.58264 63.08664,80.72784 63.50424,80.87304 L63.35664,81.29664 Z M9.29784,81.39144 L8.97264,81.08424 C9.27264,80.76504 9.59184,80.44584 9.92064,80.13864 L10.22664,80.46504 C9.90504,80.76624 9.59304,81.07824 9.29784,81.39144 L9.29784,81.39144 Z M119.02464,81.99864 L118.70424,81.68544 C119.01144,81.37224 119.30304,81.04464 119.57424,80.71224 L119.92224,80.99544 C119.64264,81.33864 119.34144,81.67584 119.02464,81.99864 L119.02464,81.99864 Z M65.79024,82.12464 C65.37144,81.98544 64.95144,81.84384 64.53264,81.70104 L64.67664,81.27624 C65.09544,81.41904 65.51424,81.55944 65.93184,81.69864 L65.79024,82.12464 Z M68.23584,82.91904 C67.81464,82.78584 67.39344,82.65024 66.97344,82.51344 L67.11144,82.08744 C67.53024,82.22424 67.95144,82.35864 68.37264,82.49184 L68.23584,82.91904 Z M7.68744,83.35104 L7.32264,83.09184 C7.57464,82.73424 7.85064,82.37664 8.13864,82.02624 L8.48424,82.31304 C8.20344,82.65384 7.93464,83.00304 7.68744,83.35104 L7.68744,83.35104 Z M70.69344,83.67744 C70.26984,83.55024 69.84624,83.42184 69.42384,83.29104 L69.55584,82.86264 C69.97704,82.99224 70.39944,83.12064 70.82304,83.24784 L70.69344,83.67744 Z M117.05664,83.70024 L116.79144,83.33904 C117.14424,83.07984 117.48744,82.80624 117.81384,82.52424 L118.10784,82.86264 C117.77424,83.15304 117.42024,83.43504 117.05664,83.70024 L117.05664,83.70024 Z M73.16304,84.39264 C72.74184,84.27504 72.31224,84.15264 71.88624,84.02904 L72.01224,83.59824 C72.43584,83.72184 72.86424,83.84304 73.28304,83.96184 L73.16304,84.39264 Z M75.64464,85.06344 C75.22344,84.95424 74.79264,84.84024 74.36304,84.72264 L74.47824,84.29064 C74.90904,84.40584 75.33864,84.51984 75.75744,84.62784 L75.64464,85.06344 Z M114.84744,85.07304 L114.64104,84.67464 L114.74664,84.61824 C115.09584,84.43464 115.44264,84.23424 115.77624,84.02664 L116.01384,84.40704 C115.67184,84.62064 115.31544,84.82584 114.95784,85.01544 C114.92184,85.03464 114.88464,85.05384 114.84744,85.07304 L114.84744,85.07304 Z M6.40344,85.52664 L5.99784,85.33344 C6.18624,84.93864 6.39984,84.53904 6.63384,84.14664 L7.01904,84.37704 C6.79224,84.75744 6.58464,85.14384 6.40344,85.52664 L6.40344,85.52664 Z M78.14064,85.68144 C77.71464,85.58064 77.28024,85.47504 76.85064,85.36824 L76.95984,84.93384 C77.38704,85.03944 77.82024,85.14384 78.24384,85.24464 L78.14064,85.68144 Z M112.47504,86.12184 L112.32024,85.70184 C112.73424,85.54704 113.14344,85.38144 113.53344,85.20744 L113.71704,85.61784 C113.31744,85.79424 112.89984,85.96464 112.47504,86.12184 L112.47504,86.12184 Z M80.65104,86.24304 C80.22384,86.15304 79.78824,86.05824 79.35384,85.96104 L79.45224,85.52304 C79.88424,85.62024 80.31984,85.71504 80.74344,85.80504 L80.65104,86.24304 Z M83.17344,86.74464 C82.74264,86.66544 82.30464,86.58024 81.87024,86.49384 L81.95664,86.05464 C82.38984,86.14104 82.82544,86.22384 83.25504,86.30424 L83.17344,86.74464 Z M110.00304,86.89224 L109.89024,86.45784 C110.32104,86.34624 110.74584,86.22624 111.15504,86.09784 L111.28824,86.52624 C110.87304,86.65704 110.43984,86.77944 110.00304,86.89224 L110.00304,86.89224 Z M85.70904,87.18024 C85.27344,87.11184 84.83304,87.03864 84.39864,86.96424 L84.47424,86.52144 C84.90744,86.59584 85.34544,86.66784 85.77744,86.73624 L85.70904,87.18024 Z M107.47464,87.43104 L107.39784,86.98944 C107.83824,86.91264 108.27384,86.82864 108.69024,86.73984 L108.78384,87.17904 C108.36144,87.26904 107.92104,87.35424 107.47464,87.43104 L107.47464,87.43104 Z M88.25664,87.54264 C87.82344,87.48744 87.37944,87.42744 86.93904,87.36504 L87.00384,86.91984 C87.44064,86.98344 87.88104,87.04224 88.31304,87.09744 L88.25664,87.54264 Z M104.91864,87.79104 L104.86824,87.34464 C105.31584,87.29424 105.75624,87.23904 106.17624,87.18024 L106.23864,87.62424 C105.81504,87.68424 105.36984,87.73944 104.91864,87.79104 L104.91864,87.79104 Z M90.81384,87.82824 C90.37704,87.78624 89.93184,87.74064 89.49264,87.69144 L89.54184,87.24504 C89.97984,87.29424 90.42264,87.33984 90.85704,87.38184 L90.81384,87.82824 Z M5.57184,87.89784 L5.13384,87.79944 C5.23104,87.36984 5.35824,86.93304 5.51304,86.50224 L5.93424,86.65224 C5.78664,87.06624 5.66544,87.48624 5.57184,87.89784 L5.57184,87.89784 Z M102.35064,88.01904 L102.32064,87.57144 C102.75864,87.54144 103.20144,87.50664 103.63584,87.46704 L103.67544,87.91464 C103.23744,87.95424 102.79104,87.98904 102.35064,88.01904 L102.35064,88.01904 Z M93.37944,88.03104 C92.94024,88.00344 92.49384,87.97224 92.05464,87.93744 L92.09064,87.48984 C92.52744,87.52464 92.97144,87.55584 93.40824,87.58344 L93.37944,88.03104 Z M99.77664,88.14384 L99.76344,87.69504 C100.20384,87.68304 100.64784,87.66504 101.08344,87.64344 L101.10624,88.09224 C100.66824,88.11384 100.22064,88.13064 99.77664,88.14384 L99.77664,88.14384 Z M95.95344,88.14624 C95.51304,88.13424 95.06544,88.11744 94.62384,88.09824 L94.64544,87.64944 C95.08224,87.66984 95.52624,87.68664 95.96544,87.69744 L95.95344,88.14624 Z M97.83264,88.17144 C97.62264,88.17144 97.41144,88.17024 97.20024,88.16784 L97.20384,87.72024 C97.64424,87.72384 98.08464,87.72384 98.52504,87.71904 L98.52984,88.16784 C98.29704,88.17024 98.06544,88.17144 97.83264,88.17144 L97.83264,88.17144 Z M4.89744,90.40704 C4.89024,90.26424 4.88664,90.11784 4.88664,89.97264 C4.88664,89.66784 4.90224,89.35944 4.93104,89.05224 L5.37744,89.09544 C5.34984,89.38824 5.33544,89.68344 5.33544,89.97264 C5.33544,90.11064 5.33904,90.24984 5.34504,90.38664 L4.89744,90.40704 Z M71.32944,92.97384 L71.31144,92.52504 C71.75544,92.50584 72.20304,92.49384 72.64224,92.49024 L72.64704,92.93784 C72.21264,92.94264 71.76984,92.95464 71.32944,92.97384 L71.32944,92.97384 Z M5.38344,92.98104 C5.32824,92.81304 5.27664,92.64024 5.22744,92.46624 C5.15544,92.20464 5.09304,91.93704 5.04384,91.67064 L5.48424,91.58904 C5.53104,91.84224 5.59104,92.09664 5.66064,92.34624 C5.70744,92.51304 5.75784,92.67984 5.81064,92.84184 L5.38344,92.98104 Z M75.19944,92.99184 C74.76144,92.96904 74.31864,92.95224 73.88184,92.94384 L73.89144,92.49504 C74.33184,92.50464 74.77944,92.52024 75.22344,92.54424 L75.19944,92.99184 Z M68.78304,93.15504 L68.73864,92.70864 C69.18144,92.66424 69.62784,92.62704 70.06584,92.59584 L70.09704,93.04344 C69.66504,93.07344 69.22344,93.11184 68.78304,93.15504 L68.78304,93.15504 Z M77.74344,93.21144 C77.30784,93.15984 76.86744,93.11544 76.43184,93.07824 L76.47024,92.63064 C76.90944,92.66784 77.35584,92.71344 77.79624,92.76624 L77.74344,93.21144 Z M66.24744,93.47304 L66.18024,93.02904 C66.62424,92.96304 67.06824,92.90184 67.49904,92.84784 L67.55424,93.29304 C67.12704,93.34584 66.68664,93.40704 66.24744,93.47304 L66.24744,93.47304 Z M80.26824,93.59184 C79.83624,93.51264 79.39944,93.44064 78.96864,93.37584 L79.03464,92.93184 C79.47144,92.99664 79.91304,93.07104 80.34864,93.15024 L80.26824,93.59184 Z M63.72504,93.90864 L63.63984,93.46704 C64.08264,93.38184 64.52424,93.30144 64.94904,93.22824 L65.02464,93.66984 C64.60344,93.74184 64.16664,93.82224 63.72504,93.90864 L63.72504,93.90864 Z M82.76424,94.13304 C82.33824,94.02624 81.90744,93.92544 81.47904,93.83424 L81.57384,93.39504 C82.00584,93.48864 82.44264,93.59064 82.87344,93.69744 L82.76424,94.13304 Z M61.22184,94.44264 L61.12104,94.00584 C61.55784,93.90504 61.99464,93.80784 62.41944,93.71664 L62.51184,94.15584 C62.09064,94.24584 61.65624,94.34184 61.22184,94.44264 L61.22184,94.44264 Z M85.21944,94.83144 C84.80304,94.69824 84.37704,94.57104 83.95704,94.45104 L84.07944,94.02024 C84.50544,94.14024 84.93384,94.26984 85.35624,94.40424 L85.21944,94.83144 Z M58.73304,95.05824 L58.62024,94.62384 C59.05584,94.50984 59.48904,94.39944 59.90784,94.29624 L60.01584,94.73184 C59.59824,94.83504 59.16744,94.94424 58.73304,95.05824 L58.73304,95.05824 Z M6.45744,95.35944 C6.22824,94.97664 6.02064,94.57344 5.83584,94.16184 L6.24624,93.97824 C6.42264,94.37424 6.62304,94.76184 6.84264,95.12904 L6.45744,95.35944 Z M87.62424,95.68704 C87.21984,95.52744 86.80344,95.37264 86.39064,95.22624 L86.53944,94.80264 C86.95824,94.95144 87.37704,95.10744 87.78864,95.26824 L87.62424,95.68704 Z M56.26104,95.73624 L56.13744,95.30424 C56.57544,95.17944 57.00624,95.05944 57.41784,94.94664 L57.53544,95.37984 C57.12504,95.49144 56.69664,95.61144 56.26104,95.73624 L56.26104,95.73624 Z M53.79864,96.45864 L53.67024,96.02904 C54.09384,95.90184 54.51744,95.77584 54.94104,95.65104 L55.06824,96.08064 C54.64464,96.20544 54.22224,96.33144 53.79864,96.45864 L53.79864,96.45864 Z M89.96664,96.70104 C89.57304,96.51384 89.16984,96.33024 88.76784,96.15624 L88.94424,95.74344 C89.35224,95.91984 89.76144,96.10584 90.15984,96.29544 L89.96664,96.70104 Z M51.34344,97.20984 L51.21144,96.78144 C51.63384,96.65064 52.05624,96.51984 52.47864,96.39024 L52.61064,96.81864 C52.18824,96.94824 51.76704,97.07904 51.34344,97.20984 L51.34344,97.20984 Z M8.04864,97.42944 C7.73424,97.10544 7.43784,96.76104 7.16784,96.40704 L7.52304,96.13464 C7.78344,96.47544 8.06904,96.80544 8.37144,97.11624 L8.04864,97.42944 Z M92.22264,97.88904 C91.84704,97.67184 91.45944,97.45824 91.06944,97.25424 L91.27704,96.85704 C91.67304,97.06464 92.06664,97.28064 92.44704,97.50144 L92.22264,97.88904 Z M48.89184,97.97184 L48.75864,97.54344 L50.02344,97.14984 L50.15784,97.57824 L48.89184,97.97184 Z M46.43664,98.73024 L46.30584,98.30064 C46.72824,98.17224 47.15064,98.04144 47.57304,97.91184 L47.70504,98.34024 C47.28144,98.47104 46.86024,98.60064 46.43664,98.73024 L46.43664,98.73024 Z M10.05504,99.09504 C9.67704,98.84184 9.31464,98.57064 8.97624,98.28864 L9.26424,97.94304 C9.58944,98.21664 9.93984,98.47824 10.30584,98.72304 L10.05504,99.09504 Z M94.37064,99.26064 C94.01664,99.01224 93.64824,98.76624 93.27624,98.52984 L93.51744,98.15064 C93.89544,98.39184 94.26864,98.64144 94.62744,98.89224 L94.37064,99.26064 Z M43.97424,99.46704 L43.84944,99.03624 C44.27304,98.91264 44.69544,98.78784 45.11904,98.66064 L45.24744,99.09024 C44.82384,99.21744 44.39904,99.34344 43.97424,99.46704 L43.97424,99.46704 Z M41.49984,100.16664 L41.38344,99.73344 L41.41224,99.72504 C41.81664,99.61584 42.23424,99.49944 42.65784,99.37944 L42.77904,99.81144 C42.35544,99.93144 41.93544,100.04784 41.53104,100.15824 L41.49984,100.16664 Z M12.33264,100.35384 C11.91864,100.16664 11.51424,99.96504 11.13144,99.75264 L11.34864,99.36024 C11.72064,99.56664 12.11424,99.76344 12.51744,99.94464 L12.33264,100.35384 Z M38.99784,100.78704 L38.89944,100.34904 C39.33144,100.25064 39.76464,100.14864 40.18464,100.04424 L40.29264,100.47984 C39.87024,100.58544 39.43344,100.68864 38.99784,100.78704 L38.99784,100.78704 Z M96.37944,100.82184 C96.05184,100.53984 95.70984,100.26024 95.36184,99.99144 L95.63664,99.63624 C95.99064,99.90984 96.33864,100.19424 96.67344,100.48104 L96.37944,100.82184 Z M14.76624,101.25744 C14.32944,101.12544 13.90224,100.98264 13.49544,100.83024 L13.65264,100.41024 C14.04984,100.55784 14.46864,100.69824 14.89464,100.82784 L14.76624,101.25744 Z M36.47424,101.30904 L36.39144,100.86744 C36.82464,100.78584 37.26144,100.69944 37.68744,100.61184 L37.77864,101.05104 C37.35024,101.13984 36.91104,101.22624 36.47424,101.30904 L36.47424,101.30904 Z M33.93384,101.74104 L33.86784,101.29824 C34.29744,101.23224 34.73664,101.16144 35.17224,101.08704 L35.24784,101.52984 C34.80984,101.60424 34.36824,101.67504 33.93384,101.74104 L33.93384,101.74104 Z M17.28144,101.87184 C16.83744,101.78664 16.39824,101.69064 15.97584,101.58744 L16.08264,101.15064 C16.49784,101.25264 16.92984,101.34744 17.36784,101.43144 L17.28144,101.87184 Z M31.38024,102.08424 L31.32864,101.63904 C31.76064,101.58984 32.20224,101.53344 32.64024,101.47464 L32.70024,101.91864 C32.25984,101.97864 31.81584,102.03504 31.38024,102.08424 L31.38024,102.08424 Z M19.83864,102.25704 C19.38984,102.20664 18.94584,102.14904 18.51624,102.08424 L18.58224,101.64024 C19.00704,101.70504 19.44624,101.76264 19.88784,101.81064 L19.83864,102.25704 Z M28.81584,102.33144 L28.78104,101.88504 C29.21544,101.85144 29.65824,101.81304 30.09744,101.76984 L30.14064,102.21624 C29.69784,102.25944 29.25264,102.29784 28.81584,102.33144 L28.81584,102.33144 Z M22.41384,102.45504 C21.96624,102.43464 21.51984,102.40704 21.08424,102.37344 L21.11904,101.92584 C21.54864,101.95944 21.99144,101.98704 22.43304,102.00624 L22.41384,102.45504 Z M26.24064,102.47304 L26.22624,102.02424 C26.65944,102.01104 27.10344,101.99184 27.54504,101.96664 L27.57144,102.41424 C27.12384,102.43944 26.67744,102.45984 26.24064,102.47304 L26.24064,102.47304 Z M24.52584,102.50184 C24.23424,102.50184 23.94264,102.49944 23.66184,102.49344 L23.67024,102.04464 C24.09624,102.05304 24.54504,102.05544 24.98784,102.05064 L24.99264,102.49944 C24.83784,102.50064 24.68184,102.50184 24.52584,102.50184 L24.52584,102.50184 Z M98.21424,102.58104 C97.92144,102.26664 97.61184,101.95224 97.29264,101.64744 L97.60224,101.32344 C97.92624,101.63424 98.24304,101.95464 98.54304,102.27624 L98.21424,102.58104 Z M99.82584,104.54184 C99.57384,104.19144 99.30504,103.84224 99.02424,103.50504 L99.37224,103.21944 C99.65664,103.56504 99.93144,103.92144 100.19064,104.27904 L99.82584,104.54184 Z M101.16624,106.69344 C100.96464,106.31304 100.74384,105.93144 100.51224,105.56064 L100.89264,105.32184 C101.13024,105.70224 101.35584,106.09224 101.56224,106.48344 L101.16624,106.69344 Z M102.17424,109.01304 C102.03504,108.60264 101.87784,108.19704 101.70624,107.80704 L101.70024,107.79504 L102.11184,107.61624 L102.11544,107.62344 C102.29424,108.02784 102.45624,108.44664 102.59904,108.86904 L102.17424,109.01304 Z M102.77664,111.46704 C102.70944,111.03744 102.62184,110.60664 102.51744,110.18784 L102.95184,110.07864 C103.05984,110.51064 103.14984,110.95344 103.22064,111.39624 L102.77664,111.46704 Z M103.42224,113.99064 L102.97344,113.98824 L102.97344,113.93304 C102.97344,113.51664 102.95544,113.09664 102.92304,112.68264 L103.37064,112.64664 C103.40424,113.07264 103.42224,113.50584 103.42224,113.93184 L103.42224,113.99064 Z" id="Fill-5" fill="#0B000E"></path>
                        <path d="M103.37004,112.64712 L102.92244,112.68312 C102.95484,113.09712 102.97284,113.51712 102.97284,113.93232 L102.97284,113.98872 L103.42164,113.99112 L103.42164,113.93232 C103.42164,113.50512 103.40364,113.07312 103.37004,112.64712 L103.37004,112.64712 Z M102.95124,110.07912 L102.51684,110.18712 C102.62124,110.60592 102.70884,111.03672 102.77724,111.46752 L103.22004,111.39672 C103.14924,110.95272 103.05924,110.50992 102.95124,110.07912 L102.95124,110.07912 Z M102.11124,107.61672 L101.69964,107.79552 L101.70564,107.80632 C101.87844,108.19752 102.03564,108.60312 102.17364,109.01232 L102.59844,108.86952 C102.45564,108.44712 102.29484,108.02832 102.11484,107.62392 L102.11124,107.61672 Z M100.89324,105.32232 L100.51164,105.55992 C100.74444,105.93072 100.96404,106.31232 101.16564,106.69392 L101.56164,106.48392 C101.35524,106.09272 101.13084,105.70152 100.89324,105.32232 L100.89324,105.32232 Z M99.37164,103.21992 L99.02604,103.50552 C99.30444,103.84272 99.57444,104.19192 99.82644,104.54232 L100.19124,104.27952 C99.93204,103.92192 99.65604,103.56432 99.37164,103.21992 L99.37164,103.21992 Z M23.66964,102.04512 L23.66124,102.49392 C23.94324,102.49872 24.23484,102.50112 24.52644,102.50112 C24.68244,102.50112 24.83844,102.50112 24.99324,102.49872 L24.98964,102.05112 C24.83484,102.05232 24.68124,102.05352 24.52764,102.05352 C24.23724,102.05352 23.94804,102.04992 23.66964,102.04512 L23.66964,102.04512 Z M27.54444,101.96712 C27.10284,101.99112 26.65884,102.01032 26.22684,102.02472 L26.24124,102.47352 C26.67804,102.45912 27.12444,102.43992 27.57084,102.41472 L27.54444,101.96712 Z M21.11844,101.92632 L21.08484,102.37392 C21.51924,102.40752 21.96564,102.43512 22.41324,102.45432 L22.43364,102.00672 C21.99204,101.98632 21.54804,101.95992 21.11844,101.92632 L21.11844,101.92632 Z M30.09684,101.77032 C29.65764,101.81352 29.21484,101.85072 28.78164,101.88432 L28.81524,102.33192 C29.25204,102.29832 29.69724,102.25992 30.14124,102.21672 L30.09684,101.77032 Z M18.58284,101.64072 L18.51564,102.08352 C18.94404,102.14832 19.39044,102.20712 19.83924,102.25632 L19.88844,101.81112 C19.44564,101.76192 19.00644,101.70432 18.58284,101.64072 L18.58284,101.64072 Z M32.64084,101.47392 C32.20164,101.53392 31.76004,101.58912 31.32924,101.63952 L31.38084,102.08472 C31.81524,102.03432 32.25924,101.97912 32.69964,101.91912 L32.64084,101.47392 Z M97.60164,101.32272 L97.29324,101.64792 C97.61124,101.95152 97.92084,102.26712 98.21364,102.58152 L98.54364,102.27552 C98.24364,101.95392 97.92684,101.63352 97.60164,101.32272 L97.60164,101.32272 Z M16.08324,101.15112 L15.97644,101.58672 C16.39764,101.68992 16.83804,101.78592 17.28204,101.87232 L17.36724,101.43192 C16.93044,101.34672 16.49724,101.25312 16.08324,101.15112 L16.08324,101.15112 Z M35.17164,101.08752 C34.73724,101.16192 34.29684,101.23272 33.86724,101.29752 L33.93444,101.74152 C34.36764,101.67552 34.80924,101.60352 35.24724,101.52912 L35.17164,101.08752 Z M37.68804,100.61112 C37.26084,100.69992 36.82524,100.78632 36.39204,100.86792 L36.47484,101.30832 C36.91044,101.22672 37.34964,101.14032 37.77924,101.05032 L37.68804,100.61112 Z M13.65204,100.41072 L13.49484,100.83072 C13.90164,100.98192 14.33004,101.12472 14.76564,101.25672 L14.89404,100.82712 C14.46804,100.69872 14.04924,100.55832 13.65204,100.41072 L13.65204,100.41072 Z M40.18524,100.04472 C39.76404,100.14792 39.33204,100.25112 38.89884,100.34832 L38.99724,100.78632 C39.43404,100.68792 39.86964,100.58472 40.29324,100.48032 L40.18524,100.04472 Z M95.63724,99.63672 L95.36124,99.99192 C95.70924,100.26072 96.05124,100.53912 96.38004,100.82232 L96.67284,100.48152 C96.33924,100.19472 95.99124,99.91032 95.63724,99.63672 L95.63724,99.63672 Z M42.65724,99.37992 C42.23484,99.49872 41.81604,99.61632 41.41164,99.72552 L41.38404,99.73272 L41.49924,100.16712 L41.53164,100.15872 C41.93604,100.04832 42.35484,99.93192 42.77964,99.81072 L42.65724,99.37992 Z M11.34804,99.36072 L11.13204,99.75312 C11.51364,99.96432 11.91804,100.16712 12.33324,100.35312 L12.51684,99.94512 C12.11364,99.76272 11.72004,99.56592 11.34804,99.36072 L11.34804,99.36072 Z M45.11844,98.66112 C44.69484,98.78712 44.27244,98.91312 43.84884,99.03672 L43.97484,99.46752 C44.39844,99.34392 44.82324,99.21792 45.24684,99.09072 L45.11844,98.66112 Z M93.51684,98.14992 L93.27684,98.52912 C93.64764,98.76552 94.01604,99.01152 94.37004,99.25992 L94.62804,98.89272 C94.26804,98.64072 93.89484,98.39112 93.51684,98.14992 L93.51684,98.14992 Z M9.26364,97.94352 L8.97684,98.28792 C9.31404,98.57112 9.67764,98.84232 10.05444,99.09552 L10.30524,98.72352 C9.94044,98.47752 9.59004,98.21592 9.26364,97.94352 L9.26364,97.94352 Z M47.57244,97.91232 C47.15004,98.04192 46.72884,98.17152 46.30524,98.30112 L46.43724,98.72952 C46.85964,98.60112 47.28204,98.47152 47.70444,98.34072 L47.57244,97.91232 Z M50.02404,97.14912 L48.75804,97.54392 L48.89244,97.97232 L50.15724,97.57752 L50.02404,97.14912 Z M91.27764,96.85632 L91.06884,97.25352 C91.45884,97.45872 91.84644,97.67232 92.22204,97.88952 L92.44644,97.50072 C92.06604,97.28112 91.67244,97.06392 91.27764,96.85632 L91.27764,96.85632 Z M52.47924,96.39072 C52.05564,96.52032 51.63444,96.64992 51.21084,96.78072 L51.34404,97.20912 C51.76644,97.07832 52.18884,96.94872 52.61004,96.81912 L52.47924,96.39072 Z M7.52364,96.13512 L7.16724,96.40752 C7.43844,96.76152 7.73484,97.10592 8.04804,97.42872 L8.37084,97.11672 C8.06844,96.80592 7.78404,96.47472 7.52364,96.13512 L7.52364,96.13512 Z M88.94484,95.74392 L88.76724,96.15672 C89.16924,96.32952 89.57244,96.51312 89.96604,96.70032 L90.15924,96.29592 C89.76084,96.10632 89.35164,95.92032 88.94484,95.74392 L88.94484,95.74392 Z M54.94164,95.65032 C54.51684,95.77512 54.09444,95.90112 53.66964,96.02952 L53.79804,96.45912 C54.22164,96.33192 54.64404,96.20592 55.06764,96.08112 L54.94164,95.65032 Z M57.41724,94.94712 C57.00564,95.05992 56.57604,95.17992 56.13804,95.30472 L56.26044,95.73672 C56.69604,95.61192 57.12564,95.49192 57.53604,95.37912 L57.41724,94.94712 Z M86.54004,94.80312 L86.39124,95.22552 C86.80284,95.37192 87.21924,95.52672 87.62484,95.68632 L87.78924,95.26872 C87.37764,95.10792 86.95764,94.95072 86.54004,94.80312 L86.54004,94.80312 Z M59.90724,94.29672 C59.48964,94.39992 59.05524,94.51032 58.61964,94.62432 L58.73364,95.05872 C59.16684,94.94472 59.59764,94.83432 60.01524,94.73112 L59.90724,94.29672 Z M84.08004,94.02072 L83.95764,94.45152 C84.37764,94.57152 84.80244,94.69872 85.21884,94.83192 L85.35564,94.40472 C84.93444,94.27032 84.50484,94.14072 84.08004,94.02072 L84.08004,94.02072 Z M6.24564,93.97872 L5.83644,94.16112 C6.02004,94.57272 6.22884,94.97592 6.45684,95.35872 L6.84324,95.12832 C6.62364,94.76112 6.42204,94.37352 6.24564,93.97872 L6.24564,93.97872 Z M62.41884,93.71712 C61.99524,93.80712 61.55724,93.90432 61.12044,94.00632 L61.22124,94.44312 C61.65564,94.34232 62.09124,94.24632 62.51124,94.15632 L62.41884,93.71712 Z M81.57444,93.39552 L81.47964,93.83352 C81.90684,93.92592 82.33884,94.02672 82.76364,94.13232 L82.87284,93.69792 C82.44324,93.58992 82.00524,93.48912 81.57444,93.39552 L81.57444,93.39552 Z M64.94844,93.22752 C64.52364,93.30072 64.08324,93.38112 63.64044,93.46752 L63.72564,93.90792 C64.16604,93.82272 64.60284,93.74232 65.02524,93.67032 L64.94844,93.22752 Z M79.03524,92.93232 L78.96804,93.37512 C79.39884,93.43992 79.83684,93.51312 80.26764,93.59232 L80.34804,93.15072 C79.91244,93.07152 79.47084,92.99712 79.03524,92.93232 L79.03524,92.93232 Z M67.49844,92.84712 C67.06764,92.90112 66.62364,92.96232 66.18084,93.02832 L66.24684,93.47232 C66.68724,93.40632 67.12764,93.34632 67.55364,93.29352 L67.49844,92.84712 Z M76.46964,92.63112 L76.43244,93.07752 C76.86564,93.11472 77.30724,93.16032 77.74404,93.21192 L77.79564,92.76552 C77.35524,92.71392 76.90884,92.66832 76.46964,92.63112 L76.46964,92.63112 Z M70.06524,92.59632 C69.62844,92.62632 69.18204,92.66472 68.73924,92.70912 L68.78364,93.15552 C69.22284,93.11112 69.66444,93.07392 70.09644,93.04392 L70.06524,92.59632 Z M73.89204,92.49552 L73.88244,92.94432 C74.31804,92.95272 74.76084,92.96952 75.19884,92.99232 L75.22404,92.54472 C74.78004,92.52072 74.33244,92.50392 73.89204,92.49552 L73.89204,92.49552 Z M72.64284,92.48952 C72.20244,92.49432 71.75484,92.50632 71.31084,92.52432 L71.33004,92.97312 C71.76924,92.95512 72.21204,92.94312 72.64644,92.93832 L72.64284,92.48952 Z M5.48484,91.58952 L5.04444,91.67112 C5.09364,91.93752 5.15484,92.20392 5.22804,92.46672 C5.27724,92.63952 5.32884,92.81352 5.38404,92.98032 L5.81004,92.84232 C5.75724,92.68032 5.70684,92.51352 5.66004,92.34672 C5.59164,92.09712 5.53164,91.84272 5.48484,91.58952 L5.48484,91.58952 Z M4.93164,89.05152 C4.90164,89.35872 4.88724,89.66832 4.88724,89.97312 C4.88724,90.11832 4.89084,90.26352 4.89684,90.40752 L5.34444,90.38712 C5.33964,90.24912 5.33604,90.11112 5.33604,89.97312 C5.33604,89.68272 5.34924,89.38752 5.37804,89.09592 L4.93164,89.05152 Z M98.52564,87.71952 C98.29524,87.72192 98.06724,87.72312 97.83804,87.72312 C97.62684,87.72312 97.41444,87.72192 97.20324,87.72072 L97.19964,88.16832 C97.41084,88.17072 97.62204,88.17192 97.83324,88.17192 C98.06484,88.17192 98.29644,88.17072 98.53044,88.16832 L98.52564,87.71952 Z M94.64484,87.64992 L94.62444,88.09752 C95.06484,88.11792 95.51244,88.13472 95.95284,88.14672 L95.96484,87.69792 C95.52684,87.68592 95.08284,87.67032 94.64484,87.64992 L94.64484,87.64992 Z M101.08404,87.64392 C100.64724,87.66552 100.20324,87.68232 99.76284,87.69552 L99.77604,88.14432 C100.22004,88.13112 100.66764,88.11312 101.10564,88.09272 L101.08404,87.64392 Z M92.09124,87.49032 L92.05404,87.93672 C92.49444,87.97272 92.94084,88.00392 93.38004,88.03152 L93.40764,87.58272 C92.97084,87.55632 92.52804,87.52392 92.09124,87.49032 L92.09124,87.49032 Z M103.63644,87.46752 C103.20084,87.50712 102.75804,87.54192 102.32004,87.57192 L102.35004,88.01952 C102.79164,87.98952 103.23804,87.95352 103.67604,87.91512 L103.63644,87.46752 Z M89.54244,87.24552 L89.49324,87.69072 C89.93244,87.73992 90.37764,87.78672 90.81324,87.82752 L90.85644,87.38112 C90.42204,87.34032 89.98044,87.29472 89.54244,87.24552 L89.54244,87.24552 Z M106.17684,87.17952 C105.75564,87.23952 105.31524,87.29472 104.86764,87.34512 L104.91804,87.79032 C105.36924,87.73992 105.81444,87.68352 106.23924,87.62352 L106.17684,87.17952 Z M87.00324,86.92032 L86.93964,87.36432 C87.38004,87.42792 87.82284,87.48792 88.25604,87.54312 L88.31244,87.09672 C87.88164,87.04272 87.44124,86.98272 87.00324,86.92032 L87.00324,86.92032 Z M108.69084,86.74032 C108.27324,86.82912 107.83884,86.91312 107.39724,86.98872 L107.47404,87.43152 C107.92044,87.35352 108.36084,87.26952 108.78444,87.17832 L108.69084,86.74032 Z M84.47484,86.52192 L84.39804,86.96352 C84.83364,87.03912 85.27404,87.11112 85.70844,87.17952 L85.77804,86.73672 C85.34484,86.66832 84.90684,86.59632 84.47484,86.52192 L84.47484,86.52192 Z M5.51244,86.50152 C5.35764,86.93352 5.23164,87.37032 5.13444,87.79872 L5.57124,87.89832 C5.66484,87.48552 5.78724,87.06672 5.93484,86.65272 L5.51244,86.50152 Z M111.15444,86.09832 C110.74524,86.22552 110.32044,86.34672 109.89084,86.45712 L110.00244,86.89272 C110.44044,86.77992 110.87244,86.65632 111.28884,86.52672 L111.15444,86.09832 Z M81.95604,86.05392 L81.86964,86.49432 C82.30404,86.58072 82.74324,86.66472 83.17284,86.74512 L83.25444,86.30352 C82.82604,86.22432 82.39044,86.14032 81.95604,86.05392 L81.95604,86.05392 Z M79.45164,85.52232 L79.35324,85.96032 C79.78884,86.05872 80.22444,86.15352 80.65044,86.24352 L80.74404,85.80432 C80.31924,85.71552 79.88484,85.62072 79.45164,85.52232 L79.45164,85.52232 Z M113.53404,85.20792 C113.14404,85.38072 112.73484,85.54752 112.31964,85.70112 L112.47564,86.12232 C112.89924,85.96512 113.31684,85.79472 113.71644,85.61832 L113.53404,85.20792 Z M76.95924,84.93312 L76.85004,85.36872 C77.28084,85.47552 77.71404,85.57992 78.14124,85.68072 L78.24444,85.24512 C77.81964,85.14432 77.38764,85.03992 76.95924,84.93312 L76.95924,84.93312 Z M74.47884,84.28992 L74.36244,84.72312 C74.79324,84.83952 75.22404,84.95352 75.64524,85.06272 L75.75684,84.62832 C75.33924,84.52032 74.90844,84.40632 74.47884,84.28992 L74.47884,84.28992 Z M6.63444,84.14712 C6.39924,84.53952 6.18684,84.93912 5.99724,85.33392 L6.40284,85.52592 C6.58524,85.14432 6.79284,84.75672 7.01844,84.37632 L6.63444,84.14712 Z M115.77684,84.02592 C115.44324,84.23472 115.09524,84.43392 114.74604,84.61872 L114.64164,84.67512 L114.84684,85.07232 C114.88524,85.05432 114.92124,85.03512 114.95724,85.01592 C115.31484,84.82512 115.67124,84.62112 116.01324,84.40632 L115.77684,84.02592 Z M72.01164,83.59752 L71.88684,84.02952 C72.31164,84.15312 72.74244,84.27552 73.16244,84.39312 L73.28364,83.96112 C72.86364,83.84352 72.43644,83.72232 72.01164,83.59752 L72.01164,83.59752 Z M69.55524,82.86312 L69.42324,83.29152 C69.84564,83.42232 70.26924,83.55072 70.69404,83.67672 L70.82244,83.24712 C70.39884,83.12112 69.97764,82.99272 69.55524,82.86312 L69.55524,82.86312 Z M117.81324,82.52352 C117.48804,82.80552 117.14484,83.08032 116.79204,83.33952 L117.05604,83.70072 C117.41964,83.43432 117.77364,83.15232 118.10724,82.86312 L117.81324,82.52352 Z M67.11084,82.08672 L66.97284,82.51392 C67.39404,82.65072 67.81404,82.78632 68.23644,82.91952 L68.37204,82.49232 C67.95084,82.35912 67.53084,82.22352 67.11084,82.08672 L67.11084,82.08672 Z M8.13924,82.02672 C7.85004,82.37592 7.57524,82.73472 7.32204,83.09232 L7.68804,83.35032 C7.93524,83.00232 8.20284,82.65312 8.48484,82.31232 L8.13924,82.02672 Z M64.67724,81.27672 L64.53324,81.70152 C64.95084,81.84432 65.37084,81.98472 65.79084,82.12512 L65.93244,81.69912 C65.51364,81.55992 65.09484,81.41952 64.67724,81.27672 L64.67724,81.27672 Z M119.57364,80.71272 C119.30244,81.04512 119.01084,81.37272 118.70364,81.68472 L119.02524,81.99912 C119.34204,81.67512 119.64324,81.33792 119.92164,80.99592 L119.57364,80.71272 Z M62.25324,80.43552 L62.10324,80.85792 C62.52084,81.00552 62.93844,81.15192 63.35604,81.29712 L63.50364,80.87232 C63.08724,80.72832 62.66964,80.58192 62.25324,80.43552 L62.25324,80.43552 Z M9.92004,80.13792 C9.59244,80.44632 9.27204,80.76432 8.97204,81.08472 L9.29724,81.39192 C9.59364,81.07872 9.90444,80.76672 10.22724,80.46552 L9.92004,80.13792 Z M59.83884,79.56672 L59.68404,79.98792 C60.09924,80.14032 60.51564,80.29032 60.93204,80.44032 L61.08444,80.01792 C60.66804,79.86912 60.25164,79.71792 59.83884,79.56672 L59.83884,79.56672 Z M57.42924,78.67512 L57.27204,79.09632 C57.68604,79.25112 58.10004,79.40472 58.51644,79.55952 L58.67124,79.13832 C58.25724,78.98472 57.84324,78.82992 57.42924,78.67512 L57.42924,78.67512 Z M120.96324,78.61272 C120.76524,78.99072 120.54204,79.36632 120.29844,79.72992 L120.67164,79.97952 C120.92364,79.60272 121.15524,79.21272 121.36044,78.82152 L120.96324,78.61272 Z M11.90844,78.47472 C11.55084,78.74112 11.19804,79.02072 10.85844,79.30512 L11.14644,79.64832 C11.48004,79.36992 11.82684,79.09632 12.17724,78.83472 L11.90844,78.47472 Z M55.02684,77.76552 L54.86724,78.18432 C55.28004,78.34272 55.69404,78.49992 56.10684,78.65712 L56.26644,78.23712 C55.85244,78.07992 55.43964,77.92272 55.02684,77.76552 L55.02684,77.76552 Z M14.07084,77.04312 C13.69044,77.26512 13.30764,77.50392 12.93564,77.75112 L13.18404,78.12552 C13.54884,77.88192 13.92444,77.64792 14.29644,77.43072 L14.07084,77.04312 Z M52.63164,76.84272 L52.46964,77.26032 L53.70564,77.73792 L53.86764,77.32032 L52.63164,76.84272 Z M121.87524,76.27272 C121.86324,76.31832 121.85004,76.36512 121.83804,76.41192 C121.73724,76.77792 121.61244,77.14632 121.47204,77.50512 L121.88964,77.67072 C122.03604,77.29632 122.16444,76.91352 122.27004,76.53072 C122.28324,76.48272 122.29644,76.43352 122.30844,76.38552 L121.87524,76.27272 Z M50.23044,75.92472 L50.07324,76.34472 C50.48724,76.49952 50.89884,76.65672 51.31044,76.81512 L51.47124,76.39512 C51.05844,76.23792 50.64444,76.07952 50.23044,75.92472 L50.23044,75.92472 Z M16.38324,75.87192 C16.12284,75.98952 15.85884,76.11072 15.60084,76.23312 C15.45924,76.30032 15.31764,76.37112 15.17484,76.44312 L15.37764,76.84272 C15.51684,76.77192 15.65484,76.70352 15.79404,76.63872 C16.04844,76.51752 16.30884,76.39752 16.56684,76.28232 L16.38324,75.87192 Z M47.81124,75.04752 L47.66364,75.47232 C48.06084,75.61032 48.48084,75.75912 48.90924,75.91512 L49.06284,75.49392 C48.63204,75.33672 48.21084,75.18672 47.81124,75.04752 L47.81124,75.04752 Z M18.77604,74.89872 C18.35844,75.05352 17.94084,75.21552 17.53284,75.38112 L17.70204,75.79752 C18.10404,75.63312 18.51804,75.47232 18.93084,75.32112 L18.77604,74.89872 Z M45.36204,74.24712 L45.23124,74.67552 C45.63924,74.80032 46.06284,74.93472 46.49124,75.07512 L46.63044,74.64912 C46.19844,74.50752 45.77244,74.37192 45.36204,74.24712 L45.36204,74.24712 Z M21.22764,74.08752 C20.80044,74.21352 20.37324,74.34792 19.95564,74.48712 L20.09724,74.91192 C20.51004,74.77512 20.93364,74.64192 21.35484,74.51712 L21.22764,74.08752 Z M122.21604,73.78632 C122.20764,74.22072 122.17284,74.65632 122.11404,75.07992 L122.55804,75.14232 C122.62044,74.70072 122.65524,74.24712 122.66364,73.79472 L122.21604,73.78632 Z M42.87684,73.55832 L42.76884,73.99392 C43.18284,74.09712 43.61124,74.20992 44.04444,74.32992 L44.16444,73.89672 C43.72884,73.77552 43.29444,73.66152 42.87684,73.55832 L42.87684,73.55832 Z M23.72604,73.43472 C23.29284,73.53312 22.85604,73.63992 22.43124,73.75152 L22.54404,74.18592 C22.96644,74.07432 23.39604,73.96992 23.82564,73.87152 L23.72604,73.43472 Z M40.35084,73.01952 L40.27164,73.46112 C40.70244,73.53792 41.13804,73.62432 41.56404,73.71552 L41.65884,73.27632 C41.22684,73.18392 40.78764,73.09752 40.35084,73.01952 L40.35084,73.01952 Z M26.25924,72.93912 C25.82364,73.00992 25.38204,73.09032 24.94764,73.17432 L25.03524,73.61472 C25.46364,73.53072 25.90044,73.45152 26.33244,73.38072 L26.25924,72.93912 Z M37.79484,72.64632 L37.74444,73.09272 C38.18004,73.14192 38.61924,73.19832 39.05244,73.26192 L39.11724,72.81912 C38.68044,72.75432 38.23644,72.69672 37.79484,72.64632 L37.79484,72.64632 Z M28.81884,72.59952 C28.37844,72.64512 27.93324,72.69672 27.49404,72.75552 L27.55404,73.19952 C27.98844,73.14192 28.42884,73.09032 28.86324,73.04592 L28.81884,72.59952 Z M35.22324,72.43632 L35.20044,72.88392 C35.63844,72.90552 36.08124,72.93552 36.51564,72.97152 L36.55284,72.52392 C36.11244,72.48792 35.66484,72.45792 35.22324,72.43632 L35.22324,72.43632 Z M31.39404,72.41712 C30.95244,72.43512 30.50484,72.46032 30.06324,72.49152 L30.09444,72.93912 C30.53244,72.90792 30.97524,72.88272 31.41204,72.86592 L31.39404,72.41712 Z M33.10404,72.38232 C32.94924,72.38232 32.79564,72.38352 32.64324,72.38472 L32.64684,72.83352 C32.80044,72.83232 32.95404,72.83112 33.10764,72.83112 C33.39444,72.83112 33.68124,72.83352 33.96564,72.84072 L33.97524,72.39192 C33.68604,72.38592 33.39444,72.38232 33.10404,72.38232 L33.10404,72.38232 Z M122.42364,71.19432 L121.98444,71.28312 C122.06964,71.71152 122.13324,72.14472 122.17164,72.57072 L122.61804,72.52992 C122.57844,72.08832 122.51364,71.63952 122.42364,71.19432 L122.42364,71.19432 Z M121.66164,68.70072 L121.24644,68.87112 C121.41324,69.27672 121.56084,69.68952 121.68564,70.09872 L122.11404,69.96912 C121.98684,69.54552 121.83444,69.11952 121.66164,68.70072 L121.66164,68.70072 Z M56.64564,68.27952 C56.32524,68.29512 56.00364,68.30232 55.68804,68.30232 C55.61604,68.30232 55.54404,68.30112 55.47204,68.30112 C55.42644,68.29992 55.38084,68.29992 55.33524,68.29872 L55.32684,68.74752 L55.46724,68.74872 C55.54164,68.74992 55.61484,68.74992 55.68924,68.74992 C56.00964,68.74992 56.33964,68.74272 56.66724,68.72712 L56.64564,68.27952 Z M52.82844,68.02272 L52.73484,68.46192 C53.16084,68.55192 53.60844,68.62272 54.06684,68.67072 L54.11364,68.22432 C53.67084,68.17752 53.23884,68.11032 52.82844,68.02272 L52.82844,68.02272 Z M59.17284,68.01432 C58.73604,68.08392 58.29684,68.14272 57.87204,68.18712 L57.91764,68.63232 C58.35204,68.58792 58.79724,68.52792 59.24484,68.45712 L59.17284,68.01432 Z M61.66644,67.49472 C61.23324,67.60392 60.80124,67.70472 60.38484,67.79112 L60.47604,68.23032 C60.89844,68.14272 61.33644,68.04072 61.77684,67.92912 L61.66644,67.49472 Z M50.46924,67.19832 L50.26044,67.59552 C50.64804,67.79832 51.06804,67.97712 51.51084,68.12832 L51.65484,67.70352 C51.23484,67.56072 50.83644,67.39032 50.46924,67.19832 L50.46924,67.19832 Z M64.11564,66.77952 C63.68604,66.91992 63.26244,67.05072 62.85684,67.16952 L62.98284,67.59912 C63.39324,67.48032 63.82044,67.34712 64.25484,67.20552 L64.11564,66.77952 Z M120.46764,66.38592 L120.08724,66.62472 C120.31884,66.99552 120.53724,67.37712 120.73404,67.75992 L121.13244,67.55472 C120.93084,67.16112 120.70644,66.76872 120.46764,66.38592 L120.46764,66.38592 Z M66.52764,65.92632 C66.09204,66.09192 65.68644,66.23952 65.28804,66.37992 L65.43684,66.80352 C65.83884,66.66192 66.24684,66.51192 66.68604,66.34752 L66.52764,65.92632 Z M48.54084,65.66832 L48.19524,65.95392 C48.48444,66.30072 48.81564,66.62112 49.18284,66.90552 L49.45764,66.55152 C49.11684,66.28632 48.80844,65.98872 48.54084,65.66832 L48.54084,65.66832 Z M68.91324,64.99032 C68.46084,65.17272 68.05884,65.33352 67.68444,65.48112 L67.84764,65.89872 C68.22444,65.75112 68.62764,65.59032 69.08124,65.40552 L68.91324,64.99032 Z M118.91604,64.29672 L118.57884,64.59192 C118.86444,64.92072 119.14044,65.26392 119.39604,65.61192 L119.75724,65.34552 C119.49444,64.98792 119.21004,64.63512 118.91604,64.29672 L118.91604,64.29672 Z M71.29044,64.01832 L70.06284,64.52232 L70.23324,64.93632 L71.45964,64.43352 L71.29044,64.01832 Z M47.41524,63.48672 L46.98324,63.60672 C47.10804,64.05552 47.27604,64.48512 47.48364,64.88232 L47.88084,64.67472 C47.68884,64.30512 47.53164,63.90552 47.41524,63.48672 L47.41524,63.48672 Z M73.67604,63.05832 C73.29564,63.20712 72.89244,63.36792 72.44244,63.54912 L72.60924,63.96552 C73.05804,63.78432 73.46004,63.62472 73.83924,63.47712 L73.67604,63.05832 Z M117.06684,62.47032 L116.77644,62.81352 C117.10764,63.09432 117.43164,63.39072 117.74004,63.69672 L118.05564,63.37872 C117.74004,63.06432 117.40644,62.75952 117.06684,62.47032 L117.06684,62.47032 Z M76.08924,62.15832 C75.67044,62.30712 75.24924,62.45952 74.84004,62.61312 L74.99604,63.03312 C75.40404,62.88072 75.82284,62.72832 76.23924,62.58072 L76.08924,62.15832 Z M78.52884,61.33632 C78.10404,61.47192 77.68044,61.61112 77.26644,61.75032 L77.40924,62.17512 C77.82084,62.03712 78.24444,61.89792 78.66564,61.76352 L78.52884,61.33632 Z M46.72884,60.98832 C46.71684,61.17312 46.71084,61.36032 46.71084,61.54272 C46.71084,61.81392 46.72404,62.08512 46.75044,62.34792 L47.19684,62.30352 C47.17284,62.05512 47.15964,61.79832 47.15964,61.54272 C47.15964,61.36992 47.16564,61.19232 47.17644,61.01712 L46.72884,60.98832 Z M114.95844,60.94752 L114.72564,61.33152 C115.09404,61.55472 115.45884,61.79832 115.81284,62.05512 L116.07684,61.69272 C115.71324,61.42872 115.33764,61.17792 114.95844,60.94752 L114.95844,60.94752 Z M80.99484,60.59352 C80.56764,60.71472 80.13924,60.84072 79.71924,60.96672 L79.84764,61.39632 C80.26644,61.27032 80.69364,61.14552 81.11724,61.02432 L80.99484,60.59352 Z M83.48244,59.92992 C83.05404,60.03672 82.62204,60.14832 82.19484,60.26232 L82.31124,60.69552 C82.73484,60.58272 83.16564,60.47232 83.59164,60.36552 L83.48244,59.92992 Z M112.65084,59.75952 L112.47204,60.17112 C112.87284,60.34632 113.27124,60.53592 113.65404,60.73392 L113.86044,60.33552 C113.46804,60.13272 113.06124,59.93832 112.65084,59.75952 L112.65084,59.75952 Z M85.99164,59.34672 C85.56084,59.43912 85.12524,59.53752 84.69444,59.63832 L84.79524,60.07392 C85.22484,59.97432 85.65804,59.87712 86.08644,59.78472 L85.99164,59.34672 Z M110.21964,58.86312 L110.08884,59.29272 C110.51004,59.42112 110.92884,59.56272 111.33204,59.71152 L111.48804,59.29032 C111.07644,59.13912 110.64924,58.99512 110.21964,58.86312 L110.21964,58.86312 Z M88.51644,58.84512 C88.08324,58.92312 87.64404,59.00712 87.21084,59.09352 L87.29844,59.53392 C87.72924,59.44752 88.16604,59.36472 88.59684,59.28552 L88.51644,58.84512 Z M91.05684,58.42392 C90.62124,58.48872 90.17964,58.55832 89.74524,58.63032 L89.81724,59.07312 C90.24924,59.00112 90.68964,58.93272 91.12404,58.86792 L91.05684,58.42392 Z M47.26764,58.42152 C47.11404,58.84632 46.99164,59.28552 46.89924,59.72592 L47.33964,59.81712 C47.42604,59.39712 47.54484,58.97832 47.69004,58.57272 L47.26764,58.42152 Z M107.70684,58.23672 L107.61924,58.67592 C108.05364,58.76232 108.48564,58.85832 108.90204,58.96392 L109.01124,58.52832 C108.58764,58.42152 108.14724,58.32312 107.70684,58.23672 L107.70684,58.23672 Z M93.60924,58.08552 C93.17124,58.13592 92.72844,58.19112 92.29164,58.24992 L92.35044,58.69512 C92.78484,58.63632 93.22644,58.58112 93.66204,58.53072 L93.60924,58.08552 Z M105.14964,57.84552 L105.09924,58.29072 C105.54204,58.33992 105.98124,58.39752 106.40484,58.46352 L106.47324,58.01952 C106.04364,57.95352 105.59724,57.89472 105.14964,57.84552 L105.14964,57.84552 Z M96.17244,57.82872 C95.73324,57.86592 95.28804,57.90672 94.84884,57.95112 L94.89444,58.39752 C95.33004,58.35312 95.77284,58.31232 96.20964,58.27632 L96.17244,57.82872 Z M98.74524,57.66552 C98.31084,57.68352 97.86444,57.70752 97.41564,57.73632 L97.44564,58.18392 C97.89084,58.15512 98.33364,58.13232 98.76324,58.11432 L98.74524,57.66552 Z M102.57324,57.65352 L102.55404,58.10112 C102.99804,58.12032 103.44204,58.14552 103.87044,58.17672 L103.90404,57.72912 C103.46964,57.69672 103.02204,57.67152 102.57324,57.65352 L102.57324,57.65352 Z M100.85724,57.61992 C100.56924,57.61992 100.28004,57.62232 99.99204,57.62712 L99.99924,58.07592 C100.28604,58.07112 100.57164,58.06872 100.85844,58.06872 C101.01204,58.06872 101.16564,58.06992 101.31924,58.07112 L101.32404,57.62232 C101.16924,57.62112 101.01324,57.61992 100.85724,57.61992 L100.85724,57.61992 Z M48.45084,56.09112 C48.20004,56.47512 47.97324,56.86752 47.77524,57.25752 L48.17484,57.46032 C48.36564,57.08592 48.58524,56.70672 48.82764,56.33592 L48.45084,56.09112 Z M50.05044,54.04032 C49.74084,54.38352 49.44804,54.72792 49.18644,55.06512 L49.54044,55.34112 C49.79484,55.01232 50.08044,54.67632 50.38404,54.34152 L50.05044,54.04032 Z M51.88884,52.21512 C51.53604,52.53672 51.21924,52.83672 50.91924,53.13432 L51.23604,53.45232 C51.53124,53.15952 51.84324,52.86432 52.19124,52.54752 L51.88884,52.21512 Z M53.83404,50.52432 C53.49444,50.80752 53.15364,51.09792 52.82124,51.38592 L53.11524,51.72552 C53.44524,51.43872 53.78484,51.14952 54.12084,50.86872 L53.83404,50.52432 Z M55.83924,48.90792 C55.48884,49.17912 55.13844,49.45752 54.79644,49.73352 L55.07844,50.08272 C55.41804,49.80792 55.76604,49.53192 56.11404,49.26192 L55.83924,48.90792 Z M57.89964,47.36352 C57.54204,47.62152 57.18204,47.88672 56.82924,48.15072 L57.09804,48.50952 C57.44844,48.24792 57.80604,47.98392 58.16244,47.72712 L57.89964,47.36352 Z M60.01524,45.89352 C59.64804,46.13832 59.27964,46.39032 58.91724,46.64232 L59.17404,47.01072 C59.53404,46.75992 59.90004,46.50912 60.26484,46.26552 L60.01524,45.89352 Z M62.18124,44.49792 C61.80444,44.73192 61.42644,44.97072 61.05684,45.20832 L61.29924,45.58632 C61.66644,45.34872 62.04324,45.11232 62.41764,44.87952 L62.18124,44.49792 Z M64.39524,43.18152 C64.01124,43.39992 63.62604,43.62552 63.24564,43.85112 L63.47604,44.23752 C63.85284,44.01312 64.23684,43.78872 64.61724,43.57152 L64.39524,43.18152 Z M66.65364,41.94432 C66.26484,42.14952 65.87004,42.36072 65.48364,42.57312 L65.69844,42.96672 C66.08364,42.75552 66.47604,42.54552 66.86244,42.34272 L66.65364,41.94432 Z" id="Fill-7" fill="#b9aaff"></path>
                        <g transform="translate(97.200000, 123.600000)">
                            <mask id="mask-2" fill="white">
                                <use xlink:href="#path-1"></use>
                            </mask>
                            <g id="Clip-10"></g>
                            <path d="M1.10172,1.2 L0.84252,0.834 C1.01772,0.7092 1.19172,0.5784 1.35972,0.444 L1.64052,0.7932 C1.46652,0.9336 1.28412,1.0704 1.10172,1.2" id="Fill-9" fill="#0B000E" mask="url(#mask-2)"></path>
                        </g>
                        <g transform="translate(97.200000, 123.600000)">
                            <mask id="mask-4" fill="white">
                                <use xlink:href="#path-3"></use>
                            </mask>
                            <g id="Clip-12"></g>
                            <path d="M1.35948,0.44352 C1.19148,0.57792 1.01748,0.70992 0.84228,0.83352 L1.10148,1.19952 C1.28508,1.06992 1.46628,0.93312 1.64028,0.79272 L1.35948,0.44352 Z" id="Fill-11" fill="#b9aaff" mask="url(#mask-4)"></path>
                        </g>
                        <polygon id="Fill-13" fill="#0B000E" points="115.67712 0.25488 0.26592 63.16248 28.89192 63.72888 43.51632 89.83008 58.89912 72.97008 79.01232 79.64088"></polygon>
                    </g>
                    <g transform="translate(6.000000, 0.411600)">
                        <g>
                            <mask id="mask-6" fill="white">
                                <use xlink:href="#path-5"></use>
                            </mask>
                            <g id="Clip-16"></g>
                            <polygon id="Fill-15" fill="#0B000E" mask="url(#mask-6)" points="47.96616 69.81972 58.54056 72.65052 44.32296 88.23252"></polygon>
                        </g>
                        <g>
                            <mask id="mask-8" fill="white">
                                <use xlink:href="#path-7"></use>
                            </mask>
                            <g id="Clip-18"></g>
                            <path d="M47.59464,69.22212 L43.51704,89.82972 L59.42784,72.39012 L47.59464,69.22212 Z M48.33864,70.41732 L57.65184,72.91092 L45.12984,86.63412 L48.33864,70.41732 Z" id="Fill-17" fill="#b9aaff" mask="url(#mask-8)"></path>
                        </g>
                        <g>
                            <mask id="mask-10" fill="white">
                                <use xlink:href="#path-9"></use>
                            </mask>
                            <g id="Clip-20"></g>
                            <polygon id="Fill-19" fill="#0B000E" mask="url(#mask-10)" points="2.08728 62.71704 109.53888 4.14864 28.73928 63.24504"></polygon>
                        </g>
                        <g>
                            <mask id="mask-12" fill="white">
                                <use xlink:href="#path-11"></use>
                            </mask>
                            <g id="Clip-22"></g>
                            <path d="M115.67712,0.25488 L0.26592,63.16248 L28.89192,63.72888 L115.67712,0.25488 Z M103.40112,8.04168 L28.58592,62.76048 L3.90912,62.27208 L103.40112,8.04168 Z" id="Fill-21" fill="#b9aaff" mask="url(#mask-12)"></path>
                        </g>
                        <g>
                            <mask id="mask-14" fill="white">
                                <use xlink:href="#path-13"></use>
                            </mask>
                            <g id="Clip-24"></g>
                            <path d="M29.51964,63.86544 L111.13044,4.17624 L47.25204,68.88384 C47.18604,68.95104 47.14164,69.03624 47.12244,69.12864 L43.29804,88.45584 L29.51964,63.86544 Z" id="Fill-23" fill="#0B000E" mask="url(#mask-14)"></path>
                        </g>
                        <g>
                            <mask id="mask-16" fill="white">
                                <use xlink:href="#path-15"></use>
                            </mask>
                            <g id="Clip-26"></g>
                            <path d="M115.67712,0.25488 L28.89192,63.72888 L43.51632,89.83008 L47.59512,69.22248 L115.67712,0.25488 Z M106.58232,8.09808 L46.90992,68.54568 C46.77792,68.68008 46.68792,68.85048 46.65192,69.03528 L43.07952,87.08208 L30.14832,64.00248 L106.58232,8.09808 L106.58232,8.09808 Z" id="Fill-25" fill="#b9aaff" mask="url(#mask-16)"></path>
                        </g>
                        <g>
                            <g>
                                <mask id="mask-18" fill="white">
                                    <use xlink:href="#path-17"></use>
                                </mask>
                                <g id="Clip-28"></g>
                                <path d="M76.57284,73.72092 C75.11004,73.58892 68.08404,65.67372 58.49004,50.92212 C48.77724,35.99052 44.34684,26.18172 44.99724,25.10892 C46.31964,25.14972 53.38524,33.07332 63.05964,47.94972 C72.65364,62.69892 77.09364,72.45132 76.57284,73.72092" id="Fill-27" fill="#0B000E" mask="url(#mask-18)"></path>
                            </g>
                            <g>
                                <mask id="mask-20" fill="white">
                                    <use xlink:href="#path-19"></use>
                                </mask>
                                <g id="Clip-30"></g>
                                <path d="M44.94036,24.66912 C44.85036,24.66912 44.77116,24.68952 44.70756,24.73152 C43.22076,25.69752 49.21236,37.54152 58.08636,51.18432 C66.57276,64.23312 74.62476,74.20272 76.60956,74.20272 C76.70076,74.20272 76.77756,74.18232 76.84236,74.14032 C78.32676,73.17432 72.33756,61.33152 63.46356,47.68752 C54.97596,34.63872 46.92396,24.66912 44.94036,24.66912 M45.49356,25.94232 C47.78676,27.57672 54.29916,35.36112 62.65716,48.21192 C71.01396,61.06152 75.48876,70.16952 76.05516,72.92952 C73.76316,71.29392 67.25076,63.50952 58.89276,50.65992 C50.53356,37.80912 46.05876,28.69992 45.49356,25.94232" id="Fill-29" fill="#b9aaff" mask="url(#mask-20)"></path>
                            </g>
                        </g>
                        <g>
                            <mask id="mask-22" fill="white">
                                <use xlink:href="#path-21"></use>
                            </mask>
                            <g id="Clip-32"></g>
                            <polygon id="Fill-31" fill="#0B000E" mask="url(#mask-22)" points="48.4806 69.00936 114.087 2.54976 78.7566 79.04856"></polygon>
                        </g>
                        <g>
                            <mask id="mask-24" fill="white">
                                <use xlink:href="#path-23"></use>
                            </mask>
                            <g id="Clip-34"></g>
                            <path d="M115.67712,0.25488 L47.59512,69.22248 L79.01232,79.64088 L115.67712,0.25488 Z M112.49832,4.84488 L78.50112,78.45648 L49.36632,68.79648 L112.49832,4.84488 Z" id="Fill-33" fill="#b9aaff" mask="url(#mask-24)"></path>
                        </g>
                        <g>
                            <g>
                                <mask id="mask-26" fill="white">
                                    <use xlink:href="#path-25"></use>
                                </mask>
                                <g id="Clip-36"></g>
                                <path d="M83.77632,91.50588 C82.45992,91.15908 77.45232,81.68028 71.63712,65.05668 C65.75592,48.24228 63.78792,37.66068 64.67472,36.77508 C65.85072,36.94188 70.90392,46.44588 76.78512,63.25668 C82.59912,79.88268 84.58992,90.41508 83.77632,91.50588" id="Fill-35" fill="#0B000E" mask="url(#mask-26)"></path>
                            </g>
                            <g>
                                <mask id="mask-28" fill="white">
                                    <use xlink:href="#path-27"></use>
                                </mask>
                                <g id="Clip-38"></g>
                                <path d="M64.6068,36.31932 C64.5636,36.31932 64.5216,36.32652 64.482,36.33972 C62.8092,36.92412 65.8104,49.85292 71.1828,65.21652 C76.4316,80.21892 82.0008,91.99452 83.8164,91.99452 C83.8596,91.99452 83.9016,91.98852 83.94,91.97412 C85.6128,91.39092 82.6116,78.46212 77.238,63.09852 C71.9916,48.09612 66.4212,36.31932 64.6068,36.31932 M64.9584,37.70292 C66.7956,39.83652 71.2704,48.94572 76.3308,63.41652 C81.39,77.88492 83.5704,87.79572 83.4636,90.61212 C81.6264,88.47612 77.1516,79.36692 72.0912,64.89852 C67.0308,50.42772 64.8504,40.51572 64.9584,37.70292" id="Fill-37" fill="#b9aaff" mask="url(#mask-28)"></path>
                            </g>
                        </g>
                        <g>
                            <g>
                                <mask id="mask-30" fill="white">
                                    <use xlink:href="#path-29"></use>
                                </mask>
                                <g id="Clip-40"></g>
                                <path d="M-15.81312,68.49252 C-16.05072,68.49252 -16.19952,68.47452 -16.28832,68.45772 C-15.11592,66.64092 3.63528,58.29972 30.36528,48.67572 C53.49048,40.35132 73.62048,34.30812 78.22968,34.30812 C78.46728,34.30812 78.61608,34.32612 78.70608,34.34412 C77.53128,36.16092 58.78008,44.50092 32.05128,54.12492 C8.92608,62.44932 -11.20392,68.49252 -15.81312,68.49252" id="Fill-39" fill="#0B000E" mask="url(#mask-30)"></path>
                            </g>
                            <g>
                                <mask id="mask-32" fill="white">
                                    <use xlink:href="#path-31"></use>
                                </mask>
                                <g id="Clip-42"></g>
                                <path d="M78.231,33.8274 C73.6554,33.8274 53.7282,39.7542 30.2034,48.2238 C3.6966,57.7674 -17.3442,66.927 -16.7898,68.6802 C-16.7274,68.8782 -16.395,68.9742 -15.813,68.9742 C-11.2374,68.9742 8.6898,63.0462 32.2134,54.5778 C58.7214,45.033 79.761,35.8746 79.2054,34.1202 C79.1442,33.9234 78.8106,33.8274 78.231,33.8274 M77.1162,34.8714 C72.705,37.6434 56.805,44.7018 31.8882,53.6718 C10.7022,61.3002 -8.5698,67.1778 -14.6994,67.9302 C-10.2894,65.1582 5.6106,58.101 30.5298,49.1286 C51.711,41.5026 70.9818,35.6262 77.1162,34.8714" id="Fill-41" fill="#b9aaff" mask="url(#mask-32)"></path>
                            </g>
                        </g>
                        <g>
                            <mask id="mask-34" fill="white">
                                <use xlink:href="#path-33"></use>
                            </mask>
                            <g id="Clip-44"></g>
                            <polygon id="Fill-43" fill="#322E45" mask="url(#mask-34)" points="109.53888 4.1484 56.22648 43.14 5.65008 60.7752"></polygon>
                        </g>
                        <g>
                            <mask id="mask-36" fill="white">
                                <use xlink:href="#path-35"></use>
                            </mask>
                            <g id="Clip-46"></g>
                            <path d="M115.67712,0.25488 L0.26592,63.16248 L56.45232,43.57128 L115.67712,0.25488 Z M103.40112,8.04168 L56.00112,42.70968 L11.03232,58.39008 L103.40112,8.04168 Z" id="Fill-45" fill="#b9aaff" mask="url(#mask-36)"></path>
                        </g>
                        <g>
                            <mask id="mask-38" fill="white">
                                <use xlink:href="#path-37"></use>
                            </mask>
                            <g id="Clip-48"></g>
                            <polygon id="Fill-47" fill="#322E45" mask="url(#mask-38)" points="68.66388 48.56364 114.08748 2.54964 79.07508 78.35964"></polygon>
                        </g>
                        <g>
                            <mask id="mask-40" fill="white">
                                <use xlink:href="#path-39"></use>
                            </mask>
                            <g id="Clip-50"></g>
                            <path d="M115.67712,0.25488 L68.11032,48.43968 L79.01232,79.64088 L115.67712,0.25488 Z M112.49832,4.84488 L79.13712,77.07888 L69.21672,48.68808 L112.49832,4.84488 Z" id="Fill-49" fill="#b9aaff" mask="url(#mask-40)"></path>
                        </g>
                        <g>
                            <mask id="mask-42" fill="white">
                                <use xlink:href="#path-41"></use>
                            </mask>
                            <g id="Clip-52"></g>
                            <polygon id="Fill-51" fill="#0B000E" mask="url(#mask-42)" points="57.10908 43.68696 111.13068 4.17696 63.17028 52.76016"></polygon>
                        </g>
                        <g>
                            <mask id="mask-44" fill="white">
                                <use xlink:href="#path-43"></use>
                            </mask>
                            <g id="Clip-54"></g>
                            <path d="M115.67712,0.25488 L56.45232,43.57128 L63.09792,53.51808 L115.67712,0.25488 Z M106.58232,8.09808 L63.24192,52.00248 L57.76512,43.80408 L106.58232,8.09808 Z" id="Fill-53" fill="#b9aaff" mask="url(#mask-44)"></path>
                        </g>
                        <g>
                            <mask id="mask-46" fill="white">
                                <use xlink:href="#path-45"></use>
                            </mask>
                            <g id="Clip-56"></g>
                            <path d="M58.87512,72.87828 L43.53312,89.69388 L28.96152,63.68988 L28.93992,63.65028 L0.71232,63.09108 L56.42112,43.66668 L63.03192,53.56188 L63.16392,53.47308 L56.56152,43.58988 L115.47552,0.50148 L79.02312,79.42788 L68.18592,48.41388 L68.03472,48.46548 L78.88392,79.51308 L58.92432,72.89508 L58.87512,72.87828 Z M56.41512,43.49988 L1.15992,62.76588 L114.65712,0.90228 L56.41512,43.49988 Z M0.22872,63.09228 L-0.03648,63.23628 L28.84512,63.80748 L43.50072,89.96508 L58.92312,73.06308 L78.98832,79.71588 L79.05552,79.73868 L115.75032,0.28788 L115.85112,0.06948 L0.22872,63.09228 Z" id="Fill-55" fill="#0B000E" mask="url(#mask-46)"></path>
                        </g>
                        <g>
                            <mask id="mask-48" fill="white">
                                <use xlink:href="#path-47"></use>
                            </mask>
                            <g id="Clip-58"></g>
                            <path d="M1.16028,62.76564 L114.65748,0.90204 L56.41548,43.49964 L1.16028,62.76564 Z M115.47588,0.50124 L79.02348,79.42764 L68.18628,48.41364 L68.03508,48.46524 L78.88428,79.51404 L58.92468,72.89484 L58.87548,72.87804 L43.53348,89.69364 L28.96188,63.68964 L28.93908,63.65004 L0.71268,63.09084 L56.42148,43.66644 L63.03228,53.56164 L63.16428,53.47284 L56.56188,43.59084 L115.47588,0.50124 Z M115.85148,0.06924 L0.22908,63.09204 L-0.03612,63.23604 L28.84428,63.80844 L43.50108,89.96604 L58.92348,73.06284 L78.98748,79.71564 L79.05588,79.73844 L115.74948,0.28884 L115.85148,0.06924 Z" id="Fill-57" fill="#b9aaff" mask="url(#mask-48)"></path>
                        </g>
                    </g>
                    <g transform="translate(0.000000, 8.811600)">
                        <path d="M13.24356,42.70548 C12.43596,42.70548 11.77956,42.04908 11.77956,41.24148 C11.77956,40.43388 12.43596,39.77868 13.24356,39.77868 C14.05116,39.77868 14.70876,40.43388 14.70876,41.24148 C14.70876,42.04908 14.05116,42.70548 13.24356,42.70548" id="Fill-59" fill="#0B000E"></path>
                        <path d="M13.24356,39.25728 C12.14796,39.25728 11.25996,40.14528 11.25996,41.24208 C11.25996,42.33768 12.14796,43.22688 13.24356,43.22688 C14.34036,43.22688 15.22836,42.33768 15.22836,41.24208 C15.22836,40.14528 14.34036,39.25728 13.24356,39.25728 M13.24356,40.29888 C13.76436,40.29888 14.18676,40.72128 14.18676,41.24208 C14.18676,41.76168 13.76436,42.18528 13.24356,42.18528 C12.72396,42.18528 12.30036,41.76168 12.30036,41.24208 C12.30036,40.72128 12.72396,40.29888 13.24356,40.29888" id="Fill-61" fill="#b9aaff"></path>
                        <path d="M43.47324,3.83904 C42.82644,3.83904 42.29844,3.31344 42.29844,2.66544 C42.29844,2.01864 42.82644,1.49184 43.47324,1.49184 C44.12004,1.49184 44.64804,2.01864 44.64804,2.66544 C44.64804,3.31344 44.12004,3.83904 43.47324,3.83904" id="Fill-63" fill="#0B000E"></path>
                        <path d="M43.47324,0.97152 C42.53844,0.97152 41.78004,1.72992 41.78004,2.66592 C41.78004,3.60072 42.53844,4.36032 43.47324,4.36032 C44.40804,4.36032 45.16764,3.60072 45.16764,2.66592 C45.16764,1.72992 44.40804,0.97152 43.47324,0.97152 M43.47324,2.01312 C43.83324,2.01312 44.12604,2.30592 44.12604,2.66592 C44.12604,3.02592 43.83324,3.31872 43.47324,3.31872 C43.11324,3.31872 42.82044,3.02592 42.82044,2.66592 C42.82044,2.30592 43.11324,2.01312 43.47324,2.01312" id="Fill-65" fill="#b9aaff"></path>
                        <path d="M18.1806,81.48744 C17.9202,81.48744 17.7078,81.27624 17.7078,81.01584 C17.7078,80.75664 17.9202,80.54424 18.1806,80.54424 C18.441,80.54424 18.6534,80.75664 18.6534,81.01584 C18.6534,81.27624 18.441,81.48744 18.1806,81.48744" id="Fill-67" fill="#0B000E"></path>
                        <path d="M18.1806,80.0238 C17.6322,80.0238 17.1882,80.4678 17.1882,81.0162 C17.1882,81.5646 17.6322,82.0086 18.1806,82.0086 C18.729,82.0086 19.173,81.5646 19.173,81.0162 C19.173,80.4678 18.729,80.0238 18.1806,80.0238" id="Fill-69" fill="#b9aaff"></path>
                        <path d="M113.32752,39.32988 C113.06832,39.32988 112.85592,39.11868 112.85592,38.85828 C112.85592,38.59908 113.06832,38.38668 113.32752,38.38668 C113.58792,38.38668 113.80032,38.59908 113.80032,38.85828 C113.80032,39.11868 113.58792,39.32988 113.32752,39.32988" id="Fill-71" fill="#0B000E"></path>
                        <path d="M113.32752,37.86624 C112.78032,37.86624 112.33632,38.31024 112.33632,38.85864 C112.33632,39.40704 112.78032,39.85104 113.32752,39.85104 C113.87592,39.85104 114.31992,39.40704 114.31992,38.85864 C114.31992,38.31024 113.87592,37.86624 113.32752,37.86624" id="Fill-73" fill="#b9aaff"></path>
                        <path d="M81.47592,68.03088 C81.21672,68.03088 81.00432,67.81968 81.00432,67.55928 C81.00432,67.30008 81.21672,67.08768 81.47592,67.08768 C81.73632,67.08768 81.94872,67.30008 81.94872,67.55928 C81.94872,67.81968 81.73632,68.03088 81.47592,68.03088" id="Fill-75" fill="#0B000E"></path>
                        <path d="M81.47592,66.56724 C80.92872,66.56724 80.48472,67.01124 80.48472,67.55964 C80.48472,68.10804 80.92872,68.55204 81.47592,68.55204 C82.02432,68.55204 82.46832,68.10804 82.46832,67.55964 C82.46832,67.01124 82.02432,66.56724 81.47592,66.56724" id="Fill-77" fill="#b9aaff"></path>
                        <g transform="translate(91.200000, 48.000000)">
                            <path d="M33.76308,0.66504 L33.77028,0.67584 C33.90348,0.90864 33.82428,1.20504 33.59148,1.33944 L0.80028,20.27184 C0.56748,20.40624 0.27108,20.32584 0.13668,20.09304 L0.13068,20.08344 C-0.00492,19.85064 0.07548,19.55304 0.30828,19.41864 L33.09828,0.48744 C33.33228,0.35184 33.62988,0.43224 33.76308,0.66504" id="Fill-79" fill="#0B000E"></path>
                            <path d="M33.34116,0.42132 C33.25956,0.42132 33.17556,0.44292 33.09876,0.48732 L0.30876,19.41852 C0.07476,19.55292 -0.00444,19.85052 0.12996,20.08332 L0.13596,20.09412 C0.22596,20.24892 0.38916,20.33652 0.55836,20.33652 C0.63996,20.33652 0.72396,20.31612 0.80076,20.27172 L33.59196,1.34052 C33.82356,1.20492 33.90396,0.90852 33.76956,0.67572 L33.76356,0.66492 C33.67236,0.50892 33.51036,0.42132 33.34116,0.42132" id="Fill-81" fill="#b9aaff"></path>
                        </g>
                        <g transform="translate(0.000000, 53.800000)">
                            <path d="M34.00212,0.3524 L34.00812,0.3632 C34.14252,0.596 34.06332,0.8936 33.82932,1.0268 L1.03932,19.9592 C0.80652,20.0936 0.50892,20.0144 0.37572,19.7816 L0.36852,19.7708 C0.23412,19.538 0.31452,19.2404 0.54612,19.106 L33.33732,0.1748 C33.57012,0.0404 33.86772,0.1196 34.00212,0.3524" id="Fill-83" fill="#0B000E"></path>
                            <path d="M33.5802,0.10916 C33.4986,0.10916 33.4134,0.13076 33.3378,0.17396 L0.5466,19.10636 C0.3138,19.24076 0.2346,19.53836 0.3678,19.77116 L0.375,19.78196 C0.4638,19.93676 0.6282,20.02436 0.7974,20.02436 C0.879,20.02436 0.9618,20.00396 1.0398,19.95956 L33.8298,1.02716 C34.0626,0.89276 34.143,0.59516 34.0074,0.36236 L34.0026,0.35276 C33.9114,0.19676 33.7494,0.10916 33.5802,0.10916" id="Fill-85" fill="#b9aaff"></path>
                        </g>
                        <g transform="translate(10.800000, 10.800000)">
                            <path d="M33.77592,0.52212 L33.78192,0.53172 C33.91632,0.76572 33.83712,1.06212 33.60312,1.19652 L0.81312,20.12892 C0.58032,20.26332 0.28272,20.18292 0.14952,19.95012 L0.14352,19.94052 C0.00792,19.70772 0.08832,19.41012 0.32112,19.27572 L33.11112,0.34452 C33.34512,0.20892 33.64272,0.28932 33.77592,0.52212" id="Fill-87" fill="#0B000E"></path>
                            <path d="M33.354,0.27828 C33.2724,0.27828 33.1872,0.29988 33.1116,0.34428 L0.3216,19.27548 C0.0876,19.40988 0.0084,19.70748 0.1428,19.94028 L0.1488,19.95108 C0.2388,20.10588 0.402,20.19348 0.5712,20.19348 C0.6528,20.19348 0.7368,20.17308 0.8136,20.12868 L33.6036,1.19748 C33.8364,1.06188 33.9168,0.76548 33.7812,0.53268 L33.7764,0.52188 C33.6852,0.36588 33.5232,0.27828 33.354,0.27828" id="Fill-89" fill="#b9aaff"></path>
                        </g>
                    </g>
                </g>
            </g>
        </g>
    </g>
</svg>