<?xml version="1.0" encoding="UTF-8"?>
<svg width="103px" height="138px" viewBox="0 0 103 138" version="1.1" xmlns="http://www.w3.org/2000/svg" xmlns:xlink="http://www.w3.org/1999/xlink">
    <!-- Generator: Sketch 60 (88103) - https://sketch.com -->
    <title>BNB</title>
    <desc>Created with Sketch.</desc>
    <defs>
        <polygon id="path-1" points="-3.80140364e-13 0 107 0 107 141 -3.80140364e-13 141"></polygon>
    </defs>
    <g id="页面-1" stroke="none" stroke-width="1" fill="none" fill-rule="evenodd">
        <g id="BNB" transform="translate(-4.000000, -2.000000)">
            <mask id="mask-2" fill="white">
                <use xlink:href="#path-1"></use>
            </mask>
            <g id="蒙版"></g>
            <g id="编组" mask="url(#mask-2)" stroke="#B0A2F3" stroke-width="1.5">
                <g transform="translate(5.000000, 3.000000)">
                    <path d="M32.346664,59.641568 C33.841144,59.549648 35.031784,59.540288 36.203464,59.385808 C37.305464,59.240368 38.396264,58.976688 39.475464,58.700448 C40.483944,58.442288 41.045224,57.730288 41.282184,56.720048 C41.635224,55.214928 41.316904,53.840208 40.527944,52.553888 C39.623064,51.078608 38.328584,49.999328 36.896264,49.070848 C35.943864,48.453488 34.887944,48.160768 33.758744,48.149568 C30.798664,48.119968 27.674344,50.195648 26.517144,52.976368 C25.637784,55.089488 25.988824,57.007728 27.490984,58.729328 C27.750584,59.026768 28.052264,59.218848 28.440264,59.257968 C29.841944,59.399648 31.244424,59.533808 32.346664,59.641568 Z M89.449944,59.588768 C90.031624,59.551408 91.177624,59.512368 92.314584,59.389808 C92.842664,59.332848 93.495144,59.266688 93.846824,58.940848 C95.209464,57.678448 95.853624,56.067888 95.444264,54.211968 C94.800584,51.293888 92.841144,49.524608 90.123544,48.537568 C88.437464,47.925168 86.732984,47.964528 85.131944,48.831008 C83.677144,49.618448 82.426024,50.675488 81.432904,52.011488 C80.737464,52.947008 80.232184,53.981008 80.193464,55.161088 C80.120664,57.383328 80.735224,58.376688 82.595384,58.872768 C82.672504,58.893248 82.748184,58.919328 82.825304,58.939488 C84.813304,59.458528 86.845464,59.557408 89.449944,59.588768 Z M99.622184,67.774288 C99.576664,67.005568 99.604024,66.314848 99.478904,65.653008 C99.327384,64.851008 99.054904,64.071088 98.817784,63.286688 C98.743304,63.040368 98.566424,62.892128 98.277544,62.914928 C97.629784,62.966208 96.969224,62.943408 96.335384,63.064048 C94.625704,63.389328 93.037304,64.077088 91.480264,64.832368 C87.592504,66.718048 83.925624,68.985408 80.357064,71.406528 C79.297304,72.125488 78.345864,73.028288 77.437064,73.938928 C76.526744,74.851008 75.859864,75.946048 75.637544,77.257488 C75.551384,77.765648 75.617704,78.006208 76.095624,78.169248 C76.629624,78.351328 77.198824,78.494288 77.759464,78.523328 C80.160184,78.647728 82.511624,78.249648 84.842424,77.731728 C88.463704,76.927088 91.970264,75.792368 95.233464,73.990928 C96.722584,73.168848 98.114504,72.215648 99.210824,70.888928 C99.306824,70.772768 99.400824,70.619408 99.413864,70.475888 C99.498184,69.547808 99.559624,68.617728 99.622184,67.774288 Z M23.514504,67.821728 C23.541304,68.408128 23.609864,68.956208 23.581944,69.499408 C23.527384,70.562128 24.034904,71.295328 24.805624,71.952048 C26.176424,73.119808 27.703224,74.026208 29.323864,74.785888 C32.776344,76.404368 36.409784,77.445328 40.151464,78.122128 C41.856184,78.430368 43.575864,78.669088 45.313624,78.598448 C45.970184,78.571728 46.634904,78.445728 47.269304,78.269328 C47.805544,78.120208 47.970264,77.829248 47.806264,77.303248 C47.587304,76.600528 47.326824,75.890688 46.955144,75.259888 C46.271304,74.098768 45.315784,73.140448 44.214904,72.383248 C42.374344,71.117088 40.498264,69.897728 38.590024,68.735968 C35.715464,66.985728 32.784904,65.330608 29.637784,64.103408 C28.284184,63.575648 26.906824,63.121808 25.432424,63.095008 C24.440984,63.076928 24.406904,63.107488 24.049624,64.045968 C23.580904,65.277088 23.551224,66.569888 23.514504,67.821728 Z M95.821864,30.935408 C96.902584,31.896928 98.005064,32.835328 99.057144,33.827328 C99.869544,34.593488 100.629944,35.416368 101.392904,36.233168 C102.163304,37.057888 102.963224,37.863568 103.653224,38.752848 C105.189384,40.732448 106.670184,42.755248 108.161544,44.769328 C108.519944,45.253488 108.831624,45.772368 109.196104,46.322688 C109.260184,46.151808 109.306024,46.044848 109.340824,45.934448 C110.344104,42.741648 111.403224,39.565008 112.329064,36.349968 C112.977464,34.098768 113.504424,31.807488 113.972744,29.511088 C114.379224,27.518208 114.664824,25.497968 114.932104,23.480288 C115.107464,22.156448 115.195224,20.817328 115.247304,19.482128 C115.286504,18.474848 115.239304,17.460768 115.169464,16.453968 C115.117464,15.704608 114.967464,14.961968 114.861144,14.216368 C114.808584,13.850368 114.777064,13.479968 114.699944,13.119248 C114.415384,11.787008 113.955464,10.515728 113.325784,9.307168 C113.251624,9.164848 113.220504,8.971888 112.955544,9.084848 C111.672664,9.631728 110.340824,10.080928 109.106024,10.719008 C107.491464,11.553408 105.921624,12.485488 104.389144,13.464368 C103.139304,14.262688 101.943864,15.154608 100.776664,16.071728 C99.390744,17.160688 98.052184,18.310928 96.710504,19.454848 C96.033624,20.031968 95.384184,20.642608 94.741304,21.257888 C93.212344,22.721008 91.679144,24.180208 90.179944,25.673488 C89.534904,26.316048 89.571224,26.352528 90.334024,26.851088 C90.345144,26.858288 90.354744,26.867888 90.365384,26.875888 C92.184264,28.229088 94.003064,29.582288 95.821864,30.935408 Z M25.341144,30.936448 C25.548104,30.771328 25.748904,30.597648 25.963064,30.442448 C27.723144,29.167328 29.485624,27.895568 31.247624,26.623088 C31.362424,26.540128 31.478904,26.459328 31.613544,26.364128 C31.537864,26.256608 31.496264,26.173088 31.433224,26.111728 C29.592904,24.320688 27.767624,22.513568 25.901784,20.749408 C24.794264,19.702128 23.662184,18.672688 22.469944,17.724768 C20.645064,16.274048 18.790424,14.855968 16.889304,13.507168 C15.077064,12.221488 13.123864,11.154768 11.103304,10.226768 C10.224104,9.822928 9.304984,9.505968 8.405464,9.145728 C8.131464,9.035968 7.951304,9.105168 7.833064,9.382928 C7.677144,9.749728 7.489544,10.103248 7.337064,10.471408 C6.837944,11.676688 6.476424,12.921248 6.301704,14.216768 C6.194984,15.162928 6.005304,16.108608 5.999624,17.055328 C5.989144,18.794768 6.042584,20.537728 6.154424,22.273648 C6.238424,23.577968 6.430984,24.877168 6.618344,26.172368 C7.022504,28.967168 7.657784,31.713408 8.358344,34.448208 C9.311704,38.169248 10.477064,41.823728 11.690904,45.464688 C11.780264,45.732848 11.897144,45.991808 12.024984,46.315248 C12.207464,46.026848 12.338104,45.797488 12.490184,45.583408 C13.666024,43.928368 14.785144,42.228288 16.041464,40.636448 C17.355064,38.971728 18.782904,37.395088 20.198344,35.813568 C20.923784,35.003008 21.713544,34.247328 22.505944,33.500448 C23.432984,32.626608 24.394504,31.789488 25.341144,30.936448 Z M3.529784,34.509808 C3.533944,34.314688 3.567944,34.114768 3.537624,33.925248 C3.178264,31.676208 2.749944,29.436368 2.458904,27.178768 C2.147224,24.761168 1.880344,22.331888 1.744504,19.899248 C1.599944,17.311408 1.549304,14.711808 1.611704,12.121008 C1.666104,9.858768 1.886904,7.591968 2.480264,5.392208 C2.886584,3.885808 3.389224,2.403408 4.383624,1.161328 C4.694904,0.772608 5.075304,0.418768 5.485384,0.138608 C5.681144,0.004848 6.026504,0.034288 6.293144,0.070288 C7.261304,0.201168 8.246824,0.283728 9.185624,0.534688 C11.362584,1.116608 13.369144,2.110368 15.280824,3.294368 C17.352744,4.577648 19.310824,6.018928 21.140584,7.627808 C22.564584,8.879968 23.957864,10.167168 25.361384,11.442608 C25.960424,11.987088 26.550824,12.541168 27.145144,13.090768 C28.418104,14.399568 29.692744,15.706448 30.962424,17.018288 C31.471864,17.544688 31.975784,18.076688 32.472664,18.614928 C34.251704,20.542048 36.028744,22.470928 37.799624,24.405568 C37.964104,24.585248 38.097624,24.585328 38.317544,24.507168 C39.521144,24.079328 40.728264,23.660288 41.943064,23.265248 C47.291304,21.526288 52.803224,20.784608 58.403224,20.638768 C61.772264,20.551008 65.145544,20.531408 68.499704,20.938528 C70.505464,21.182048 72.510824,21.452688 74.500024,21.803488 C77.902184,22.403568 81.217624,23.349488 84.468664,24.515328 C84.743784,24.614048 84.876904,24.537168 85.029064,24.335088 C85.493144,23.719088 85.964584,23.108528 86.440504,22.501568 C88.551624,19.809088 90.752824,17.193808 93.119304,14.720288 C93.735784,14.075888 94.348264,13.427488 94.962504,12.780848 C95.284264,12.505008 95.621784,12.245568 95.925144,11.950848 C98.200584,9.740048 100.628104,7.718928 103.238024,5.909088 C106.354584,3.747968 109.681864,2.023008 113.343064,1.018928 C114.688024,0.650048 116.099864,0.525328 117.481224,0.289088 C117.700504,0.251488 117.829064,0.330368 117.964824,0.525968 C119.004184,2.024048 119.634344,3.697568 120.148504,5.429648 C120.730664,7.390208 120.950504,9.402848 121.030904,11.431808 C121.091944,12.974048 121.144984,14.522208 121.080824,16.062688 C120.959304,18.978608 120.682104,21.885168 120.161224,24.759648 C119.655704,27.548448 119.096184,30.327568 118.566104,33.112048 C118.529384,33.304848 118.540344,33.506768 118.529224,33.704608 C118.474504,33.837488 118.401784,33.965648 118.367544,34.103408 C118.052984,35.368048 117.773944,36.642288 117.429624,37.898608 C116.540264,41.144368 115.646984,44.389488 114.707944,47.621088 C114.114264,49.664208 113.429864,51.680848 112.803624,53.714768 C112.743944,53.908608 112.738264,54.176528 112.826344,54.349568 C113.682184,56.029728 114.594984,57.681408 115.430424,59.371488 C116.864824,62.273248 118.022504,65.288768 118.976824,68.380928 C119.774024,70.964208 120.461464,73.579968 120.854344,76.254848 C121.242424,78.897168 121.528984,81.555088 121.821944,84.210288 C121.945784,85.332608 121.978584,86.465248 122.039464,87.593808 C122.067704,88.117968 122.063944,88.643728 122.074664,89.168848 C118.741544,88.589808 115.388744,88.338288 112.004984,88.521408 C108.157144,88.729568 104.431864,89.493968 100.843624,90.906368 C95.811544,92.887008 91.514504,95.952208 87.749544,99.798528 C87.652424,99.897728 87.613864,100.054288 87.547944,100.184128 L87.391624,100.057328 C87.352264,99.947328 87.313144,99.837328 87.273704,99.727328 C86.869864,98.599968 86.499864,97.459088 86.055944,96.347648 C84.535544,92.541328 82.548344,89.005728 79.663544,86.058928 C73.798824,80.068288 66.569464,77.853648 58.360984,78.698608 C52.596584,79.291888 47.708504,81.836368 43.617704,85.919728 C40.476984,89.054768 38.142904,92.747248 36.232424,96.724128 C35.704264,97.823488 35.223464,98.945648 34.721144,100.056928 C34.687704,100.048848 34.655304,100.050768 34.639384,100.035568 C34.553064,99.952688 34.469304,99.866928 34.387384,99.779648 C32.538824,97.811328 30.541864,96.011968 28.337944,94.446288 C23.065304,90.700528 17.195944,88.666288 10.744104,88.282368 C8.636264,88.156928 6.531224,88.181088 4.434184,88.398928 C2.979144,88.549968 1.534344,88.799808 0.084984,89.005488 C0.099544,88.594288 0.094744,88.181328 0.131944,87.772288 C0.338584,85.507248 0.486504,83.234128 0.782344,80.980608 C1.511144,75.430688 2.928584,70.047648 4.822024,64.781648 C6.076024,61.293888 7.539064,57.900208 9.205464,54.592848 C9.372584,54.261088 9.373144,53.997008 9.233144,53.663328 C7.799944,50.247568 6.616424,46.742848 5.675704,43.163008 C4.951864,40.408928 4.344584,37.624368 3.681224,34.854288 C3.652424,34.734288 3.581224,34.624448 3.529784,34.509808 Z" id="Stroke-1" fill-opacity="0.1" fill="#FFFFFF" fill-rule="evenodd"></path>
                    <path d="M68.189632,113.603288 L56.545472,113.603288 C56.545472,113.960888 56.536192,114.305368 56.552032,114.648728 C56.556032,114.735528 56.618752,114.852008 56.690832,114.898248 C57.365552,115.330488 58.101392,115.612008 58.895712,115.784408 C58.949712,115.662728 58.991152,115.566568 59.034752,115.471448 C59.416352,114.638488 59.416272,114.647768 60.321312,114.672808 C60.559232,114.679448 60.704752,114.748648 60.830752,114.956088 C61.161792,115.501128 61.517952,116.030888 61.864752,116.566168 C62.224032,117.120648 63.045792,117.179768 63.494912,116.680088 C64.071312,116.038728 64.643552,115.393848 65.230432,114.736008 C65.696672,115.112408 66.140432,115.470648 66.606432,115.846808 C67.076352,115.569128 67.547952,115.299288 68.007792,115.010968 C68.092592,114.957768 68.175872,114.831928 68.181472,114.735128 C68.202032,114.378888 68.189632,114.020808 68.189632,113.603288 Z M64.718592,102.815768 C65.892032,102.420168 66.974432,101.889768 67.967072,101.182968 C70.352032,99.484968 71.735872,97.250248 71.701872,94.245448 C71.691392,93.326008 71.724032,92.406088 71.732592,91.486328 C71.748752,89.765768 69.913952,87.894328 68.181472,87.890088 C64.488352,87.881048 60.795072,87.880408 57.101952,87.890248 C55.154672,87.895448 53.738752,89.343848 53.738432,91.296888 C53.738192,92.403528 53.727632,93.510328 53.744512,94.616648 C53.750112,94.986328 53.794032,95.362248 53.875632,95.722808 C54.230112,97.287288 55.189152,98.465128 56.363312,99.487688 C57.832672,100.767288 59.523152,101.687048 61.303472,102.451848 C62.201872,102.837848 62.203472,102.834168 62.203472,103.830168 L62.203472,107.497288 C62.041712,107.497288 61.909792,107.514488 61.783952,107.494008 C61.419392,107.434728 61.208352,107.587048 61.032912,107.907768 C60.758832,108.408488 60.420592,108.873848 60.132032,109.367368 C59.988912,109.612088 59.823232,109.710328 59.529792,109.703208 C57.384432,109.651128 55.238512,109.604328 53.092672,109.589528 C52.669712,109.586568 52.400192,109.525368 52.388912,109.050088 C52.388352,109.029128 52.358192,109.008888 52.322912,108.964408 L46.902352,108.964408 C46.790032,109.302088 46.906912,109.515928 47.154832,109.712248 C47.467632,109.959928 47.769312,110.228728 48.036352,110.524088 C48.182032,110.685208 48.299952,110.910568 48.337712,111.123368 C48.496672,112.019608 48.620672,112.922088 48.758592,113.829848 C49.291952,113.783368 49.725072,113.745608 50.168912,113.706968 C50.604672,115.636168 51.150032,117.479048 52.306592,119.118248 C52.469312,118.866408 52.582592,118.652328 52.732272,118.467848 C53.025232,118.106808 53.114672,117.712248 53.086192,117.248088 C53.035792,116.423688 53.031472,115.596088 53.024592,114.769688 C53.015392,113.679288 53.022272,112.588648 53.022272,111.463528 C59.721472,112.651288 66.450832,112.582648 73.210672,111.408328 C73.210672,111.529128 73.210992,111.605848 73.210592,111.682568 C73.199872,113.548968 73.187712,115.415368 73.181312,117.281768 C73.180912,117.422888 73.183952,117.585688 73.249952,117.701608 C73.516832,118.169608 73.808992,118.623288 74.118672,119.125848 C74.842112,117.329928 75.545472,115.583608 76.254432,113.823688 L77.642752,113.823688 C78.064672,112.195368 78.482752,110.581768 78.909792,108.933688 C77.353952,108.933688 75.848272,108.947048 74.343312,108.924168 C73.968672,108.918408 73.703712,108.986808 73.558992,109.354328 C73.446912,109.638968 73.235632,109.705688 72.927072,109.699208 C71.434432,109.667848 69.941072,109.669208 68.447952,109.656488 C67.969152,109.652328 67.407232,109.792568 67.035152,109.589048 C66.665072,109.386648 66.471712,108.843848 66.226272,108.434968 C65.884672,107.866248 65.575312,107.269368 64.718592,107.574328 L64.718592,102.815768 Z M27.588272,123.837128 C24.484512,121.944968 21.481632,119.906888 18.619552,117.662728 C14.795872,114.664648 11.205472,111.418008 8.058752,107.705448 C5.233792,104.372408 2.809632,100.785688 1.283072,96.654568 C0.371232,94.186888 -0.115968,91.649368 0.084752,89.005608 C1.534352,88.799768 2.979152,88.550008 4.434192,88.398888 C6.531232,88.181128 8.636272,88.156968 10.744112,88.282328 C17.195952,88.666248 23.065312,90.700568 28.337952,94.446248 C30.541872,96.011928 32.538832,97.811368 34.387392,99.779608 C34.469312,99.866968 34.553072,99.952648 34.639392,100.035528 C34.655312,100.050808 34.687712,100.048808 34.721152,100.056968 C35.223472,98.945608 35.704272,97.823528 36.232432,96.724168 C38.142912,92.747288 40.476992,89.054808 43.617712,85.919688 C47.708512,81.836328 52.596592,79.291848 58.360992,78.698568 C66.569472,77.853688 73.798832,80.068328 79.663552,86.058888 C82.548272,89.005688 84.535552,92.541368 86.055952,96.347688 C86.499872,97.459048 86.869872,98.600008 87.273712,99.727368 C87.313152,99.837368 87.352272,99.947368 87.391552,100.057368 L87.547952,100.184168 C87.613872,100.054328 87.652432,99.897768 87.749552,99.798488 C91.514512,95.952168 95.811472,92.887048 100.843632,90.906328 C104.431872,89.494008 108.157152,88.729528 112.004912,88.521448 C115.388752,88.338328 118.741472,88.589768 122.074672,89.168808 C122.066592,92.519368 121.241232,95.695528 120.025312,98.789288 C119.113072,101.110808 117.806192,103.211208 116.462512,105.299608 C112.389232,111.630408 106.915312,116.559928 100.848192,120.873448 C93.412592,126.159688 85.320192,130.144328 76.587152,132.809768 C73.656752,133.704168 70.679792,134.403368 67.647952,134.842888 C64.823792,135.252248 61.984192,135.464088 59.128352,135.253208 C55.704272,135.000408 52.348352,134.364248 49.048592,133.423288 C49.005232,133.410888 48.969232,133.372568 48.929792,133.346328 C49.040112,133.345128 49.155072,133.323048 49.260112,133.346168 C50.492592,133.617848 51.719952,133.914008 52.956272,134.166488 C53.732752,134.324968 54.522032,134.420728 55.305552,134.544648 C53.532912,134.193688 51.763312,133.842568 50.005872,133.438408 C48.867472,133.176648 47.746832,132.837368 46.618192,132.532728 L46.625712,132.538008 C46.542992,132.509688 46.460272,132.481448 46.377472,132.453128 L46.386032,132.457848 C46.116192,132.376408 45.846272,132.295048 45.576432,132.213688 L45.585792,132.218968 L45.336432,132.133688 L45.345792,132.138888 C45.262672,132.110568 45.179552,132.082088 45.096432,132.053688 L45.105872,132.058968 C44.942752,132.003848 44.779712,131.948648 44.616592,131.893528 L44.624592,131.899688 C44.387872,131.798808 44.155472,131.685528 43.913632,131.599048 C40.236512,130.284328 36.674192,128.706568 33.197872,126.930888 C33.088992,126.875208 32.962912,126.853608 32.844752,126.816168 C32.827792,126.814808 32.811552,126.810248 32.796352,126.802648 C32.466032,126.618648 32.135632,126.434648 31.805152,126.250568 C31.789552,126.248248 31.774032,126.245608 31.758512,126.242648 C31.723312,126.218648 31.687952,126.194648 31.652512,126.170568 C31.634432,126.168888 31.616752,126.165288 31.599552,126.159688 C31.564272,126.136408 31.528832,126.113048 31.493472,126.089608 C31.477552,126.083608 31.461072,126.079848 31.444112,126.078568 C31.271312,125.976888 31.098432,125.875048 30.925552,125.773368 C30.908992,125.770808 30.892912,125.766328 30.877392,125.760008 C30.842672,125.736888 30.807872,125.713768 30.773072,125.690568 C30.755552,125.687208 30.738272,125.682968 30.721232,125.678088 C30.685872,125.654088 30.650512,125.630008 30.614992,125.605928 L30.594112,125.595688 C30.594112,125.595688 30.570752,125.596808 30.570832,125.596888 C30.502432,125.548488 30.434032,125.500168 30.365552,125.451688 C30.350112,125.446648 30.334272,125.442808 30.318192,125.440168 C30.283392,125.416888 30.248512,125.393608 30.213632,125.370328 C30.195712,125.366648 30.178032,125.362168 30.160512,125.357048 C30.125312,125.334328 30.090112,125.311528 30.054832,125.288728 C30.040272,125.279848 30.024432,125.275528 30.007392,125.275928 C29.889152,125.201448 29.771072,125.126808 29.652832,125.052088 C29.634352,125.048168 29.616272,125.042888 29.598512,125.036568 C29.564352,125.014328 29.530032,124.991928 29.495712,124.969528 C29.479632,124.961768 29.462672,124.956648 29.444992,124.954488 C29.410592,124.928168 29.376032,124.901608 29.341472,124.875208 C29.341472,124.875208 29.321952,124.858648 29.322032,124.858728 C29.277552,124.835048 29.232912,124.811368 29.188272,124.787528 C29.188272,124.787528 29.173472,124.769608 29.173552,124.769688 C29.147072,124.757048 29.120592,124.744168 29.094112,124.731368 C29.076912,124.724648 29.059392,124.718808 29.041632,124.714168 C29.007952,124.689608 28.974112,124.664968 28.940192,124.640328 C28.940192,124.640328 28.912272,124.622968 28.912432,124.623128 C28.870672,124.599288 28.828832,124.575368 28.786992,124.551528 C28.786992,124.551528 28.767872,124.531048 28.767952,124.531208 C28.743152,124.519128 28.718192,124.507048 28.693392,124.494888 C28.673952,124.489208 28.655072,124.482248 28.636832,124.473928 C28.603952,124.452008 28.570912,124.430088 28.537952,124.408168 C28.522672,124.397688 28.505872,124.392248 28.487632,124.392008 C28.453552,124.366968 28.419312,124.341608 28.385072,124.316408 C28.385072,124.316408 28.361712,124.294248 28.361872,124.294408 C28.318272,124.272728 28.274752,124.250888 28.231072,124.228968 C28.231072,124.228968 28.211712,124.207368 28.211792,124.207528 C28.186752,124.195288 28.161552,124.183048 28.136352,124.170808 C28.119792,124.161368 28.102112,124.154968 28.083472,124.151608 C28.051312,124.126808 28.018992,124.101848 27.986672,124.076888 C27.986672,124.076888 27.958592,124.053368 27.958752,124.053528 C27.916752,124.032328 27.874592,124.011048 27.832352,123.989688 C27.832352,123.989688 27.810192,123.966568 27.810272,123.966728 C27.786192,123.954488 27.761952,123.942008 27.737712,123.929688 C27.722592,123.918168 27.705472,123.911768 27.686672,123.910648 C27.654032,123.886248 27.621152,123.861688 27.588272,123.837128 Z" id="Stroke-3" fill="none"></path>
                    <path d="M114.86112,14.216368 C114.96744,14.961968 115.11744,15.704608 115.16944,16.453968 C115.23936,17.460768 115.28648,18.474848 115.24728,19.482128 C115.19528,20.817328 115.10744,22.156448 114.93216,23.480288 C114.6648,25.497968 114.37928,27.518208 113.9728,29.511088 C113.5044,31.807488 112.97744,34.098768 112.32912,36.349968 C111.4032,39.565008 110.34408,42.741648 109.3408,45.934448 C109.30608,46.044848 109.26016,46.151808 109.19608,46.322688 C108.8316,45.772368 108.51992,45.253488 108.16152,44.769328 C106.67016,42.755248 105.18944,40.732448 103.6532,38.752848 C102.9632,37.863568 102.16328,37.057888 101.39288,36.233168 C100.62992,35.416368 99.86952,34.593488 99.05712,33.827328 C98.00512,32.835328 96.90264,31.896928 95.82192,30.935408 C95.88568,30.806288 95.94344,30.673728 96.01424,30.548448 C96.78472,29.185488 97.51712,27.798848 98.33928,26.467648 C99.37808,24.785408 100.48112,23.136208 101.83904,21.690208 C102.97304,20.482608 104.12688,19.282848 105.36984,18.191008 C106.74112,16.986448 108.31664,16.061088 110.01192,15.361568 C111.56616,14.720288 113.16608,14.264768 114.86112,14.216368 Z" id="Stroke-5" fill="none"></path>
                    <path d="M25.34112,30.936448 C24.39448,31.789488 23.43296,32.626608 22.506,33.500448 C21.71352,34.247328 20.92376,35.003088 20.1984,35.813568 C18.78288,37.395088 17.35512,38.971728 16.04144,40.636448 C14.7852,42.228288 13.66608,43.928368 12.49016,45.583408 C12.33808,45.797488 12.20744,46.026848 12.02504,46.315248 C11.89712,45.991808 11.78024,45.732848 11.69088,45.464688 C10.47704,41.823728 9.31168,38.169248 8.3584,34.448208 C7.65776,31.713408 7.02256,28.967168 6.61832,26.172368 C6.43096,24.877168 6.23848,23.577968 6.1544,22.273648 C6.04264,20.537728 5.9892,18.794768 5.9996,17.055328 C6.00536,16.108608 6.19504,15.162928 6.30176,14.216768 C6.6444,14.241968 6.98976,14.248288 7.32944,14.295728 C8.87496,14.511568 10.35208,14.955888 11.76416,15.625488 C13.46592,16.432368 15.02568,17.444768 16.43512,18.698928 C17.93728,20.035808 19.35056,21.461888 20.5204,23.093008 C21.72424,24.771568 22.84536,26.512048 23.94488,28.261728 C24.47832,29.110528 24.87984,30.042288 25.34112,30.936448 Z" id="Stroke-7" fill="none"></path>
                    <path d="M23.51448,67.821728 C23.5512,66.569888 23.58088,65.277088 24.0496,64.045968 C24.40688,63.107488 24.44096,63.076928 25.43248,63.095008 C26.9068,63.121808 28.28416,63.575648 29.63776,64.103408 C32.78488,65.330608 35.71552,66.985728 38.59,68.735968 C40.49824,69.897728 42.37432,71.117088 44.21496,72.383248 C45.31584,73.140448 46.27128,74.098768 46.9552,75.259968 C47.3268,75.890688 47.58728,76.600528 47.80624,77.303328 C47.97024,77.829248 47.8056,78.120208 47.26936,78.269328 C46.63488,78.445728 45.97016,78.571728 45.3136,78.598448 C43.57592,78.669088 41.85616,78.430368 40.15144,78.122128 C36.40976,77.445328 32.77632,76.404368 29.32384,74.785888 C27.7032,74.026208 26.1764,73.119808 24.80568,71.952048 C24.03488,71.295328 23.52736,70.562128 23.582,69.499408 C23.60984,68.956208 23.54128,68.408128 23.51448,67.821728 Z" id="Stroke-9" fill="none"></path>
                    <path d="M99.622216,67.774304 C99.559656,68.617744 99.498136,69.547824 99.413896,70.475904 C99.400776,70.619344 99.306856,70.772704 99.210776,70.888944 C98.114456,72.215664 96.722616,73.168864 95.233496,73.990944 C91.970296,75.792384 88.463736,76.927104 84.842456,77.731744 C82.511576,78.249584 80.160216,78.647744 77.759496,78.523344 C77.198856,78.494304 76.629656,78.351344 76.095656,78.169264 C75.617656,78.006144 75.551336,77.765664 75.637496,77.257504 C75.859896,75.945984 76.526776,74.851024 77.437016,73.938944 C78.345896,73.028304 79.297256,72.125504 80.357016,71.406464 C83.925656,68.985424 87.592536,66.718064 91.480296,64.832384 C93.037256,64.077104 94.625736,63.389264 96.335416,63.064064 C96.969256,62.943424 97.629816,62.966144 98.277496,62.914944 C98.566456,62.892144 98.743336,63.040384 98.817736,63.286704 C99.054856,64.071104 99.327336,64.851024 99.478936,65.652944 C99.603976,66.314864 99.576696,67.005584 99.622216,67.774304 Z" id="Stroke-11" fill="none"></path>
                    <path d="M114.86112,14.216368 C113.16608,14.264768 111.56616,14.720288 110.01192,15.361568 C108.31664,16.061088 106.74112,16.986448 105.36984,18.191008 C104.12688,19.282848 102.97304,20.482608 101.83904,21.690208 C100.48112,23.136208 99.37808,24.785408 98.33928,26.467648 C97.51712,27.798848 96.78472,29.185488 96.01424,30.548448 C95.94344,30.673728 95.88568,30.806288 95.82192,30.935408 C94.00304,29.582288 92.18424,28.229088 90.36544,26.875888 C90.35472,26.867888 90.3452,26.858288 90.334,26.851088 C89.5712,26.352528 89.53488,26.316048 90.17992,25.673488 C91.6792,24.180208 93.2124,22.721008 94.74128,21.257888 C95.38416,20.642608 96.0336,20.031968 96.71048,19.454848 C98.05224,18.310928 99.39072,17.160688 100.77664,16.071728 C101.94384,15.154608 103.13936,14.262688 104.3892,13.464368 C105.9216,12.485488 107.49144,11.553408 109.10608,10.719008 C110.3408,10.080928 111.67272,9.631728 112.9556,9.084848 C113.22048,8.971888 113.25168,9.164848 113.32584,9.307168 C113.95552,10.515728 114.41544,11.787008 114.69992,13.119248 C114.77704,13.479968 114.80864,13.850368 114.86112,14.216368 Z" id="Stroke-13" fill="none"></path>
                    <path d="M25.34112,30.936448 C24.87984,30.042288 24.47832,29.110528 23.94488,28.261728 C22.84536,26.512048 21.72424,24.771568 20.5204,23.093008 C19.35056,21.461888 17.93728,20.035808 16.43512,18.698928 C15.02568,17.444768 13.46592,16.432368 11.76416,15.625488 C10.35208,14.955888 8.87496,14.511568 7.32944,14.295728 C6.98976,14.248288 6.6444,14.241968 6.30176,14.216768 C6.4764,12.921248 6.83792,11.676688 7.33704,10.471488 C7.48952,10.103248 7.67712,9.749808 7.83304,9.382928 C7.95128,9.105168 8.13144,9.035968 8.40552,9.145728 C9.30496,9.505968 10.22408,9.822928 11.10328,10.226768 C13.12384,11.154768 15.07704,12.221488 16.88936,13.507168 C18.7904,14.855968 20.64512,16.274048 22.46992,17.724768 C23.66224,18.672688 24.79424,19.702128 25.90184,20.749408 C27.7676,22.513568 29.59288,24.320688 31.4332,26.111728 C31.49624,26.173088 31.53784,26.256608 31.61352,26.364128 C31.47896,26.459328 31.36248,26.540128 31.2476,26.623088 C29.48568,27.895568 27.72312,29.167328 25.96304,30.442448 C25.74896,30.597648 25.54808,30.771328 25.34112,30.936448 Z" id="Stroke-15" fill="none"></path>
                    <path d="M89.449952,59.58876 C86.845472,59.5574 84.813312,59.45852 82.825312,58.93948 C82.748192,58.91932 82.672512,58.89332 82.595392,58.87276 C80.735232,58.37676 80.120672,57.3834 80.193472,55.16108 C80.232192,53.981 80.737472,52.947 81.432912,52.01148 C82.426032,50.67548 83.677152,49.61844 85.131952,48.831 C86.732992,47.96452 88.437472,47.92524 90.123552,48.53756 C92.841152,49.5246 94.800592,51.29388 95.444272,54.21196 C95.853632,56.06788 95.209472,57.67844 93.846832,58.94084 C93.495152,59.26676 92.842672,59.33284 92.314592,59.3898 C91.177632,59.51236 90.031632,59.5514 89.449952,59.58876 Z" id="Stroke-17" fill="none"></path>
                    <path d="M32.346664,59.641568 C31.244424,59.533808 29.841944,59.399648 28.440264,59.257968 C28.052264,59.218848 27.750584,59.026768 27.490984,58.729328 C25.988824,57.007728 25.637784,55.089488 26.517144,52.976368 C27.674344,50.195648 30.798664,48.119968 33.758744,48.149568 C34.887944,48.160768 35.943864,48.453488 36.896264,49.070848 C38.328584,49.999328 39.623064,51.078608 40.527944,52.553888 C41.316904,53.840208 41.635224,55.214928 41.282184,56.720048 C41.045224,57.730288 40.483944,58.442288 39.475464,58.700448 C38.396264,58.976688 37.305464,59.240368 36.203464,59.385808 C35.031784,59.540288 33.841144,59.549648 32.346664,59.641568 Z" id="Stroke-19" fill="none"></path>
                    <path d="M64.718616,102.815784 L64.718616,107.574264 C65.575336,107.269384 65.884616,107.866264 66.226296,108.434984 C66.471736,108.843864 66.665096,109.386664 67.035176,109.589064 C67.407176,109.792584 67.969176,109.652344 68.447976,109.656504 C69.941016,109.669224 71.434376,109.667784 72.927016,109.699224 C73.235656,109.705704 73.446936,109.638984 73.559016,109.354264 C73.703656,108.986824 73.968696,108.918424 74.343336,108.924104 C75.848296,108.947064 77.353896,108.933704 78.909816,108.933704 C78.482776,110.581784 78.064696,112.195384 77.642776,113.823704 L76.254376,113.823704 C75.545496,115.583624 74.842136,117.329944 74.118696,119.125864 C73.809016,118.623304 73.516856,118.169624 73.249976,117.701544 C73.183896,117.585704 73.180856,117.422904 73.181336,117.281784 C73.187656,115.415384 73.199896,113.548984 73.210536,111.682584 C73.210936,111.605864 73.210616,111.529144 73.210616,111.408344 C66.450776,112.582664 59.721496,112.651224 53.022296,111.463544 C53.022296,112.588664 53.015416,113.679304 53.024536,114.769704 C53.031496,115.596104 53.035816,116.423704 53.086216,117.248024 C53.114616,117.712264 53.025256,118.106824 52.732296,118.467784 C52.582616,118.652344 52.469336,118.866424 52.306616,119.118184 C51.150056,117.479064 50.604616,115.636184 50.168936,113.706984 C49.725096,113.745624 49.291976,113.783384 48.758616,113.829864 C48.620616,112.922104 48.496696,112.019624 48.337656,111.123384 C48.299976,110.910584 48.182056,110.685224 48.036376,110.524104 C47.769336,110.228744 47.467576,109.959944 47.154856,109.712264 C46.906936,109.515944 46.790056,109.302104 46.902376,108.964344 L52.322936,108.964344 C52.358216,109.008904 52.388376,109.029144 52.388936,109.050104 C52.400216,109.525384 52.669736,109.586584 53.092696,109.589544 C55.238536,109.604264 57.384376,109.651064 59.529816,109.703224 C59.823256,109.710344 59.988936,109.612104 60.132056,109.367384 C60.420536,108.873864 60.758856,108.408504 61.032936,107.907704 C61.208376,107.587064 61.419416,107.434664 61.783896,107.494024 C61.909816,107.514424 62.041736,107.497304 62.203496,107.497304 L62.203496,103.830184 C62.203496,102.834104 62.201896,102.837784 61.303496,102.451864 C59.523176,101.687064 57.832696,100.767304 56.363336,99.487624 C55.189176,98.465144 54.230136,97.287304 53.875656,95.722824 C53.793976,95.362264 53.750136,94.986344 53.744456,94.616664 C53.727576,93.510344 53.738216,92.403544 53.738456,91.296904 C53.738776,89.343864 55.154616,87.895464 57.101976,87.890264 C60.795096,87.880424 64.488376,87.880984 68.181496,87.890104 C69.913896,87.894264 71.748776,89.765784 71.732616,91.486344 C71.723976,92.406104 71.691416,93.326024 71.701896,94.245464 C71.735896,97.250264 70.352056,99.484904 67.967016,101.182984 C66.974376,101.889784 65.892056,102.420184 64.718616,102.815784 Z" id="Stroke-71" fill="none"></path>
                    <path d="M68.189632,113.603288 C68.189632,114.020808 68.202032,114.378888 68.181472,114.735128 C68.175872,114.831928 68.092592,114.957768 68.007792,115.010968 C67.547952,115.299288 67.076352,115.569128 66.606432,115.846808 C66.140432,115.470648 65.696672,115.112408 65.230432,114.736008 C64.643552,115.393848 64.071312,116.038728 63.494912,116.680088 C63.045792,117.179768 62.224032,117.120648 61.864752,116.566168 C61.517952,116.030888 61.161792,115.501128 60.830752,114.956088 C60.704752,114.748648 60.559232,114.679448 60.321312,114.672808 C59.416272,114.647768 59.416352,114.638488 59.034752,115.471448 C58.991152,115.566568 58.949712,115.662728 58.895712,115.784408 C58.101392,115.612008 57.365552,115.330488 56.690832,114.898248 C56.618752,114.852008 56.556032,114.735528 56.552032,114.648728 C56.536192,114.305368 56.545472,113.960888 56.545472,113.603288 L68.189632,113.603288 Z" id="Stroke-73" fill="none"></path>
                </g>
            </g>
        </g>
    </g>
</svg>