<?xml version="1.0" encoding="UTF-8"?>
<svg width="107px" height="141px" viewBox="0 0 107 141" version="1.1" xmlns="http://www.w3.org/2000/svg" xmlns:xlink="http://www.w3.org/1999/xlink">
    <!-- Generator: Sketch 60 (88103) - https://sketch.com -->
    <title>形状结合</title>
    <desc>Created with Sketch.</desc>
    <defs>
        <polygon id="path-1" points="-1.03028697e-13 0 107 0 107 141 -1.03028697e-13 141"></polygon>
    </defs>
    <g id="页面-6" stroke="none" stroke-width="1" fill="none" fill-rule="evenodd" opacity="0.5">
        <g id="形状结合">
            <mask id="mask-2" fill="white">
                <use xlink:href="#path-1"></use>
            </mask>
            <g id="蒙版"></g>
            <g id="uniswap-uni-logo-2" mask="url(#mask-2)" fill-rule="nonzero" stroke="#B5B5B5" stroke-width="1.56">
                <g transform="translate(0.000000, 1.000000)">
                    <path d="M18.55,31.605 C18.69,31.815 18.83,32.025 18.97,32.235 C23.485,39.2 27.965,46.13 32.48,53.095 C33.88,55.23 35.315,57.295 36.785,59.395 C37.52,60.48 38.57,61.145 39.865,61.39 C40.425,61.495 41.02,61.53 41.58,61.46 C42.56,61.32 43.505,61.04 44.415,60.655 C45.01,60.375 45.57,60.06 46.06,59.57 C46.865,58.73 47.005,57.82 46.41,56.84 C46.165,56.455 45.885,56.105 45.605,55.755 C42.245,51.625 38.92,47.46 35.525,43.33 C24.325,29.715 13.16,16.065 1.995,2.45 C1.575,1.925 1.155,1.4 0.77,0.84 C1.015,0.91 1.12,1.085 1.295,1.26 C3.78,3.99 6.3,6.685 8.785,9.415 C19.81,21.56 30.87,33.67 41.895,45.815 C44.905,49.14 47.88,52.465 50.89,55.79 C51.03,55.93 51.135,56.14 51.135,56.315 C51.1,57.225 51.065,58.17 50.96,59.08 C50.75,60.445 50.085,61.565 49.14,62.58 C47.67,64.12 45.885,65.17 43.855,65.66 C42.56,65.975 41.265,66.185 39.935,66.395 C39.025,66.57 38.115,66.745 37.38,67.34 C36.33,68.11 35.735,69.16 35.56,70.42 C35.385,71.505 35.28,72.625 35.175,73.71 C35,75.81 34.755,77.875 34.055,79.87 C33.565,81.235 32.97,82.565 32.41,83.895 C31.64,85.61 30.8,87.255 30.205,89.04 C29.54,91 29.505,92.96 30.17,94.955 C30.66,96.46 31.57,97.685 32.725,98.735 C33.635,99.54 34.58,100.275 35.56,101.01 C36.505,101.745 37.485,102.41 38.43,103.145 C39.13,103.705 39.795,104.335 40.32,105.07 C41.02,106.05 41.475,107.135 41.44,108.395 C41.44,109.06 41.44,109.69 41.405,110.355 C41.37,111.545 40.95,112.63 40.215,113.61 C39.13,115.01 37.835,116.165 36.365,117.11 C34.405,118.405 32.305,119.385 30.1,120.19 C27.79,120.995 25.48,121.66 23.065,122.045 C22.855,122.08 22.645,122.045 22.4,122.045 C22.33,121.1 21.98,120.365 21.56,119.63 C20.79,118.3 20.02,117.005 19.215,115.745 C18.165,114.1 17.185,112.42 16.485,110.6 C15.47,107.8 15.015,104.965 15.225,101.955 C15.4,99.19 16.38,96.705 17.92,94.5 C19.005,92.96 20.195,91.525 21.35,90.09 C23.17,87.78 24.955,85.47 26.425,82.915 C28.07,80.045 29.12,76.965 29.505,73.64 C29.75,71.785 30.03,69.965 30.555,68.145 C31.045,66.465 31.885,64.925 33.075,63.63 C33.425,63.245 33.74,62.86 34.02,62.44 C34.51,61.74 34.615,60.97 34.195,60.165 C33.285,58.415 32.41,56.665 31.465,54.95 C27.615,47.985 23.73,41.02 19.845,34.055 C19.425,33.285 19.005,32.515 18.585,31.745 C18.48,31.64 18.515,31.64 18.55,31.605 Z M24.5,104.335 C24.535,102.655 23.555,101.395 22.12,101.115 C21.525,101.01 20.93,101.045 20.405,101.43 C19.81,101.85 19.81,102.655 20.44,102.935 C20.51,102.97 20.545,102.97 20.615,103.005 C21.105,103.32 21.21,103.6 20.93,104.125 C20.79,104.37 20.65,104.615 20.545,104.895 C20.23,105.63 20.44,106.225 21.105,106.645 C21.805,107.1 22.68,107.03 23.38,106.435 C24.08,105.84 24.465,105.07 24.5,104.335 Z" id="形状"></path>
                    <path d="M118.58,100.31 C118.545,99.995 118.475,99.785 118.44,99.54 C118.335,97.055 117.39,94.885 115.885,92.96 C114.765,91.525 113.365,90.44 111.86,89.46 C109.83,88.13 107.66,87.045 105.455,86.1 C102.445,84.805 99.365,83.545 96.355,82.285 C92.925,80.85 89.565,79.31 86.45,77.28 C84.665,76.125 83.02,74.83 81.62,73.22 C79.625,70.945 78.505,68.285 78.295,65.275 C78.225,64.295 78.225,63.315 78.225,62.335 C78.225,62.055 78.26,61.81 78.295,61.46 C78.47,61.565 78.575,61.6 78.68,61.67 C81.095,63.84 84.035,64.96 87.15,65.59 C89.565,66.08 91.98,66.465 94.395,66.85 C97.475,67.34 100.59,67.76 103.6,68.565 C106.82,69.405 109.9,70.665 112.665,72.555 C117.32,75.775 120.225,80.15 121.24,85.715 C121.415,86.765 121.485,87.885 121.485,88.97 C121.485,90.965 121.38,92.96 120.925,94.885 C120.505,96.635 119.77,98.315 118.93,99.89 C118.86,99.995 118.79,100.1 118.72,100.205 C118.79,100.205 118.72,100.205 118.58,100.31 Z" id="路径"></path>
                    <path d="M113.715,69.335 C113.47,68.985 113.225,68.635 112.98,68.285 C111.79,66.535 110.25,65.1 108.325,64.19 C107.03,63.595 105.665,63.245 104.265,63.035 C102.375,62.755 100.45,62.615 98.525,62.51 C96.425,62.405 94.36,62.23 92.295,62.02 C89.04,61.705 85.89,61.005 82.81,59.815 C80.045,58.73 77.665,57.12 75.565,55.055 C73.43,52.955 71.575,50.61 69.72,48.23 C67.83,45.78 66.01,43.295 63.945,40.95 C62.265,39.06 60.48,37.275 58.45,35.735 C55.405,33.425 52.01,31.92 48.265,31.255 C47.565,31.115 46.9,31.01 46.2,30.8 C46.445,30.765 46.69,30.695 46.935,30.695 C47.95,30.73 49,30.73 50.015,30.835 C51.835,31.01 53.655,31.36 55.405,31.99 C58.03,32.935 60.375,34.335 62.545,36.05 C64.645,37.695 66.535,39.585 68.285,41.58 C68.565,41.895 68.845,42.175 69.09,42.525 C69.335,42.84 69.615,42.91 70,42.84 C72.8,42.35 75.635,42.035 78.505,42.07 C84.245,42.14 89.775,43.19 94.955,45.745 C96.425,46.445 97.825,47.355 99.225,48.16 C99.68,48.405 99.925,48.79 100.03,49.28 C100.45,51.38 100.695,53.48 100.415,55.615 C100.275,56.56 100.03,57.47 99.61,58.31 C99.505,58.555 99.365,58.765 99.26,59.01 C98.875,59.885 99.085,60.9 99.82,61.53 C100.59,62.195 101.57,62.3 102.445,61.74 C103.075,61.355 103.565,60.76 103.95,60.13 C104.685,58.975 105.21,57.68 105.56,56.35 C105.77,55.615 105.945,54.88 106.12,54.075 C106.225,54.145 106.33,54.18 106.4,54.25 C109.55,57.75 111.965,61.67 113.33,66.22 C113.575,67.305 113.715,68.285 113.715,69.335 Z" id="路径"></path>
                    <path d="M104.615,129.43 C104.825,129.01 105,128.59 105.21,128.135 C106.26,125.895 106.855,123.55 106.715,121.065 C106.61,118.825 105.98,116.725 105.035,114.695 C103.915,112.315 102.55,110.11 101.115,107.94 C99.47,105.42 97.755,102.935 96.11,100.415 C94.71,98.28 93.555,96.04 92.89,93.555 C92.19,90.895 92.05,88.235 92.715,85.54 C92.785,85.26 92.89,84.98 92.995,84.735 C93.1,84.49 93.275,84.455 93.485,84.525 C93.625,84.595 93.765,84.665 93.905,84.77 C96.495,86.24 99.085,87.745 101.71,89.18 C104.09,90.51 106.435,91.875 108.64,93.485 C110.565,94.885 112.315,96.495 113.715,98.455 C115.395,100.765 116.375,103.39 116.865,106.19 C117.075,107.415 117.145,108.675 117.075,109.935 C117.005,111.475 117.005,113.015 116.62,114.52 C115.045,121.17 111.405,126.245 105.21,129.36 C105.035,129.465 104.86,129.5 104.65,129.57 C104.685,129.5 104.65,129.465 104.615,129.43 Z" id="路径"></path>
                    <path d="M61.74,126.525 C60.375,126.21 59.605,124.95 59.955,123.585 C60.305,122.15 61.25,121.275 62.685,120.96 C64.54,120.54 66.22,121.065 67.62,122.325 C68.495,123.13 68.88,124.145 69.02,125.3 C69.265,127.89 68.495,129.99 66.325,131.495 C64.96,132.405 63.455,132.755 61.845,132.615 C59.78,132.405 57.96,131.67 56.42,130.235 C55.195,129.08 54.005,127.89 52.815,126.7 C52.185,126.105 51.555,125.51 50.925,124.95 C48.895,123.165 46.55,122.01 43.89,121.485 C42.28,121.17 40.635,120.89 38.99,120.61 C38.885,120.61 38.815,120.575 38.605,120.505 C38.78,120.295 38.92,120.155 39.06,120.015 C40.705,118.405 42.56,117.075 44.52,115.815 C48.02,113.575 51.8,111.895 55.825,110.845 C58.205,110.215 60.62,110.075 63.07,110.145 C66.115,110.25 68.985,110.95 71.68,112.385 C75.355,114.31 77.63,117.355 78.82,121.31 C79.415,123.27 79.73,125.265 80.045,127.26 C80.29,128.8 80.57,130.34 80.92,131.845 C81.2,133.035 81.76,134.155 82.46,135.17 C83.51,136.71 84.98,137.55 86.765,137.83 C89.04,138.215 91.245,137.865 93.415,137.13 C93.94,136.955 94.43,136.78 95.095,136.57 C94.955,136.745 94.885,136.815 94.85,136.85 C93.31,137.97 91.735,138.985 89.88,139.475 C85.82,140.525 82.32,139.51 79.485,136.36 C78.435,135.205 77.595,133.91 76.93,132.475 C76.195,130.865 75.46,129.22 74.69,127.61 C74.13,126.42 73.535,125.265 72.87,124.145 C71.47,121.835 69.51,120.12 66.99,119.14 C64.855,118.3 62.685,118.16 60.515,119.105 C58.31,120.085 57.085,121.8 57.015,124.215 C56.945,125.755 57.54,127.085 58.66,128.1 C59.745,129.115 61.04,129.71 62.545,129.955 C64.505,130.27 66.465,129.045 67.235,127.225 C67.62,126.28 67.69,125.3 67.445,124.32 C67.34,123.9 67.13,123.515 66.885,123.165 C65.94,121.905 63.945,121.24 62.405,121.66 C61.11,122.01 60.305,123.025 60.305,124.285 C60.305,125.125 60.655,125.755 61.355,126.175 C61.39,126.315 61.53,126.385 61.74,126.525 Z" id="路径"></path>
                    <path d="M45.885,34.09 C48.335,34.615 50.61,35.35 52.535,36.96 C53.62,37.87 54.355,39.025 54.915,40.285 C55.615,41.86 56.035,43.54 56.42,45.22 C56.735,46.69 57.085,48.125 57.435,49.595 C57.645,50.435 57.925,51.24 58.38,52.01 C59.08,53.2 59.815,54.39 60.515,55.615 C60.655,55.86 60.795,56.07 60.9,56.315 C61.075,56.77 60.935,57.05 60.48,57.225 C59.955,57.4 59.395,57.365 58.835,57.26 C57.47,57.05 56.28,56.455 55.125,55.72 C52.43,54.005 50.365,51.73 48.86,48.895 C47.25,45.885 46.235,42.7 45.815,39.34 C45.605,37.765 45.64,36.19 45.815,34.615 C45.78,34.475 45.815,34.335 45.885,34.09 Z" id="路径"></path>
                    <path d="M56.77,106.26 C56.98,106.12 57.19,105.945 57.4,105.805 C60.13,104.09 63.07,102.83 66.22,102.2 C68.67,101.71 71.12,101.29 73.57,100.835 C75.635,100.45 77.7,100.1 79.66,99.225 C80.85,98.7 82.005,98.07 83.055,97.23 C86.275,94.675 87.815,91.35 87.71,87.29 C87.675,85.47 87.325,83.72 86.73,82.005 C86.695,81.865 86.625,81.69 86.555,81.41 C86.73,81.585 86.835,81.655 86.94,81.76 C88.305,83.3 89.075,85.12 89.635,87.08 C89.705,87.325 89.74,87.57 89.74,87.815 C89.845,89.495 89.95,91.175 89.635,92.855 C89.285,94.675 88.41,96.285 87.29,97.755 C85.33,100.275 82.775,101.885 79.73,102.795 C77.875,103.355 75.985,103.705 74.06,103.81 C72.765,103.88 71.435,104.02 70.14,104.125 C69.405,104.195 68.67,104.23 67.935,104.265 C64.295,104.51 60.725,105 57.295,106.225 C57.12,106.295 56.945,106.33 56.77,106.365 C56.805,106.33 56.77,106.295 56.77,106.26 Z" id="路径"></path>
                    <path d="M53.305,76.86 C52.815,76.79 52.185,76.79 51.625,76.65 C50.47,76.37 49.805,75.635 49.56,74.48 C49.14,72.135 49.805,70.175 51.555,68.53 C52.745,67.445 54.11,67.06 55.685,67.235 C56.91,67.375 58.065,67.69 59.01,68.495 C60.095,69.405 60.9,70.455 61.18,71.89 C61.355,72.835 61.11,73.64 60.515,74.34 C59.99,74.935 59.36,75.39 58.66,75.705 C57.435,76.3 56.175,76.615 54.845,76.72 C54.355,76.755 53.865,76.79 53.305,76.86 Z M55.44,67.9 C54.67,67.935 53.9,68.11 53.27,68.6 C52.115,69.475 52.15,70.665 53.34,71.47 C54.74,72.415 56.175,72.38 57.645,71.435 C58.765,70.735 58.8,69.51 57.75,68.67 C57.085,68.145 56.315,67.935 55.44,67.9 Z" id="形状"></path>
                    <path d="M91.945,40.215 C92.505,40.355 93.065,40.495 93.625,40.67 C95.445,41.16 97.195,41.825 98.945,42.525 C99.435,42.7 99.925,42.875 100.415,43.015 C100.905,43.155 101.08,43.05 101.185,42.595 C101.29,42.175 101.325,41.72 101.36,41.265 C101.5,39.97 101.57,38.675 101.745,37.415 C101.92,36.015 102.41,34.72 103.145,33.495 C103.11,33.6 103.11,33.74 103.075,33.845 C102.725,34.79 102.585,35.77 102.55,36.785 C102.48,38.605 102.69,40.425 103.075,42.21 C103.32,43.26 103.775,44.17 104.475,44.975 C105.21,45.815 105.98,46.62 106.715,47.425 C108.115,48.965 109.55,50.505 110.95,52.045 C111.23,52.36 111.475,52.71 111.685,53.095 C111.58,52.99 111.44,52.885 111.335,52.78 C109.76,51.31 108.08,49.945 106.33,48.685 C106.015,48.44 105.7,48.265 105.35,48.055 C104.825,47.775 104.405,47.915 104.23,48.51 C104.125,48.825 104.09,49.175 104.055,49.525 C104.02,50.05 104.055,50.575 104.02,51.135 C103.985,52.92 103.81,54.705 103.285,56.42 C103.005,57.26 102.69,58.065 102.13,58.8 C102.165,58.695 102.165,58.59 102.2,58.52 C102.62,57.575 102.76,56.595 102.795,55.58 C102.83,53.55 102.83,51.52 102.62,49.49 C102.375,47.39 101.465,45.64 99.68,44.45 C98.56,43.715 97.405,42.98 96.215,42.35 C94.99,41.685 93.73,41.125 92.47,40.53 C92.295,40.425 92.12,40.355 91.945,40.25 C91.91,40.285 91.91,40.25 91.945,40.215 Z" id="路径"></path>
                    <path d="M0.315,0.245 C0.385,0.315 0.455,0.35 0.49,0.42 C0.49,0.42 0.455,0.455 0.455,0.455 C0.385,0.385 0.315,0.35 0.28,0.28 C0.28,0.28 0.28,0.245 0.315,0.245 Z" id="路径"></path>
                </g>
            </g>
        </g>
    </g>
</svg>