<?xml version="1.0" encoding="UTF-8"?>
<svg width="45px" height="45px" viewBox="0 0 45 45" version="1.1" xmlns="http://www.w3.org/2000/svg" xmlns:xlink="http://www.w3.org/1999/xlink" style="background: #000000;">
    <!-- Generator: Sketch 60 (88103) - https://sketch.com -->
    <title>USDT</title>
    <desc>Created with Sketch.</desc>
    <g id="USDT" stroke="none" stroke-width="1" fill="none" fill-rule="evenodd">
        <rect fill="#000000" x="0" y="0" width="45" height="45"></rect>
        <g id="编组-2">
            <g id="tether-seeklogo.com" fill-rule="nonzero">
                <path d="M22.5,0 C28.7134301,0 34.3388396,2.51894703 38.4106868,6.5912994 L6.590475,38.4107063 C2.51865,34.339275 0,28.714275 0,22.5 C0,10.07145 10.0728,0 22.5,0 Z" id="形状结合" fill="#53AE94"></path>
                <path d="M16.4311794,14.0443292 L16.4311794,11.6492665 L21.7557749,11.6492665 L21.7557749,8 L7.25674696,8 L7.25674696,11.6492665 L12.5819686,11.6492665 L12.5819686,14.0423971 C8.25411079,14.2468694 5,15.1285152 5,16.1846869 C5,17.2408587 8.25567601,18.1225045 12.5819686,18.3282648 L12.5819686,26 L16.4324315,26 L16.4324315,18.3276208 C20.7524632,18.1225045 24,17.2415027 24,16.186297 C24,15.1310912 20.7524632,14.2500894 16.4324315,14.0449732 M16.4324315,17.6778175 L16.4324315,17.6758855 C16.3238047,17.6829696 15.7656441,17.717424 14.5228523,17.717424 C13.5292451,17.717424 12.8302139,17.6884436 12.5838468,17.6752415 L12.5838468,17.6784615 C8.7603058,17.5042576 5.90626751,16.819356 5.90626751,15.9998569 C5.90626751,15.1803578 8.76061884,14.4964222 12.5838468,14.3218962 L12.5838468,16.996136 C12.8342835,17.0138462 13.5505322,17.0573166 14.5391307,17.0573166 C15.7265133,17.0573166 16.3234916,17.0064401 16.4330576,16.996136 L16.4330576,14.3218962 C20.2490856,14.4967442 23.0965499,15.1822898 23.0965499,15.9988909 C23.0965499,16.8154919 20.2478334,17.5013596 16.4330576,17.6762075" id="形状结合" fill="#FFFFFF"></path>
            </g>
            <g id="编组" transform="translate(6.000000, 6.000000)">
                <path d="M39,16.5 C39,28.9275493 28.9275493,39 16.5,39 C10.2867328,39 4.66132324,36.4812247 0.589435311,32.4089582 L32.410331,0.590428404 C36.4818873,4.66223787 39,10.2872379 39,16.5 Z" id="形状结合" fill="#F4F4F4" fill-rule="nonzero"></path>
                <path d="M28.8939295,25.2353806 L28.9907306,25.3273549 C29.4241424,25.789585 29.4241424,26.5391299 28.9907306,27.00136 L22.7537921,33.6533274 C22.3203804,34.1155575 21.6175668,34.1155575 21.1838513,33.6533274 C20.7504395,33.1907734 20.7504395,32.4412286 21.1838513,31.9789985 L27.4210935,25.3273549 C27.8235473,24.8981413 28.4582914,24.8674831 28.8939295,25.2353806 Z M22.8424791,20.8628016 C23.2758909,21.3253556 23.2758909,22.0745766 22.8424791,22.5371306 L18.894696,26.7474088 C18.4922421,27.1766224 17.8574981,27.2072806 17.4218599,26.8393831 L17.3250588,26.7474088 C16.8916471,26.2851786 16.8916471,25.5353099 17.3250588,25.0730798 L21.2725382,20.8628016 C21.7062538,20.4005715 22.4090673,20.4005715 22.8424791,20.8628016 Z M29.5787997,19.3440947 L29.6754494,19.4334048 C30.1081835,19.8822457 30.1081835,20.6100788 29.6754494,21.0589196 L25.7338388,25.1472403 C25.3011047,25.5960812 24.59939,25.5960812 24.1666559,25.1472403 C23.7339217,24.6983994 23.7339217,23.9705664 24.1666559,23.5217255 L28.1082665,19.4334048 C28.510091,19.016624 29.1438427,18.986854 29.5787997,19.3440947 Z M25.5791515,12.3273317 C25.999932,12.7640798 25.999932,13.4718074 25.5791515,13.9082497 L19.5236875,20.1887973 C19.1329628,20.5940651 18.5167177,20.6230128 18.0937758,20.2756404 L17.9997959,20.1887973 C17.5790154,19.7523551 17.5790154,19.0446275 17.9997959,18.6081852 L24.054965,12.3273317 C24.4757455,11.8908894 25.1580762,11.8908894 25.5791515,12.3273317 Z" id="形状结合" fill="#1969FF"></path>
            </g>
        </g>
    </g>
</svg>