<?xml version="1.0" encoding="UTF-8"?>
<svg width="45px" height="45px" viewBox="0 0 45 45" version="1.1" xmlns="http://www.w3.org/2000/svg" xmlns:xlink="http://www.w3.org/1999/xlink">
    <!-- Generator: Sketch 60 (88103) - https://sketch.com -->
    <title>SUTER</title>
    <desc>Created with Sketch.</desc>
    <g id="SUTER" stroke="none" stroke-width="1" fill="none" fill-rule="evenodd">
        <g id="multi-collateral-dai-dai-logo-3">
            <path d="M22.5,0 C34.9275493,0 45,10.0744757 45,22.5 C45,34.9275493 34.9275493,45 22.5,45 C10.0744757,45 0,34.9265368 0,22.5 C0,10.0744757 10.0744757,0 22.5,0 Z" id="路径" fill="#F4F4F4" fill-rule="nonzero"></path>
            <path d="M30.4092021,25.6712763 L30.524914,25.7794547 C31.158362,26.4307789 31.158362,27.4869557 30.524914,28.13828 L21.4093885,37.5115068 C20.7759405,38.1628311 19.7487515,38.1628311 19.1148596,37.5115068 C18.4814116,36.8597261 18.4814116,35.8035493 19.1148596,35.1522251 L28.230829,25.7794547 C28.8270153,25.1664436 29.7719826,25.1303842 30.4092021,25.6712763 Z M21.5390079,19.4884932 C22.1724559,20.1402739 22.1724559,21.1959942 21.5390079,21.8477749 L15.769171,27.7804396 C15.1729847,28.3934507 14.2280174,28.4295101 13.5907979,27.888618 L13.475086,27.7804396 C12.841638,27.1291154 12.841638,26.0724821 13.475086,25.4211579 L19.244479,19.4884932 C19.8783709,18.8371689 20.9055599,18.8371689 21.5390079,19.4884932 Z M31.4101258,17.3692983 L31.5256568,17.4743432 C32.1581144,18.1068008 32.1581144,19.1323837 31.5256568,19.7648413 L25.7648413,25.5256568 C25.1323837,26.1581144 24.1068008,26.1581144 23.4743432,25.5256568 C22.8418856,24.8931992 22.8418856,23.8676163 23.4743432,23.2351587 L29.2351587,17.4743432 C29.8304129,16.879089 30.7739027,16.844074 31.4101258,17.3692983 Z M25.5387599,7.4612401 C26.1537467,8.07665787 26.1537467,9.07391047 25.5387599,9.68889727 L16.6884663,18.5387599 C16.1096552,19.117571 15.192228,19.1516187 14.5735797,18.640903 L14.4612401,18.5387599 C13.8462533,17.9237731 13.8462533,16.9265205 14.4612401,16.3115337 L23.3111027,7.4612401 C23.9260895,6.8462533 24.9233421,6.8462533 25.5387599,7.4612401 Z" id="形状结合" fill="#B9AAFF"></path>
        </g>
    </g>
</svg>