<svg id="图层_1" data-name="图层 1" xmlns="http://www.w3.org/2000/svg" xmlns:xlink="http://www.w3.org/1999/xlink" viewBox="0 0 604 120"><defs><style>.cls-1{fill:url(#linear-gradient);}.cls-2{fill:url(#未命名的渐变_6);}.cls-3{fill:url(#未命名的渐变_5);}.cls-4{fill:#fff;}.cls-5{fill:#182cea;}</style><linearGradient id="linear-gradient" x1="46.13" y1="61.23" x2="54.9" y2="79.21" gradientTransform="translate(-10.14 -10.14)" gradientUnits="userSpaceOnUse"><stop offset="0" stop-color="#7c6ee9"/><stop offset="1" stop-color="#182cea"/></linearGradient><linearGradient id="未命名的渐变_6" x1="13.07" y1="83.94" x2="67.8" y2="83.94" gradientUnits="userSpaceOnUse"><stop offset="0" stop-color="#9dbcd8"/><stop offset="0.55" stop-color="#516ae2"/><stop offset="1" stop-color="#182cea"/></linearGradient><linearGradient id="未命名的渐变_5" x1="13.07" y1="36.31" x2="67.8" y2="36.31" gradientUnits="userSpaceOnUse"><stop offset="0" stop-color="#cfd8e6"/><stop offset="1" stop-color="#f0f0f0"/></linearGradient></defs><title>画板 1 副本 6-082</title><polygon class="cls-1" points="40.43 72.04 67.77 60.13 40.4 48.25 13.06 60.17 40.43 72.04"/><polygon class="cls-2" points="67.77 60.13 40.43 72.04 40.42 72.05 40.41 72.04 13.07 83.96 13.11 107.75 13.11 107.75 40.45 95.83 40.45 95.83 40.46 95.83 67.8 83.92 67.77 60.13 67.77 60.13"/><polygon class="cls-3" points="67.77 12.5 40.43 24.42 40.42 24.42 40.41 24.42 13.07 36.34 13.11 60.13 13.11 60.13 40.45 48.21 40.45 48.2 40.46 48.21 67.8 36.29 67.77 12.5 67.77 12.5"/><path class="cls-4" d="M107.26,83.65a14.19,14.19,0,0,1-5.65-4.4,11.1,11.1,0,0,1-2.28-6.14h9.32a5,5,0,0,0,2.08,3.5A7.21,7.21,0,0,0,115.26,78a7,7,0,0,0,4.13-1.06,3.2,3.2,0,0,0,1.49-2.71,2.87,2.87,0,0,0-1.82-2.68,35,35,0,0,0-5.79-2,49.62,49.62,0,0,1-6.7-2,11.72,11.72,0,0,1-4.5-3.24,8.75,8.75,0,0,1-1.88-5.89,9.5,9.5,0,0,1,1.75-5.55,11.8,11.8,0,0,1,5-4,18.82,18.82,0,0,1,7.7-1.46q6.56,0,10.45,3.27a12.13,12.13,0,0,1,4.29,8.83h-8.85a4.81,4.81,0,0,0-1.82-3.47,6.77,6.77,0,0,0-4.33-1.29,6.87,6.87,0,0,0-3.87.92,3,3,0,0,0-1.35,2.58A3,3,0,0,0,111,61.11a28.51,28.51,0,0,0,5.75,2,49.58,49.58,0,0,1,6.54,2,11.61,11.61,0,0,1,4.46,3.27,9,9,0,0,1,1.95,5.85A9.7,9.7,0,0,1,128,79.92a11.59,11.59,0,0,1-5,3.93,21.05,21.05,0,0,1-15.7-.2Z"/><path class="cls-4" d="M171.9,48.06V84.67h-9.32V80.05a12.21,12.21,0,0,1-4.66,3.73,14.46,14.46,0,0,1-6.24,1.36,15.51,15.51,0,0,1-7.6-1.82A12.76,12.76,0,0,1,138.89,78,17.66,17.66,0,0,1,137,69.54V48.06h9.26V68.22c0,2.9.72,5.14,2.18,6.7a8.78,8.78,0,0,0,12,0c1.46-1.56,2.18-3.8,2.18-6.7V48.06Z"/><path class="cls-4" d="M191.8,55.66V73.37a3.52,3.52,0,0,0,.89,2.68,4.4,4.4,0,0,0,3,.83H200v7.79h-5.82q-11.7,0-11.7-11.36V55.66h-4.36v-7.6h4.36V39h9.32v9.06H200v7.6Z"/><path class="cls-4" d="M240.45,69.14H213.68a9.06,9.06,0,0,0,2.77,6.21,8.57,8.57,0,0,0,6,2.25,7.54,7.54,0,0,0,7.33-4.43h10a16.69,16.69,0,0,1-6.09,8.7,17.71,17.71,0,0,1-11,3.4,19.05,19.05,0,0,1-9.49-2.35,16.4,16.4,0,0,1-6.54-6.64,20.28,20.28,0,0,1-2.35-9.91,20.81,20.81,0,0,1,2.31-10,16.22,16.22,0,0,1,6.48-6.6A20.77,20.77,0,0,1,232,49.71a15.81,15.81,0,0,1,6.41,6.38,19.27,19.27,0,0,1,2.28,9.48A22.64,22.64,0,0,1,240.45,69.14Zm-9.33-6.21a7.33,7.33,0,0,0-2.57-5.72,9.17,9.17,0,0,0-6.15-2.15,8.42,8.42,0,0,0-5.78,2.08,9.13,9.13,0,0,0-2.88,5.79Z"/><path class="cls-4" d="M261.37,49.18a12.93,12.93,0,0,1,6.57-1.65v9.71H265.5c-2.91,0-5.11.69-6.58,2s-2.21,3.75-2.21,7.14V84.67h-9.26V48.06h9.26v5.68A12.88,12.88,0,0,1,261.37,49.18Z"/><path class="cls-4" d="M292.89,82.56A9.84,9.84,0,0,1,288.63,75h3a7.39,7.39,0,0,0,3.21,5.56,13.28,13.28,0,0,0,7.83,2,9.62,9.62,0,0,0,6.51-2.09,6.48,6.48,0,0,0,2.41-5.12A4.82,4.82,0,0,0,310.34,72a8.54,8.54,0,0,0-3.2-2.08,53.2,53.2,0,0,0-5.23-1.59,51.17,51.17,0,0,1-6.41-2.08,10.79,10.79,0,0,1-4.16-3.07,8.26,8.26,0,0,1-1.72-5.49A7.93,7.93,0,0,1,291.14,53a10.3,10.3,0,0,1,4.23-3.4,14.44,14.44,0,0,1,6.15-1.26,14,14,0,0,1,9.09,2.81,10.2,10.2,0,0,1,3.73,7.77h-3a8,8,0,0,0-2.78-5.82,10.5,10.5,0,0,0-7.14-2.25,9.85,9.85,0,0,0-6.34,2,6,6,0,0,0-2.52,4.82A5.79,5.79,0,0,0,294,61.71a9.28,9.28,0,0,0,3.5,2.37A51.12,51.12,0,0,0,303,65.84a46.77,46.77,0,0,1,6,2A10.43,10.43,0,0,1,313,70.56a7.13,7.13,0,0,1,1.59,4.86,8.76,8.76,0,0,1-1.52,5A10.13,10.13,0,0,1,308.79,84a14.4,14.4,0,0,1-6.08,1.25A16.87,16.87,0,0,1,292.89,82.56Z"/><path class="cls-4" d="M350.23,52q4,3.93,4,11.67v21h-2.9V63.85q0-6.41-3.24-9.81a11.56,11.56,0,0,0-8.79-3.41A12.12,12.12,0,0,0,330,54.34q-3.48,3.69-3.47,11V84.67h-3V35.76h3V56.38a11.92,11.92,0,0,1,5.09-6.18,15.59,15.59,0,0,1,8.19-2.14A14.25,14.25,0,0,1,350.23,52Z"/><path class="cls-4" d="M364.51,40.09a2.75,2.75,0,0,1,0-3.73,2.55,2.55,0,0,1,3.57,0,2.58,2.58,0,0,1-3.57,3.73Zm3.24,8.69V84.67h-3V48.78Z"/><path class="cls-4" d="M410.84,67.89h-31A16.42,16.42,0,0,0,382,76a12.79,12.79,0,0,0,5.22,5,15.25,15.25,0,0,0,7.07,1.66A14.54,14.54,0,0,0,403.11,80a11.29,11.29,0,0,0,4.49-7.1h3.11a14.38,14.38,0,0,1-5.42,8.89,17.41,17.41,0,0,1-11,3.4,18,18,0,0,1-9-2.24,15.83,15.83,0,0,1-6.21-6.45,20.47,20.47,0,0,1-2.25-9.81A20.53,20.53,0,0,1,379,56.91a15.31,15.31,0,0,1,6.18-6.37,18.2,18.2,0,0,1,9.05-2.22,17.46,17.46,0,0,1,9,2.22A14.91,14.91,0,0,1,409,56.42a16.36,16.36,0,0,1,2,7.9A35,35,0,0,1,410.84,67.89Zm-4.53-10.51a11.92,11.92,0,0,0-5.12-4.93,15.42,15.42,0,0,0-7-1.62,15.25,15.25,0,0,0-7,1.62A12.79,12.79,0,0,0,382,57.38a16,16,0,0,0-2.15,8.06H408A14.74,14.74,0,0,0,406.31,57.38Z"/><path class="cls-4" d="M422.94,35.76V84.67h-3V35.76Z"/><path class="cls-4" d="M434.21,57a15.63,15.63,0,0,1,6.14-6.41,17.72,17.72,0,0,1,9-2.25,16.58,16.58,0,0,1,9.52,2.74,14.76,14.76,0,0,1,5.68,7.11V35.76h3V84.67h-3V75.16A14.79,14.79,0,0,1,459,82.39a16.21,16.21,0,0,1-9.65,2.81,17.53,17.53,0,0,1-9-2.28,15.84,15.84,0,0,1-6.14-6.47A20.56,20.56,0,0,1,432,66.7,20.36,20.36,0,0,1,434.21,57Zm28.35,1.42a13.88,13.88,0,0,0-5.32-5.55,14.78,14.78,0,0,0-7.53-2A15.27,15.27,0,0,0,442,52.78a13.1,13.1,0,0,0-5.16,5.46A18.2,18.2,0,0,0,435,66.7a18.2,18.2,0,0,0,1.85,8.46,13.15,13.15,0,0,0,5.19,5.48,15.91,15.91,0,0,0,15.21,0,13.69,13.69,0,0,0,5.32-5.55,17.63,17.63,0,0,0,1.91-8.36A17.16,17.16,0,0,0,462.56,58.4Z"/><rect class="cls-5" x="476" y="21" width="101" height="27" rx="9.19"/><path class="cls-4" d="M495,26.51V30h-5.56v2h4v3.34h-4v5.34H485V26.51Z"/><path class="cls-4" d="M496.54,31.94a4.61,4.61,0,0,1,1.67-2,4.25,4.25,0,0,1,2.38-.69,3.84,3.84,0,0,1,1.9.45,3.07,3.07,0,0,1,1.22,1.23V29.39h4.42V40.67h-4.42V39.13a3.07,3.07,0,0,1-1.22,1.23,3.84,3.84,0,0,1-1.9.45,4.25,4.25,0,0,1-2.38-.69,4.61,4.61,0,0,1-1.67-2,7.19,7.19,0,0,1-.61-3.09A7.19,7.19,0,0,1,496.54,31.94Zm6.71,1.69a1.64,1.64,0,0,0-2.36,0,2.36,2.36,0,0,0,0,2.8,1.64,1.64,0,0,0,2.36,0,2.36,2.36,0,0,0,0-2.8Z"/><path class="cls-4" d="M521.06,30.61a5.35,5.35,0,0,1,1.09,3.52v6.54h-4.42v-6a1.84,1.84,0,0,0-.43-1.27,1.5,1.5,0,0,0-1.15-.47,1.48,1.48,0,0,0-1.16.47,1.84,1.84,0,0,0-.42,1.27v6h-4.44V29.39h4.44v1.72a4,4,0,0,1,1.39-1.3,4.12,4.12,0,0,1,2.07-.5A3.74,3.74,0,0,1,521.06,30.61Z"/><path class="cls-4" d="M531.09,36.89v3.78h-1.68c-3.1,0-4.64-1.54-4.64-4.62v-3h-1.4v-3.7h1.4V26.67h4.44v2.72h1.84v3.7h-1.84v3a.75.75,0,0,0,.19.58.88.88,0,0,0,.63.18Z"/><path class="cls-4" d="M535.09,40.11a5.16,5.16,0,0,1-2.13-2A6.51,6.51,0,0,1,533,32a5.16,5.16,0,0,1,2.13-2,7,7,0,0,1,6.12,0,5.29,5.29,0,0,1,2.13,2,6.51,6.51,0,0,1,0,6.14,5.29,5.29,0,0,1-2.13,2,7,7,0,0,1-6.12,0Zm4.1-3.63a2.71,2.71,0,0,0,0-2.9,1.31,1.31,0,0,0-1-.49,1.3,1.3,0,0,0-1,.49,2.74,2.74,0,0,0,0,2.9,1.29,1.29,0,0,0,1,.49A1.31,1.31,0,0,0,539.19,36.48Z"/><path class="cls-4" d="M563.92,30.61a5,5,0,0,1,1.19,3.52v6.54h-4.42v-6a1.51,1.51,0,0,0-.43-1.13,1.62,1.62,0,0,0-1.15-.41,1.59,1.59,0,0,0-1.16.41,1.5,1.5,0,0,0-.42,1.13v6h-4.42v-6a1.51,1.51,0,0,0-.43-1.13,1.62,1.62,0,0,0-1.15-.41,1.59,1.59,0,0,0-1.16.41,1.5,1.5,0,0,0-.42,1.13v6h-4.44V29.39H550v1.52a3.44,3.44,0,0,1,1.31-1.16,4.13,4.13,0,0,1,2-.44,4.37,4.37,0,0,1,2.16.53,4,4,0,0,1,1.5,1.49,5,5,0,0,1,1.58-1.45,4.06,4.06,0,0,1,2.12-.57A4.31,4.31,0,0,1,563.92,30.61Z"/></svg>