<?xml version="1.0" encoding="UTF-8"?>
<svg width="107px" height="141px" viewBox="0 0 107 141" version="1.1" xmlns="http://www.w3.org/2000/svg" xmlns:xlink="http://www.w3.org/1999/xlink">
    <!-- Generator: Sketch 60 (88103) - https://sketch.com -->
    <title>形状结合</title>
    <desc>Created with Sketch.</desc>
    <defs>
        <polygon id="path-1" points="-1.03028697e-13 0 107 0 107 141 -1.03028697e-13 141"></polygon>
    </defs>
    <g id="页面-6" stroke="none" stroke-width="1" fill="none" fill-rule="evenodd" opacity="0.5">
        <g id="Shield-选中" transform="translate(-596.000000, -672.000000)">
            <g id="编组-6" transform="translate(443.000000, 655.000000)">
                <g id="形状结合" transform="translate(153.000000, 17.000000)">
                    <mask id="mask-2" fill="white">
                        <use xlink:href="#path-1"></use>
                    </mask>
                    <g id="蒙版"></g>
                    <path d="M68.2030075,0 C48.0240916,1.15370874 31.7620429,16.9245081 30.037594,37.0125 C44.5079051,14.966628 71.6570057,4.85184112 97.0726491,12.0376286 C122.488293,19.2234162 140.278806,42.0440203 141,68.385 C139.8434,48.2565314 124.033075,32.0351378 103.894737,30.315 C125.950982,44.7101647 136.108982,71.7048674 128.996108,97.0214439 C121.883235,122.33802 99.1406279,140.135222 72.7969925,141 C92.6594912,139.870959 108.72158,124.447976 110.609023,104.6925 C95.9520463,126.508855 68.8215122,136.348394 43.5402101,129.016615 C18.258908,121.684835 0.646114346,98.8693734 -1.84741111e-13,72.615 C1.13374048,92.6217106 16.7520697,108.800197 36.7518797,110.685 C15.1219858,95.9956565 5.34451804,69.1463732 12.4801844,44.0340392 C19.6158507,18.9217052 42.0629069,1.18329037 68.2030075,0 Z M80.1837706,47.7780091 C69.1440874,43.1529339 56.3664797,46.9536976 49.6693319,56.8546827 C42.9721841,66.7556677 44.2220398,79.9973976 52.6541353,88.4775 C57.2841624,93.2470931 63.6675877,95.9214291 70.3233083,95.8804743 C82.2969675,95.9488885 92.6508536,87.5685463 95.0496131,75.8667515 C97.4483726,64.1649567 91.2234538,52.4030844 80.1837706,47.7780091 Z" stroke="#B5B5B5" stroke-width="1.716" mask="url(#mask-2)"></path>
                </g>
            </g>
        </g>
    </g>
</svg>