<?xml version="1.0" encoding="UTF-8"?>
<svg width="25px" height="22px" viewBox="0 0 25 22" version="1.1" xmlns="http://www.w3.org/2000/svg" xmlns:xlink="http://www.w3.org/1999/xlink">
    <!-- Generator: Sketch 60 (88103) - https://sketch.com -->
    <title>twitter</title>
    <desc>Created with Sketch.</desc>
    <g id="页面-3" stroke="none" stroke-width="1" fill="none" fill-rule="evenodd">
        <g id="编组-18" fill="#b9aaff" fill-rule="nonzero">
            <g id="twitter">
                <path d="M25.0097656,3.11132812 C24.3637385,3.97264897 23.5828525,4.72398792 22.6972656,5.33632813 L22.6972656,6.02382812 C22.7043607,10.1098009 21.0714823,14.0277191 18.1646886,16.8992647 C15.2578949,19.7708103 11.3203478,21.3557701 7.23476563,21.2988281 C4.87280217,21.3067147 2.54108442,20.7676387 0.422265615,19.7238281 C0.308019138,19.6739678 0.234331554,19.5609801 0.234765615,19.4363281 L0.234765615,19.2988281 C0.234765615,19.2126328 0.269006591,19.1299677 0.329955919,19.0690184 C0.390905246,19.0080691 0.473570273,18.9738281 0.559765635,18.9738281 C2.88151925,18.897344 5.12044362,18.0927306 6.95976563,16.6738281 C4.85825738,16.6315299 2.96743504,15.3871841 2.09726563,13.4738281 C2.05331253,13.3693194 2.06699806,13.2494593 2.13337819,13.1575483 C2.19975833,13.0656374 2.30923761,13.0149616 2.42226563,13.0238281 C3.06096069,13.0879986 3.70603742,13.0285837 4.32226562,12.8488281 C2.00237443,12.3674886 0.259236326,10.4424578 0.00976561523,8.08632812 C0.000899081341,7.9733001 0.0515748404,7.86382082 0.143485802,7.79744068 C0.235396764,7.73106055 0.355256898,7.71737502 0.459765615,7.76132812 C1.08232346,8.03590167 1.75437225,8.18051977 2.43476563,8.18632813 C0.40199149,6.85275152 -0.476032597,4.31623748 0.297265635,2.01132812 C0.377088268,1.78735674 0.56886157,1.62190158 0.802112826,1.57576397 C1.03536408,1.52962636 1.27568614,1.60961211 1.43476562,1.78632812 C4.17786811,4.70442557 7.94693485,6.44330535 11.9472656,6.63632813 C11.8447988,6.22764569 11.7943994,5.80765051 11.7972656,5.38632812 C11.8346799,3.17711344 13.2022545,1.2091013 15.2597434,0.403639583 C17.3172324,-0.401822132 19.657438,0.114675515 21.1847656,1.71132812 C22.2258795,1.51308702 23.2323774,1.16355009 24.1722656,0.673828125 C24.2411128,0.630864874 24.3284184,0.630864874 24.3972656,0.673828125 C24.4402289,0.742675322 24.4402289,0.829980928 24.3972656,0.898828125 C23.9420163,1.94083266 23.1729328,2.81479119 22.1972656,3.39882812 C23.051643,3.29979612 23.8910057,3.09834907 24.6972656,2.79882812 C24.7651547,2.75264073 24.8543765,2.75264073 24.9222656,2.79882812 C24.9791291,2.8248352 25.0216522,2.87456643 25.0385118,2.93477919 C25.0553714,2.99499195 25.044856,3.05957398 25.0097656,3.11132813 L25.0097656,3.11132812 Z" id="路径"></path>
            </g>
        </g>
    </g>
</svg>