<?xml version="1.0" encoding="UTF-8"?>
<svg width="30px" height="30px" viewBox="0 0 30 30" version="1.1" xmlns="http://www.w3.org/2000/svg" xmlns:xlink="http://www.w3.org/1999/xlink">
    <title>编组 4</title>
    <g id="页面-1" stroke="none" stroke-width="1" fill="none" fill-rule="evenodd">
        <g id="Shield-选择unit" transform="translate(-705.000000, -233.000000)">
            <g id="编组-6" transform="translate(496.000000, 170.000000)">
                <g id="编组-5" transform="translate(0.000000, 63.000000)">
                    <g id="编组-4" transform="translate(209.000000, 0.000000)">
                        <circle id="椭圆形" fill="#b9aaff" cx="15" cy="15" r="15"></circle>
                        <g id="一对多_one-to-many" transform="translate(6.000000, 6.000000)">
                            <rect id="矩形" fill-opacity="0.01" fill="#FFFFFF" fill-rule="nonzero" x="0" y="0" width="18" height="18"></rect>
                            <path d="M15.75,2.625 L2.25,2.625 C1.83578625,2.625 1.5,2.96078625 1.5,3.375 L1.5,14.625 C1.5,15.039225 1.83578625,15.375 2.25,15.375 L15.75,15.375 C16.164225,15.375 16.5,15.039225 16.5,14.625 L16.5,3.375 C16.5,2.96078625 16.164225,2.625 15.75,2.625 Z" id="路径" stroke="#0B0E12" stroke-width="1.125"></path>
                            <polyline id="路径" stroke="#0B0E12" stroke-width="1.125" stroke-linecap="round" stroke-linejoin="round" points="4.125 7.7174625 5.625 6.75 5.625 11.25"></polyline>
                            <polyline id="路径" stroke="#0B0E12" stroke-width="1.125" stroke-linecap="round" stroke-linejoin="round" points="10.875 11.25 10.875 6.75 13.875 11.25 13.875 6.75"></polyline>
                            <line x1="8.25" y1="7.5" x2="8.25" y2="7.875" id="路径" stroke="#0B0E12" stroke-width="1.125" stroke-linecap="round"></line>
                            <line x1="8.25" y1="10.125" x2="8.25" y2="10.5" id="路径" stroke="#0B0E12" stroke-width="1.125" stroke-linecap="round"></line>
                        </g>
                    </g>
                </g>
            </g>
        </g>
    </g>
</svg>