<?xml version="1.0" encoding="UTF-8"?>
<svg width="22px" height="22px" viewBox="0 0 22 22" version="1.1" xmlns="http://www.w3.org/2000/svg" xmlns:xlink="http://www.w3.org/1999/xlink">
    <!-- Generator: Sketch 60 (88103) - https://sketch.com -->
    <title>gantanhao-2</title>
    <desc>Created with Sketch.</desc>
    <g id="页面-1" stroke="none" stroke-width="1" fill="none" fill-rule="evenodd">
        <g id="Shield-2" transform="translate(-305.000000, -97.000000)" fill="#B9AAFF" fill-rule="nonzero">
            <g id="编组-7" transform="translate(285.000000, 88.000000)">
                <g id="gantanhao-2" transform="translate(20.000000, 9.000000)">
                    <path d="M10.6875,0.0208359375 C4.82083594,0.0208359375 0.0208359375,4.82083594 0.0208359375,10.6875 C0.0208359375,16.5541641 4.82083594,21.3541641 10.6875,21.3541641 C16.5541641,21.3541641 21.3541641,16.5541641 21.3541641,10.6875 C21.3541641,4.82083594 16.5541641,0.0208359375 10.6875,0.0208359375 M10.6875,20.0208281 C5.48749219,20.0208281 1.35417187,15.8875078 1.35417187,10.6875 C1.35417187,5.48749219 5.48749219,1.35417187 10.6875,1.35417187 C15.8875078,1.35417187 20.0208281,5.48749219 20.0208281,10.6875 C20.0208281,15.8875078 15.8875078,20.0208281 10.6875,20.0208281" id="形状"></path>
                    <path d="M10.6875,14.6875078 C10.2874922,14.6875078 10.0208438,14.8208438 9.75417188,15.0874922 C9.4875,15.3541641 9.35416406,15.6208359 9.35416406,16.0208438 C9.35416406,16.4208281 9.4875,16.6875078 9.75417188,16.9541719 C10.0208438,17.2208438 10.2874922,17.3541563 10.6875,17.3541563 C11.0875078,17.3541563 11.3541641,17.2208438 11.6208281,16.9541719 C11.8875,16.6875078 12.0208594,16.4208281 12.0208594,16.0208438 C12.0208594,15.6208359 11.8875234,15.3541641 11.6208516,15.0874922 C11.3541797,14.8208438 11.0875313,14.6875078 10.6875234,14.6875078 L10.6875,14.6875078 Z M9.4875,4.02084375 L9.88750781,13.6208438 L11.3541562,13.6208438 L11.8875,4.02084375 L9.4875,4.02084375 Z" id="形状"></path>
                </g>
            </g>
        </g>
    </g>
</svg>